<svg width="287" height="37" viewBox="0 0 287 37" fill="none" xmlns="http://www.w3.org/2000/svg">
    <rect width="287" height="37" rx="18.5" fill="#2757D2"/>
    <path d="M127.008 20.074C127.008 16.784 122.15 17.554 122.15 15.846C122.15 15.23 122.584 14.936 123.158 14.95C123.802 14.964 124.25 15.342 124.292 15.972H126.882C126.784 14.096 125.342 13.032 123.2 13.032C121.142 13.032 119.616 14.068 119.616 15.93C119.588 19.416 124.502 18.436 124.502 20.256C124.502 20.83 124.054 21.18 123.354 21.18C122.682 21.18 122.206 20.816 122.136 20.06H119.588C119.658 22.048 121.31 23.098 123.424 23.098C125.72 23.098 127.008 21.726 127.008 20.074ZM128.481 23H130.875V15.188H128.481V23ZM129.685 14.376C130.525 14.376 131.099 13.802 131.099 13.088C131.099 12.36 130.525 11.786 129.685 11.786C128.831 11.786 128.257 12.36 128.257 13.088C128.257 13.802 128.831 14.376 129.685 14.376ZM132.134 19.08C132.134 21.544 133.66 23.112 135.578 23.112C136.726 23.112 137.552 22.566 137.986 21.88V22.986C137.986 24.302 137.272 24.778 136.362 24.778C135.536 24.778 134.948 24.4 134.794 23.812H132.428C132.638 25.674 134.15 26.85 136.474 26.85C139.176 26.85 140.38 25.072 140.38 22.986V15.188H137.986V16.294C137.566 15.594 136.726 15.076 135.578 15.076C133.66 15.076 132.134 16.616 132.134 19.08ZM137.986 19.094C137.986 20.34 137.188 21.026 136.278 21.026C135.382 21.026 134.57 20.326 134.57 19.08C134.57 17.834 135.382 17.162 136.278 17.162C137.188 17.162 137.986 17.848 137.986 19.094ZM147.502 23H149.882V18.436C149.882 16.336 148.678 15.104 146.872 15.104C145.822 15.104 144.982 15.566 144.506 16.224V15.188H142.112V23H144.506V18.758C144.506 17.694 145.094 17.106 146.004 17.106C146.914 17.106 147.502 17.694 147.502 18.758V23ZM154.513 23H156.907V15.188H154.513V23ZM155.717 14.376C156.557 14.376 157.131 13.802 157.131 13.088C157.131 12.36 156.557 11.786 155.717 11.786C154.863 11.786 154.289 12.36 154.289 13.088C154.289 13.802 154.863 14.376 155.717 14.376ZM164.031 23H166.411V18.436C166.411 16.336 165.207 15.104 163.401 15.104C162.351 15.104 161.511 15.566 161.035 16.224V15.188H158.641V23H161.035V18.758C161.035 17.694 161.623 17.106 162.533 17.106C163.443 17.106 164.031 17.694 164.031 18.758V23Z"
          fill="white"/>
</svg>
