<svg width="189" height="24" viewBox="0 0 189 24" fill="none" xmlns="http://www.w3.org/2000/svg">
    <path d="M7.0913 5.859C7.0913 3.978 5.7143 2.655 3.9413 2.655C2.1773 2.655 0.791297 3.978 0.791297 5.859C0.791297 7.74 2.1773 9.063 3.9413 9.063C5.7143 9.063 7.0913 7.74 7.0913 5.859ZM1.6283 5.859C1.6283 4.32 2.6183 3.366 3.9413 3.366C5.2643 3.366 6.2543 4.32 6.2543 5.859C6.2543 7.389 5.2643 8.352 3.9413 8.352C2.6183 8.352 1.6283 7.389 1.6283 5.859ZM12.5465 4.068H11.7275V6.777C11.7275 7.839 11.1605 8.361 10.3145 8.361C9.48649 8.361 8.93749 7.848 8.93749 6.849V4.068H8.12749V6.957C8.12749 8.37 9.01849 9.072 10.1525 9.072C10.8095 9.072 11.4125 8.784 11.7275 8.271V9H12.5465V4.068ZM14.7483 6.318C14.7483 5.175 15.3423 4.824 16.1253 4.824H16.3413V3.978C15.5583 3.978 15.0273 4.32 14.7483 4.869V4.068H13.9293V9H14.7483V6.318ZM23.2322 7.659C23.1962 5.895 20.3342 6.534 20.3342 5.364C20.3342 4.968 20.6942 4.68 21.2972 4.68C21.9542 4.68 22.3322 5.04 22.3682 5.535H23.1872C23.1332 4.572 22.4132 3.987 21.3242 3.987C20.2262 3.987 19.5152 4.608 19.5152 5.364C19.5152 7.2 22.4312 6.561 22.4312 7.659C22.4312 8.064 22.0712 8.388 21.4232 8.388C20.7302 8.388 20.3072 8.028 20.2622 7.551H19.4162C19.4702 8.451 20.2802 9.081 21.4322 9.081C22.5212 9.081 23.2322 8.469 23.2322 7.659ZM28.7623 4.068H27.9433V6.777C27.9433 7.839 27.3763 8.361 26.5303 8.361C25.7023 8.361 25.1533 7.848 25.1533 6.849V4.068H24.3433V6.957C24.3433 8.37 25.2343 9.072 26.3683 9.072C27.0253 9.072 27.6283 8.784 27.9433 8.271V9H28.7623V4.068ZM30.9641 4.977V4.068H30.1451V11.34H30.9641V8.091C31.2701 8.595 31.9091 9.081 32.8091 9.081C34.1321 9.081 35.1491 8.046 35.1491 6.516C35.1491 4.977 34.1321 3.987 32.8091 3.987C31.9091 3.987 31.2611 4.455 30.9641 4.977ZM34.3121 6.516C34.3121 7.677 33.5471 8.361 32.6381 8.361C31.7471 8.361 30.9641 7.686 30.9641 6.525C30.9641 5.382 31.7471 4.698 32.6381 4.698C33.5471 4.698 34.3121 5.355 34.3121 6.516ZM37.0462 4.977V4.068H36.2272V11.34H37.0462V8.091C37.3522 8.595 37.9912 9.081 38.8912 9.081C40.2142 9.081 41.2312 8.046 41.2312 6.516C41.2312 4.977 40.2142 3.987 38.8912 3.987C37.9912 3.987 37.3432 4.455 37.0462 4.977ZM40.3942 6.516C40.3942 7.677 39.6292 8.361 38.7202 8.361C37.8292 8.361 37.0462 7.686 37.0462 6.525C37.0462 5.382 37.8292 4.698 38.7202 4.698C39.6292 4.698 40.3942 5.355 40.3942 6.516ZM46.9892 6.525C46.9892 4.968 45.9002 3.987 44.4962 3.987C43.1012 3.987 42.0032 4.968 42.0032 6.525C42.0032 8.091 43.0652 9.081 44.4602 9.081C45.8642 9.081 46.9892 8.091 46.9892 6.525ZM42.8402 6.525C42.8402 5.283 43.6232 4.698 44.4872 4.698C45.3332 4.698 46.1522 5.283 46.1522 6.525C46.1522 7.776 45.3152 8.361 44.4602 8.361C43.6052 8.361 42.8402 7.776 42.8402 6.525ZM48.885 6.318C48.885 5.175 49.479 4.824 50.262 4.824H50.478V3.978C49.695 3.978 49.164 4.32 48.885 4.869V4.068H48.066V9H48.885V6.318ZM51.6035 7.65C51.6035 8.64 52.0985 9 52.9715 9H53.7095V8.307H53.1065C52.6025 8.307 52.4225 8.136 52.4225 7.65V4.743H53.7095V4.068H52.4225V2.826H51.6035V4.068H50.9645V4.743H51.6035V7.65ZM57.2812 7.65C57.2812 8.64 57.7762 9 58.6492 9H59.3872V8.307H58.7842C58.2802 8.307 58.1002 8.136 58.1002 7.65V4.743H59.3872V4.068H58.1002V2.826H57.2812V4.068H56.6422V4.743H57.2812V7.65ZM62.4765 4.68C63.3225 4.68 64.0425 5.211 64.0335 6.174H60.9195C61.0095 5.211 61.6755 4.68 62.4765 4.68ZM64.7805 7.479H63.8985C63.7185 8.01 63.2505 8.388 62.5125 8.388C61.6755 8.388 60.9735 7.839 60.9105 6.84H64.8525C64.8705 6.669 64.8795 6.525 64.8795 6.345C64.8795 4.995 63.9435 3.987 62.5125 3.987C61.0725 3.987 60.0735 4.968 60.0735 6.525C60.0735 8.091 61.1085 9.081 62.5125 9.081C63.7365 9.081 64.5285 8.379 64.7805 7.479ZM65.6546 6.516C65.6546 8.046 66.6716 9.081 67.9856 9.081C68.8946 9.081 69.5336 8.613 69.8306 8.082V9H70.6586V4.068H69.8306V4.968C69.5426 4.455 68.9126 3.987 67.9946 3.987C66.6716 3.987 65.6546 4.977 65.6546 6.516ZM69.8306 6.525C69.8306 7.686 69.0566 8.361 68.1566 8.361C67.2566 8.361 66.4916 7.677 66.4916 6.516C66.4916 5.355 67.2566 4.698 68.1566 4.698C69.0566 4.698 69.8306 5.382 69.8306 6.525ZM79.1616 9H79.9716V6.093C79.9716 4.68 79.0986 3.978 77.9736 3.978C77.2176 3.978 76.5156 4.365 76.2276 5.076C75.9036 4.338 75.2286 3.978 74.4186 3.978C73.7706 3.978 73.1856 4.257 72.8616 4.779V4.068H72.0426V9H72.8616V6.282C72.8616 5.22 73.4286 4.689 74.2566 4.689C75.0666 4.689 75.6066 5.202 75.6066 6.21V9H76.4166V6.282C76.4166 5.22 76.9836 4.689 77.8116 4.689C78.6216 4.689 79.1616 5.202 79.1616 6.21V9ZM83.7145 9H84.5335V4.068H83.7145V9ZM84.1375 3.267C84.4345 3.267 84.6775 3.024 84.6775 2.709C84.6775 2.394 84.4345 2.151 84.1375 2.151C83.8225 2.151 83.5795 2.394 83.5795 2.709C83.5795 3.024 83.8225 3.267 84.1375 3.267ZM89.4753 7.659C89.4393 5.895 86.5773 6.534 86.5773 5.364C86.5773 4.968 86.9373 4.68 87.5403 4.68C88.1973 4.68 88.5753 5.04 88.6113 5.535H89.4303C89.3763 4.572 88.6563 3.987 87.5673 3.987C86.4693 3.987 85.7583 4.608 85.7583 5.364C85.7583 7.2 88.6743 6.561 88.6743 7.659C88.6743 8.064 88.3143 8.388 87.6663 8.388C86.9733 8.388 86.5503 8.028 86.5053 7.551H85.6593C85.7133 8.451 86.5233 9.081 87.6753 9.081C88.7643 9.081 89.4753 8.469 89.4753 7.659ZM92.7249 6.516C92.7249 8.046 93.7419 9.081 95.0559 9.081C95.9649 9.081 96.6039 8.613 96.9009 8.082V9H97.7289V4.068H96.9009V4.968C96.6129 4.455 95.9829 3.987 95.0649 3.987C93.7419 3.987 92.7249 4.977 92.7249 6.516ZM96.9009 6.525C96.9009 7.686 96.1269 8.361 95.2269 8.361C94.3269 8.361 93.5619 7.677 93.5619 6.516C93.5619 5.355 94.3269 4.698 95.2269 4.698C96.1269 4.698 96.9009 5.382 96.9009 6.525ZM99.2929 7.65C99.2929 8.64 99.7879 9 100.661 9H101.399V8.307H100.796C100.292 8.307 100.112 8.136 100.112 7.65V4.743H101.399V4.068H100.112V2.826H99.2929V4.068H98.6539V4.743H99.2929V7.65ZM106.663 8.064L105.115 4.068H104.206L106.195 8.946L105.223 11.322H106.069L109.039 4.068H108.193L106.663 8.064ZM114.542 6.525C114.542 4.968 113.453 3.987 112.049 3.987C110.654 3.987 109.556 4.968 109.556 6.525C109.556 8.091 110.618 9.081 112.013 9.081C113.417 9.081 114.542 8.091 114.542 6.525ZM110.393 6.525C110.393 5.283 111.176 4.698 112.04 4.698C112.886 4.698 113.705 5.283 113.705 6.525C113.705 7.776 112.868 8.361 112.013 8.361C111.158 8.361 110.393 7.776 110.393 6.525ZM119.993 4.068H119.174V6.777C119.174 7.839 118.607 8.361 117.761 8.361C116.933 8.361 116.384 7.848 116.384 6.849V4.068H115.574V6.957C115.574 8.37 116.465 9.072 117.599 9.072C118.256 9.072 118.859 8.784 119.174 8.271V9H119.993V4.068ZM122.195 6.318C122.195 5.175 122.789 4.824 123.572 4.824H123.788V3.978C123.005 3.978 122.474 4.32 122.195 4.869V4.068H121.376V9H122.195V6.318ZM126.826 6.516C126.826 8.046 127.843 9.081 129.166 9.081C130.066 9.081 130.705 8.622 131.002 8.073V9H131.83V2.34H131.002V4.95C130.66 4.383 129.949 3.987 129.175 3.987C127.843 3.987 126.826 4.977 126.826 6.516ZM131.002 6.525C131.002 7.686 130.228 8.361 129.328 8.361C128.428 8.361 127.663 7.677 127.663 6.516C127.663 5.355 128.428 4.698 129.328 4.698C130.228 4.698 131.002 5.382 131.002 6.525ZM133.214 9H134.033V4.068H133.214V9ZM133.637 3.267C133.934 3.267 134.177 3.024 134.177 2.709C134.177 2.394 133.934 2.151 133.637 2.151C133.322 2.151 133.079 2.394 133.079 2.709C133.079 3.024 133.322 3.267 133.637 3.267ZM138.975 7.659C138.939 5.895 136.077 6.534 136.077 5.364C136.077 4.968 136.437 4.68 137.04 4.68C137.697 4.68 138.075 5.04 138.111 5.535H138.93C138.876 4.572 138.156 3.987 137.067 3.987C135.969 3.987 135.258 4.608 135.258 5.364C135.258 7.2 138.174 6.561 138.174 7.659C138.174 8.064 137.814 8.388 137.166 8.388C136.473 8.388 136.05 8.028 136.005 7.551H135.159C135.213 8.451 136.023 9.081 137.175 9.081C138.264 9.081 138.975 8.469 138.975 7.659ZM140.95 4.977V4.068H140.131V11.34H140.95V8.091C141.256 8.595 141.895 9.081 142.795 9.081C144.118 9.081 145.135 8.046 145.135 6.516C145.135 4.977 144.118 3.987 142.795 3.987C141.895 3.987 141.247 4.455 140.95 4.977ZM144.298 6.516C144.298 7.677 143.533 8.361 142.624 8.361C141.733 8.361 140.95 7.686 140.95 6.525C140.95 5.382 141.733 4.698 142.624 4.698C143.533 4.698 144.298 5.355 144.298 6.516ZM150.894 6.525C150.894 4.968 149.805 3.987 148.401 3.987C147.006 3.987 145.908 4.968 145.908 6.525C145.908 8.091 146.97 9.081 148.365 9.081C149.769 9.081 150.894 8.091 150.894 6.525ZM146.745 6.525C146.745 5.283 147.528 4.698 148.392 4.698C149.238 4.698 150.057 5.283 150.057 6.525C150.057 7.776 149.22 8.361 148.365 8.361C147.51 8.361 146.745 7.776 146.745 6.525ZM155.516 7.659C155.48 5.895 152.618 6.534 152.618 5.364C152.618 4.968 152.978 4.68 153.581 4.68C154.238 4.68 154.616 5.04 154.652 5.535H155.471C155.417 4.572 154.697 3.987 153.608 3.987C152.51 3.987 151.799 4.608 151.799 5.364C151.799 7.2 154.715 6.561 154.715 7.659C154.715 8.064 154.355 8.388 153.707 8.388C153.014 8.388 152.591 8.028 152.546 7.551H151.7C151.754 8.451 152.564 9.081 153.716 9.081C154.805 9.081 155.516 8.469 155.516 7.659ZM156.366 6.516C156.366 8.046 157.383 9.081 158.697 9.081C159.606 9.081 160.245 8.613 160.542 8.082V9H161.37V4.068H160.542V4.968C160.254 4.455 159.624 3.987 158.706 3.987C157.383 3.987 156.366 4.977 156.366 6.516ZM160.542 6.525C160.542 7.686 159.768 8.361 158.868 8.361C157.968 8.361 157.203 7.677 157.203 6.516C157.203 5.355 157.968 4.698 158.868 4.698C159.768 4.698 160.542 5.382 160.542 6.525ZM162.755 9H163.574V2.34H162.755V9ZM167.135 8.928H171.464V8.244H168.368C169.529 7.299 171.275 5.922 171.275 4.302C171.275 3.096 170.483 2.376 169.259 2.376C168.089 2.376 167.216 3.096 167.162 4.482H167.954C167.99 3.663 168.422 3.078 169.268 3.078C170.15 3.078 170.465 3.618 170.465 4.338C170.465 5.67 168.845 6.966 167.135 8.343V8.928ZM175.543 9H176.353V7.551H177.253V6.84H176.353V2.556H175.372L172.213 6.93V7.551H175.543V9ZM173.158 6.84L175.579 3.411V6.84H173.158ZM177.99 10.53H178.8L181.266 0.522H180.447L177.99 10.53ZM182.09 2.511V3.213H185.564L183.026 9H183.854L186.356 3.132V2.511H182.09ZM188.2 8.496C188.2 8.181 187.957 7.938 187.66 7.938C187.345 7.938 187.102 8.181 187.102 8.496C187.102 8.811 187.345 9.054 187.66 9.054C187.957 9.054 188.2 8.811 188.2 8.496ZM14.3396 19.706V17.402H15.5456C16.4816 17.402 16.8776 17.834 16.8776 18.563C16.8776 19.265 16.4816 19.706 15.5456 19.706H14.3396ZM17.7146 18.563C17.7146 17.537 17.0216 16.727 15.5456 16.727H13.5206V23H14.3396V20.381H15.5456C17.1026 20.381 17.7146 19.517 17.7146 18.563ZM18.7326 23H19.5516V16.34H18.7326V23ZM23.0444 18.68C23.8904 18.68 24.6104 19.211 24.6014 20.174H21.4874C21.5774 19.211 22.2434 18.68 23.0444 18.68ZM25.3484 21.479H24.4664C24.2864 22.01 23.8184 22.388 23.0804 22.388C22.2434 22.388 21.5414 21.839 21.4784 20.84H25.4204C25.4384 20.669 25.4474 20.525 25.4474 20.345C25.4474 18.995 24.5114 17.987 23.0804 17.987C21.6404 17.987 20.6414 18.968 20.6414 20.525C20.6414 22.091 21.6764 23.081 23.0804 23.081C24.3044 23.081 25.0964 22.379 25.3484 21.479ZM26.2224 20.516C26.2224 22.046 27.2394 23.081 28.5534 23.081C29.4624 23.081 30.1014 22.613 30.3984 22.082V23H31.2264V18.068H30.3984V18.968C30.1104 18.455 29.4804 17.987 28.5624 17.987C27.2394 17.987 26.2224 18.977 26.2224 20.516ZM30.3984 20.525C30.3984 21.686 29.6244 22.361 28.7244 22.361C27.8244 22.361 27.0594 21.677 27.0594 20.516C27.0594 19.355 27.8244 18.698 28.7244 18.698C29.6244 18.698 30.3984 19.382 30.3984 20.525ZM36.1565 21.659C36.1205 19.895 33.2585 20.534 33.2585 19.364C33.2585 18.968 33.6185 18.68 34.2215 18.68C34.8785 18.68 35.2565 19.04 35.2925 19.535H36.1115C36.0575 18.572 35.3375 17.987 34.2485 17.987C33.1505 17.987 32.4395 18.608 32.4395 19.364C32.4395 21.2 35.3555 20.561 35.3555 21.659C35.3555 22.064 34.9955 22.388 34.3475 22.388C33.6545 22.388 33.2315 22.028 33.1865 21.551H32.3405C32.3945 22.451 33.2045 23.081 34.3565 23.081C35.4455 23.081 36.1565 22.469 36.1565 21.659ZM39.4096 18.68C40.2556 18.68 40.9756 19.211 40.9666 20.174H37.8526C37.9426 19.211 38.6086 18.68 39.4096 18.68ZM41.7136 21.479H40.8316C40.6516 22.01 40.1836 22.388 39.4456 22.388C38.6086 22.388 37.9066 21.839 37.8436 20.84H41.7856C41.8036 20.669 41.8126 20.525 41.8126 20.345C41.8126 18.995 40.8766 17.987 39.4456 17.987C38.0056 17.987 37.0066 18.968 37.0066 20.525C37.0066 22.091 38.0416 23.081 39.4456 23.081C40.6696 23.081 41.4616 22.379 41.7136 21.479ZM44.9871 20.516C44.9871 22.046 46.0041 23.081 47.3271 23.081C48.2271 23.081 48.8661 22.622 49.1631 22.073V23H49.9911V16.34H49.1631V18.95C48.8211 18.383 48.1101 17.987 47.3361 17.987C46.0041 17.987 44.9871 18.977 44.9871 20.516ZM49.1631 20.525C49.1631 21.686 48.3891 22.361 47.4891 22.361C46.5891 22.361 45.8241 21.677 45.8241 20.516C45.8241 19.355 46.5891 18.698 47.4891 18.698C48.3891 18.698 49.1631 19.382 49.1631 20.525ZM56.0551 20.525C56.0551 18.968 54.9661 17.987 53.5621 17.987C52.1671 17.987 51.0691 18.968 51.0691 20.525C51.0691 22.091 52.1311 23.081 53.5261 23.081C54.9301 23.081 56.0551 22.091 56.0551 20.525ZM51.9061 20.525C51.9061 19.283 52.6891 18.698 53.5531 18.698C54.3991 18.698 55.2181 19.283 55.2181 20.525C55.2181 21.776 54.3811 22.361 53.5261 22.361C52.6711 22.361 51.9061 21.776 51.9061 20.525ZM63.1404 23H63.9504V20.093C63.9504 18.68 63.0774 17.978 61.9344 17.978C61.2684 17.978 60.6744 18.257 60.3504 18.77V18.068H59.5314V23H60.3504V20.273C60.3504 19.211 60.9264 18.689 61.7634 18.689C62.5914 18.689 63.1404 19.202 63.1404 20.21V23ZM69.9682 20.525C69.9682 18.968 68.8792 17.987 67.4752 17.987C66.0802 17.987 64.9822 18.968 64.9822 20.525C64.9822 22.091 66.0442 23.081 67.4392 23.081C68.8432 23.081 69.9682 22.091 69.9682 20.525ZM65.8192 20.525C65.8192 19.283 66.6022 18.698 67.4662 18.698C68.3122 18.698 69.1312 19.283 69.1312 20.525C69.1312 21.776 68.2942 22.361 67.4392 22.361C66.5842 22.361 65.8192 21.776 65.8192 20.525ZM71.2251 21.65C71.2251 22.64 71.7201 23 72.5931 23H73.3311V22.307H72.7281C72.2241 22.307 72.0441 22.136 72.0441 21.65V18.743H73.3311V18.068H72.0441V16.826H71.2251V18.068H70.5861V18.743H71.2251V21.65ZM76.7228 23H77.5418V20.273C77.5418 19.211 78.1178 18.689 78.9548 18.689C79.7828 18.689 80.3318 19.202 80.3318 20.21V23H81.1418V20.093C81.1418 18.68 80.2688 17.978 79.1708 17.978C78.4778 17.978 77.8658 18.257 77.5418 18.779V16.34H76.7228V23ZM84.5766 18.68C85.4226 18.68 86.1426 19.211 86.1336 20.174H83.0196C83.1096 19.211 83.7756 18.68 84.5766 18.68ZM86.8806 21.479H85.9986C85.8186 22.01 85.3506 22.388 84.6126 22.388C83.7756 22.388 83.0736 21.839 83.0106 20.84H86.9526C86.9706 20.669 86.9796 20.525 86.9796 20.345C86.9796 18.995 86.0436 17.987 84.6126 17.987C83.1726 17.987 82.1736 18.968 82.1736 20.525C82.1736 22.091 83.2086 23.081 84.6126 23.081C85.8366 23.081 86.6286 22.379 86.8806 21.479ZM91.6067 21.659C91.5707 19.895 88.7087 20.534 88.7087 19.364C88.7087 18.968 89.0687 18.68 89.6717 18.68C90.3287 18.68 90.7067 19.04 90.7427 19.535H91.5617C91.5077 18.572 90.7877 17.987 89.6987 17.987C88.6007 17.987 87.8897 18.608 87.8897 19.364C87.8897 21.2 90.8057 20.561 90.8057 21.659C90.8057 22.064 90.4457 22.388 89.7977 22.388C89.1047 22.388 88.6817 22.028 88.6367 21.551H87.7907C87.8447 22.451 88.6547 23.081 89.8067 23.081C90.8957 23.081 91.6067 22.469 91.6067 21.659ZM92.7628 23H93.5818V18.068H92.7628V23ZM93.1858 17.267C93.4828 17.267 93.7258 17.024 93.7258 16.709C93.7258 16.394 93.4828 16.151 93.1858 16.151C92.8708 16.151 92.6278 16.394 92.6278 16.709C92.6278 17.024 92.8708 17.267 93.1858 17.267ZM95.1577 21.65C95.1577 22.64 95.6527 23 96.5257 23H97.2637V22.307H96.6607C96.1567 22.307 95.9767 22.136 95.9767 21.65V18.743H97.2637V18.068H95.9767V16.826H95.1577V18.068H94.5187V18.743H95.1577V21.65ZM97.95 20.516C97.95 22.046 98.967 23.081 100.281 23.081C101.19 23.081 101.829 22.613 102.126 22.082V23H102.954V18.068H102.126V18.968C101.838 18.455 101.208 17.987 100.29 17.987C98.967 17.987 97.95 18.977 97.95 20.516ZM102.126 20.525C102.126 21.686 101.352 22.361 100.452 22.361C99.552 22.361 98.787 21.677 98.787 20.516C98.787 19.355 99.552 18.698 100.452 18.698C101.352 18.698 102.126 19.382 102.126 20.525ZM104.518 21.65C104.518 22.64 105.013 23 105.886 23H106.624V22.307H106.021C105.517 22.307 105.337 22.136 105.337 21.65V18.743H106.624V18.068H105.337V16.826H104.518V18.068H103.879V18.743H104.518V21.65ZM109.713 18.68C110.559 18.68 111.279 19.211 111.27 20.174H108.156C108.246 19.211 108.912 18.68 109.713 18.68ZM112.017 21.479H111.135C110.955 22.01 110.487 22.388 109.749 22.388C108.912 22.388 108.21 21.839 108.147 20.84H112.089C112.107 20.669 112.116 20.525 112.116 20.345C112.116 18.995 111.18 17.987 109.749 17.987C108.309 17.987 107.31 18.968 107.31 20.525C107.31 22.091 108.345 23.081 109.749 23.081C110.973 23.081 111.765 22.379 112.017 21.479ZM115.777 21.65C115.777 22.64 116.272 23 117.145 23H117.883V22.307H117.28C116.776 22.307 116.596 22.136 116.596 21.65V18.743H117.883V18.068H116.596V16.826H115.777V18.068H115.138V18.743H115.777V21.65ZM123.555 20.525C123.555 18.968 122.466 17.987 121.062 17.987C119.667 17.987 118.569 18.968 118.569 20.525C118.569 22.091 119.631 23.081 121.026 23.081C122.43 23.081 123.555 22.091 123.555 20.525ZM119.406 20.525C119.406 19.283 120.189 18.698 121.053 18.698C121.899 18.698 122.718 19.283 122.718 20.525C122.718 21.776 121.881 22.361 121.026 22.361C120.171 22.361 119.406 21.776 119.406 20.525ZM126.725 20.525C126.725 22.091 127.724 23.081 129.128 23.081C130.352 23.081 131.153 22.397 131.405 21.416H130.523C130.343 22.037 129.857 22.388 129.128 22.388C128.228 22.388 127.562 21.749 127.562 20.525C127.562 19.319 128.228 18.68 129.128 18.68C129.857 18.68 130.352 19.058 130.523 19.652H131.405C131.153 18.617 130.352 17.987 129.128 17.987C127.724 17.987 126.725 18.977 126.725 20.525ZM137.178 20.525C137.178 18.968 136.089 17.987 134.685 17.987C133.29 17.987 132.192 18.968 132.192 20.525C132.192 22.091 133.254 23.081 134.649 23.081C136.053 23.081 137.178 22.091 137.178 20.525ZM133.029 20.525C133.029 19.283 133.812 18.698 134.676 18.698C135.522 18.698 136.341 19.283 136.341 20.525C136.341 21.776 135.504 22.361 134.649 22.361C133.794 22.361 133.029 21.776 133.029 20.525ZM141.864 23H142.674V20.093C142.674 18.68 141.801 17.978 140.658 17.978C139.992 17.978 139.398 18.257 139.074 18.77V18.068H138.255V23H139.074V20.273C139.074 19.211 139.65 18.689 140.487 18.689C141.315 18.689 141.864 19.202 141.864 20.21V23ZM144.192 21.65C144.192 22.64 144.687 23 145.56 23H146.298V22.307H145.695C145.191 22.307 145.011 22.136 145.011 21.65V18.743H146.298V18.068H145.011V16.826H144.192V18.068H143.553V18.743H144.192V21.65ZM146.984 20.516C146.984 22.046 148.001 23.081 149.315 23.081C150.224 23.081 150.863 22.613 151.16 22.082V23H151.988V18.068H151.16V18.968C150.872 18.455 150.242 17.987 149.324 17.987C148.001 17.987 146.984 18.977 146.984 20.516ZM151.16 20.525C151.16 21.686 150.386 22.361 149.486 22.361C148.586 22.361 147.821 21.677 147.821 20.516C147.821 19.355 148.586 18.698 149.486 18.698C150.386 18.698 151.16 19.382 151.16 20.525ZM153.066 20.525C153.066 22.091 154.065 23.081 155.469 23.081C156.693 23.081 157.494 22.397 157.746 21.416H156.864C156.684 22.037 156.198 22.388 155.469 22.388C154.569 22.388 153.903 21.749 153.903 20.525C153.903 19.319 154.569 18.68 155.469 18.68C156.198 18.68 156.693 19.058 156.864 19.652H157.746C157.494 18.617 156.693 17.987 155.469 17.987C154.065 17.987 153.066 18.977 153.066 20.525ZM159.019 21.65C159.019 22.64 159.514 23 160.387 23H161.125V22.307H160.522C160.018 22.307 159.838 22.136 159.838 21.65V18.743H161.125V18.068H159.838V16.826H159.019V18.068H158.38V18.743H159.019V21.65ZM168.891 18.068H168.072V20.777C168.072 21.839 167.505 22.361 166.659 22.361C165.831 22.361 165.282 21.848 165.282 20.849V18.068H164.472V20.957C164.472 22.37 165.363 23.072 166.497 23.072C167.154 23.072 167.757 22.784 168.072 22.271V23H168.891V18.068ZM173.82 21.659C173.784 19.895 170.922 20.534 170.922 19.364C170.922 18.968 171.282 18.68 171.885 18.68C172.542 18.68 172.92 19.04 172.956 19.535H173.775C173.721 18.572 173.001 17.987 171.912 17.987C170.814 17.987 170.103 18.608 170.103 19.364C170.103 21.2 173.019 20.561 173.019 21.659C173.019 22.064 172.659 22.388 172.011 22.388C171.318 22.388 170.895 22.028 170.85 21.551H170.004C170.058 22.451 170.868 23.081 172.02 23.081C173.109 23.081 173.82 22.469 173.82 21.659ZM175.777 22.496C175.777 22.181 175.534 21.938 175.237 21.938C174.922 21.938 174.679 22.181 174.679 22.496C174.679 22.811 174.922 23.054 175.237 23.054C175.534 23.054 175.777 22.811 175.777 22.496Z"
          fill="white"/>
</svg>
