<svg width="291" height="32" viewBox="0 0 291 32" fill="none" xmlns="http://www.w3.org/2000/svg">
    <path d="M43.4103 6.812C43.4103 9.308 45.1143 11.072 47.5863 11.072C50.0463 11.072 51.7383 9.308 51.7383 6.812C51.7383 4.316 50.0463 2.552 47.5863 2.552C45.1143 2.552 43.4103 4.316 43.4103 6.812ZM51.2223 6.812C51.2223 9.056 49.8183 10.604 47.5863 10.604C45.3303 10.604 43.9263 9.056 43.9263 6.812C43.9263 4.556 45.3303 3.032 47.5863 3.032C49.8183 3.032 51.2223 4.556 51.2223 6.812ZM50.0223 5.816H49.0143C48.8103 5.168 48.2463 4.82 47.5623 4.82C46.6503 4.82 45.9303 5.492 45.9303 6.812C45.9303 8.12 46.6503 8.792 47.5623 8.792C48.3063 8.792 48.7863 8.432 49.0143 7.796H50.0223C49.7103 8.876 48.7743 9.584 47.5623 9.584C46.1223 9.584 44.9583 8.528 44.9583 6.8C44.9583 5.072 46.1223 4.028 47.5623 4.028C48.7743 4.028 49.7103 4.676 50.0223 5.816ZM58.7342 2.624V9.272L54.3422 2.624H53.2502V11H54.3422V4.34L58.7342 11H59.8262V2.624H58.7342ZM61.6877 11H62.7797V2.636H61.6877V11ZM64.6408 11H65.7328V4.796L68.5048 11H69.2728L72.0328 4.808V11H73.1248V2.696H71.9608L68.8888 9.56L65.8168 2.696H64.6408V11ZM80.5927 11H81.7447L78.7327 2.684H77.4727L74.4487 11H75.6007L76.2727 9.14H79.9207L80.5927 11ZM79.6087 8.252H76.5847L78.0967 4.028L79.6087 8.252ZM94.2539 6.812C94.2539 4.304 92.4179 2.54 90.0539 2.54C87.7019 2.54 85.8539 4.304 85.8539 6.812C85.8539 9.32 87.7019 11.084 90.0539 11.084C92.4179 11.084 94.2539 9.32 94.2539 6.812ZM86.9699 6.812C86.9699 4.76 88.2899 3.488 90.0539 3.488C91.8179 3.488 93.1379 4.76 93.1379 6.812C93.1379 8.852 91.8179 10.136 90.0539 10.136C88.2899 10.136 86.9699 8.852 86.9699 6.812ZM95.6715 7.916C95.6715 10.088 97.0875 11.084 98.8155 11.084C100.543 11.084 101.971 10.088 101.971 7.916V2.636H100.879V7.928C100.879 9.464 100.063 10.124 98.8275 10.124C97.5915 10.124 96.7635 9.464 96.7635 7.928V2.636H95.6715V7.916ZM97.8555 1.796C98.1915 1.796 98.4795 1.52 98.4795 1.172C98.4795 0.823999 98.1915 0.536 97.8555 0.536C97.4955 0.536 97.2195 0.823999 97.2195 1.172C97.2195 1.52 97.4955 1.796 97.8555 1.796ZM99.7995 1.796C100.147 1.796 100.435 1.52 100.435 1.172C100.435 0.823999 100.147 0.536 99.7995 0.536C99.4395 0.536 99.1755 0.823999 99.1755 1.172C99.1755 1.52 99.4395 1.796 99.7995 1.796ZM106.68 10.904H112.452V9.992H108.324C109.872 8.732 112.2 6.896 112.2 4.736C112.2 3.128 111.144 2.168 109.512 2.168C107.952 2.168 106.788 3.128 106.716 4.976H107.772C107.82 3.884 108.396 3.104 109.524 3.104C110.7 3.104 111.12 3.824 111.12 4.784C111.12 6.56 108.96 8.288 106.68 10.124V10.904ZM113.715 6.572C113.715 9.092 114.339 11 116.739 11C119.127 11 119.751 9.092 119.751 6.572C119.751 4.088 119.127 2.192 116.739 2.192C114.339 2.192 113.715 4.088 113.715 6.572ZM118.671 6.572C118.671 8.444 118.443 10.004 116.739 10.004C115.023 10.004 114.795 8.444 114.795 6.572C114.795 4.772 115.023 3.188 116.739 3.188C118.443 3.188 118.671 4.772 118.671 6.572ZM121.118 10.904H126.89V9.992H122.762C124.31 8.732 126.638 6.896 126.638 4.736C126.638 3.128 125.582 2.168 123.95 2.168C122.39 2.168 121.226 3.128 121.154 4.976H122.21C122.258 3.884 122.834 3.104 123.962 3.104C125.138 3.104 125.558 3.824 125.558 4.784C125.558 6.56 123.398 8.288 121.118 10.124V10.904ZM128.02 10.904H133.792V9.992H129.664C131.212 8.732 133.54 6.896 133.54 4.736C133.54 3.128 132.484 2.168 130.852 2.168C129.292 2.168 128.128 3.128 128.056 4.976H129.112C129.16 3.884 129.736 3.104 130.864 3.104C132.04 3.104 132.46 3.824 132.46 4.784C132.46 6.56 130.3 8.288 128.02 10.124V10.904ZM136.303 10.328C136.303 9.908 135.979 9.584 135.583 9.584C135.163 9.584 134.839 9.908 134.839 10.328C134.839 10.748 135.163 11.072 135.583 11.072C135.979 11.072 136.303 10.748 136.303 10.328ZM146.569 11H147.721L144.709 2.684H143.449L140.425 11H141.577L142.249 9.14H145.897L146.569 11ZM145.585 8.252H142.561L144.073 4.028L145.585 8.252ZM149.039 11H150.131V2.12H149.039V11ZM151.992 11H153.084V2.12H151.992V11ZM159.237 7.424C159.237 5.9 160.029 5.432 161.073 5.432H161.361V4.304C160.317 4.304 159.609 4.76 159.237 5.492V4.424H158.145V11H159.237V7.424ZM162.621 11H163.713V4.424H162.621V11ZM163.185 3.356C163.581 3.356 163.905 3.032 163.905 2.612C163.905 2.192 163.581 1.868 163.185 1.868C162.765 1.868 162.441 2.192 162.441 2.612C162.441 3.032 162.765 3.356 163.185 3.356ZM165.166 7.688C165.166 9.728 166.522 11.108 168.286 11.108C169.486 11.108 170.338 10.472 170.734 9.764V11.144C170.734 12.548 169.858 13.292 168.694 13.292C167.614 13.292 166.834 12.752 166.594 11.96H165.514C165.73 13.364 166.966 14.24 168.694 14.24C170.626 14.24 171.838 12.956 171.838 11.144V4.424H170.734V5.624C170.35 4.916 169.486 4.316 168.286 4.316C166.522 4.316 165.166 5.636 165.166 7.688ZM170.734 7.7C170.734 9.248 169.702 10.148 168.502 10.148C167.302 10.148 166.282 9.236 166.282 7.688C166.282 6.14 167.302 5.264 168.502 5.264C169.702 5.264 170.734 6.176 170.734 7.7ZM173.684 11H174.776V7.364C174.776 5.948 175.544 5.252 176.66 5.252C177.764 5.252 178.496 5.936 178.496 7.28V11H179.576V7.124C179.576 5.24 178.412 4.304 176.948 4.304C176.024 4.304 175.208 4.676 174.776 5.372V2.12H173.684V11ZM181.6 9.2C181.6 10.52 182.26 11 183.424 11H184.408V10.076H183.604C182.932 10.076 182.692 9.848 182.692 9.2V5.324H184.408V4.424H182.692V2.768H181.6V4.424H180.748V5.324H181.6V9.2ZM190.459 9.212C190.411 6.86 186.595 7.712 186.595 6.152C186.595 5.624 187.075 5.24 187.879 5.24C188.755 5.24 189.259 5.72 189.307 6.38H190.399C190.327 5.096 189.367 4.316 187.915 4.316C186.451 4.316 185.503 5.144 185.503 6.152C185.503 8.6 189.391 7.748 189.391 9.212C189.391 9.752 188.911 10.184 188.047 10.184C187.123 10.184 186.559 9.704 186.499 9.068H185.371C185.443 10.268 186.523 11.108 188.059 11.108C189.511 11.108 190.459 10.292 190.459 9.212ZM196.291 7.424C196.291 5.9 197.083 5.432 198.127 5.432H198.415V4.304C197.371 4.304 196.663 4.76 196.291 5.492V4.424H195.199V11H196.291V7.424ZM202.472 5.24C203.6 5.24 204.56 5.948 204.548 7.232H200.396C200.516 5.948 201.404 5.24 202.472 5.24ZM205.544 8.972H204.368C204.128 9.68 203.504 10.184 202.52 10.184C201.404 10.184 200.468 9.452 200.384 8.12H205.64C205.664 7.892 205.676 7.7 205.676 7.46C205.676 5.66 204.428 4.316 202.52 4.316C200.6 4.316 199.268 5.624 199.268 7.7C199.268 9.788 200.648 11.108 202.52 11.108C204.152 11.108 205.208 10.172 205.544 8.972ZM211.845 9.212C211.797 6.86 207.981 7.712 207.981 6.152C207.981 5.624 208.461 5.24 209.265 5.24C210.141 5.24 210.645 5.72 210.693 6.38H211.785C211.713 5.096 210.753 4.316 209.301 4.316C207.837 4.316 206.889 5.144 206.889 6.152C206.889 8.6 210.777 7.748 210.777 9.212C210.777 9.752 210.297 10.184 209.433 10.184C208.509 10.184 207.945 9.704 207.885 9.068H206.757C206.829 10.268 207.909 11.108 209.445 11.108C210.897 11.108 211.845 10.292 211.845 9.212ZM216.183 5.24C217.311 5.24 218.271 5.948 218.259 7.232H214.107C214.227 5.948 215.115 5.24 216.183 5.24ZM219.255 8.972H218.079C217.839 9.68 217.215 10.184 216.231 10.184C215.115 10.184 214.179 9.452 214.095 8.12H219.351C219.375 7.892 219.387 7.7 219.387 7.46C219.387 5.66 218.139 4.316 216.231 4.316C214.311 4.316 212.979 5.624 212.979 7.7C212.979 9.788 214.359 11.108 216.231 11.108C217.863 11.108 218.919 10.172 219.255 8.972ZM221.92 7.424C221.92 5.9 222.712 5.432 223.756 5.432H224.044V4.304C223 4.304 222.292 4.76 221.92 5.492V4.424H220.828V11H221.92V7.424ZM224.525 4.424L227.105 11H228.377L230.957 4.424H229.793L227.753 9.992L225.701 4.424H224.525ZM234.827 5.24C235.955 5.24 236.915 5.948 236.903 7.232H232.751C232.871 5.948 233.759 5.24 234.827 5.24ZM237.899 8.972H236.723C236.483 9.68 235.859 10.184 234.875 10.184C233.759 10.184 232.823 9.452 232.739 8.12H237.995C238.019 7.892 238.031 7.7 238.031 7.46C238.031 5.66 236.783 4.316 234.875 4.316C232.955 4.316 231.623 5.624 231.623 7.7C231.623 9.788 233.003 11.108 234.875 11.108C236.507 11.108 237.563 10.172 237.899 8.972ZM239.065 7.688C239.065 9.728 240.421 11.108 242.185 11.108C243.385 11.108 244.237 10.496 244.633 9.764V11H245.737V2.12H244.633V5.6C244.177 4.844 243.229 4.316 242.197 4.316C240.421 4.316 239.065 5.636 239.065 7.688ZM244.633 7.7C244.633 9.248 243.601 10.148 242.401 10.148C241.201 10.148 240.181 9.236 240.181 7.688C240.181 6.14 241.201 5.264 242.401 5.264C243.601 5.264 244.633 6.176 244.633 7.7ZM248.65 10.328C248.65 9.908 248.326 9.584 247.93 9.584C247.51 9.584 247.186 9.908 247.186 10.328C247.186 10.748 247.51 11.072 247.93 11.072C248.326 11.072 248.65 10.748 248.65 10.328ZM8.78905 23.812C8.78905 21.304 6.95305 19.54 4.58905 19.54C2.23705 19.54 0.389047 21.304 0.389047 23.812C0.389047 26.32 2.23705 28.084 4.58905 28.084C6.95305 28.084 8.78905 26.32 8.78905 23.812ZM1.50505 23.812C1.50505 21.76 2.82505 20.488 4.58905 20.488C6.35305 20.488 7.67305 21.76 7.67305 23.812C7.67305 25.852 6.35305 27.136 4.58905 27.136C2.82505 27.136 1.50505 25.852 1.50505 23.812ZM11.3226 24.424C11.3226 22.9 12.1146 22.432 13.1586 22.432H13.4466V21.304C12.4026 21.304 11.6946 21.76 11.3226 22.492V21.424H10.2306V28H11.3226V24.424ZM15.7992 22.648V19.12H14.7072V28H15.7992V26.788C16.2072 27.508 17.0592 28.108 18.2592 28.108C20.0232 28.108 21.3792 26.728 21.3792 24.688C21.3792 22.636 20.0352 21.316 18.2592 21.316C17.0952 21.316 16.2192 21.916 15.7992 22.648ZM20.2632 24.688C20.2632 26.236 19.2432 27.148 18.0312 27.148C16.8432 27.148 15.7992 26.248 15.7992 24.7C15.7992 23.176 16.8432 22.264 18.0312 22.264C19.2432 22.264 20.2632 23.14 20.2632 24.688ZM25.9486 26.848L23.3206 19.636H22.1566L25.3126 28H26.5726L29.7286 19.636H28.5766L25.9486 26.848ZM32.018 23.608V20.536H33.626C34.874 20.536 35.402 21.112 35.402 22.084C35.402 23.02 34.874 23.608 33.626 23.608H32.018ZM36.518 22.084C36.518 20.716 35.594 19.636 33.626 19.636H30.926V28H32.018V24.508H33.626C35.702 24.508 36.518 23.356 36.518 22.084ZM43.3592 19.624V26.272L38.9672 19.624H37.8752V28H38.9672V21.34L43.3592 28H44.4512V19.624H43.3592ZM47.3807 27.328C47.3807 26.908 47.0567 26.584 46.6607 26.584C46.2407 26.584 45.9167 26.908 45.9167 27.328C45.9167 27.748 46.2407 28.072 46.6607 28.072C47.0567 28.072 47.3807 27.748 47.3807 27.328ZM48.4242 24.7C48.4242 26.788 49.7562 28.108 51.6282 28.108C53.2602 28.108 54.3282 27.196 54.6642 25.888H53.4882C53.2482 26.716 52.6002 27.184 51.6282 27.184C50.4282 27.184 49.5402 26.332 49.5402 24.7C49.5402 23.092 50.4282 22.24 51.6282 22.24C52.6002 22.24 53.2602 22.744 53.4882 23.536H54.6642C54.3282 22.156 53.2602 21.316 51.6282 21.316C49.7562 21.316 48.4242 22.636 48.4242 24.7ZM62.3613 24.7C62.3613 22.624 60.9093 21.316 59.0373 21.316C57.1773 21.316 55.7133 22.624 55.7133 24.7C55.7133 26.788 57.1293 28.108 58.9893 28.108C60.8613 28.108 62.3613 26.788 62.3613 24.7ZM56.8293 24.7C56.8293 23.044 57.8733 22.264 59.0253 22.264C60.1533 22.264 61.2453 23.044 61.2453 24.7C61.2453 26.368 60.1293 27.148 58.9893 27.148C57.8493 27.148 56.8293 26.368 56.8293 24.7ZM73.289 28H74.369V24.124C74.369 22.24 73.205 21.304 71.705 21.304C70.697 21.304 69.761 21.82 69.377 22.768C68.945 21.784 68.045 21.304 66.965 21.304C66.101 21.304 65.321 21.676 64.889 22.372V21.424H63.797V28H64.889V24.376C64.889 22.96 65.645 22.252 66.749 22.252C67.829 22.252 68.549 22.936 68.549 24.28V28H69.629V24.376C69.629 22.96 70.385 22.252 71.489 22.252C72.569 22.252 73.289 22.936 73.289 24.28V28ZM88.9572 28H90.0492V21.424H88.9572V28ZM89.5212 20.356C89.9172 20.356 90.2412 20.032 90.2412 19.612C90.2412 19.192 89.9172 18.868 89.5212 18.868C89.1012 18.868 88.7772 19.192 88.7772 19.612C88.7772 20.032 89.1012 20.356 89.5212 20.356ZM96.7223 28H97.8023V24.124C97.8023 22.24 96.6383 21.304 95.1143 21.304C94.2263 21.304 93.4343 21.676 93.0023 22.36V21.424H91.9103V28H93.0023V24.364C93.0023 22.948 93.7703 22.252 94.8863 22.252C95.9903 22.252 96.7223 22.936 96.7223 24.28V28ZM99.7901 28H100.882V22.324H102.262V21.424H100.882V20.956C100.882 20.104 101.206 19.744 102.19 19.744V18.832C100.51 18.832 99.7901 19.492 99.7901 20.956V21.424H98.9381V22.324H99.7901V28ZM109.775 24.7C109.775 22.624 108.323 21.316 106.451 21.316C104.591 21.316 103.127 22.624 103.127 24.7C103.127 26.788 104.543 28.108 106.403 28.108C108.275 28.108 109.775 26.788 109.775 24.7ZM104.243 24.7C104.243 23.044 105.287 22.264 106.439 22.264C107.567 22.264 108.659 23.044 108.659 24.7C108.659 26.368 107.543 27.148 106.403 27.148C105.263 27.148 104.243 26.368 104.243 24.7ZM118.963 28.084C120.631 28.084 121.567 26.164 121.567 24.316C121.567 21.94 119.923 20.308 117.211 20.308C113.683 20.308 111.151 22.984 111.151 26.404C111.151 28.84 112.867 30.388 115.459 30.388C116.287 30.388 117.091 30.244 117.811 29.944L117.667 29.2C117.055 29.488 116.335 29.608 115.675 29.608C113.419 29.608 112.051 28.444 112.063 26.308C112.063 23.368 114.175 21.076 117.079 21.076C119.371 21.076 120.679 22.288 120.679 24.376C120.679 25.636 120.163 27.34 119.131 27.34C118.519 27.34 118.423 26.884 118.531 26.2L119.131 22.732H118.183L118.051 23.476C117.787 22.9 117.271 22.612 116.515 22.612C114.763 22.612 113.563 24.232 113.563 26.02C113.563 27.268 114.283 28.084 115.519 28.084C116.359 28.084 117.175 27.664 117.667 26.968C117.727 27.64 118.147 28.084 118.963 28.084ZM117.811 25.036C117.739 26.272 116.899 27.232 115.843 27.232C115.003 27.232 114.583 26.668 114.583 25.852C114.583 24.664 115.315 23.452 116.515 23.452C117.451 23.452 117.883 24.16 117.811 25.036ZM129.603 24.7C129.603 22.624 128.151 21.316 126.279 21.316C124.419 21.316 122.955 22.624 122.955 24.7C122.955 26.788 124.371 28.108 126.231 28.108C128.103 28.108 129.603 26.788 129.603 24.7ZM124.071 24.7C124.071 23.044 125.115 22.264 126.267 22.264C127.395 22.264 128.487 23.044 128.487 24.7C128.487 26.368 127.371 27.148 126.231 27.148C125.091 27.148 124.071 26.368 124.071 24.7ZM132.131 24.424C132.131 22.9 132.923 22.432 133.967 22.432H134.255V21.304C133.211 21.304 132.503 21.76 132.131 22.492V21.424H131.039V28H132.131V24.424ZM136.608 22.648V19.12H135.516V28H136.608V26.788C137.016 27.508 137.868 28.108 139.068 28.108C140.832 28.108 142.188 26.728 142.188 24.688C142.188 22.636 140.844 21.316 139.068 21.316C137.904 21.316 137.028 21.916 136.608 22.648ZM141.072 24.688C141.072 26.236 140.052 27.148 138.84 27.148C137.652 27.148 136.608 26.248 136.608 24.7C136.608 23.176 137.652 22.264 138.84 22.264C140.052 22.264 141.072 23.14 141.072 24.688ZM142.845 21.424L145.425 28H146.697L149.277 21.424H148.113L146.073 26.992L144.021 21.424H142.845ZM151.444 22.636V21.424H150.352V31.12H151.444V26.788C151.852 27.46 152.704 28.108 153.904 28.108C155.668 28.108 157.024 26.728 157.024 24.688C157.024 22.636 155.668 21.316 153.904 21.316C152.704 21.316 151.84 21.94 151.444 22.636ZM155.908 24.688C155.908 26.236 154.888 27.148 153.676 27.148C152.488 27.148 151.444 26.248 151.444 24.7C151.444 23.176 152.488 22.264 153.676 22.264C154.888 22.264 155.908 23.14 155.908 24.688ZM163.273 28H164.353V24.124C164.353 22.24 163.189 21.304 161.665 21.304C160.777 21.304 159.985 21.676 159.553 22.36V21.424H158.461V28H159.553V24.364C159.553 22.948 160.321 22.252 161.437 22.252C162.541 22.252 163.273 22.936 163.273 24.28V28ZM167.205 27.328C167.205 26.908 166.881 26.584 166.485 26.584C166.065 26.584 165.741 26.908 165.741 27.328C165.741 27.748 166.065 28.072 166.485 28.072C166.881 28.072 167.205 27.748 167.205 27.328ZM168.248 24.7C168.248 26.788 169.58 28.108 171.452 28.108C173.084 28.108 174.152 27.196 174.488 25.888H173.312C173.072 26.716 172.424 27.184 171.452 27.184C170.252 27.184 169.364 26.332 169.364 24.7C169.364 23.092 170.252 22.24 171.452 22.24C172.424 22.24 173.084 22.744 173.312 23.536H174.488C174.152 22.156 173.084 21.316 171.452 21.316C169.58 21.316 168.248 22.636 168.248 24.7ZM182.185 24.7C182.185 22.624 180.733 21.316 178.861 21.316C177.001 21.316 175.537 22.624 175.537 24.7C175.537 26.788 176.953 28.108 178.813 28.108C180.685 28.108 182.185 26.788 182.185 24.7ZM176.653 24.7C176.653 23.044 177.697 22.264 178.849 22.264C179.977 22.264 181.069 23.044 181.069 24.7C181.069 26.368 179.953 27.148 178.813 27.148C177.673 27.148 176.653 26.368 176.653 24.7ZM193.113 28H194.193V24.124C194.193 22.24 193.029 21.304 191.529 21.304C190.521 21.304 189.585 21.82 189.201 22.768C188.769 21.784 187.869 21.304 186.789 21.304C185.925 21.304 185.145 21.676 184.713 22.372V21.424H183.621V28H184.713V24.376C184.713 22.96 185.469 22.252 186.573 22.252C187.653 22.252 188.373 22.936 188.373 24.28V28H189.453V24.376C189.453 22.96 190.209 22.252 191.313 22.252C192.393 22.252 193.113 22.936 193.113 24.28V28ZM211.445 20.548V23.152H208.901V24.076H211.445V26.668H212.465V24.076H215.021V23.152H212.465V20.548H211.445ZM216.769 21.508H217.837C217.945 20.668 218.557 20.092 219.577 20.092C220.621 20.092 221.173 20.668 221.173 21.496C221.173 22.504 220.393 22.948 218.941 22.96H218.653V23.872H218.929C220.489 23.872 221.341 24.34 221.341 25.564C221.341 26.452 220.789 27.136 219.625 27.136C218.473 27.136 217.801 26.428 217.693 25.504H216.637C216.769 27.184 217.993 28.06 219.637 28.06C221.449 28.06 222.385 27.004 222.385 25.66C222.385 24.412 221.701 23.668 220.693 23.428V23.368C221.605 23.164 222.229 22.384 222.229 21.388C222.229 20.14 221.305 19.156 219.613 19.156C218.005 19.156 216.877 20.02 216.769 21.508ZM223.511 19.348V20.284H228.143L224.759 28H225.863L229.199 20.176V19.348H223.511ZM230.278 27.904H236.05V26.992H231.922C233.47 25.732 235.798 23.896 235.798 21.736C235.798 20.128 234.742 19.168 233.11 19.168C231.55 19.168 230.386 20.128 230.314 21.976H231.37C231.418 20.884 231.994 20.104 233.122 20.104C234.298 20.104 234.718 20.824 234.718 21.784C234.718 23.56 232.558 25.288 230.278 27.124V27.904ZM242.096 23.488C241.124 23.776 240.488 24.568 240.488 25.66C240.488 27.232 241.724 28.24 243.548 28.24C245.384 28.24 246.632 27.232 246.632 25.66C246.632 24.58 245.996 23.788 245.012 23.488C245.864 23.152 246.404 22.432 246.404 21.496C246.404 20.236 245.432 19.192 243.548 19.192C241.664 19.192 240.704 20.224 240.704 21.496C240.704 22.468 241.208 23.14 242.096 23.488ZM243.548 23.128C242.492 23.128 241.76 22.54 241.76 21.64C241.76 20.62 242.48 20.104 243.548 20.104C244.64 20.104 245.348 20.632 245.348 21.628C245.348 22.528 244.616 23.128 243.548 23.128ZM243.548 23.968C244.688 23.968 245.552 24.508 245.552 25.624C245.552 26.632 244.784 27.328 243.548 27.328C242.312 27.328 241.532 26.644 241.532 25.624C241.532 24.472 242.432 23.968 243.548 23.968ZM249.666 23.488C248.694 23.776 248.058 24.568 248.058 25.66C248.058 27.232 249.294 28.24 251.118 28.24C252.954 28.24 254.202 27.232 254.202 25.66C254.202 24.58 253.566 23.788 252.582 23.488C253.434 23.152 253.974 22.432 253.974 21.496C253.974 20.236 253.002 19.192 251.118 19.192C249.234 19.192 248.274 20.224 248.274 21.496C248.274 22.468 248.778 23.14 249.666 23.488ZM251.118 23.128C250.062 23.128 249.33 22.54 249.33 21.64C249.33 20.62 250.05 20.104 251.118 20.104C252.21 20.104 252.918 20.632 252.918 21.628C252.918 22.528 252.186 23.128 251.118 23.128ZM251.118 23.968C252.258 23.968 253.122 24.508 253.122 25.624C253.122 26.632 252.354 27.328 251.118 27.328C249.882 27.328 249.102 26.644 249.102 25.624C249.102 24.472 250.002 23.968 251.118 23.968ZM255.652 23.572C255.652 26.092 256.276 28 258.676 28C261.064 28 261.688 26.092 261.688 23.572C261.688 21.088 261.064 19.192 258.676 19.192C256.276 19.192 255.652 21.088 255.652 23.572ZM260.608 23.572C260.608 25.444 260.38 27.004 258.676 27.004C256.96 27.004 256.732 25.444 256.732 23.572C256.732 21.772 256.96 20.188 258.676 20.188C260.38 20.188 260.608 21.772 260.608 23.572ZM270.563 28H271.643V26.068H272.843V25.12H271.643V19.408H270.335L266.123 25.24V26.068H270.563V28ZM267.383 25.12L270.611 20.548V25.12H267.383ZM278.109 28H279.189V26.068H280.389V25.12H279.189V19.408H277.881L273.669 25.24V26.068H278.109V28ZM274.929 25.12L278.157 20.548V25.12H274.929ZM285.656 28H286.736V26.068H287.936V25.12H286.736V19.408H285.428L281.216 25.24V26.068H285.656V28ZM282.476 25.12L285.704 20.548V25.12H282.476ZM289.891 28H290.995V19.324H288.739V20.32H289.891V28Z"
          fill="white"/>
</svg>
