<svg width="397" height="135" viewBox="0 0 397 135" fill="none" xmlns="http://www.w3.org/2000/svg">
    <g opacity="0.7">
        <path opacity="0.7" d="M59.9722 101.528H119V134.111H59.9722V101.528Z" fill="#E6E6E6"/>
        <path opacity="0.1" d="M80.2777 107.194H98.2222V110.972H80.2777V107.194Z" fill="black"/>
        <path opacity="0.1" d="M82.5208 107.667H95.9792V110.5H82.5208V107.667Z" fill="black"/>
        <path opacity="0.7" d="M-7.62939e-06 101.528H59.0278V134.111H-7.62939e-06V101.528Z" fill="#2757D2"/>
        <path opacity="0.1" d="M20.3056 107.194H38.25V110.972H20.3056V107.194Z" fill="black"/>
        <path opacity="0.1" d="M22.5486 107.667H36.0069V110.5H22.5486V107.667Z" fill="black"/>
        <path opacity="0.7" d="M59.9722 68H119V100.583H59.9722V68Z" fill="#E6E6E6"/>
        <path opacity="0.1" d="M80.2778 73.6667H98.2222V77.4445H80.2778V73.6667Z" fill="black"/>
        <path opacity="0.1" d="M82.5208 74.1389H95.9792V76.9722H82.5208V74.1389Z" fill="black"/>
        <path opacity="0.7" d="M-7.62939e-06 68H59.0278V100.583H-7.62939e-06V68Z" fill="#2757D2"/>
        <path opacity="0.1" d="M20.3056 73.6667H38.25V77.4445H20.3056V73.6667Z" fill="black"/>
        <path opacity="0.1" d="M22.5486 74.1389H36.0069V76.9722H22.5486V74.1389Z" fill="black"/>
        <path opacity="0.7" d="M59.9722 34H119V66.5833H59.9722V34Z" fill="#E6E6E6"/>
        <path opacity="0.1" d="M80.2778 39.6667H98.2222V43.4445H80.2778V39.6667Z" fill="black"/>
        <path opacity="0.1" d="M82.5208 40.1389H95.9792V42.9722H82.5208V40.1389Z" fill="black"/>
        <path opacity="0.7" d="M-7.62939e-06 34H59.0278V66.5833H-7.62939e-06V34Z" fill="#2757D2"/>
        <path opacity="0.1" d="M20.3056 39.6667H38.25V43.4445H20.3056V39.6667Z" fill="black"/>
        <path opacity="0.1" d="M22.5486 40.1389H36.0069V42.9722H22.5486V40.1389Z" fill="black"/>
        <path opacity="0.7" d="M-7.62939e-06 0H59.0278V32.5833H-7.62939e-06V0Z" fill="#2757D2"/>
        <path opacity="0.1" d="M20.3056 5.66669H38.25V9.44446H20.3056V5.66669Z" fill="black"/>
        <path opacity="0.1" d="M22.5486 6.13892H36.0069V8.97225H22.5486V6.13892Z" fill="black"/>
    </g>
    <g opacity="0.7">
        <path opacity="0.7" d="M179.972 101.528H239V134.111H179.972V101.528Z" fill="#2757D2"/>
        <path opacity="0.1" d="M200.278 107.194H218.222V110.972H200.278V107.194Z" fill="black"/>
        <path opacity="0.1" d="M202.521 107.667H215.979V110.5H202.521V107.667Z" fill="black"/>
        <path opacity="0.7" d="M120 101.528H179.028V134.111H120V101.528Z" fill="#E6E6E6"/>
        <path opacity="0.1" d="M140.306 107.194H158.25V110.972H140.306V107.194Z" fill="black"/>
        <path opacity="0.1" d="M142.549 107.667H156.007V110.5H142.549V107.667Z" fill="black"/>
        <path opacity="0.7" d="M179.972 68H239V100.583H179.972V68Z" fill="#2757D2"/>
        <path opacity="0.1" d="M200.278 73.6667H218.222V77.4445H200.278V73.6667Z" fill="black"/>
        <path opacity="0.1" d="M202.521 74.1389H215.979V76.9722H202.521V74.1389Z" fill="black"/>
        <path opacity="0.7" d="M120 68H179.028V100.583H120V68Z" fill="#E6E6E6"/>
        <path opacity="0.1" d="M140.306 73.6667H158.25V77.4445H140.306V73.6667Z" fill="black"/>
        <path opacity="0.1" d="M142.549 74.1389H156.007V76.9722H142.549V74.1389Z" fill="black"/>
        <path opacity="0.7" d="M179.972 34H239V66.5833H179.972V34Z" fill="#E6E6E6"/>
        <path opacity="0.1" d="M200.278 39.6667H218.222V43.4445H200.278V39.6667Z" fill="black"/>
        <path opacity="0.1" d="M202.521 40.1389H215.979V42.9722H202.521V40.1389Z" fill="black"/>
        <path opacity="0.7" d="M120 34H179.028V66.5833H120V34Z" fill="#E6E6E6"/>
        <path opacity="0.1" d="M140.306 39.6667H158.25V43.4445H140.306V39.6667Z" fill="black"/>
        <path opacity="0.1" d="M142.549 40.1389H156.007V42.9722H142.549V40.1389Z" fill="black"/>
    </g>
    <g opacity="0.7">
        <path opacity="0.7" d="M299.972 101.528H359V134.111H299.972V101.528Z" fill="#2757D2"/>
        <path opacity="0.1" d="M320.278 107.194H338.222V110.972H320.278V107.194Z" fill="black"/>
        <path opacity="0.1" d="M322.521 107.667H335.979V110.5H322.521V107.667Z" fill="black"/>
        <path opacity="0.7" d="M240 101.528H299.028V134.111H240V101.528Z" fill="#2757D2"/>
        <path opacity="0.1" d="M260.306 107.194H278.25V110.972H260.306V107.194Z" fill="black"/>
        <path opacity="0.1" d="M262.549 107.667H276.007V110.5H262.549V107.667Z" fill="black"/>
        <path opacity="0.7" d="M299.972 68H359V100.583H299.972V68Z" fill="#2757D2"/>
        <path opacity="0.1" d="M320.278 73.6667H338.222V77.4445H320.278V73.6667Z" fill="black"/>
        <path opacity="0.1" d="M322.521 74.1389H335.979V76.9722H322.521V74.1389Z" fill="black"/>
        <path opacity="0.7" d="M240 68H299.028V100.583H240V68Z" fill="#2757D2"/>
        <path opacity="0.1" d="M260.306 73.6667H278.25V77.4445H260.306V73.6667Z" fill="black"/>
        <path opacity="0.1" d="M262.549 74.1389H276.007V76.9722H262.549V74.1389Z" fill="black"/>
        <path opacity="0.7" d="M299.972 34H359V66.5833H299.972V34Z" fill="#2757D2"/>
        <path opacity="0.1" d="M320.278 39.6667H338.222V43.4445H320.278V39.6667Z" fill="black"/>
        <path opacity="0.1" d="M322.521 40.1389H335.979V42.9722H322.521V40.1389Z" fill="black"/>
        <path opacity="0.7" d="M240 34H299.028V66.5833H240V34Z" fill="#2757D2"/>
        <path opacity="0.1" d="M260.306 39.6667H278.25V43.4445H260.306V39.6667Z" fill="black"/>
        <path opacity="0.1" d="M262.549 40.1389H276.007V42.9722H262.549V40.1389Z" fill="black"/>
    </g>
    <g opacity="0.1">
        <path opacity="0.1"
              d="M366.058 68.8129C365.394 69.6589 364.443 70.2195 363.515 70.7624C362.58 71.3647 361.556 71.817 360.48 72.1028C361.94 72.1772 363.346 71.4222 364.629 70.6597C365.557 70.1168 366.508 69.5529 367.172 68.7102C368.257 67.3325 368.404 65.4563 368.398 63.6945C368.381 59.5587 367.767 55.4471 366.574 51.4871C365.383 47.5348 363.606 43.3635 364.9 39.4438C364.95 39.209 365.049 38.9871 365.189 38.792C365.329 38.5969 365.508 38.4326 365.714 38.3095C365.591 38.2843 365.467 38.2695 365.342 38.2654C364.325 38.2368 363.989 38.8973 363.776 39.5419C362.485 43.4688 364.259 47.6363 365.45 51.5853C366.643 55.5453 367.258 59.6569 367.275 63.7926C367.291 65.5522 367.147 67.4322 366.058 68.8129Z"
              fill="black"/>
        <path opacity="0.1"
              d="M351.806 74.7842C351.984 73.2822 353.324 71.1256 354.843 70.612C354.599 70.5768 354.35 70.5761 354.106 70.6096C352.434 70.857 350.893 73.2515 350.69 74.8765C350.183 78.9846 355.398 80.2822 358.702 79.7998C355.465 79.8856 351.352 78.4431 351.806 74.7842Z"
              fill="black"/>
    </g>
    <g opacity="0.5">
        <path opacity="0.5"
              d="M333.883 26.1898C333.883 26.1898 343.232 25.4443 347.582 27.8124C347.582 27.8124 351.079 21.7431 353.818 22.0676C356.557 22.392 356.278 32.5584 356.278 32.5584L358.198 47.6024C358.198 47.6024 371.871 80.7079 352.574 95.0882C333.276 109.469 308.048 87.9512 309.454 76.0789C310.861 64.2067 319.259 40.2024 319.259 40.2024C319.259 40.2024 327.117 20.7613 329.161 19.1504C331.205 17.5396 333.883 26.1898 333.883 26.1898Z"
              fill="url(#paint0_linear_3902_2361)"/>
    </g>
    <circle cx="353.076" cy="29.7702" r="5" transform="rotate(6.75499 353.076 29.7702)" fill="#3F3D56"/>
    <circle cx="361.921" cy="74.1184" r="5" transform="rotate(6.75499 361.921 74.1184)" fill="#3F3D56"/>
    <circle cx="329.243" cy="26.9473" r="5" transform="rotate(6.75499 329.243 26.9473)" fill="#3F3D56"/>
    <path d="M334.04 27.4971C334.04 27.4971 345.19 28.332 347.207 29.0566C348.607 29.2402 355.569 33.6067 355.569 33.6067L357.416 48.0674C357.416 48.0674 370.561 79.8831 352.009 93.7158C333.456 107.549 309.2 86.8638 310.552 75.4542C311.903 64.0446 319.978 40.9642 319.978 40.9642C319.978 40.9642 323.946 31.122 325.911 29.5733C327.876 28.0245 334.04 27.4971 334.04 27.4971Z"
          fill="white"/>
    <g opacity="0.1">
        <path opacity="0.1"
              d="M361.605 65.202C360.934 59.3367 359.523 53.58 357.405 48.0692L357.696 50.3543C359.54 55.145 360.851 60.1243 361.605 65.202Z"
              fill="white"/>
        <path opacity="0.1"
              d="M312.411 73.2774C313.761 61.8778 320.275 43.2499 320.275 43.2499C320.275 43.2499 327.83 24.5616 329.795 23.0129C331.76 21.4641 334.334 29.7824 334.334 29.7824C334.334 29.7824 343.32 29.0652 347.501 31.342C347.501 31.342 350.864 25.5084 353.496 25.8202C354.502 25.9393 355.104 27.4861 355.436 29.3308C355.208 26.6621 354.634 23.7042 353.206 23.5351C350.574 23.2233 347.211 29.0569 347.211 29.0569C343.03 26.7802 334.044 27.4974 334.044 27.4974C334.044 27.4974 331.469 19.1824 329.505 20.7278C327.54 22.2732 319.985 40.9648 319.985 40.9648C319.985 40.9648 313.473 59.5726 312.121 70.9923C311.995 72.0246 312.372 73.606 312.411 73.2774Z"
              fill="white"/>
    </g>
    <path d="M349.469 47.4687C351.388 47.6961 353.102 46.5466 353.297 44.9012C353.492 43.2559 352.094 41.7377 350.174 41.5104C348.255 41.283 346.541 42.4325 346.346 44.0779C346.151 45.7232 347.549 47.2414 349.469 47.4687Z"
          fill="#3F3D56"/>
    <path d="M328.614 44.9986C330.534 45.226 332.248 44.0765 332.443 42.4311C332.638 40.7858 331.24 39.2676 329.32 39.0403C327.401 38.8129 325.686 39.9624 325.492 41.6078C325.297 43.2531 326.695 44.7713 328.614 44.9986Z"
          fill="#3F3D56"/>
    <path d="M349.132 46.6441C350.102 46.7591 350.982 46.0657 351.097 45.0954C351.212 44.1251 350.518 43.2453 349.548 43.1304C348.578 43.0155 347.698 43.7089 347.583 44.6792C347.468 45.6495 348.162 46.5292 349.132 46.6441Z"
          fill="white"/>
    <path d="M349.09 46.4167C349.638 46.4817 350.135 46.0897 350.2 45.5413C350.265 44.9928 349.873 44.4956 349.325 44.4306C348.777 44.3656 348.279 44.7576 348.214 45.306C348.149 45.8545 348.541 46.3518 349.09 46.4167Z"
          fill="#3F3D56"/>
    <path d="M328.942 44.2526C329.912 44.3675 330.792 43.6741 330.907 42.7038C331.022 41.7335 330.328 40.8538 329.358 40.7389C328.388 40.6239 327.508 41.3173 327.393 42.2876C327.278 43.2579 327.971 44.1377 328.942 44.2526Z"
          fill="white"/>
    <path d="M329.229 44.0644C329.777 44.1293 330.274 43.7374 330.339 43.1889C330.404 42.6405 330.012 42.1432 329.464 42.0783C328.915 42.0133 328.418 42.4052 328.353 42.9537C328.288 43.5021 328.68 43.9994 329.229 44.0644Z"
          fill="#3F3D56"/>
    <path d="M339.268 47.2574C340.721 47.4295 341.993 46.7825 342.108 45.8122C342.223 44.8419 341.137 43.9158 339.684 43.7436C338.23 43.5715 336.959 44.2185 336.844 45.1888C336.729 46.159 337.814 47.0852 339.268 47.2574Z"
          fill="#3F3D56"/>
    <path d="M335.644 57.9157C333.346 57.6456 329.918 57.6332 327.7 56.9747C323.434 55.7091 319.594 56.2249 316.018 53.5771L317.79 47.7801C321.42 50.3399 325.433 52.307 329.68 53.6081C335.871 55.4396 346.781 56.3528 358.55 51.5659L360.327 57.8183C351.782 61.3008 341.632 58.625 335.644 57.9157Z"
          fill="#3F3D56"/>
    <path d="M357.645 51.4581C332.651 62.4371 320.695 48.1015 320.695 48.1015L357.645 51.4581Z" fill="white"/>
    <path opacity="0.1"
          d="M332.667 71.2534C332.667 71.2534 337.2 85.2503 329.048 85.4441C320.896 85.6378 326.007 73.8099 326.007 73.8099C326.007 73.8099 325.636 70.0772 323.709 69.6415"
          fill="black"/>
    <path opacity="0.1"
          d="M340.082 71.8051C340.082 71.8051 331.321 83.6256 338.986 86.3966C346.651 89.1676 345.579 76.3422 345.579 76.3422C345.579 76.3422 347.12 72.9242 349.088 73.1234"
          fill="black"/>
    <path d="M332.004 70.7976C332.004 70.7976 336.538 84.7945 328.386 84.9883C320.234 85.1821 325.344 73.3541 325.344 73.3541C325.344 73.3541 324.975 69.6114 323.054 69.1765"
          fill="#3F3D56"/>
    <path d="M340.715 71.3116C340.715 71.3116 331.94 83.1339 339.62 85.8931C347.3 88.6522 346.213 75.8387 346.213 75.8387C346.213 75.8387 347.754 72.4207 349.722 72.6199"
          fill="#3F3D56"/>
    <path d="M284.976 80.1742H218V134.155H284.976V80.1742Z" fill="#E6E6E6"/>
    <path d="M257.153 118.494H245.823V133.822H257.153V118.494Z" fill="#2757D2"/>
    <path d="M367.289 81.7681L369.072 77.0145L385.71 67.5071L397 65.1303L367.289 81.7681Z" fill="#2757D2"/>
    <path d="M306.087 81.7681L304.304 77.0145L287.666 67.5071L276.376 65.1303L306.087 81.7681Z" fill="#2757D2"/>
    <path d="M368.478 82.9566H304.898L299.55 58H373.826L368.478 82.9566Z" fill="#2757D2"/>
    <path opacity="0.1" d="M368.478 82.9566H304.898L299.55 58H373.826L368.478 82.9566Z" fill="black"/>
    <path d="M368.775 81.4709H304.601V134.155H368.775V81.4709Z" fill="#2757D2"/>
    <path d="M342.353 118.486H331.023V133.814H342.353V118.486Z" fill="#3F3D56"/>
    <path d="M350.017 92.2532H323.359V100.584H350.017V92.2532Z" fill="white"/>
    <mask id="mask0_3902_2361" style="mask-type:alpha" maskUnits="userSpaceOnUse" x="218" y="80" width="67" height="55">
        <path d="M284.976 80.1741H218V134.155H284.976V80.1741Z" fill="#E6E6E6"/>
    </mask>
    <g mask="url(#mask0_3902_2361)">
        <path d="M246.282 73.6047L210.63 109.257L216.287 114.914L251.939 79.2615L246.282 73.6047Z" fill="white"/>
    </g>
    <path opacity="0.5"
          d="M220.239 102.626L220.382 102.446C220.563 102.324 220.668 102.277 220.695 102.305C220.748 102.286 220.817 102.29 220.902 102.316C221.029 102.301 221.259 102.369 221.591 102.52L221.954 102.632C222.182 102.765 222.308 102.819 222.333 102.795C222.367 102.762 222.336 102.618 222.24 102.363C222.144 102.074 222.048 101.701 221.952 101.244C221.986 101.173 221.992 101.126 221.97 101.104C221.949 101.048 221.947 101.001 221.964 100.963L222.023 100.914C222.051 100.859 222.085 100.807 222.124 100.758C222.339 100.597 222.463 100.534 222.495 100.568L222.5 100.572L223.465 101.546L223.722 101.827C223.848 101.928 224.159 102.2 224.656 102.643L224.692 102.698C224.728 102.69 224.77 102.663 224.818 102.616C224.885 102.568 224.94 102.566 224.984 102.61L225.008 102.636C225.188 102.82 225.267 102.923 225.244 102.945L225.236 102.953C225.169 102.975 225.112 103.008 225.065 103.055L224.817 103.296C224.56 103.547 224.405 103.645 224.353 103.592L224.264 103.475L224.247 103.458C224.236 103.447 224.207 103.437 224.161 103.428L224.136 103.403C224.122 103.389 224.154 103.329 224.23 103.222L224.226 103.168L224.189 103.155L224.128 103.092C224.087 103.05 224.034 102.968 223.969 102.846L223.966 102.808C223.924 102.805 223.803 102.7 223.601 102.493L223.352 102.237L223.233 102.107C223.192 102.087 223.147 102.052 223.098 102.001L223.037 101.938C222.977 101.877 222.902 101.783 222.813 101.658C222.78 101.624 222.75 101.566 222.724 101.482L222.703 101.453C222.591 101.377 222.515 101.318 222.474 101.276L222.461 101.288C222.46 101.382 222.486 101.561 222.541 101.824C222.639 102.159 222.704 102.439 222.737 102.663L222.802 103.066C222.81 103.108 222.798 103.144 222.768 103.174L222.697 103.202C222.674 103.234 222.66 103.262 222.654 103.284C222.621 103.317 222.57 103.304 222.501 103.245C222.408 103.21 222.302 103.188 222.183 103.178C222.087 103.169 221.846 103.092 221.461 102.949L221.333 102.91L221.185 102.867L221.185 102.858L221.21 102.834C221.224 102.82 221.253 102.828 221.297 102.856L221.309 102.86L221.322 102.848L221.305 102.831C221.224 102.747 221.111 102.71 220.967 102.719L220.954 102.731L220.975 102.752L220.941 102.785L220.966 102.81L221.002 102.856L221.043 102.898C221.688 103.47 222.225 103.977 222.656 104.419C222.664 104.439 222.661 104.455 222.647 104.469C222.636 104.48 222.615 104.47 222.585 104.439L222.573 104.443L222.564 104.451L222.637 104.552C222.693 104.536 222.734 104.542 222.762 104.57L222.802 104.628C222.757 104.672 222.725 104.684 222.706 104.664L222.694 104.677L222.702 104.71L222.722 104.731C222.733 104.742 222.807 104.706 222.943 104.622L222.96 104.606C222.98 104.587 222.996 104.562 223.011 104.532C223.147 104.442 223.225 104.407 223.244 104.427L223.26 104.444L223.239 104.473C223.22 104.492 223.175 104.505 223.106 104.512L223.085 104.533C223.026 104.606 223.004 104.65 223.017 104.664C223.031 104.673 223.046 104.669 223.063 104.653L223.122 104.595C223.214 104.522 223.271 104.496 223.293 104.519L223.342 104.553L223.366 104.578C223.402 104.614 223.393 104.664 223.34 104.727C223.278 104.748 223.226 104.78 223.181 104.824L223.185 104.828C223.193 104.837 223.211 104.827 223.239 104.8C223.284 104.773 223.31 104.764 223.318 104.772L223.276 104.821C223.192 104.903 223.009 105.051 222.727 105.266L222.651 105.397C222.59 105.435 222.544 105.438 222.514 105.408L222.49 105.383C222.456 105.415 222.4 105.402 222.32 105.343L222.308 105.339L222.288 105.318C222.264 105.232 222.293 105.149 222.374 105.07C222.427 104.985 222.45 104.939 222.442 104.93L222.438 104.926L220.474 103.052L220.306 102.863L220.224 102.813C220.167 102.754 220.172 102.692 220.239 102.626ZM220.786 102.592C220.88 102.621 221.005 102.641 221.163 102.651L221.62 102.81L221.633 102.798C221.587 102.75 221.395 102.662 221.056 102.533C221.037 102.514 220.975 102.506 220.87 102.51L220.837 102.493L220.812 102.518C220.781 102.553 220.773 102.578 220.786 102.592ZM221.999 103.98C222.009 104.002 222.024 104.023 222.043 104.042L222.272 104.277L222.493 104.496L222.506 104.5L222.514 104.492C222.542 104.465 222.541 104.427 222.511 104.38L222.487 104.355C222.476 104.366 222.452 104.359 222.417 104.333L222.347 104.254L222.343 104.249C222.278 104.182 222.222 104.139 222.175 104.119L222.13 104.048C222.068 103.989 222.024 103.966 221.999 103.98ZM222.374 102.248L222.39 102.249C222.399 102.213 222.381 102.135 222.335 102.016C222.336 101.966 222.311 101.895 222.259 101.804L222.251 101.795L222.226 101.803C222.187 101.841 222.236 101.99 222.374 102.248ZM223.18 101.464C223.362 101.64 223.468 101.723 223.495 101.712L223.496 101.696L223.365 101.561C223.261 101.455 223.179 101.379 223.119 101.334L223.107 101.347C223.093 101.36 223.117 101.399 223.18 101.464ZM221.479 103.48C221.629 103.623 221.711 103.687 221.725 103.674L221.733 103.665L221.68 103.611C221.596 103.524 221.507 103.439 221.414 103.355L221.41 103.359C221.399 103.369 221.422 103.41 221.479 103.48ZM220.799 102.907L220.778 102.928L220.798 102.957L220.941 103.104C220.99 103.154 221.022 103.173 221.036 103.159C221.05 103.145 221.021 103.102 220.95 103.029C220.893 102.971 220.843 102.93 220.799 102.907ZM224.281 102.502C224.28 102.535 224.303 102.575 224.349 102.623L224.411 102.686L224.452 102.694L224.477 102.67C224.486 102.662 224.478 102.642 224.453 102.612C224.349 102.527 224.292 102.491 224.281 102.502ZM221.974 104.307L221.982 104.307C222.007 104.282 221.979 104.228 221.897 104.144L221.766 104.01L221.737 103.989C221.723 104.002 221.802 104.108 221.974 104.307ZM220.427 102.844L220.427 102.852L220.431 102.857C220.567 102.975 220.642 103.027 220.656 103.013C220.649 102.982 220.63 102.952 220.6 102.921L220.567 102.887C220.51 102.829 220.463 102.814 220.427 102.844ZM222.326 105.215L222.322 105.244L222.342 105.265C222.361 105.284 222.401 105.292 222.462 105.287L222.47 105.279C222.479 105.27 222.475 105.255 222.459 105.233C222.407 105.185 222.374 105.168 222.36 105.182L222.326 105.215ZM224.077 102.569L224.06 102.586C224.089 102.655 224.123 102.709 224.161 102.749C224.202 102.774 224.229 102.781 224.24 102.77L224.248 102.762L224.085 102.578L224.077 102.569ZM220.483 102.692L220.478 102.696L220.503 102.721C220.623 102.805 220.693 102.838 220.713 102.819L220.726 102.807L220.709 102.79L220.61 102.747C220.569 102.705 220.527 102.687 220.483 102.692ZM222.276 104.609L222.342 104.676L222.367 104.668L222.375 104.66L222.298 104.555L222.265 104.53L222.256 104.538C222.245 104.549 222.252 104.573 222.276 104.609ZM222.85 105.072L222.837 105.11C222.868 105.102 222.897 105.084 222.925 105.057L222.938 105.045L222.971 104.995L222.955 104.978L222.85 105.072ZM222.132 101.11L222.14 101.11C222.149 101.102 222.149 101.063 222.142 100.994L222.117 100.969L222.105 100.981C222.096 101.017 222.105 101.06 222.132 101.11ZM221.59 103.854L221.582 103.862L221.618 103.9L221.623 103.904C221.663 103.946 221.689 103.962 221.701 103.951L221.672 103.897C221.626 103.86 221.598 103.846 221.59 103.854ZM224.319 103.364L224.323 103.393L224.339 103.41L224.356 103.41L224.402 103.34L224.39 103.328C224.376 103.319 224.361 103.323 224.344 103.339L224.319 103.364ZM221.033 103.383L221.016 103.399L221.118 103.504L221.139 103.5L221.143 103.496L221.086 103.421L221.074 103.408L221.033 103.383ZM222.52 102.801L222.507 102.814C222.515 102.855 222.526 102.883 222.539 102.897L222.547 102.905L222.56 102.893C222.574 102.88 222.565 102.853 222.532 102.814L222.52 102.801ZM223.034 104.934L223.005 104.963L223.013 104.971L223.076 104.934L223.143 104.869L223.131 104.856L223.034 104.934ZM220.547 102.539L220.526 102.568L220.538 102.58C220.543 102.586 220.56 102.581 220.588 102.565C220.599 102.543 220.602 102.529 220.597 102.523L220.588 102.515L220.568 102.519L220.547 102.539ZM222.167 101.247L222.176 101.239L222.18 101.235C222.178 101.199 222.17 101.174 222.156 101.16L222.148 101.152L222.144 101.156C222.135 101.191 222.143 101.222 222.167 101.247ZM224.463 103.461L224.441 103.498L224.454 103.511L224.47 103.503L224.517 103.458L224.512 103.454C224.493 103.445 224.477 103.448 224.463 103.461ZM224.518 102.712L224.48 102.749L224.489 102.757L224.534 102.762L224.542 102.754L224.547 102.716L224.539 102.708L224.518 102.712ZM220.722 102.434L220.726 102.438L220.772 102.393L220.773 102.385L220.764 102.376L220.752 102.372C220.724 102.399 220.714 102.42 220.722 102.434ZM222.959 101.515L222.972 101.527L222.992 101.532C223.001 101.518 222.997 101.503 222.981 101.486L222.956 101.461L222.948 101.469C222.939 101.482 222.943 101.498 222.959 101.515ZM221.839 103.832L221.855 103.849L221.913 103.9L221.925 103.888L221.897 103.858C221.869 103.83 221.85 103.822 221.839 103.832ZM222.67 104.593L222.666 104.614L222.69 104.614L222.707 104.598L222.703 104.577L222.687 104.577L222.67 104.593ZM224.233 102.99L224.22 103.002L224.24 103.031L224.249 103.04L224.261 103.028L224.253 103.011L224.233 102.99ZM224.446 102.873L224.445 102.906L224.466 102.91L224.491 102.886L224.479 102.873L224.446 102.873ZM223.074 101.632L223.066 101.64L223.082 101.657L223.115 101.674L223.123 101.666L223.095 101.636L223.074 101.632ZM222.903 101.423L222.911 101.414C222.914 101.401 222.906 101.384 222.887 101.364C222.878 101.384 222.884 101.403 222.903 101.423ZM223.893 102.356L223.88 102.368L223.889 102.385L223.918 102.381L223.914 102.36L223.91 102.356L223.893 102.356ZM224.33 102.813L224.305 102.838L224.321 102.854L224.334 102.842L224.334 102.817L224.33 102.813ZM222.544 105.321L222.528 105.337L222.54 105.35L222.561 105.354L222.561 105.338L222.565 105.334L222.544 105.321ZM220.328 102.76L220.316 102.772L220.328 102.785L220.345 102.785L220.349 102.781L220.328 102.76ZM222.431 104.777L222.423 104.785L222.443 104.806L222.456 104.794L222.444 104.781L222.431 104.777ZM223.849 98.775C224.036 98.6366 224.149 98.5869 224.187 98.6261L224.973 99.0302L225.573 99.3779C225.913 99.6034 226.292 99.8335 226.712 100.068C226.715 100.06 226.719 100.053 226.725 100.048L226.766 100.09L226.761 100.094C226.772 100.1 226.785 100.107 226.798 100.115C226.815 100.121 226.826 100.127 226.831 100.132L227.079 100.227L227.202 100.311L227.238 100.365C227.291 100.358 227.338 100.336 227.38 100.301L227.464 100.219L227.468 100.215C227.504 100.191 227.53 100.18 227.543 100.183L227.567 100.258L227.641 100.325C227.671 100.356 227.685 100.399 227.685 100.454L227.668 100.471C227.624 100.47 227.595 100.476 227.581 100.49L227.572 100.498C227.544 100.526 227.537 100.549 227.551 100.568C227.559 100.577 227.589 100.558 227.643 100.512L227.655 100.524C227.666 100.535 227.656 100.559 227.625 100.594L227.554 100.631L227.512 100.671L227.276 100.95C227.217 101.007 227.111 101.043 226.956 101.058L226.957 100.991L226.94 100.975L226.812 100.927C226.78 100.894 226.815 100.827 226.919 100.726L226.915 100.713L226.898 100.697C226.776 100.571 226.581 100.485 226.313 100.44L226.309 100.444C226.04 100.75 225.729 101.111 225.375 101.526L225.283 101.616C225.282 101.638 225.354 101.787 225.496 102.062C225.518 102.062 225.539 102.053 225.559 102.034L225.643 101.952C225.741 101.857 225.863 101.814 226.009 101.824L226.013 101.828C226.032 101.848 226.033 101.921 226.014 102.048C226.044 102.079 225.847 102.301 225.421 102.716C225.349 102.781 225.306 102.807 225.292 102.793L225.256 102.722L225.251 102.717C225.241 102.706 225.205 102.692 225.144 102.675C225.128 102.658 225.133 102.612 225.159 102.538L225.15 102.521L225.089 102.458C225.065 102.433 225.066 102.407 225.094 102.38L225.127 102.38L225.16 102.447L225.168 102.447L225.172 102.443C225.159 102.363 225.144 102.313 225.124 102.293L225.108 102.276C225.092 102.26 225.079 102.255 225.071 102.263C225.05 102.186 225.007 102.097 224.942 101.997L224.572 101.18L224.459 100.905C224.435 100.879 224.419 100.813 224.412 100.705L224.404 100.697L224.35 100.667C224.359 100.615 224.357 100.581 224.343 100.567L224.319 100.567C224.291 100.539 224.28 100.493 224.283 100.43L224.25 100.405L223.892 99.6498C223.857 99.5195 223.803 99.3765 223.727 99.2209C223.736 99.2127 223.731 99.1657 223.713 99.0798C223.773 98.9121 223.818 98.8105 223.849 98.775ZM225.064 101.232L225.084 101.253L225.105 101.249C225.415 100.833 225.674 100.523 225.884 100.318L226.056 100.151L226.052 100.122L226.048 100.118C225.936 100.03 225.862 100.005 225.826 100.04L224.784 99.5C224.642 99.4153 224.521 99.3529 224.422 99.3129C224.376 99.293 224.336 99.2855 224.302 99.2906C224.33 99.3186 224.357 99.3494 224.384 99.3829C224.57 99.9654 224.687 100.369 224.737 100.593C224.777 100.724 224.886 100.936 225.064 101.232ZM227.444 100.484L227.452 100.493L227.456 100.488C227.512 100.434 227.532 100.398 227.516 100.381L227.478 100.385C227.456 100.407 227.445 100.44 227.444 100.484ZM224.208 99.2272L224.212 99.2231C224.237 99.1986 224.239 99.1751 224.217 99.1528L224.201 99.136L224.188 99.1482C224.18 99.1785 224.186 99.2048 224.208 99.2272ZM223.995 98.7562L223.974 98.7766L223.994 98.7976L224.019 98.7979L224.052 98.7652L224.053 98.7486L224.049 98.7445C224.029 98.7359 224.011 98.7398 223.995 98.7562ZM225.811 100.521L225.819 100.545L225.835 100.546L225.856 100.525C225.882 100.501 225.89 100.482 225.882 100.468L225.874 100.459L225.811 100.521ZM226.813 100.231L226.692 100.35L226.708 100.367L226.822 100.24L226.813 100.231ZM225.173 101.788L225.164 101.796L225.185 101.826L225.209 101.843L225.218 101.834L225.218 101.81L225.189 101.78L225.173 101.788ZM227.218 100.958L227.226 100.966L227.243 100.95C227.26 100.933 227.264 100.918 227.256 100.904L227.235 100.9C227.216 100.919 227.21 100.938 227.218 100.958ZM225.038 101.977L225.033 102.031L225.045 102.043C225.067 102.022 225.07 102 225.054 101.977L225.038 101.977ZM225.936 100.129L225.933 100.091L225.941 100.091L225.974 100.125L225.973 100.15L225.936 100.129ZM224.527 100.512L224.432 100.44L224.453 100.469L224.465 100.482L224.469 100.478C224.524 100.517 224.546 100.531 224.535 100.52L224.527 100.512ZM227.122 100.397L227.118 100.401L227.146 100.43L227.171 100.431L227.175 100.427L227.147 100.397L227.122 100.397ZM225.274 102.279L225.261 102.299L225.273 102.312L225.298 102.312L225.302 102.308L225.299 102.287L225.274 102.279ZM224.024 99.0052L224.02 99.0093L224.028 99.0177L224.049 99.0221L224.057 99.0139L224.045 99.0013L224.024 99.0052ZM225.578 100.911L225.565 100.923L225.578 100.936L225.59 100.924L225.578 100.911ZM224.53 100.599L224.525 100.603L224.538 100.616L224.542 100.611L224.53 100.599ZM226.191 96.527L226.229 96.4902C226.366 96.3567 226.565 96.2585 226.825 96.1956C226.994 96.1896 227.088 96.177 227.108 96.1579L227.133 96.1334C227.142 96.0976 227.138 96.0713 227.121 96.0545L227.113 96.0461L227.031 96.0036C227.02 95.9924 227.023 95.9759 227.04 95.954C227.062 95.9433 227.088 95.9395 227.119 95.9426L227.127 95.9344L227.115 95.9219C227.085 95.8911 227.031 95.8779 226.954 95.8824C226.957 95.8631 226.982 95.8303 227.03 95.784C227.041 95.7731 227.119 95.752 227.263 95.7208C227.282 95.7017 227.302 95.702 227.321 95.7215L227.705 96.1161C227.885 96.3008 227.974 96.4208 227.974 96.476L227.982 96.4927L228.011 96.4972L228.015 96.5014C228.056 96.5434 228.014 96.6244 227.891 96.7443C227.877 96.7855 227.866 96.8102 227.857 96.8184L227.84 96.8348C227.797 96.79 227.687 96.7416 227.511 96.6895C227.283 96.5511 227.132 96.4856 227.058 96.4929C226.961 96.4833 226.793 96.5626 226.553 96.7307L226.419 96.8367L226.272 97.0129L226.214 97.0121C226.169 97.0668 226.138 97.2141 226.121 97.4542L226.145 97.496L226.153 97.5044L226.17 97.488C226.192 97.2812 226.216 97.1406 226.242 97.0663L226.25 97.0747C226.254 97.2129 226.222 97.4266 226.155 97.7157C226.134 97.8453 226.151 97.9781 226.207 98.1142C226.293 98.3419 226.41 98.5326 226.56 98.6866C226.819 98.9524 227.039 99.1142 227.221 99.1718C227.63 99.3678 227.97 99.4594 228.241 99.4464C228.529 99.3673 228.757 99.246 228.925 99.0825L228.992 99.0171C229.076 98.9353 229.137 98.816 229.175 98.659C229.146 98.562 229.144 98.4114 229.169 98.2073C229.19 98.0391 229.178 97.9312 229.132 97.8836L229.119 97.871L229.005 97.7618C228.997 97.7534 228.998 97.7216 229.01 97.6665C228.999 97.6553 228.997 97.6387 229.003 97.6167L229.015 97.6044L229.132 97.5231L229.204 97.4536C229.226 97.4318 229.256 97.4405 229.295 97.4797C229.448 97.5812 229.556 97.6641 229.619 97.7285C229.758 97.8712 229.854 98.0064 229.907 98.1342L229.92 98.1468L229.952 98.1721L229.964 98.2261L229.972 98.2345C229.978 98.2401 230.008 98.2239 230.064 98.186L230.072 98.1944L229.926 98.5985L229.918 98.6067C229.816 98.5915 229.714 98.557 229.612 98.5032L229.604 98.5031C229.581 98.5525 229.553 98.6488 229.517 98.792C229.386 99.0997 229.296 99.278 229.245 99.3271L228.92 99.4968L228.861 99.5374L228.836 99.562L228.798 99.6319C228.733 99.6946 228.601 99.766 228.401 99.8463C228.259 99.93 228.086 99.9485 227.883 99.9016C227.411 99.8097 227.101 99.6868 226.951 99.5329C226.828 99.4567 226.74 99.392 226.688 99.3388C226.664 99.3081 226.669 99.2764 226.702 99.2437L226.747 99.2733L226.768 99.2943L226.785 99.2779L226.789 99.249L226.773 99.2322C226.737 99.1958 226.681 99.2019 226.603 99.2506C226.594 99.2588 226.44 99.1117 226.14 98.8094C226.075 98.7423 225.991 98.581 225.89 98.3255C225.895 98.32 225.863 98.2726 225.792 98.1833C225.801 98.1696 225.78 98.1265 225.732 98.054C225.723 97.8771 225.741 97.6882 225.785 97.4871C225.789 97.3849 225.822 97.2569 225.885 97.1031C226.002 96.8035 226.104 96.6115 226.191 96.527ZM226.138 96.7584L226.151 96.7709L226.159 96.7628C226.193 96.7245 226.203 96.6984 226.189 96.6844L226.172 96.6925L226.168 96.6966C226.14 96.7238 226.13 96.7444 226.138 96.7584ZM226.399 96.4718L226.395 96.4758L226.407 96.4884L226.487 96.4356L226.495 96.4274L226.491 96.4067C226.483 96.3983 226.452 96.42 226.399 96.4718ZM225.908 97.2442L225.916 97.2526L225.921 97.2486C225.957 97.191 225.986 97.1113 226.007 97.0094L226.003 97.0052L225.99 97.0091L225.986 97.0132C225.935 97.0844 225.909 97.1614 225.908 97.2442ZM226.484 96.6096C226.495 96.6208 226.57 96.5776 226.71 96.48L226.747 96.4764L226.776 96.4477L226.773 96.4187L226.765 96.4103C226.737 96.4375 226.694 96.4522 226.635 96.4542C226.561 96.4836 226.512 96.5092 226.489 96.531C226.461 96.5582 226.46 96.5844 226.484 96.6096ZM227.102 96.2449L227.09 96.2571L227.098 96.2655C227.153 96.2773 227.19 96.2737 227.21 96.2546L227.214 96.2505L227.219 96.2216L227.215 96.2174C227.162 96.2139 227.125 96.2231 227.102 96.2449ZM226.034 97.4572L226.046 97.445C226.055 97.4313 226.056 97.4161 226.051 97.3994L226.043 97.4076C226.032 97.4185 226.029 97.4351 226.034 97.4572ZM226.041 97.5568L226.058 97.5404L226.062 97.5115L226.046 97.4947C226.023 97.5165 226.022 97.5372 226.041 97.5568ZM227.279 96.326L227.283 96.3467L227.291 96.3551L227.312 96.3513L227.313 96.3181L227.284 96.3219L227.279 96.326ZM225.858 97.9314C225.891 97.8987 225.903 97.8629 225.892 97.8241L225.88 97.8115L225.863 97.8279C225.835 97.8551 225.833 97.8896 225.858 97.9314ZM227.688 96.4598L227.688 96.4764L227.7 96.489L227.717 96.4809L227.717 96.4561L227.7 96.4476L227.688 96.4598ZM227.719 96.626L227.727 96.6344C227.761 96.574 227.771 96.5369 227.757 96.5229C227.741 96.5171 227.726 96.5156 227.712 96.5181L227.695 96.5345C227.695 96.5787 227.702 96.6092 227.719 96.626ZM227.801 96.6768L227.801 96.7099L227.821 96.7309L227.838 96.7146C227.855 96.6982 227.859 96.6803 227.851 96.6609L227.847 96.6567L227.826 96.6523L227.801 96.6768ZM226.289 98.5089L226.297 98.5173L226.31 98.5051L226.315 98.4678L226.286 98.4385L226.269 98.4548C226.266 98.4741 226.273 98.4921 226.289 98.5089ZM226.2 98.6776L226.192 98.6858L226.236 98.7651L226.273 98.8029L226.281 98.7947C226.292 98.7838 226.284 98.7644 226.257 98.7364L226.2 98.6776ZM226.322 98.8367L226.305 98.8531L226.326 98.8741L226.343 98.8577L226.343 98.8411L226.322 98.8367ZM226.763 99.0622L226.836 99.1377C226.907 99.1994 227.027 99.2466 227.195 99.2792L227.211 99.2794L227.228 99.2631L227.208 99.2421C226.999 99.1343 226.806 99.0116 226.628 98.8739L226.624 98.878C226.61 98.8916 226.656 98.953 226.763 99.0622ZM226.548 99.0013L226.544 99.0054L226.564 99.0347L226.601 99.0724L226.63 99.077L226.63 99.0521L226.606 99.0269C226.581 99.0017 226.562 98.9932 226.548 99.0013ZM226.842 99.3201L226.829 99.3324L226.842 99.345L226.871 99.3412L226.875 99.3371L226.863 99.3245L226.842 99.3201ZM227.102 99.394L227.098 99.4147C227.114 99.4314 227.132 99.4358 227.151 99.4278L227.156 99.4237L227.164 99.4072L227.152 99.3946L227.102 99.394ZM227.208 99.5114L227.204 99.5155L227.212 99.5239C227.283 99.5746 227.329 99.5904 227.348 99.5713L227.353 99.5672C227.364 99.5563 227.364 99.5452 227.353 99.5341L227.208 99.5114ZM229.216 97.7687L229.208 97.7852L229.216 97.7936L229.257 97.7941L229.266 97.7859C229.291 97.7504 229.3 97.7284 229.291 97.72L229.283 97.7116L229.275 97.7115L229.216 97.7687ZM229.356 97.8203L229.373 97.8371C229.397 97.8457 229.417 97.8432 229.431 97.8296C229.431 97.8075 229.42 97.7852 229.398 97.7628L229.378 97.7418C229.37 97.7334 229.36 97.7347 229.349 97.7456C229.335 97.7758 229.337 97.8007 229.356 97.8203ZM229.322 97.8778L229.318 97.8985L229.371 97.9531L229.404 97.9535L229.408 97.9494L229.409 97.9246L229.38 97.8952C229.361 97.8756 229.342 97.8698 229.322 97.8778ZM227.684 99.555L227.688 99.5592C227.818 99.6024 227.898 99.6089 227.928 99.579L227.912 99.5622C227.788 99.5412 227.712 99.5388 227.684 99.555ZM227.558 99.7025L227.562 99.7233L227.582 99.7277L227.591 99.7195L227.591 99.6947L227.566 99.6943L227.558 99.7025ZM229.29 98.1053L229.29 98.1219L229.302 98.1345L229.323 98.114L229.324 98.0892L229.316 98.0808L229.29 98.1053ZM229.441 97.9581L229.425 97.9745L229.441 97.9913L229.454 97.979L229.446 97.9623L229.441 97.9581ZM227.665 99.7288L227.661 99.7329L227.665 99.7371C227.673 99.7455 227.701 99.7569 227.748 99.7713L227.769 99.7509L227.76 99.7425C227.741 99.7229 227.71 99.7183 227.665 99.7288ZM229.326 98.2177L229.334 98.2261L229.339 98.222L229.351 98.1849L229.339 98.1723L229.331 98.1804C229.322 98.1997 229.321 98.2121 229.326 98.2177ZM227.991 99.5591L227.986 99.5797C228.022 99.6161 228.072 99.614 228.136 99.5734L228.144 99.5652L228.149 99.5363C228.096 99.5273 228.044 99.5349 227.991 99.5591ZM229.556 98.0508L229.552 98.0549L229.581 98.0843L229.606 98.0846L229.61 98.0805L229.577 98.047L229.556 98.0508ZM227.839 99.756L227.826 99.7682C227.911 99.8108 227.98 99.8255 228.033 99.8124L228.058 99.7879L228.03 99.7585C227.98 99.7468 227.916 99.7459 227.839 99.756ZM228.268 99.5669L228.243 99.5914L228.247 99.5956C228.255 99.604 228.305 99.5798 228.397 99.523L228.389 99.5146C228.353 99.5059 228.313 99.5233 228.268 99.5669ZM229.455 98.5177L229.463 98.5261C229.483 98.507 229.488 98.4822 229.481 98.4517L229.476 98.4476L229.472 98.4516C229.45 98.4734 229.444 98.4955 229.455 98.5177ZM229.728 98.252L229.732 98.2645L229.756 98.2814L229.773 98.2567L229.757 98.2399L229.736 98.2438L229.728 98.252ZM228.27 99.7782L228.273 99.799C228.287 99.8075 228.371 99.7727 228.523 99.6946C228.534 99.7058 228.564 99.6882 228.611 99.6419L228.624 99.613L228.62 99.6088C228.606 99.6004 228.53 99.6256 228.391 99.6845C228.374 99.6843 228.347 99.7033 228.307 99.7414L228.27 99.7782ZM228.471 99.582L228.471 99.5903L228.479 99.5987C228.598 99.5754 228.711 99.512 228.817 99.4084L228.847 99.3798L228.847 99.3632C228.65 99.4573 228.524 99.5302 228.471 99.582ZM228.856 99.2971C228.925 99.3007 228.999 99.2644 229.077 99.1881C229.161 99.0898 229.194 99.0308 229.175 99.0112L229.167 99.0028C229.153 98.9888 229.111 99.0159 229.041 99.084L228.978 99.1454C228.886 99.2353 228.845 99.2859 228.856 99.2971ZM229.347 98.8188L229.351 98.8395L229.368 98.8232L229.368 98.8066L229.36 98.8065L229.347 98.8188ZM229.879 98.3907L229.824 98.4604L229.841 98.4772L229.878 98.4736L229.899 98.4531C229.955 98.3765 229.978 98.3326 229.967 98.3215L229.959 98.3131L229.879 98.3907ZM229.201 99.1898L229.112 99.3419L229.125 99.3545L229.204 99.3017L229.229 99.2771C229.257 99.2499 229.297 99.151 229.349 98.9804L229.337 98.9678L229.333 98.9719C229.308 98.9964 229.264 99.069 229.201 99.1898ZM228.689 94.0615C228.876 93.9231 228.989 93.8735 229.027 93.9127L229.813 94.3167L230.413 94.6644C230.753 94.8899 231.132 95.1201 231.552 95.3549C231.555 95.3467 231.559 95.3398 231.565 95.3344L231.605 95.3764L231.601 95.3804C231.612 95.3861 231.625 95.3932 231.638 95.4017C231.655 95.4074 231.666 95.4131 231.671 95.4187L231.919 95.5131L232.042 95.5976L232.078 95.652C232.131 95.6444 232.178 95.6229 232.22 95.5875L232.304 95.5058L232.308 95.5017C232.344 95.4773 232.369 95.4666 232.383 95.4695L232.407 95.5444L232.481 95.6117C232.511 95.6425 232.525 95.6855 232.525 95.7407L232.508 95.7571C232.464 95.7565 232.435 95.763 232.421 95.7766L232.412 95.7848C232.384 95.8121 232.377 95.8355 232.391 95.855C232.399 95.8634 232.429 95.8444 232.482 95.7982L232.495 95.8108C232.506 95.822 232.496 95.8453 232.465 95.8808L232.394 95.9172L232.352 95.9581L232.116 96.2367C232.057 96.2939 231.951 96.3298 231.796 96.3443L231.797 96.278L231.78 96.2613L231.652 96.214C231.62 96.1804 231.655 96.1132 231.759 96.0124L231.755 95.9999L231.738 95.9831C231.616 95.8571 231.421 95.7717 231.153 95.7267L231.149 95.7308C230.88 96.0366 230.568 96.3971 230.215 96.8123L230.123 96.9023C230.122 96.9244 230.194 97.0731 230.336 97.3485C230.358 97.3488 230.379 97.3394 230.399 97.3203L230.483 97.2385C230.581 97.1431 230.703 97.1006 230.849 97.1108L230.853 97.115C230.872 97.1346 230.873 97.2078 230.854 97.3346C230.884 97.3654 230.687 97.5879 230.261 98.0022C230.189 98.0675 230.145 98.0932 230.132 98.0792L230.096 98.0082L230.091 98.004C230.081 97.9929 230.045 97.9786 229.984 97.9612C229.968 97.9444 229.973 97.8989 229.998 97.8246L229.99 97.808L229.929 97.745C229.905 97.7198 229.906 97.6936 229.934 97.6663L229.967 97.6668L230 97.7335L230.008 97.7336L230.012 97.7295C229.999 97.6492 229.984 97.5993 229.964 97.5797L229.948 97.5629C229.932 97.5461 229.919 97.5418 229.911 97.55C229.89 97.4724 229.847 97.3834 229.782 97.2831L229.412 96.4661L229.299 96.1911C229.275 96.1659 229.259 96.0994 229.252 95.9916L229.244 95.9832L229.19 95.9535C229.199 95.9011 229.197 95.8679 229.183 95.8539L229.159 95.8536C229.131 95.8256 229.12 95.7799 229.123 95.7164L229.09 95.6911L228.732 94.9364C228.697 94.8061 228.643 94.6631 228.567 94.5074C228.576 94.4992 228.571 94.4522 228.553 94.3663C228.613 94.1986 228.658 94.097 228.689 94.0615ZM229.904 96.5182L229.924 96.5392L229.945 96.5353C230.254 96.1195 230.514 95.8094 230.724 95.605L230.896 95.4374L230.892 95.4083L230.888 95.4042C230.776 95.317 230.702 95.2912 230.666 95.3266L229.624 94.7866C229.482 94.7018 229.361 94.6395 229.262 94.5995C229.216 94.5795 229.176 94.5721 229.142 94.5772C229.17 94.6052 229.197 94.6359 229.224 94.6694C229.41 95.252 229.527 95.6555 229.577 95.8799C229.616 96.0102 229.726 96.223 229.904 96.5182ZM232.284 95.7707L232.292 95.7791L232.296 95.775C232.352 95.7205 232.372 95.6848 232.356 95.6681L232.318 95.6717C232.296 95.6935 232.285 95.7265 232.284 95.7707ZM229.048 94.5138L229.052 94.5097C229.077 94.4852 229.079 94.4617 229.057 94.4393L229.041 94.4225L229.028 94.4348C229.02 94.4651 229.026 94.4914 229.048 94.5138ZM228.835 94.0427L228.814 94.0632L228.834 94.0842L228.859 94.0845L228.892 94.0518L228.893 94.0352L228.889 94.031C228.869 94.0225 228.851 94.0264 228.835 94.0427ZM230.651 95.8071L230.659 95.832L230.675 95.8323L230.696 95.8118C230.722 95.7873 230.73 95.7681 230.722 95.7542L230.714 95.7458L230.651 95.8071ZM231.653 95.5179L231.532 95.6364L231.548 95.6532L231.661 95.5263L231.653 95.5179ZM230.013 97.0748L230.004 97.083L230.024 97.1123L230.049 97.1292L230.058 97.121L230.058 97.0962L230.029 97.0668L230.013 97.0748ZM232.058 96.2442L232.066 96.2526L232.083 96.2363C232.1 96.2199 232.104 96.2048 232.096 96.1908L232.075 96.1864C232.056 96.2055 232.05 96.2248 232.058 96.2442ZM229.877 97.2637L229.873 97.3175L229.885 97.3301C229.907 97.3083 229.91 97.2862 229.894 97.2639L229.877 97.2637ZM230.776 95.4151L230.773 95.3778L230.781 95.3779L230.814 95.4114L230.813 95.4363L230.776 95.4151ZM229.366 95.7984L229.272 95.7267L229.292 95.7559L229.305 95.7685L229.309 95.7644C229.364 95.8038 229.386 95.8179 229.375 95.8068L229.366 95.7984ZM231.962 95.6836L231.958 95.6876L231.986 95.717L232.011 95.7174L232.015 95.7133L231.987 95.6839L231.962 95.6836ZM230.114 97.5651L230.101 97.5857L230.113 97.5983L230.138 97.5986L230.142 97.5945L230.139 97.5737L230.114 97.5651ZM228.864 94.2917L228.86 94.2958L228.868 94.3042L228.889 94.3086L228.897 94.3005L228.885 94.2879L228.864 94.2917ZM230.418 96.1976L230.405 96.2099L230.417 96.2225L230.43 96.2102L230.418 96.1976ZM229.369 95.8854L229.365 95.8895L229.378 95.9021L229.382 95.898L229.369 95.8854ZM230.131 92.5351L230.405 92.1699L230.417 92.1576C230.468 92.1086 230.589 92.0232 230.781 91.9014C230.991 91.697 231.324 91.4846 231.78 91.2641C232.04 91.2344 232.287 91.2612 232.521 91.3444C232.633 91.4039 232.732 91.477 232.816 91.5637L232.824 91.5721C232.947 91.6981 233.031 91.8884 233.078 92.1432C233.093 92.2759 233.071 92.4331 233.014 92.6147C233.013 92.6754 232.989 92.7856 232.943 92.9452C232.934 93.0252 232.936 93.0722 232.949 93.0862C233.531 93.2016 233.912 93.2716 234.094 93.2961C234.303 93.3541 234.442 93.3504 234.509 93.285C234.732 93.0891 234.869 93.0163 234.918 93.0667L235.143 93.2313C235.152 93.2507 235.147 93.2686 235.13 93.285L235.097 93.3177L234.919 93.5971C234.867 93.5881 234.764 93.6585 234.61 93.8084C234.458 93.9556 234.375 94.0208 234.358 94.004C234.315 93.9647 234.246 93.9196 234.153 93.8687L234.12 93.8434L234.104 93.8266C234.079 93.8014 233.977 93.7752 233.798 93.748C233.724 93.7 233.673 93.6786 233.646 93.6838C233.494 93.6569 233.223 93.5691 232.833 93.4203C232.772 93.4195 232.732 93.4286 232.712 93.4477L232.509 93.7599C232.389 93.8771 232.364 93.9721 232.435 94.0448L232.505 94.1162C232.851 94.4716 233.05 94.6234 233.104 94.5716L233.162 94.5227L233.208 94.4777L233.289 94.3586C233.341 94.3786 233.408 94.4306 233.49 94.5146L233.514 94.5729L233.592 94.6444C233.616 94.6696 233.544 94.7915 233.375 95.0103L233.355 95.0142L233.019 95.3246L232.784 95.5536C232.756 95.5808 232.708 95.5595 232.64 95.4895L232.57 95.4181C232.467 95.3118 232.44 95.2341 232.491 95.185L232.639 94.9591L232.586 94.888C231.972 94.297 231.561 93.9172 231.354 93.7487C230.754 93.1386 230.447 92.8403 230.433 92.854L230.408 92.8619L230.176 93.1945L230.155 93.2066L230.127 93.1607L230.076 93.2097L230.064 93.1971L230.056 93.2053L230.015 93.1468L229.99 93.1216C229.974 93.1048 229.936 93.0877 229.875 93.0703C229.909 93.0266 229.917 92.9963 229.901 92.9795L229.843 92.9705C229.824 92.9509 229.92 92.8057 230.131 92.5351ZM230.52 92.2129L230.52 92.2377L230.545 92.2381L230.616 92.1686L230.604 92.156L230.537 92.1965L230.52 92.2129ZM230.711 92.232C230.669 92.2784 230.653 92.3072 230.664 92.3184C230.675 92.3296 230.691 92.3243 230.714 92.3025L230.722 92.2943C230.795 92.2179 230.828 92.17 230.819 92.1505L230.795 92.1502L230.711 92.232ZM231.045 92.0126L231.07 92.0047L231.112 91.9638C231.137 91.9393 231.146 91.9173 231.138 91.8979C231.127 91.8867 231.105 91.8974 231.071 91.9301C231.043 91.9574 231.034 91.9849 231.045 92.0126ZM231.561 91.5098L231.557 91.5222L231.561 91.5264C231.583 91.5267 231.604 91.5173 231.624 91.4982L231.62 91.494C231.614 91.4884 231.595 91.4937 231.561 91.5098ZM230.061 93.0935L230.077 93.1103L230.094 93.1022C230.114 93.0832 230.12 93.0556 230.112 93.0196L230.091 92.9986L230.058 92.9982L230.033 93.0227C230.022 93.0336 230.031 93.0572 230.061 93.0935ZM231.753 91.4378L231.757 91.442C231.846 91.4266 231.958 91.4101 232.093 91.3926L232.106 91.3803L232.085 91.3593C232.045 91.3173 231.934 91.3435 231.753 91.4378ZM230.811 92.4529L230.844 92.4865L231.139 92.7224C231.406 93.0298 231.545 93.2002 231.555 93.2335L231.563 93.2833L231.612 93.3337L231.85 93.5191C231.948 93.6199 232.011 93.6566 232.039 93.6294L232.047 93.6212C232.233 93.3861 232.314 93.2573 232.293 93.2349C232.384 93.0428 232.442 92.9013 232.468 92.8105C232.591 92.6906 232.655 92.4594 232.66 92.1169C232.615 91.9754 232.553 91.8641 232.473 91.7829L232.429 91.7368C232.401 91.7088 232.29 91.6728 232.094 91.6288C231.794 91.6054 231.579 91.6565 231.45 91.7818L231.299 91.9124C231.097 92.1528 230.934 92.333 230.811 92.4529ZM230.53 92.7434L230.53 92.7682L230.619 92.8606L230.865 93.071L230.869 93.0669L230.576 92.715L230.559 92.7148L230.53 92.7434ZM231.955 91.5109L231.959 91.5317L232 91.5322L232.013 91.5199L232.005 91.5116L231.963 91.5027L231.955 91.5109ZM230.99 92.737L231.002 92.7579L231.018 92.7747C231.04 92.7916 231.054 92.7973 231.06 92.7918L231.06 92.767L231.027 92.7334L230.998 92.7289L230.99 92.737ZM231.003 92.9941L231.248 93.304L231.272 93.3043L231.289 93.288L231.285 93.2589L231.069 93.0364C231.033 93 231.011 92.9859 231.003 92.9941ZM232.566 91.6433L232.562 91.664L232.591 91.6933L232.611 91.6895L232.616 91.6854L232.616 91.6605L232.6 91.6437L232.571 91.6392L232.566 91.6433ZM231.09 93.2936L231.078 93.3059L231.09 93.3185L231.111 93.3146L231.119 93.3064L231.111 93.298L231.09 93.2936ZM232.825 91.8498L232.812 91.862L232.833 91.883L232.865 91.9746L232.881 91.9914L232.935 91.9962C232.954 91.9772 232.937 91.9369 232.882 91.8754C232.852 91.8501 232.833 91.8416 232.825 91.8498ZM232.928 92.1578C232.945 92.169 232.967 92.1721 232.995 92.1669L233.003 92.1587C233.009 92.1036 233 92.0634 232.976 92.0382L232.963 92.0422C232.924 92.0803 232.912 92.1189 232.928 92.1578ZM232.856 92.3101L232.868 92.3227L232.885 92.3063C232.899 92.2761 232.9 92.2541 232.886 92.2401L232.873 92.2523C232.854 92.2714 232.848 92.2907 232.856 92.3101ZM232.677 92.6558L232.69 92.6684L232.727 92.6316C232.725 92.6012 232.737 92.5516 232.763 92.4829L232.763 92.4746L232.75 92.462C232.711 92.5002 232.687 92.5648 232.677 92.6558ZM231.591 93.6234L231.595 93.6525L231.599 93.6567L231.624 93.657L231.624 93.6322L231.62 93.628L231.591 93.6234ZM232.591 92.953L232.603 92.9656C232.665 92.8725 232.691 92.7955 232.68 92.7346L232.676 92.7304L232.668 92.7385C232.611 92.8428 232.586 92.9142 232.591 92.953ZM232.865 92.5464L232.861 92.5671L232.869 92.5755L232.89 92.555L232.874 92.5382L232.865 92.5464ZM232.851 92.6912L232.859 92.6914L232.863 92.6873L232.876 92.6419L232.864 92.6293L232.86 92.6334C232.846 92.658 232.843 92.6773 232.851 92.6912ZM232.471 93.2083L232.475 93.2125L232.505 93.1839C232.538 93.1401 232.553 93.1155 232.547 93.1099L232.53 93.1096L232.522 93.1178C232.48 93.1697 232.463 93.1999 232.471 93.2083ZM232.349 93.3931L232.353 93.3973L232.365 93.3851C232.41 93.3415 232.426 93.3127 232.412 93.2987L232.404 93.2903L232.391 93.3025C232.377 93.3162 232.363 93.3464 232.349 93.3931ZM232.662 93.1611L232.675 93.1571L232.679 93.153C232.733 93.0681 232.753 93.0187 232.739 93.0047L232.727 93.0004L232.722 93.0045C232.675 93.0729 232.655 93.1251 232.662 93.1611ZM232.996 93.3271L233 93.3313C233.022 93.3537 233.052 93.3624 233.091 93.3574L233.108 93.341L233.099 93.3326C233.044 93.3153 233.01 93.3135 232.996 93.3271ZM232.659 94.6942L232.658 94.7273L232.699 94.7693L232.716 94.753L232.683 94.7028L232.663 94.6901L232.659 94.6942ZM232.988 94.8477L232.992 94.8519L233.025 94.8524L233.034 94.8442C233.045 94.8333 233.034 94.8055 233.002 94.7609L232.985 94.7441L232.952 94.7271L232.94 94.7393C232.929 94.7502 232.945 94.7864 232.988 94.8477ZM232.839 94.854L232.83 94.8622L232.892 94.9417L232.896 94.9459L232.912 94.9296L232.917 94.9006L232.901 94.8838C232.873 94.8559 232.853 94.8459 232.839 94.854ZM233.348 94.5541L233.348 94.5624L233.365 94.5792L233.369 94.5751L233.365 94.5461L233.361 94.5419L233.348 94.5541ZM234.351 93.6186L234.355 93.6559L234.392 93.6605L234.396 93.6564L234.392 93.6191L234.372 93.5981L234.351 93.6186ZM234.779 93.243L234.799 93.264L234.828 93.2437L234.849 93.2232L234.85 93.1984L234.837 93.1858L234.813 93.1854L234.796 93.2018C234.779 93.2237 234.773 93.2374 234.779 93.243ZM233.434 94.692L233.446 94.688L233.463 94.6717L233.467 94.6427L233.459 94.6343L233.439 94.6299C233.416 94.6517 233.414 94.6724 233.434 94.692ZM234.492 93.5873L234.446 93.6322L234.45 93.6364L234.483 93.6369L234.555 93.5674L234.551 93.5632C234.537 93.5547 234.518 93.5627 234.492 93.5873ZM234.897 93.3482L234.93 93.3569L234.985 93.3037C235.01 93.2792 235.019 93.2572 235.011 93.2378C235 93.2266 234.983 93.2319 234.961 93.2537L234.915 93.2987C234.898 93.3261 234.892 93.3426 234.897 93.3482ZM234.339 93.8919L234.339 93.9084C234.35 93.9196 234.362 93.9184 234.376 93.9048L234.389 93.876L234.369 93.8633L234.339 93.8919ZM233.473 89.2065L233.713 88.9237C233.95 88.7639 234.103 88.6748 234.172 88.6563C234.496 88.586 234.73 88.585 234.873 88.6532L235.236 88.7326C235.425 88.8539 235.676 89.0381 235.987 89.2853C236.308 89.6597 236.468 89.8911 236.467 89.9795C236.551 90.127 236.628 90.2966 236.7 90.4881C236.836 90.896 236.903 91.1524 236.902 91.2573C236.885 91.4643 236.833 91.61 236.747 91.6945C236.716 91.7411 236.708 91.7727 236.725 91.7895L236.609 92.0408L236.58 92.0611C236.476 92.1951 236.391 92.2948 236.323 92.3602L236.269 92.4133C236.241 92.4406 236.101 92.5091 235.848 92.6191C235.784 92.6486 235.676 92.6582 235.524 92.6479C235.424 92.6632 235.356 92.6512 235.317 92.612C235.133 92.5792 234.883 92.4737 234.567 92.2955C234.455 92.2415 234.392 92.2075 234.378 92.1935L234.309 92.1304C233.862 91.6715 233.6 91.2689 233.525 90.9226C233.51 90.8174 233.444 90.6715 233.328 90.4849L233.291 90.1446C233.22 90.0719 233.228 89.8593 233.316 89.5069C233.302 89.4929 233.355 89.3927 233.473 89.2065ZM234.117 88.7343L234.101 88.7507L234.125 88.7759C234.258 88.7445 234.333 88.7206 234.35 88.7043L234.342 88.6959C234.22 88.6943 234.145 88.7071 234.117 88.7343ZM233.995 88.9275L233.994 88.9523L233.998 88.9565C234.159 88.931 234.319 88.8737 234.477 88.7847L234.469 88.7763C234.425 88.7702 234.367 88.7832 234.295 88.8154C234.281 88.8014 234.218 88.8213 234.107 88.8751C234.071 88.8718 234.039 88.8839 234.011 88.9111L233.995 88.9275ZM233.593 89.5478L233.601 89.5562C233.612 89.5453 233.659 89.4534 233.741 89.2804L233.775 89.2146L233.755 89.1936C233.685 89.2617 233.631 89.3798 233.593 89.5478ZM234.284 91.4754L234.628 91.828C234.865 92.0715 235.08 92.1669 235.274 92.1142C235.523 92.1175 235.664 92.1028 235.698 92.0701C235.781 91.9884 235.876 91.9482 235.981 91.9496L236.027 91.9212L236.065 91.8678L236.139 91.8688L236.144 91.8647C236.16 91.8483 236.166 91.8125 236.162 91.7572C236.271 91.6122 236.331 91.497 236.34 91.4115C236.345 91.0248 236.337 90.8203 236.315 90.7979C236.16 90.4036 236.047 90.1701 235.976 90.0973C235.793 89.7745 235.716 89.598 235.747 89.5681L235.756 89.5599L235.731 89.5347C235.698 89.5011 235.628 89.4657 235.521 89.4283C235.284 89.2235 235.123 89.1123 235.041 89.0946C234.827 88.9923 234.538 88.9982 234.175 89.1122C234.052 89.1547 233.983 89.1842 233.966 89.2006L233.937 89.2292C233.865 89.4078 233.824 89.5025 233.813 89.5134C233.805 89.5216 233.811 89.5369 233.833 89.5593C233.78 89.8182 233.754 89.9795 233.756 90.0431L233.808 90.5078C233.82 90.6212 233.855 90.7432 233.911 90.8738C234.002 91.1126 234.126 91.3131 234.284 91.4754ZM233.495 90.3628L233.499 90.367L233.508 90.3588C233.537 89.9863 233.543 89.7902 233.524 89.7706L233.519 89.7747C233.458 89.8347 233.442 89.9533 233.473 90.1305C233.459 90.1441 233.452 90.1813 233.451 90.2421C233.426 90.2666 233.441 90.3068 233.495 90.3628ZM234.568 88.7776L234.568 88.8107L234.602 88.778L234.568 88.7776ZM233.66 89.8263L233.664 89.8305L233.676 89.8183C233.736 89.7224 233.752 89.6604 233.724 89.6324L233.708 89.6322L233.695 89.6445C233.639 89.7321 233.627 89.7927 233.66 89.8263ZM234.529 88.9221C234.562 88.9557 234.634 88.9511 234.745 88.9084L234.762 88.892C234.77 88.8839 234.767 88.8728 234.754 88.8588C234.732 88.8364 234.657 88.8575 234.529 88.9221ZM234.908 88.7904L234.912 88.8194L234.928 88.8362C234.95 88.8586 235.076 88.9045 235.308 88.9738L235.094 88.8384C235.018 88.7601 234.958 88.7413 234.916 88.7822L234.908 88.7904ZM233.448 90.4492L233.452 90.47L233.46 90.4784L233.481 90.4579L233.461 90.4369L233.448 90.4492ZM233.481 90.5159L233.468 90.5282L233.48 90.5408L233.485 90.5201L233.481 90.5159ZM233.659 90.5141L233.658 90.5804L233.674 90.5972L233.691 90.5809C233.708 90.5645 233.701 90.5409 233.671 90.5102L233.667 90.506L233.659 90.5141ZM235.456 89.0504L235.41 89.0539L235.414 89.0664L235.418 89.0706L235.476 89.1045L235.493 89.0882L235.456 89.0504ZM233.774 90.9093L233.798 90.9345L233.827 90.9307C233.814 90.9167 233.794 90.8598 233.767 90.76L233.739 90.7224L233.726 90.7346C233.723 90.7871 233.739 90.8453 233.774 90.9093ZM235.846 89.6522L235.825 89.6727L235.841 89.6895L235.849 89.6813L235.85 89.6564L235.846 89.6522ZM235.97 89.6124L235.962 89.6206C235.992 89.6735 236.032 89.7265 236.084 89.7797L236.088 89.7839L236.092 89.7798C236.107 89.7607 236.101 89.7385 236.077 89.7133L235.999 89.6335L235.97 89.6124ZM236.291 89.8073L236.307 89.8241L236.324 89.8077C236.284 89.7326 236.248 89.6797 236.219 89.6489L236.206 89.6363L236.194 89.6486C236.177 89.6649 236.209 89.7178 236.291 89.8073ZM236.056 90.0362L236.08 90.0614L236.101 90.041L236.077 89.9909L236.028 89.9571L236.024 89.9612C236.01 89.9748 236.021 89.9998 236.056 90.0362ZM236.356 90.554L236.364 90.5458C236.384 90.5267 236.36 90.4657 236.292 90.3625C236.274 90.2877 236.226 90.2111 236.15 90.1328L236.138 90.1202L236.121 90.1117C236.096 90.1362 236.162 90.2628 236.319 90.4914L236.323 90.5038L236.356 90.554ZM234.497 91.9548L234.493 91.9754L234.497 91.9796L234.522 91.98L234.526 91.9759L234.526 91.951L234.522 91.9468L234.502 91.9507L234.497 91.9548ZM234.437 92.1363L234.441 92.1653L234.473 92.1989L234.49 92.1991L234.498 92.191L234.482 92.1576L234.462 92.1366L234.437 92.1363ZM236.366 90.7406L236.407 90.766C236.429 90.9514 236.446 91.0497 236.457 91.0608L236.486 91.0322L236.482 91.0197L236.486 91.0157L236.499 91.02L236.503 91.0242L236.465 91.3717L236.473 91.3884L236.477 91.3843L236.49 91.3886L236.498 91.3805C236.535 91.3064 236.554 91.1947 236.556 91.0456C236.539 90.8879 236.502 90.7686 236.445 90.6878L236.433 90.6752L236.404 90.6458C236.385 90.6262 236.366 90.6204 236.346 90.6285L236.338 90.6366C236.324 90.6503 236.333 90.6849 236.366 90.7406ZM234.858 92.2662L234.854 92.2703L234.895 92.3122C234.927 92.3458 234.974 92.3575 235.035 92.3472L235.048 92.335L235.039 92.3266C235.001 92.2874 234.941 92.2673 234.858 92.2662ZM236.784 91.3718L236.8 91.3886L236.805 91.3845C236.843 91.2055 236.844 91.0977 236.809 91.0614L236.792 91.0777C236.777 91.1908 236.774 91.2888 236.784 91.3718ZM236.216 91.7538L236.224 91.7622L236.27 91.7172L236.266 91.6881L236.258 91.6798L236.245 91.692C236.217 91.7193 236.207 91.7399 236.216 91.7538ZM235.804 92.1461C235.823 92.1657 235.859 92.1634 235.912 92.1392L235.908 92.1351C235.886 92.1127 235.852 92.1164 235.804 92.1461ZM235.589 92.4789L235.58 92.4871L235.596 92.5038L235.617 92.5L235.63 92.4877L235.622 92.4793L235.589 92.4789ZM236.438 91.881L236.454 91.8978L236.479 91.8733C236.547 91.7637 236.563 91.6907 236.528 91.6543L236.523 91.6584C236.501 91.6802 236.472 91.7544 236.438 91.881ZM236.217 91.9817L236.162 92.0514L236.182 92.0724L236.245 92.0111L236.338 91.9211L236.329 91.9127C236.319 91.9015 236.294 91.9123 236.254 91.9449L236.217 91.9817ZM236.065 92.1371L236.061 92.1578L236.119 92.1337L236.111 92.1253C236.097 92.1168 236.082 92.1208 236.065 92.1371ZM236.698 91.6027L236.702 91.6235L236.718 91.6403L236.735 91.6239L236.736 91.5908L236.707 91.5945L236.698 91.6027ZM235.757 92.593L235.765 92.6014C235.779 92.6154 235.847 92.59 235.969 92.5254C236.122 92.4473 236.22 92.3878 236.262 92.3469C236.329 92.2815 236.416 92.1666 236.523 92.0023L236.515 91.9939L236.435 92.0716L236.162 92.3622L235.92 92.475C235.85 92.5155 235.796 92.5548 235.757 92.593ZM236.997 85.6441L237.039 85.6032C237.069 85.5732 237.12 85.5946 237.191 85.6674L237.212 85.6718L237.22 85.6719L237.241 85.6846L237.245 85.6805C237.296 85.7834 237.294 85.8621 237.238 85.9166C237.251 85.9306 237.209 85.988 237.111 86.0889L237.115 86.1097C238.215 87.0773 238.93 87.7304 239.26 88.069L239.669 88.4639C239.77 88.5675 239.801 88.6383 239.762 88.6765C239.75 88.6929 239.711 88.7338 239.644 88.7992L239.51 88.93C239.44 88.9982 239.391 89.0183 239.364 88.9903C239.309 88.9398 239.19 88.8899 239.005 88.8405C238.778 88.68 238.603 88.5893 238.479 88.5683C238.47 88.5599 238.422 88.5524 238.334 88.5457C237.951 88.4439 237.573 88.3271 237.199 88.195C237.144 88.1888 236.971 88.1312 236.679 88.0224C236.456 87.9559 236.248 87.9104 236.055 87.8857L236.039 87.9021L236.141 88.007C236.223 88.091 236.4 88.2563 236.673 88.503C236.864 88.6989 237.141 89.0285 237.505 89.4919L237.562 89.5507L237.673 89.6143L237.955 89.9288L238.082 90.0175L238.143 90.1219L238.16 90.1387L238.147 90.1509C238.119 90.1506 238.098 90.1572 238.084 90.1708L238.059 90.1953L238.063 90.1995C238.094 90.2082 238.116 90.2196 238.129 90.2336L238.15 90.2546C238.169 90.2355 238.176 90.2149 238.171 90.1927C238.196 90.1847 238.215 90.1877 238.229 90.2017C238.275 90.2493 238.279 90.2922 238.24 90.3303L237.891 90.6862C237.802 90.7513 237.731 90.7573 237.68 90.7041C237.57 90.6198 237.49 90.5621 237.437 90.531C237.424 90.517 237.458 90.418 237.541 90.2341L237.541 90.2258L237.406 90.0873C237.373 90.0537 237.359 90.0217 237.362 89.9914L237.349 89.9788C237.33 89.9978 237.23 89.915 237.05 89.7303L237.001 89.68C236.534 89.0826 235.943 88.4174 235.229 87.6842C235.148 87.5947 235.114 87.5431 235.128 87.5295C235.117 87.5183 235.166 87.454 235.275 87.3367L235.322 87.2917C235.38 87.2345 235.545 87.2436 235.814 87.319C236.079 87.3556 236.268 87.3844 236.381 87.4052L236.856 87.5317C237.148 87.5576 237.474 87.6655 237.833 87.8554C238.111 87.9613 238.262 88.0019 238.288 87.9774C238.289 87.9056 238.252 87.8319 238.179 87.7564L238.003 87.5924L237.447 86.9967C237.321 86.9011 237.232 86.8267 237.181 86.7736L237.164 86.7568C237.009 86.5973 236.912 86.4786 236.875 86.4007C236.853 86.3783 236.769 86.438 236.624 86.5797L236.595 86.5752L236.46 86.4367C236.373 86.3471 236.368 86.2642 236.447 86.1879C236.657 85.978 236.84 85.7967 236.997 85.6441ZM237.079 85.6535L237.033 85.6984L237.046 85.711L237.087 85.6867L237.091 85.6826L237.088 85.6536L237.079 85.6535ZM235.349 87.3791L235.341 87.3956C235.385 87.4238 235.421 87.4243 235.449 87.397L235.445 87.3762L235.416 87.3469L235.379 87.3505L235.349 87.3791ZM237.06 85.8852L237.043 85.9016L237.059 85.9184L237.076 85.902L237.06 85.8852ZM236.605 86.4013L236.609 86.4221L236.642 86.4225L236.651 86.4143L236.718 86.3324C236.699 86.3238 236.681 86.3277 236.664 86.3441L236.605 86.4013ZM236.97 86.3813L236.987 86.3981C237.014 86.4095 237.033 86.4097 237.045 86.3988L237.045 86.374L236.988 86.3152L236.963 86.3149L236.959 86.319C236.945 86.3381 236.949 86.3589 236.97 86.3813ZM235.848 87.9327L235.86 87.937L235.864 87.9329C235.873 87.9247 235.837 87.8801 235.758 87.7989L235.656 87.694C235.642 87.7076 235.706 87.7872 235.848 87.9327ZM235.802 87.642L235.801 87.6669L235.842 87.7089C235.864 87.7312 235.9 87.7483 235.949 87.76L235.966 87.7436C235.865 87.6677 235.812 87.6325 235.806 87.6379L235.802 87.642ZM236.153 87.6923L236.145 87.7004L236.153 87.7088C236.337 87.7914 236.488 87.8514 236.606 87.8889C236.642 87.8921 236.664 87.8979 236.673 87.9063L236.689 87.89L236.677 87.8774C236.557 87.7929 236.44 87.7402 236.327 87.7194L236.153 87.6923ZM236.643 87.649L236.622 87.6695L236.634 87.682C236.694 87.7215 236.782 87.7475 236.898 87.7601L236.911 87.7479C236.752 87.6629 236.662 87.6299 236.643 87.649ZM236.805 87.9081L236.768 87.92L236.768 87.9283L236.772 87.9325C236.92 88.0063 237.167 88.0897 237.514 88.1826L237.523 88.1745C237.471 88.1379 237.231 88.0491 236.805 87.9081ZM237.329 87.799L237.324 87.8031C237.44 87.8598 237.533 87.8915 237.605 87.8979L237.609 87.8856C237.447 87.8199 237.354 87.791 237.329 87.799ZM237.7 87.9116L237.692 87.9198L237.7 87.9282C237.804 87.9959 237.893 88.0316 237.968 88.0353L237.976 88.0272C237.965 88.016 237.873 87.9775 237.7 87.9116ZM237.617 88.2213L237.617 88.2296C237.754 88.2977 237.831 88.3236 237.848 88.3072L237.848 88.2824L237.84 88.274C237.824 88.2572 237.75 88.2396 237.617 88.2213ZM237.181 89.5373L237.186 89.5332C237.202 89.5169 237.158 89.4514 237.051 89.3367L237.01 89.2947L237.002 89.3029C236.999 89.3056 237.059 89.3838 237.181 89.5373ZM238.22 88.3784L238.199 88.3989L238.228 88.4283L238.339 88.4422L238.348 88.434L238.303 88.3878L238.236 88.3952L238.22 88.3784ZM238.808 88.092C238.849 88.134 238.875 88.1496 238.886 88.1387C238.895 88.125 238.888 88.1069 238.866 88.0845L238.752 87.9753L238.743 87.9835C238.732 87.9944 238.754 88.0306 238.808 88.092ZM237.262 89.6793L237.32 89.738L237.336 89.7217C237.345 89.7135 237.331 89.683 237.296 89.63C237.269 89.6075 237.25 89.6018 237.238 89.6127C237.23 89.6319 237.238 89.6541 237.262 89.6793ZM239.2 88.2423L239.187 88.2545L239.204 88.2713L239.216 88.259L239.2 88.2423ZM238.875 88.6647L238.858 88.6811C238.883 88.7063 238.93 88.7152 238.999 88.7078L238.995 88.7036C238.987 88.6952 238.947 88.6823 238.875 88.6647ZM239.176 88.503L239.171 88.5071L239.18 88.5155L239.192 88.5198L239.209 88.5034L239.201 88.495L239.176 88.503ZM237.672 90.0576L237.667 90.0617L237.688 90.0827L237.704 90.0912L237.713 90.083L237.713 90.0582L237.709 90.054L237.672 90.0576ZM239.127 88.7551L239.114 88.7674L239.122 88.7757L239.151 88.7803L239.155 88.7762L239.127 88.7551ZM237.556 90.342L237.543 90.3791L237.555 90.3917L237.631 90.3181L237.635 90.3058L237.627 90.2974L237.606 90.2929L237.556 90.342ZM239.57 88.4626L239.561 88.4708L239.582 88.4918L239.611 88.4963L239.619 88.4881L239.603 88.4713L239.57 88.4626ZM237.843 90.2588L237.843 90.2919L237.851 90.3003L237.859 90.2921L237.86 90.259L237.851 90.2506L237.843 90.2588ZM237.599 90.5622C237.621 90.568 237.64 90.5627 237.657 90.5464L237.669 90.5341L237.708 90.4725L237.691 90.4557L237.62 90.5086C237.6 90.5387 237.593 90.5566 237.599 90.5622ZM239.58 88.6326L239.567 88.6449L239.576 88.6533L239.58 88.6326ZM237.801 90.6104L237.805 90.6312C237.819 90.6397 237.834 90.6357 237.851 90.6194C237.873 90.592 237.88 90.5742 237.872 90.5658L237.851 90.5614L237.801 90.6104ZM238.208 84.6035L238.538 84.3883C238.586 84.3419 238.706 84.3035 238.9 84.2729L238.917 84.2565C238.813 84.1447 238.77 84.0806 238.787 84.0642C238.901 84.0132 238.966 83.9796 238.983 83.9632L239.067 83.8815L239.13 83.8119L239.151 83.8163L239.171 83.8455L239.694 84.3829C239.724 84.4136 239.739 84.4484 239.738 84.487C239.783 84.4876 239.814 84.4977 239.833 84.5173C239.852 84.5369 239.867 84.5688 239.878 84.6132L239.96 84.6723C239.992 84.7059 240 84.7308 239.984 84.7472L239.858 84.8367L239.854 84.8408L239.812 84.9148L239.803 84.923C239.792 84.9339 239.715 84.8914 239.573 84.7956C239.535 84.7564 239.484 84.7378 239.42 84.7397C239.332 84.722 239.278 84.7033 239.259 84.6837L239.276 84.6508L239.272 84.6466C239.198 84.6539 239.136 84.6406 239.086 84.6068C238.86 84.6038 238.706 84.6419 238.625 84.7209L238.596 84.7495C238.565 84.7795 238.453 84.9451 238.262 85.2465C238.256 85.2851 238.271 85.3737 238.308 85.5123C238.323 85.634 238.362 85.7271 238.424 85.7914C238.615 85.9542 238.725 86.0219 238.753 85.9947C238.882 86.0544 238.981 86.0695 239.051 86.04C239.073 86.0459 239.12 86.0272 239.192 85.9839C239.267 85.9821 239.393 85.9465 239.571 85.877C239.582 85.8882 239.603 85.8816 239.633 85.8572L239.667 85.7913C239.695 85.7751 239.712 85.7698 239.717 85.7754L239.721 85.7796L239.721 85.8127L239.733 85.8253C239.819 85.8348 239.889 85.8122 239.945 85.7577L239.941 85.7535L239.796 85.764L239.792 85.7598C239.817 85.7353 239.954 85.697 240.204 85.6451C240.646 85.6344 240.896 85.6584 240.953 85.7172C241.158 85.8497 241.281 85.937 241.322 85.979C241.504 86.2162 241.584 86.3457 241.562 86.3675L241.633 86.6419C241.554 86.9475 241.498 87.1166 241.464 87.1493C241.074 87.3928 240.806 87.5453 240.658 87.6069C240.241 87.6152 240.015 87.6011 239.979 87.5647L239.95 87.5685L239.946 87.5809L239.967 87.6019L240.195 87.8369C240.215 87.8565 240.174 87.9154 240.073 88.0135L239.997 88.0871L239.955 88.1694C239.935 88.1885 239.895 88.1976 239.834 88.1968L239.83 88.1926L239.819 88.1386C239.38 87.6494 239.175 87.3911 239.203 87.3639L239.212 87.3557L239.299 87.2947C239.313 87.2811 239.323 87.2632 239.329 87.2412L239.396 87.2007L239.417 87.1637L239.434 87.1473C239.451 87.142 239.515 87.1581 239.628 87.1955C239.865 87.2262 240.086 87.2623 240.29 87.3037C240.301 87.2928 240.373 87.2965 240.505 87.3148L240.876 87.1747L240.951 87.1011L240.967 87.1179L240.976 87.1097L240.985 87.0767L240.993 87.0685C241.032 87.0635 241.061 87.0515 241.08 87.0324L241.106 87.0078C241.178 86.9315 241.207 86.8849 241.19 86.8681L241.182 86.8597L241.098 86.9415L241.044 86.9863C241.036 86.9724 241.115 86.8547 241.28 86.6331C241.325 86.5895 241.292 86.4689 241.182 86.2713C241.133 86.2209 241.11 86.1723 241.113 86.1254L241.097 86.1086C240.905 86.0066 240.758 85.9618 240.655 85.9743C240.564 85.9482 240.37 86.0037 240.073 86.1406C239.873 86.2263 239.691 86.275 239.528 86.2867C239.358 86.3756 239.241 86.4058 239.175 86.3773C239.123 86.3573 239 86.3598 238.806 86.3849C238.606 86.28 238.435 86.2142 238.295 86.1875C238.144 86.0943 238.002 85.9792 237.868 85.8421C237.801 85.7279 237.778 85.5025 237.799 85.1657C237.848 85.0089 237.984 84.8215 238.208 84.6035ZM237.86 85.2287L237.91 85.1797C237.933 85.1579 238.013 85.0332 238.151 84.8058C238.208 84.7292 238.23 84.6853 238.219 84.6741L238.199 84.6862C237.926 85.0003 237.814 85.1811 237.86 85.2287ZM238.915 84.0949L238.927 84.1158L238.939 84.1284C238.956 84.1452 238.975 84.1427 238.997 84.1209L239.069 84.0514L239.065 84.0472C239.004 84.0408 238.954 84.0568 238.915 84.0949ZM238.137 85.2614L238.145 85.2532C238.173 85.226 238.215 85.1367 238.269 84.9855L238.342 84.8332L238.346 84.8374L238.358 84.8748L238.391 84.8421L238.408 84.8092L238.392 84.7924L238.371 84.788L238.347 84.7628L238.338 84.771C238.259 84.9136 238.201 85.0385 238.163 85.1457C238.124 85.2004 238.115 85.239 238.137 85.2614ZM238.732 84.453L238.661 84.5225C238.666 84.5281 238.722 84.5012 238.827 84.4418L238.848 84.4214L238.853 84.409L238.845 84.4006C238.817 84.3892 238.78 84.4067 238.732 84.453ZM239.026 84.1751L239.034 84.2001L239.042 84.2085L239.071 84.2296L239.083 84.2173L239.084 84.1925L239.063 84.1715L239.034 84.1669L239.026 84.1751ZM237.979 85.309L237.983 85.3132C237.991 85.3216 238.001 85.3204 238.012 85.3095C238.021 85.2902 238.021 85.2709 238.013 85.2515L238.005 85.2431C237.98 85.2676 237.971 85.2896 237.979 85.309ZM238.952 84.402L238.994 84.4026L239.015 84.3821L239.015 84.3573L239.003 84.3447C238.995 84.3363 238.975 84.3388 238.945 84.3522C238.936 84.3714 238.939 84.388 238.952 84.402ZM239.224 84.2523L239.244 84.2484L239.248 84.2526L239.252 84.29L239.264 84.3026C239.27 84.3082 239.288 84.3043 239.318 84.2909C239.346 84.3078 239.366 84.3122 239.38 84.3041L239.393 84.2919L239.377 84.2751L239.36 84.2666L239.344 84.2498L239.356 84.2375L239.394 84.2339L239.402 84.2257L239.382 84.1964L239.374 84.188C239.278 84.1287 239.226 84.1032 239.217 84.1113L239.192 84.1359C239.175 84.1743 239.185 84.2131 239.224 84.2523ZM238.134 85.5182L238.183 85.5189L238.192 85.5107C238.22 85.4724 238.233 85.4243 238.231 85.3662L238.21 85.3701L238.164 85.4151C238.133 85.445 238.123 85.4794 238.134 85.5182ZM237.916 85.6645L237.916 85.6894L237.92 85.6936L237.941 85.6731L237.925 85.6564L237.916 85.6645ZM238.222 85.7515L238.226 85.7556L238.234 85.7475C238.238 85.6508 238.223 85.5843 238.187 85.548L238.162 85.5476C238.129 85.5803 238.149 85.6483 238.222 85.7515ZM239.472 84.297L239.451 84.3175L239.459 84.3259C239.484 84.3345 239.5 84.3347 239.509 84.3265L239.492 84.3097L239.472 84.297ZM239.458 84.3673L239.458 84.3922L239.471 84.3799L239.458 84.3673ZM239.412 84.4537L239.407 84.4826L239.411 84.4868L239.444 84.4873L239.461 84.4709L239.461 84.4378L239.457 84.4336L239.428 84.4373L239.412 84.4537ZM239.549 84.4016L239.544 84.4306L239.573 84.46L239.606 84.4853L239.618 84.473L239.562 84.3894L239.549 84.4016ZM239.53 84.5589L239.522 84.567L239.53 84.5754L239.551 84.5798L239.568 84.5635L239.555 84.5509L239.53 84.5589ZM239.628 84.6845L239.694 84.7516L239.71 84.7518L239.714 84.7478C239.737 84.726 239.74 84.7039 239.723 84.6816C239.677 84.6616 239.643 84.6405 239.621 84.6181L239.612 84.6262C239.604 84.6455 239.609 84.6649 239.628 84.6845ZM239.78 84.7983L239.78 84.8232L239.813 84.8154L239.825 84.8031L239.817 84.7864L239.788 84.7902L239.78 84.7983ZM238.663 86.2379L238.691 86.2673L238.725 86.2678L238.758 86.2351L238.742 86.2183C238.703 86.2178 238.677 86.2243 238.663 86.2379ZM238.853 86.2736L238.849 86.2777L238.869 86.2987C238.969 86.2834 239.028 86.2663 239.048 86.2472L239.065 86.2308L239.048 86.214C238.982 86.2242 238.917 86.2441 238.853 86.2736ZM239.517 85.9053L239.479 85.9421C239.493 85.9506 239.509 85.9453 239.529 85.9262L239.546 85.9099L239.542 85.9057L239.517 85.9053ZM239.62 85.9274L239.616 85.9481C239.643 85.954 239.715 85.9356 239.832 85.8929L239.815 85.8761C239.741 85.8779 239.676 85.895 239.62 85.9274ZM239.962 86.0853L239.941 86.1057L239.961 86.1267C240.014 86.108 240.068 86.0742 240.124 86.0253C240.135 86.0365 240.15 86.0325 240.17 86.0134L240.203 85.9807L240.199 85.9765C240.175 85.9513 240.096 85.9876 239.962 86.0853ZM240.353 85.9247L240.341 85.937L240.353 85.9496L240.378 85.9499L240.386 85.9417L240.374 85.9291L240.353 85.9247ZM239.511 87.5875L239.494 87.6039C239.521 87.6595 239.566 87.7195 239.629 87.7839L239.69 87.8302L239.694 87.8262C239.719 87.8016 239.721 87.7782 239.699 87.7558C239.628 87.6996 239.565 87.6435 239.511 87.5875ZM239.718 87.6234C239.75 87.6846 239.765 87.7304 239.761 87.7608L239.823 87.7906L239.929 87.8997L239.954 87.9249C239.973 87.9445 239.988 87.9488 239.999 87.9379L240.025 87.9134L240.025 87.8885L240.009 87.8718C239.831 87.6899 239.734 87.6071 239.718 87.6234ZM240.051 87.5035L240.047 87.5076L240.055 87.516C240.11 87.5499 240.152 87.5518 240.183 87.5219L240.175 87.5135C240.112 87.4878 240.07 87.4845 240.051 87.5035ZM239.796 87.9311L239.813 87.9313L239.817 87.9272C239.826 87.9191 239.805 87.8843 239.756 87.8228L239.74 87.8226C239.729 87.8335 239.748 87.8697 239.796 87.9311ZM240.234 87.3982L240.226 87.4064L240.23 87.4106C240.293 87.4308 240.336 87.43 240.359 87.4082L240.346 87.3956C240.299 87.3922 240.262 87.3931 240.234 87.3982ZM241.391 86.4108L241.391 86.4522L241.424 86.4527L241.445 86.4322L241.445 86.3991L241.437 86.3907L241.412 86.3904L241.391 86.4108ZM240.646 87.325L240.65 87.3292C240.669 87.3377 240.686 87.3352 240.7 87.3215C240.678 87.3102 240.66 87.3113 240.646 87.325ZM240.452 87.5296L240.419 87.554L240.423 87.5582C240.511 87.5925 240.627 87.5719 240.772 87.4965C240.897 87.4402 241.061 87.3484 241.264 87.2213C241.32 87.211 241.361 87.1949 241.389 87.1732L241.427 87.1364C241.478 87.0487 241.488 86.9894 241.458 86.9587L241.052 87.2972C240.763 87.4425 240.563 87.52 240.452 87.5296ZM241.31 86.9318L241.318 86.9402L241.339 86.9363L241.36 86.9159C241.46 86.8178 241.503 86.7493 241.487 86.7104L241.462 86.7184L241.436 86.7429C241.406 86.7729 241.363 86.8359 241.31 86.9318ZM241.286 87.1594L241.27 87.1426L241.278 87.1344C241.298 87.1154 241.313 87.1114 241.324 87.1226L241.311 87.1349L241.286 87.1594Z"
          fill="black"/>
    <defs>
        <linearGradient id="paint0_linear_3902_2361" x1="31861.5" y1="37546.4" x2="34064.1" y2="18951.2"
                        gradientUnits="userSpaceOnUse">
            <stop stop-color="#808080" stop-opacity="0.25"/>
            <stop offset="0.54" stop-color="#808080" stop-opacity="0.12"/>
            <stop offset="1" stop-color="#808080" stop-opacity="0.1"/>
        </linearGradient>
    </defs>
</svg>
