<svg width="400" height="36" viewBox="0 0 400 36" fill="none" xmlns="http://www.w3.org/2000/svg">
    <path d="M10.6557 1.312V11H9.38169V3.776L6.16169 11H5.26569L2.03169 3.762V11H0.757688V1.312H2.12969L5.71369 9.32L9.29769 1.312H10.6557ZM12.3403 7.136C12.3403 6.352 12.4989 5.666 12.8163 5.078C13.1336 4.48067 13.5676 4.01867 14.1183 3.692C14.6783 3.36533 15.2989 3.202 15.9803 3.202C16.6523 3.202 17.2356 3.34667 17.7303 3.636C18.2249 3.92533 18.5936 4.28933 18.8363 4.728V3.328H20.1243V11H18.8363V9.572C18.5843 10.02 18.2063 10.3933 17.7023 10.692C17.2076 10.9813 16.6289 11.126 15.9663 11.126C15.2849 11.126 14.6689 10.958 14.1183 10.622C13.5676 10.286 13.1336 9.81467 12.8163 9.208C12.4989 8.60133 12.3403 7.91067 12.3403 7.136ZM18.8363 7.15C18.8363 6.57133 18.7196 6.06733 18.4863 5.638C18.2529 5.20867 17.9356 4.882 17.5343 4.658C17.1423 4.42467 16.7083 4.308 16.2323 4.308C15.7563 4.308 15.3223 4.42 14.9303 4.644C14.5383 4.868 14.2256 5.19467 13.9923 5.624C13.7589 6.05333 13.6423 6.55733 13.6423 7.136C13.6423 7.724 13.7589 8.23733 13.9923 8.676C14.2256 9.10533 14.5383 9.43667 14.9303 9.67C15.3223 9.894 15.7563 10.006 16.2323 10.006C16.7083 10.006 17.1423 9.894 17.5343 9.67C17.9356 9.43667 18.2529 9.10533 18.4863 8.676C18.7196 8.23733 18.8363 7.72867 18.8363 7.15ZM28.8852 3.328L24.2652 14.612H22.9492L24.4612 10.916L21.3672 3.328H22.7812L25.1892 9.544L27.5692 3.328H28.8852ZM35.4523 4.378V8.9C35.4523 9.27333 35.5316 9.53933 35.6903 9.698C35.849 9.84733 36.1243 9.922 36.5163 9.922H37.4543V11H36.3063C35.597 11 35.065 10.8367 34.7103 10.51C34.3556 10.1833 34.1783 9.64667 34.1783 8.9V4.378H33.1843V3.328H34.1783V1.396H35.4523V3.328H37.4543V4.378H35.4523ZM42.8059 3.188C43.3846 3.188 43.9073 3.314 44.3739 3.566C44.8406 3.80867 45.2046 4.17733 45.4659 4.672C45.7366 5.16667 45.8719 5.76867 45.8719 6.478V11H44.6119V6.66C44.6119 5.89467 44.4206 5.31133 44.0379 4.91C43.6553 4.49933 43.1326 4.294 42.4699 4.294C41.7979 4.294 41.2613 4.504 40.8599 4.924C40.4679 5.344 40.2719 5.95533 40.2719 6.758V11H38.9979V0.64H40.2719V4.42C40.5239 4.028 40.8693 3.72467 41.3079 3.51C41.7559 3.29533 42.2553 3.188 42.8059 3.188ZM54.953 6.87C54.953 7.11267 54.939 7.36933 54.911 7.64H48.779C48.8257 8.396 49.0823 8.98867 49.549 9.418C50.025 9.838 50.599 10.048 51.271 10.048C51.8217 10.048 52.279 9.922 52.643 9.67C53.0163 9.40867 53.2777 9.06333 53.427 8.634H54.799C54.5937 9.37133 54.183 9.97333 53.567 10.44C52.951 10.8973 52.1857 11.126 51.271 11.126C50.543 11.126 49.8897 10.9627 49.311 10.636C48.7417 10.3093 48.2937 9.84733 47.967 9.25C47.6403 8.64333 47.477 7.94333 47.477 7.15C47.477 6.35667 47.6357 5.66133 47.953 5.064C48.2703 4.46667 48.7137 4.00933 49.283 3.692C49.8617 3.36533 50.5243 3.202 51.271 3.202C51.999 3.202 52.643 3.36067 53.203 3.678C53.763 3.99533 54.1923 4.434 54.491 4.994C54.799 5.54467 54.953 6.17 54.953 6.87ZM53.637 6.604C53.637 6.11867 53.5297 5.70333 53.315 5.358C53.1003 5.00333 52.8063 4.73733 52.433 4.56C52.069 4.37333 51.663 4.28 51.215 4.28C50.571 4.28 50.0203 4.48533 49.563 4.896C49.115 5.30667 48.8583 5.876 48.793 6.604H53.637ZM59.8911 7.136C59.8911 6.352 60.0497 5.666 60.3671 5.078C60.6844 4.48067 61.1184 4.01867 61.6691 3.692C62.2291 3.36533 62.8544 3.202 63.5451 3.202C64.1424 3.202 64.6977 3.342 65.2111 3.622C65.7244 3.89267 66.1164 4.252 66.3871 4.7V0.64H67.6751V11H66.3871V9.558C66.1351 10.0153 65.7617 10.3933 65.2671 10.692C64.7724 10.9813 64.1937 11.126 63.5311 11.126C62.8497 11.126 62.2291 10.958 61.6691 10.622C61.1184 10.286 60.6844 9.81467 60.3671 9.208C60.0497 8.60133 59.8911 7.91067 59.8911 7.136ZM66.3871 7.15C66.3871 6.57133 66.2704 6.06733 66.0371 5.638C65.8037 5.20867 65.4864 4.882 65.0851 4.658C64.6931 4.42467 64.2591 4.308 63.7831 4.308C63.3071 4.308 62.8731 4.42 62.4811 4.644C62.0891 4.868 61.7764 5.19467 61.5431 5.624C61.3097 6.05333 61.1931 6.55733 61.1931 7.136C61.1931 7.724 61.3097 8.23733 61.5431 8.676C61.7764 9.10533 62.0891 9.43667 62.4811 9.67C62.8731 9.894 63.3071 10.006 63.7831 10.006C64.2591 10.006 64.6931 9.894 65.0851 9.67C65.4864 9.43667 65.8037 9.10533 66.0371 8.676C66.2704 8.23733 66.3871 7.72867 66.3871 7.15ZM69.352 7.136C69.352 6.352 69.5107 5.666 69.828 5.078C70.1453 4.48067 70.5793 4.01867 71.13 3.692C71.69 3.36533 72.3107 3.202 72.992 3.202C73.664 3.202 74.2473 3.34667 74.742 3.636C75.2367 3.92533 75.6053 4.28933 75.848 4.728V3.328H77.136V11H75.848V9.572C75.596 10.02 75.218 10.3933 74.714 10.692C74.2193 10.9813 73.6407 11.126 72.978 11.126C72.2967 11.126 71.6807 10.958 71.13 10.622C70.5793 10.286 70.1453 9.81467 69.828 9.208C69.5107 8.60133 69.352 7.91067 69.352 7.136ZM75.848 7.15C75.848 6.57133 75.7313 6.06733 75.498 5.638C75.2647 5.20867 74.9473 4.882 74.546 4.658C74.154 4.42467 73.72 4.308 73.244 4.308C72.768 4.308 72.334 4.42 71.942 4.644C71.55 4.868 71.2373 5.19467 71.004 5.624C70.7707 6.05333 70.654 6.55733 70.654 7.136C70.654 7.724 70.7707 8.23733 71.004 8.676C71.2373 9.10533 71.55 9.43667 71.942 9.67C72.334 9.894 72.768 10.006 73.244 10.006C73.72 10.006 74.154 9.894 74.546 9.67C74.9473 9.43667 75.2647 9.10533 75.498 8.676C75.7313 8.23733 75.848 7.72867 75.848 7.15ZM85.8969 3.328L81.2769 14.612H79.9609L81.4729 10.916L78.3789 3.328H79.7929L82.2009 9.544L84.5809 3.328H85.8969ZM89.8936 11.126C89.3056 11.126 88.7783 11.028 88.3116 10.832C87.8449 10.6267 87.4763 10.3467 87.2056 9.992C86.9349 9.628 86.7856 9.21267 86.7576 8.746H88.0736C88.1109 9.12867 88.2883 9.44133 88.6056 9.684C88.9323 9.92667 89.3569 10.048 89.8796 10.048C90.3649 10.048 90.7476 9.94067 91.0276 9.726C91.3076 9.51133 91.4476 9.24067 91.4476 8.914C91.4476 8.578 91.2983 8.33067 90.9996 8.172C90.7009 8.004 90.2389 7.84067 89.6136 7.682C89.0443 7.53267 88.5776 7.38333 88.2136 7.234C87.8589 7.07533 87.5509 6.84667 87.2896 6.548C87.0376 6.24 86.9116 5.83867 86.9116 5.344C86.9116 4.952 87.0283 4.59267 87.2616 4.266C87.4949 3.93933 87.8263 3.68267 88.2556 3.496C88.6849 3.3 89.1749 3.202 89.7256 3.202C90.5749 3.202 91.2609 3.41667 91.7836 3.846C92.3063 4.27533 92.5863 4.86333 92.6236 5.61H91.3496C91.3216 5.20867 91.1583 4.88667 90.8596 4.644C90.5703 4.40133 90.1783 4.28 89.6836 4.28C89.2263 4.28 88.8623 4.378 88.5916 4.574C88.3209 4.77 88.1856 5.02667 88.1856 5.344C88.1856 5.596 88.2649 5.806 88.4236 5.974C88.5916 6.13267 88.7969 6.26333 89.0396 6.366C89.2916 6.45933 89.6369 6.56667 90.0756 6.688C90.6263 6.83733 91.0743 6.98667 91.4196 7.136C91.7649 7.276 92.0589 7.49067 92.3016 7.78C92.5536 8.06933 92.6843 8.44733 92.6936 8.914C92.6936 9.334 92.5769 9.712 92.3436 10.048C92.1103 10.384 91.7789 10.65 91.3496 10.846C90.9296 11.0327 90.4443 11.126 89.8936 11.126ZM97.7485 7.136C97.7485 6.352 97.9072 5.666 98.2245 5.078C98.5418 4.48067 98.9758 4.01867 99.5265 3.692C100.086 3.36533 100.707 3.202 101.388 3.202C102.06 3.202 102.644 3.34667 103.138 3.636C103.633 3.92533 104.002 4.28933 104.244 4.728V3.328H105.532V11H104.244V9.572C103.992 10.02 103.614 10.3933 103.11 10.692C102.616 10.9813 102.037 11.126 101.374 11.126C100.693 11.126 100.077 10.958 99.5265 10.622C98.9758 10.286 98.5418 9.81467 98.2245 9.208C97.9072 8.60133 97.7485 7.91067 97.7485 7.136ZM104.244 7.15C104.244 6.57133 104.128 6.06733 103.894 5.638C103.661 5.20867 103.344 4.882 102.942 4.658C102.55 4.42467 102.116 4.308 101.64 4.308C101.164 4.308 100.73 4.42 100.338 4.644C99.9465 4.868 99.6338 5.19467 99.4005 5.624C99.1672 6.05333 99.0505 6.55733 99.0505 7.136C99.0505 7.724 99.1672 8.23733 99.4005 8.676C99.6338 9.10533 99.9465 9.43667 100.338 9.67C100.73 9.894 101.164 10.006 101.64 10.006C102.116 10.006 102.55 9.894 102.942 9.67C103.344 9.43667 103.661 9.10533 103.894 8.676C104.128 8.23733 104.244 7.72867 104.244 7.15ZM111.493 3.188C112.072 3.188 112.595 3.314 113.061 3.566C113.528 3.80867 113.892 4.17733 114.153 4.672C114.424 5.16667 114.559 5.76867 114.559 6.478V11H113.299V6.66C113.299 5.89467 113.108 5.31133 112.725 4.91C112.343 4.49933 111.82 4.294 111.157 4.294C110.485 4.294 109.949 4.504 109.547 4.924C109.155 5.344 108.959 5.95533 108.959 6.758V11H107.685V0.64H108.959V4.42C109.211 4.028 109.557 3.72467 109.995 3.51C110.443 3.29533 110.943 3.188 111.493 3.188ZM123.641 6.87C123.641 7.11267 123.627 7.36933 123.599 7.64H117.467C117.513 8.396 117.77 8.98867 118.237 9.418C118.713 9.838 119.287 10.048 119.959 10.048C120.509 10.048 120.967 9.922 121.331 9.67C121.704 9.40867 121.965 9.06333 122.115 8.634H123.487C123.281 9.37133 122.871 9.97333 122.255 10.44C121.639 10.8973 120.873 11.126 119.959 11.126C119.231 11.126 118.577 10.9627 117.999 10.636C117.429 10.3093 116.981 9.84733 116.655 9.25C116.328 8.64333 116.165 7.94333 116.165 7.15C116.165 6.35667 116.323 5.66133 116.641 5.064C116.958 4.46667 117.401 4.00933 117.971 3.692C118.549 3.36533 119.212 3.202 119.959 3.202C120.687 3.202 121.331 3.36067 121.891 3.678C122.451 3.99533 122.88 4.434 123.179 4.994C123.487 5.54467 123.641 6.17 123.641 6.87ZM122.325 6.604C122.325 6.11867 122.217 5.70333 122.003 5.358C121.788 5.00333 121.494 4.73733 121.121 4.56C120.757 4.37333 120.351 4.28 119.903 4.28C119.259 4.28 118.708 4.48533 118.251 4.896C117.803 5.30667 117.546 5.876 117.481 6.604H122.325ZM124.846 7.136C124.846 6.352 125.005 5.666 125.322 5.078C125.639 4.48067 126.073 4.01867 126.624 3.692C127.184 3.36533 127.805 3.202 128.486 3.202C129.158 3.202 129.741 3.34667 130.236 3.636C130.731 3.92533 131.099 4.28933 131.342 4.728V3.328H132.63V11H131.342V9.572C131.09 10.02 130.712 10.3933 130.208 10.692C129.713 10.9813 129.135 11.126 128.472 11.126C127.791 11.126 127.175 10.958 126.624 10.622C126.073 10.286 125.639 9.81467 125.322 9.208C125.005 8.60133 124.846 7.91067 124.846 7.136ZM131.342 7.15C131.342 6.57133 131.225 6.06733 130.992 5.638C130.759 5.20867 130.441 4.882 130.04 4.658C129.648 4.42467 129.214 4.308 128.738 4.308C128.262 4.308 127.828 4.42 127.436 4.644C127.044 4.868 126.731 5.19467 126.498 5.624C126.265 6.05333 126.148 6.55733 126.148 7.136C126.148 7.724 126.265 8.23733 126.498 8.676C126.731 9.10533 127.044 9.43667 127.436 9.67C127.828 9.894 128.262 10.006 128.738 10.006C129.214 10.006 129.648 9.894 130.04 9.67C130.441 9.43667 130.759 9.10533 130.992 8.676C131.225 8.23733 131.342 7.72867 131.342 7.15ZM134.307 7.136C134.307 6.352 134.466 5.666 134.783 5.078C135.1 4.48067 135.534 4.01867 136.085 3.692C136.645 3.36533 137.27 3.202 137.961 3.202C138.558 3.202 139.114 3.342 139.627 3.622C140.14 3.89267 140.532 4.252 140.803 4.7V0.64H142.091V11H140.803V9.558C140.551 10.0153 140.178 10.3933 139.683 10.692C139.188 10.9813 138.61 11.126 137.947 11.126C137.266 11.126 136.645 10.958 136.085 10.622C135.534 10.286 135.1 9.81467 134.783 9.208C134.466 8.60133 134.307 7.91067 134.307 7.136ZM140.803 7.15C140.803 6.57133 140.686 6.06733 140.453 5.638C140.22 5.20867 139.902 4.882 139.501 4.658C139.109 4.42467 138.675 4.308 138.199 4.308C137.723 4.308 137.289 4.42 136.897 4.644C136.505 4.868 136.192 5.19467 135.959 5.624C135.726 6.05333 135.609 6.55733 135.609 7.136C135.609 7.724 135.726 8.23733 135.959 8.676C136.192 9.10533 136.505 9.43667 136.897 9.67C137.289 9.894 137.723 10.006 138.199 10.006C138.675 10.006 139.109 9.894 139.501 9.67C139.902 9.43667 140.22 9.10533 140.453 8.676C140.686 8.23733 140.803 7.72867 140.803 7.15ZM151.322 11.126C150.604 11.126 149.95 10.9627 149.362 10.636C148.784 10.3093 148.326 9.84733 147.99 9.25C147.664 8.64333 147.5 7.94333 147.5 7.15C147.5 6.366 147.668 5.67533 148.004 5.078C148.35 4.47133 148.816 4.00933 149.404 3.692C149.992 3.36533 150.65 3.202 151.378 3.202C152.106 3.202 152.764 3.36533 153.352 3.692C153.94 4.00933 154.402 4.46667 154.738 5.064C155.084 5.66133 155.256 6.35667 155.256 7.15C155.256 7.94333 155.079 8.64333 154.724 9.25C154.379 9.84733 153.908 10.3093 153.31 10.636C152.713 10.9627 152.05 11.126 151.322 11.126ZM151.322 10.006C151.78 10.006 152.209 9.89867 152.61 9.684C153.012 9.46933 153.334 9.14733 153.576 8.718C153.828 8.28867 153.954 7.766 153.954 7.15C153.954 6.534 153.833 6.01133 153.59 5.582C153.348 5.15267 153.03 4.83533 152.638 4.63C152.246 4.41533 151.822 4.308 151.364 4.308C150.898 4.308 150.468 4.41533 150.076 4.63C149.694 4.83533 149.386 5.15267 149.152 5.582C148.919 6.01133 148.802 6.534 148.802 7.15C148.802 7.77533 148.914 8.30267 149.138 8.732C149.372 9.16133 149.68 9.48333 150.062 9.698C150.445 9.90333 150.865 10.006 151.322 10.006ZM160.054 4.378H158.444V11H157.17V4.378H156.176V3.328H157.17V2.782C157.17 1.92333 157.389 1.298 157.828 0.906C158.276 0.504666 158.99 0.303999 159.97 0.303999V1.368C159.41 1.368 159.013 1.48 158.78 1.704C158.556 1.91867 158.444 2.278 158.444 2.782V3.328H160.054V4.378ZM171.879 3.328L167.259 14.612H165.943L167.455 10.916L164.361 3.328H165.775L168.183 9.544L170.563 3.328H171.879ZM176.506 11.126C175.787 11.126 175.134 10.9627 174.546 10.636C173.967 10.3093 173.51 9.84733 173.174 9.25C172.847 8.64333 172.684 7.94333 172.684 7.15C172.684 6.366 172.852 5.67533 173.188 5.078C173.533 4.47133 174 4.00933 174.588 3.692C175.176 3.36533 175.834 3.202 176.562 3.202C177.29 3.202 177.948 3.36533 178.536 3.692C179.124 4.00933 179.586 4.46667 179.922 5.064C180.267 5.66133 180.44 6.35667 180.44 7.15C180.44 7.94333 180.263 8.64333 179.908 9.25C179.563 9.84733 179.091 10.3093 178.494 10.636C177.897 10.9627 177.234 11.126 176.506 11.126ZM176.506 10.006C176.963 10.006 177.393 9.89867 177.794 9.684C178.195 9.46933 178.517 9.14733 178.76 8.718C179.012 8.28867 179.138 7.766 179.138 7.15C179.138 6.534 179.017 6.01133 178.774 5.582C178.531 5.15267 178.214 4.83533 177.822 4.63C177.43 4.41533 177.005 4.308 176.548 4.308C176.081 4.308 175.652 4.41533 175.26 4.63C174.877 4.83533 174.569 5.15267 174.336 5.582C174.103 6.01133 173.986 6.534 173.986 7.15C173.986 7.77533 174.098 8.30267 174.322 8.732C174.555 9.16133 174.863 9.48333 175.246 9.698C175.629 9.90333 176.049 10.006 176.506 10.006ZM188.919 3.328V11H187.645V9.866C187.402 10.258 187.062 10.566 186.623 10.79C186.194 11.0047 185.718 11.112 185.195 11.112C184.598 11.112 184.061 10.9907 183.585 10.748C183.109 10.496 182.731 10.1227 182.451 9.628C182.18 9.13333 182.045 8.53133 182.045 7.822V3.328H183.305V7.654C183.305 8.41 183.496 8.99333 183.879 9.404C184.262 9.80533 184.784 10.006 185.447 10.006C186.128 10.006 186.665 9.796 187.057 9.376C187.449 8.956 187.645 8.34467 187.645 7.542V3.328H188.919ZM196.077 4.756C196.338 4.29867 196.721 3.92533 197.225 3.636C197.729 3.34667 198.303 3.202 198.947 3.202C199.637 3.202 200.258 3.36533 200.809 3.692C201.359 4.01867 201.793 4.48067 202.111 5.078C202.428 5.666 202.587 6.352 202.587 7.136C202.587 7.91067 202.428 8.60133 202.111 9.208C201.793 9.81467 201.355 10.286 200.795 10.622C200.244 10.958 199.628 11.126 198.947 11.126C198.284 11.126 197.701 10.9813 197.197 10.692C196.702 10.4027 196.329 10.034 196.077 9.586V11H194.803V0.64H196.077V4.756ZM201.285 7.136C201.285 6.55733 201.168 6.05333 200.935 5.624C200.701 5.19467 200.384 4.868 199.983 4.644C199.591 4.42 199.157 4.308 198.681 4.308C198.214 4.308 197.78 4.42467 197.379 4.658C196.987 4.882 196.669 5.21333 196.427 5.652C196.193 6.08133 196.077 6.58067 196.077 7.15C196.077 7.72867 196.193 8.23733 196.427 8.676C196.669 9.10533 196.987 9.43667 197.379 9.67C197.78 9.894 198.214 10.006 198.681 10.006C199.157 10.006 199.591 9.894 199.983 9.67C200.384 9.43667 200.701 9.10533 200.935 8.676C201.168 8.23733 201.285 7.724 201.285 7.136ZM211.264 6.87C211.264 7.11267 211.25 7.36933 211.222 7.64H205.09C205.136 8.396 205.393 8.98867 205.86 9.418C206.336 9.838 206.91 10.048 207.582 10.048C208.132 10.048 208.59 9.922 208.954 9.67C209.327 9.40867 209.588 9.06333 209.738 8.634H211.11C210.904 9.37133 210.494 9.97333 209.878 10.44C209.262 10.8973 208.496 11.126 207.582 11.126C206.854 11.126 206.2 10.9627 205.622 10.636C205.052 10.3093 204.604 9.84733 204.278 9.25C203.951 8.64333 203.788 7.94333 203.788 7.15C203.788 6.35667 203.946 5.66133 204.264 5.064C204.581 4.46667 205.024 4.00933 205.594 3.692C206.172 3.36533 206.835 3.202 207.582 3.202C208.31 3.202 208.954 3.36067 209.514 3.678C210.074 3.99533 210.503 4.434 210.802 4.994C211.11 5.54467 211.264 6.17 211.264 6.87ZM209.948 6.604C209.948 6.11867 209.84 5.70333 209.626 5.358C209.411 5.00333 209.117 4.73733 208.744 4.56C208.38 4.37333 207.974 4.28 207.526 4.28C206.882 4.28 206.331 4.48533 205.874 4.896C205.426 5.30667 205.169 5.876 205.104 6.604H209.948ZM219.8 4.378H218.19V11H216.916V4.378H215.922V3.328H216.916V2.782C216.916 1.92333 217.135 1.298 217.574 0.906C218.022 0.504666 218.736 0.303999 219.716 0.303999V1.368C219.156 1.368 218.759 1.48 218.526 1.704C218.302 1.91867 218.19 2.278 218.19 2.782V3.328H219.8V4.378ZM221.943 2.082C221.7 2.082 221.495 1.998 221.327 1.83C221.159 1.662 221.075 1.45667 221.075 1.214C221.075 0.971333 221.159 0.766 221.327 0.598C221.495 0.43 221.7 0.345999 221.943 0.345999C222.176 0.345999 222.372 0.43 222.531 0.598C222.699 0.766 222.783 0.971333 222.783 1.214C222.783 1.45667 222.699 1.662 222.531 1.83C222.372 1.998 222.176 2.082 221.943 2.082ZM222.559 3.328V11H221.285V3.328H222.559ZM226.004 0.64V11H224.73V0.64H226.004ZM229.45 0.64V11H228.176V0.64H229.45ZM238.621 6.87C238.621 7.11267 238.607 7.36933 238.579 7.64H232.447C232.494 8.396 232.75 8.98867 233.217 9.418C233.693 9.838 234.267 10.048 234.939 10.048C235.49 10.048 235.947 9.922 236.311 9.67C236.684 9.40867 236.946 9.06333 237.095 8.634H238.467C238.262 9.37133 237.851 9.97333 237.235 10.44C236.619 10.8973 235.854 11.126 234.939 11.126C234.211 11.126 233.558 10.9627 232.979 10.636C232.41 10.3093 231.962 9.84733 231.635 9.25C231.308 8.64333 231.145 7.94333 231.145 7.15C231.145 6.35667 231.304 5.66133 231.621 5.064C231.938 4.46667 232.382 4.00933 232.951 3.692C233.53 3.36533 234.192 3.202 234.939 3.202C235.667 3.202 236.311 3.36067 236.871 3.678C237.431 3.99533 237.86 4.434 238.159 4.994C238.467 5.54467 238.621 6.17 238.621 6.87ZM237.305 6.604C237.305 6.11867 237.198 5.70333 236.983 5.358C236.768 5.00333 236.474 4.73733 236.101 4.56C235.737 4.37333 235.331 4.28 234.883 4.28C234.239 4.28 233.688 4.48533 233.231 4.896C232.783 5.30667 232.526 5.876 232.461 6.604H237.305ZM239.827 7.136C239.827 6.352 239.985 5.666 240.303 5.078C240.62 4.48067 241.054 4.01867 241.605 3.692C242.165 3.36533 242.79 3.202 243.481 3.202C244.078 3.202 244.633 3.342 245.147 3.622C245.66 3.89267 246.052 4.252 246.323 4.7V0.64H247.611V11H246.323V9.558C246.071 10.0153 245.697 10.3933 245.203 10.692C244.708 10.9813 244.129 11.126 243.467 11.126C242.785 11.126 242.165 10.958 241.605 10.622C241.054 10.286 240.62 9.81467 240.303 9.208C239.985 8.60133 239.827 7.91067 239.827 7.136ZM246.323 7.15C246.323 6.57133 246.206 6.06733 245.973 5.638C245.739 5.20867 245.422 4.882 245.021 4.658C244.629 4.42467 244.195 4.308 243.719 4.308C243.243 4.308 242.809 4.42 242.417 4.644C242.025 4.868 241.712 5.19467 241.479 5.624C241.245 6.05333 241.129 6.55733 241.129 7.136C241.129 7.724 241.245 8.23733 241.479 8.676C241.712 9.10533 242.025 9.43667 242.417 9.67C242.809 9.894 243.243 10.006 243.719 10.006C244.195 10.006 244.629 9.894 245.021 9.67C245.422 9.43667 245.739 9.10533 245.973 8.676C246.206 8.23733 246.323 7.72867 246.323 7.15ZM263.716 3.328L261.322 11H260.006L258.158 4.91L256.31 11H254.994L252.586 3.328H253.888L255.652 9.768L257.556 3.328H258.858L260.72 9.782L262.456 3.328H263.716ZM265.638 2.082C265.396 2.082 265.19 1.998 265.022 1.83C264.854 1.662 264.77 1.45667 264.77 1.214C264.77 0.971333 264.854 0.766 265.022 0.598C265.19 0.43 265.396 0.345999 265.638 0.345999C265.872 0.345999 266.068 0.43 266.226 0.598C266.394 0.766 266.478 0.971333 266.478 1.214C266.478 1.45667 266.394 1.662 266.226 1.83C266.068 1.998 265.872 2.082 265.638 2.082ZM266.254 3.328V11H264.98V3.328H266.254ZM269.98 4.378V8.9C269.98 9.27333 270.059 9.53933 270.218 9.698C270.376 9.84733 270.652 9.922 271.044 9.922H271.982V11H270.834C270.124 11 269.592 10.8367 269.238 10.51C268.883 10.1833 268.706 9.64667 268.706 8.9V4.378H267.712V3.328H268.706V1.396H269.98V3.328H271.982V4.378H269.98ZM277.333 3.188C277.912 3.188 278.435 3.314 278.901 3.566C279.368 3.80867 279.732 4.17733 279.993 4.672C280.264 5.16667 280.399 5.76867 280.399 6.478V11H279.139V6.66C279.139 5.89467 278.948 5.31133 278.565 4.91C278.183 4.49933 277.66 4.294 276.997 4.294C276.325 4.294 275.789 4.504 275.387 4.924C274.995 5.344 274.799 5.95533 274.799 6.758V11H273.525V0.64H274.799V4.42C275.051 4.028 275.397 3.72467 275.835 3.51C276.283 3.29533 276.783 3.188 277.333 3.188ZM287.487 4.742C287.739 4.30333 288.112 3.93933 288.607 3.65C289.111 3.35133 289.694 3.202 290.357 3.202C291.038 3.202 291.654 3.36533 292.205 3.692C292.765 4.01867 293.203 4.48067 293.521 5.078C293.838 5.666 293.997 6.352 293.997 7.136C293.997 7.91067 293.838 8.60133 293.521 9.208C293.203 9.81467 292.765 10.286 292.205 10.622C291.654 10.958 291.038 11.126 290.357 11.126C289.703 11.126 289.125 10.9813 288.621 10.692C288.126 10.3933 287.748 10.0247 287.487 9.586V14.64H286.213V3.328H287.487V4.742ZM292.695 7.136C292.695 6.55733 292.578 6.05333 292.345 5.624C292.111 5.19467 291.794 4.868 291.393 4.644C291.001 4.42 290.567 4.308 290.091 4.308C289.624 4.308 289.19 4.42467 288.789 4.658C288.397 4.882 288.079 5.21333 287.837 5.652C287.603 6.08133 287.487 6.58067 287.487 7.15C287.487 7.72867 287.603 8.23733 287.837 8.676C288.079 9.10533 288.397 9.43667 288.789 9.67C289.19 9.894 289.624 10.006 290.091 10.006C290.567 10.006 291.001 9.894 291.393 9.67C291.794 9.43667 292.111 9.10533 292.345 8.676C292.578 8.23733 292.695 7.724 292.695 7.136ZM296.948 4.574C297.172 4.13533 297.489 3.79467 297.9 3.552C298.32 3.30933 298.828 3.188 299.426 3.188V4.504H299.09C297.662 4.504 296.948 5.27867 296.948 6.828V11H295.674V3.328H296.948V4.574ZM304.242 11.126C303.524 11.126 302.87 10.9627 302.282 10.636C301.704 10.3093 301.246 9.84733 300.91 9.25C300.584 8.64333 300.42 7.94333 300.42 7.15C300.42 6.366 300.588 5.67533 300.924 5.078C301.27 4.47133 301.736 4.00933 302.324 3.692C302.912 3.36533 303.57 3.202 304.298 3.202C305.026 3.202 305.684 3.36533 306.272 3.692C306.86 4.00933 307.322 4.46667 307.658 5.064C308.004 5.66133 308.176 6.35667 308.176 7.15C308.176 7.94333 307.999 8.64333 307.644 9.25C307.299 9.84733 306.828 10.3093 306.23 10.636C305.633 10.9627 304.97 11.126 304.242 11.126ZM304.242 10.006C304.7 10.006 305.129 9.89867 305.53 9.684C305.932 9.46933 306.254 9.14733 306.496 8.718C306.748 8.28867 306.874 7.766 306.874 7.15C306.874 6.534 306.753 6.01133 306.51 5.582C306.268 5.15267 305.95 4.83533 305.558 4.63C305.166 4.41533 304.742 4.308 304.284 4.308C303.818 4.308 303.388 4.41533 302.996 4.63C302.614 4.83533 302.306 5.15267 302.072 5.582C301.839 6.01133 301.722 6.534 301.722 7.15C301.722 7.77533 301.834 8.30267 302.058 8.732C302.292 9.16133 302.6 9.48333 302.982 9.698C303.365 9.90333 303.785 10.006 304.242 10.006ZM312.567 11.126C311.979 11.126 311.452 11.028 310.985 10.832C310.519 10.6267 310.15 10.3467 309.879 9.992C309.609 9.628 309.459 9.21267 309.431 8.746H310.747C310.785 9.12867 310.962 9.44133 311.279 9.684C311.606 9.92667 312.031 10.048 312.553 10.048C313.039 10.048 313.421 9.94067 313.701 9.726C313.981 9.51133 314.121 9.24067 314.121 8.914C314.121 8.578 313.972 8.33067 313.673 8.172C313.375 8.004 312.913 7.84067 312.287 7.682C311.718 7.53267 311.251 7.38333 310.887 7.234C310.533 7.07533 310.225 6.84667 309.963 6.548C309.711 6.24 309.585 5.83867 309.585 5.344C309.585 4.952 309.702 4.59267 309.935 4.266C310.169 3.93933 310.5 3.68267 310.929 3.496C311.359 3.3 311.849 3.202 312.399 3.202C313.249 3.202 313.935 3.41667 314.457 3.846C314.98 4.27533 315.26 4.86333 315.297 5.61H314.023C313.995 5.20867 313.832 4.88667 313.533 4.644C313.244 4.40133 312.852 4.28 312.357 4.28C311.9 4.28 311.536 4.378 311.265 4.574C310.995 4.77 310.859 5.02667 310.859 5.344C310.859 5.596 310.939 5.806 311.097 5.974C311.265 6.13267 311.471 6.26333 311.713 6.366C311.965 6.45933 312.311 6.56667 312.749 6.688C313.3 6.83733 313.748 6.98667 314.093 7.136C314.439 7.276 314.733 7.49067 314.975 7.78C315.227 8.06933 315.358 8.44733 315.367 8.914C315.367 9.334 315.251 9.712 315.017 10.048C314.784 10.384 314.453 10.65 314.023 10.846C313.603 11.0327 313.118 11.126 312.567 11.126ZM318.44 4.742C318.692 4.30333 319.065 3.93933 319.56 3.65C320.064 3.35133 320.647 3.202 321.31 3.202C321.991 3.202 322.607 3.36533 323.158 3.692C323.718 4.01867 324.157 4.48067 324.474 5.078C324.791 5.666 324.95 6.352 324.95 7.136C324.95 7.91067 324.791 8.60133 324.474 9.208C324.157 9.81467 323.718 10.286 323.158 10.622C322.607 10.958 321.991 11.126 321.31 11.126C320.657 11.126 320.078 10.9813 319.574 10.692C319.079 10.3933 318.701 10.0247 318.44 9.586V14.64H317.166V3.328H318.44V4.742ZM323.648 7.136C323.648 6.55733 323.531 6.05333 323.298 5.624C323.065 5.19467 322.747 4.868 322.346 4.644C321.954 4.42 321.52 4.308 321.044 4.308C320.577 4.308 320.143 4.42467 319.742 4.658C319.35 4.882 319.033 5.21333 318.79 5.652C318.557 6.08133 318.44 6.58067 318.44 7.15C318.44 7.72867 318.557 8.23733 318.79 8.676C319.033 9.10533 319.35 9.43667 319.742 9.67C320.143 9.894 320.577 10.006 321.044 10.006C321.52 10.006 321.954 9.894 322.346 9.67C322.747 9.43667 323.065 9.10533 323.298 8.676C323.531 8.23733 323.648 7.724 323.648 7.136ZM333.627 6.87C333.627 7.11267 333.613 7.36933 333.585 7.64H327.453C327.499 8.396 327.756 8.98867 328.223 9.418C328.699 9.838 329.273 10.048 329.945 10.048C330.495 10.048 330.953 9.922 331.317 9.67C331.69 9.40867 331.951 9.06333 332.101 8.634H333.473C333.267 9.37133 332.857 9.97333 332.241 10.44C331.625 10.8973 330.859 11.126 329.945 11.126C329.217 11.126 328.563 10.9627 327.985 10.636C327.415 10.3093 326.967 9.84733 326.641 9.25C326.314 8.64333 326.151 7.94333 326.151 7.15C326.151 6.35667 326.309 5.66133 326.627 5.064C326.944 4.46667 327.387 4.00933 327.957 3.692C328.535 3.36533 329.198 3.202 329.945 3.202C330.673 3.202 331.317 3.36067 331.877 3.678C332.437 3.99533 332.866 4.434 333.165 4.994C333.473 5.54467 333.627 6.17 333.627 6.87ZM332.311 6.604C332.311 6.11867 332.203 5.70333 331.989 5.358C331.774 5.00333 331.48 4.73733 331.107 4.56C330.743 4.37333 330.337 4.28 329.889 4.28C329.245 4.28 328.694 4.48533 328.237 4.896C327.789 5.30667 327.532 5.876 327.467 6.604H332.311ZM336.582 4.574C336.806 4.13533 337.124 3.79467 337.534 3.552C337.954 3.30933 338.463 3.188 339.06 3.188V4.504H338.724C337.296 4.504 336.582 5.27867 336.582 6.828V11H335.308V3.328H336.582V4.574ZM341.189 2.082C340.946 2.082 340.741 1.998 340.573 1.83C340.405 1.662 340.321 1.45667 340.321 1.214C340.321 0.971333 340.405 0.766 340.573 0.598C340.741 0.43 340.946 0.345999 341.189 0.345999C341.422 0.345999 341.618 0.43 341.777 0.598C341.945 0.766 342.029 0.971333 342.029 1.214C342.029 1.45667 341.945 1.662 341.777 1.83C341.618 1.998 341.422 2.082 341.189 2.082ZM341.805 3.328V11H340.531V3.328H341.805ZM345.53 4.378V8.9C345.53 9.27333 345.61 9.53933 345.768 9.698C345.927 9.84733 346.202 9.922 346.594 9.922H347.532V11H346.384C345.675 11 345.143 10.8367 344.788 10.51C344.434 10.1833 344.256 9.64667 344.256 8.9V4.378H343.262V3.328H344.256V1.396H345.53V3.328H347.532V4.378H345.53ZM355.684 3.328L351.064 14.612H349.748L351.26 10.916L348.166 3.328H349.58L351.988 9.544L354.368 3.328H355.684ZM358.281 9.236L356.713 13.002H355.859L356.881 9.236H358.281ZM366.637 3.202C367.299 3.202 367.878 3.34667 368.373 3.636C368.877 3.92533 369.25 4.28933 369.493 4.728V3.328H370.781V11.168C370.781 11.868 370.631 12.4887 370.333 13.03C370.034 13.5807 369.605 14.01 369.045 14.318C368.494 14.626 367.85 14.78 367.113 14.78C366.105 14.78 365.265 14.542 364.593 14.066C363.921 13.59 363.524 12.9413 363.403 12.12H364.663C364.803 12.5867 365.092 12.96 365.531 13.24C365.969 13.5293 366.497 13.674 367.113 13.674C367.813 13.674 368.382 13.4547 368.821 13.016C369.269 12.5773 369.493 11.9613 369.493 11.168V9.558C369.241 10.006 368.867 10.3793 368.373 10.678C367.878 10.9767 367.299 11.126 366.637 11.126C365.955 11.126 365.335 10.958 364.775 10.622C364.224 10.286 363.79 9.81467 363.473 9.208C363.155 8.60133 362.997 7.91067 362.997 7.136C362.997 6.352 363.155 5.666 363.473 5.078C363.79 4.48067 364.224 4.01867 364.775 3.692C365.335 3.36533 365.955 3.202 366.637 3.202ZM369.493 7.15C369.493 6.57133 369.376 6.06733 369.143 5.638C368.909 5.20867 368.592 4.882 368.191 4.658C367.799 4.42467 367.365 4.308 366.889 4.308C366.413 4.308 365.979 4.42 365.587 4.644C365.195 4.868 364.882 5.19467 364.649 5.624C364.415 6.05333 364.299 6.55733 364.299 7.136C364.299 7.724 364.415 8.23733 364.649 8.676C364.882 9.10533 365.195 9.43667 365.587 9.67C365.979 9.894 366.413 10.006 366.889 10.006C367.365 10.006 367.799 9.894 368.191 9.67C368.592 9.43667 368.909 9.10533 369.143 8.676C369.376 8.23733 369.493 7.72867 369.493 7.15ZM374.207 4.574C374.431 4.13533 374.749 3.79467 375.159 3.552C375.579 3.30933 376.088 3.188 376.685 3.188V4.504H376.349C374.921 4.504 374.207 5.27867 374.207 6.828V11H372.933V3.328H374.207V4.574ZM385.156 6.87C385.156 7.11267 385.142 7.36933 385.114 7.64H378.982C379.029 8.396 379.285 8.98867 379.752 9.418C380.228 9.838 380.802 10.048 381.474 10.048C382.025 10.048 382.482 9.922 382.846 9.67C383.219 9.40867 383.481 9.06333 383.63 8.634H385.002C384.797 9.37133 384.386 9.97333 383.77 10.44C383.154 10.8973 382.389 11.126 381.474 11.126C380.746 11.126 380.093 10.9627 379.514 10.636C378.945 10.3093 378.497 9.84733 378.17 9.25C377.843 8.64333 377.68 7.94333 377.68 7.15C377.68 6.35667 377.839 5.66133 378.156 5.064C378.473 4.46667 378.917 4.00933 379.486 3.692C380.065 3.36533 380.727 3.202 381.474 3.202C382.202 3.202 382.846 3.36067 383.406 3.678C383.966 3.99533 384.395 4.434 384.694 4.994C385.002 5.54467 385.156 6.17 385.156 6.87ZM383.84 6.604C383.84 6.11867 383.733 5.70333 383.518 5.358C383.303 5.00333 383.009 4.73733 382.636 4.56C382.272 4.37333 381.866 4.28 381.418 4.28C380.774 4.28 380.223 4.48533 379.766 4.896C379.318 5.30667 379.061 5.876 378.996 6.604H383.84ZM386.362 7.136C386.362 6.352 386.52 5.666 386.838 5.078C387.155 4.48067 387.589 4.01867 388.14 3.692C388.7 3.36533 389.32 3.202 390.002 3.202C390.674 3.202 391.257 3.34667 391.752 3.636C392.246 3.92533 392.615 4.28933 392.858 4.728V3.328H394.146V11H392.858V9.572C392.606 10.02 392.228 10.3933 391.724 10.692C391.229 10.9813 390.65 11.126 389.988 11.126C389.306 11.126 388.69 10.958 388.14 10.622C387.589 10.286 387.155 9.81467 386.838 9.208C386.52 8.60133 386.362 7.91067 386.362 7.136ZM392.858 7.15C392.858 6.57133 392.741 6.06733 392.508 5.638C392.274 5.20867 391.957 4.882 391.556 4.658C391.164 4.42467 390.73 4.308 390.254 4.308C389.778 4.308 389.344 4.42 388.952 4.644C388.56 4.868 388.247 5.19467 388.014 5.624C387.78 6.05333 387.664 6.55733 387.664 7.136C387.664 7.724 387.78 8.23733 388.014 8.676C388.247 9.10533 388.56 9.43667 388.952 9.67C389.344 9.894 389.778 10.006 390.254 10.006C390.73 10.006 391.164 9.894 391.556 9.67C391.957 9.43667 392.274 9.10533 392.508 8.676C392.741 8.23733 392.858 7.72867 392.858 7.15ZM397.853 4.378V8.9C397.853 9.27333 397.932 9.53933 398.091 9.698C398.249 9.84733 398.525 9.922 398.917 9.922H399.855V11H398.707C397.997 11 397.465 10.8367 397.111 10.51C396.756 10.1833 396.579 9.64667 396.579 8.9V4.378H395.585V3.328H396.579V1.396H397.853V3.328H399.855V4.378H397.853ZM20.7532 24.188C21.3319 24.188 21.8545 24.314 22.3212 24.566C22.7879 24.8087 23.1519 25.1773 23.4132 25.672C23.6839 26.1667 23.8192 26.7687 23.8192 27.478V32H22.5592V27.66C22.5592 26.8947 22.3679 26.3113 21.9852 25.91C21.6025 25.4993 21.0799 25.294 20.4172 25.294C19.7452 25.294 19.2085 25.504 18.8072 25.924C18.4152 26.344 18.2192 26.9553 18.2192 27.758V32H16.9452V21.64H18.2192V25.42C18.4712 25.028 18.8165 24.7247 19.2552 24.51C19.7032 24.2953 20.2025 24.188 20.7532 24.188ZM32.9003 27.87C32.9003 28.1127 32.8863 28.3693 32.8583 28.64H26.7263C26.7729 29.396 27.0296 29.9887 27.4963 30.418C27.9723 30.838 28.5463 31.048 29.2183 31.048C29.7689 31.048 30.2263 30.922 30.5903 30.67C30.9636 30.4087 31.2249 30.0633 31.3743 29.634H32.7463C32.5409 30.3713 32.1303 30.9733 31.5143 31.44C30.8983 31.8973 30.1329 32.126 29.2183 32.126C28.4903 32.126 27.8369 31.9627 27.2583 31.636C26.6889 31.3093 26.2409 30.8473 25.9143 30.25C25.5876 29.6433 25.4243 28.9433 25.4243 28.15C25.4243 27.3567 25.5829 26.6613 25.9003 26.064C26.2176 25.4667 26.6609 25.0093 27.2303 24.692C27.8089 24.3653 28.4716 24.202 29.2183 24.202C29.9463 24.202 30.5903 24.3607 31.1503 24.678C31.7103 24.9953 32.1396 25.434 32.4383 25.994C32.7463 26.5447 32.9003 27.17 32.9003 27.87ZM31.5843 27.604C31.5843 27.1187 31.4769 26.7033 31.2623 26.358C31.0476 26.0033 30.7536 25.7373 30.3803 25.56C30.0163 25.3733 29.6103 25.28 29.1623 25.28C28.5183 25.28 27.9676 25.4853 27.5103 25.896C27.0623 26.3067 26.8056 26.876 26.7403 27.604H31.5843ZM34.1059 28.136C34.1059 27.352 34.2646 26.666 34.5819 26.078C34.8992 25.4807 35.3332 25.0187 35.8839 24.692C36.4439 24.3653 37.0646 24.202 37.7459 24.202C38.4179 24.202 39.0012 24.3467 39.4959 24.636C39.9906 24.9253 40.3592 25.2893 40.6019 25.728V24.328H41.8899V32H40.6019V30.572C40.3499 31.02 39.9719 31.3933 39.4679 31.692C38.9732 31.9813 38.3946 32.126 37.7319 32.126C37.0506 32.126 36.4346 31.958 35.8839 31.622C35.3332 31.286 34.8992 30.8147 34.5819 30.208C34.2646 29.6013 34.1059 28.9107 34.1059 28.136ZM40.6019 28.15C40.6019 27.5713 40.4852 27.0673 40.2519 26.638C40.0186 26.2087 39.7012 25.882 39.2999 25.658C38.9079 25.4247 38.4739 25.308 37.9979 25.308C37.5219 25.308 37.0879 25.42 36.6959 25.644C36.3039 25.868 35.9912 26.1947 35.7579 26.624C35.5246 27.0533 35.4079 27.5573 35.4079 28.136C35.4079 28.724 35.5246 29.2373 35.7579 29.676C35.9912 30.1053 36.3039 30.4367 36.6959 30.67C37.0879 30.894 37.5219 31.006 37.9979 31.006C38.4739 31.006 38.9079 30.894 39.2999 30.67C39.7012 30.4367 40.0186 30.1053 40.2519 29.676C40.4852 29.2373 40.6019 28.7287 40.6019 28.15ZM45.3168 21.64V32H44.0428V21.64H45.3168ZM49.0422 25.378V29.9C49.0422 30.2733 49.1215 30.5393 49.2802 30.698C49.4388 30.8473 49.7142 30.922 50.1062 30.922H51.0442V32H49.8962C49.1868 32 48.6548 31.8367 48.3002 31.51C47.9455 31.1833 47.7682 30.6467 47.7682 29.9V25.378H46.7742V24.328H47.7682V22.396H49.0422V24.328H51.0442V25.378H49.0422ZM56.3958 24.188C56.9744 24.188 57.4971 24.314 57.9638 24.566C58.4304 24.8087 58.7944 25.1773 59.0558 25.672C59.3264 26.1667 59.4618 26.7687 59.4618 27.478V32H58.2018V27.66C58.2018 26.8947 58.0104 26.3113 57.6278 25.91C57.2451 25.4993 56.7224 25.294 56.0598 25.294C55.3878 25.294 54.8511 25.504 54.4498 25.924C54.0578 26.344 53.8618 26.9553 53.8618 27.758V32H52.5878V21.64H53.8618V25.42C54.1138 25.028 54.4591 24.7247 54.8978 24.51C55.3458 24.2953 55.8451 24.188 56.3958 24.188ZM64.7993 28.136C64.7993 27.352 64.9579 26.666 65.2753 26.078C65.5926 25.4807 66.0266 25.0187 66.5773 24.692C67.1373 24.3653 67.7579 24.202 68.4393 24.202C69.1113 24.202 69.6946 24.3467 70.1893 24.636C70.6839 24.9253 71.0526 25.2893 71.2953 25.728V24.328H72.5833V32H71.2953V30.572C71.0433 31.02 70.6653 31.3933 70.1613 31.692C69.6666 31.9813 69.0879 32.126 68.4253 32.126C67.7439 32.126 67.1279 31.958 66.5773 31.622C66.0266 31.286 65.5926 30.8147 65.2753 30.208C64.9579 29.6013 64.7993 28.9107 64.7993 28.136ZM71.2953 28.15C71.2953 27.5713 71.1786 27.0673 70.9453 26.638C70.7119 26.2087 70.3946 25.882 69.9933 25.658C69.6013 25.4247 69.1673 25.308 68.6913 25.308C68.2153 25.308 67.7813 25.42 67.3893 25.644C66.9973 25.868 66.6846 26.1947 66.4513 26.624C66.2179 27.0533 66.1013 27.5573 66.1013 28.136C66.1013 28.724 66.2179 29.2373 66.4513 29.676C66.6846 30.1053 66.9973 30.4367 67.3893 30.67C67.7813 30.894 68.2153 31.006 68.6913 31.006C69.1673 31.006 69.6013 30.894 69.9933 30.67C70.3946 30.4367 70.7119 30.1053 70.9453 29.676C71.1786 29.2373 71.2953 28.7287 71.2953 28.15ZM78.4742 24.188C79.4075 24.188 80.1635 24.4727 80.7422 25.042C81.3209 25.602 81.6102 26.414 81.6102 27.478V32H80.3502V27.66C80.3502 26.8947 80.1589 26.3113 79.7762 25.91C79.3935 25.4993 78.8709 25.294 78.2082 25.294C77.5362 25.294 76.9995 25.504 76.5982 25.924C76.2062 26.344 76.0102 26.9553 76.0102 27.758V32H74.7362V24.328H76.0102V25.42C76.2622 25.028 76.6029 24.7247 77.0322 24.51C77.4709 24.2953 77.9515 24.188 78.4742 24.188ZM83.2153 28.136C83.2153 27.352 83.3739 26.666 83.6913 26.078C84.0086 25.4807 84.4426 25.0187 84.9933 24.692C85.5533 24.3653 86.1786 24.202 86.8693 24.202C87.4666 24.202 88.0219 24.342 88.5353 24.622C89.0486 24.8927 89.4406 25.252 89.7113 25.7V21.64H90.9993V32H89.7113V30.558C89.4593 31.0153 89.0859 31.3933 88.5913 31.692C88.0966 31.9813 87.5179 32.126 86.8553 32.126C86.1739 32.126 85.5533 31.958 84.9933 31.622C84.4426 31.286 84.0086 30.8147 83.6913 30.208C83.3739 29.6013 83.2153 28.9107 83.2153 28.136ZM89.7113 28.15C89.7113 27.5713 89.5946 27.0673 89.3613 26.638C89.1279 26.2087 88.8106 25.882 88.4093 25.658C88.0173 25.4247 87.5833 25.308 87.1073 25.308C86.6313 25.308 86.1973 25.42 85.8053 25.644C85.4133 25.868 85.1006 26.1947 84.8673 26.624C84.6339 27.0533 84.5173 27.5573 84.5173 28.136C84.5173 28.724 84.6339 29.2373 84.8673 29.676C85.1006 30.1053 85.4133 30.4367 85.8053 30.67C86.1973 30.894 86.6313 31.006 87.1073 31.006C87.5833 31.006 88.0173 30.894 88.4093 30.67C88.8106 30.4367 89.1279 30.1053 89.3613 29.676C89.5946 29.2373 89.7113 28.7287 89.7113 28.15ZM96.4086 28.136C96.4086 27.352 96.5673 26.666 96.8846 26.078C97.202 25.4807 97.636 25.0187 98.1866 24.692C98.7466 24.3653 99.3673 24.202 100.049 24.202C100.721 24.202 101.304 24.3467 101.799 24.636C102.293 24.9253 102.662 25.2893 102.905 25.728V24.328H104.193V32H102.905V30.572C102.653 31.02 102.275 31.3933 101.771 31.692C101.276 31.9813 100.697 32.126 100.035 32.126C99.3533 32.126 98.7373 31.958 98.1866 31.622C97.636 31.286 97.202 30.8147 96.8846 30.208C96.5673 29.6013 96.4086 28.9107 96.4086 28.136ZM102.905 28.15C102.905 27.5713 102.788 27.0673 102.555 26.638C102.321 26.2087 102.004 25.882 101.603 25.658C101.211 25.4247 100.777 25.308 100.301 25.308C99.8246 25.308 99.3906 25.42 98.9986 25.644C98.6066 25.868 98.294 26.1947 98.0606 26.624C97.8273 27.0533 97.7106 27.5573 97.7106 28.136C97.7106 28.724 97.8273 29.2373 98.0606 29.676C98.294 30.1053 98.6066 30.4367 98.9986 30.67C99.3906 30.894 99.8246 31.006 100.301 31.006C100.777 31.006 101.211 30.894 101.603 30.67C102.004 30.4367 102.321 30.1053 102.555 29.676C102.788 29.2373 102.905 28.7287 102.905 28.15ZM107.62 25.756C107.881 25.2987 108.264 24.9253 108.768 24.636C109.272 24.3467 109.846 24.202 110.49 24.202C111.18 24.202 111.801 24.3653 112.352 24.692C112.902 25.0187 113.336 25.4807 113.654 26.078C113.971 26.666 114.13 27.352 114.13 28.136C114.13 28.9107 113.971 29.6013 113.654 30.208C113.336 30.8147 112.898 31.286 112.338 31.622C111.787 31.958 111.171 32.126 110.49 32.126C109.827 32.126 109.244 31.9813 108.74 31.692C108.245 31.4027 107.872 31.034 107.62 30.586V32H106.346V21.64H107.62V25.756ZM112.828 28.136C112.828 27.5573 112.711 27.0533 112.478 26.624C112.244 26.1947 111.927 25.868 111.526 25.644C111.134 25.42 110.7 25.308 110.224 25.308C109.757 25.308 109.323 25.4247 108.922 25.658C108.53 25.882 108.212 26.2133 107.97 26.652C107.736 27.0813 107.62 27.5807 107.62 28.15C107.62 28.7287 107.736 29.2373 107.97 29.676C108.212 30.1053 108.53 30.4367 108.922 30.67C109.323 30.894 109.757 31.006 110.224 31.006C110.7 31.006 111.134 30.894 111.526 30.67C111.927 30.4367 112.244 30.1053 112.478 29.676C112.711 29.2373 112.828 28.724 112.828 28.136ZM119.153 32.126C118.434 32.126 117.781 31.9627 117.193 31.636C116.614 31.3093 116.157 30.8473 115.821 30.25C115.494 29.6433 115.331 28.9433 115.331 28.15C115.331 27.366 115.499 26.6753 115.835 26.078C116.18 25.4713 116.647 25.0093 117.235 24.692C117.823 24.3653 118.481 24.202 119.209 24.202C119.937 24.202 120.595 24.3653 121.183 24.692C121.771 25.0093 122.233 25.4667 122.569 26.064C122.914 26.6613 123.087 27.3567 123.087 28.15C123.087 28.9433 122.909 29.6433 122.555 30.25C122.209 30.8473 121.738 31.3093 121.141 31.636C120.543 31.9627 119.881 32.126 119.153 32.126ZM119.153 31.006C119.61 31.006 120.039 30.8987 120.441 30.684C120.842 30.4693 121.164 30.1473 121.407 29.718C121.659 29.2887 121.785 28.766 121.785 28.15C121.785 27.534 121.663 27.0113 121.421 26.582C121.178 26.1527 120.861 25.8353 120.469 25.63C120.077 25.4153 119.652 25.308 119.195 25.308C118.728 25.308 118.299 25.4153 117.907 25.63C117.524 25.8353 117.216 26.1527 116.983 26.582C116.749 27.0113 116.633 27.534 116.633 28.15C116.633 28.7753 116.745 29.3027 116.969 29.732C117.202 30.1613 117.51 30.4833 117.893 30.698C118.275 30.9033 118.695 31.006 119.153 31.006ZM127.618 30.824L129.998 24.328H131.356L128.346 32H126.862L123.852 24.328H125.224L127.618 30.824ZM139.609 27.87C139.609 28.1127 139.595 28.3693 139.567 28.64H133.435C133.482 29.396 133.739 29.9887 134.205 30.418C134.681 30.838 135.255 31.048 135.927 31.048C136.478 31.048 136.935 30.922 137.299 30.67C137.673 30.4087 137.934 30.0633 138.083 29.634H139.455C139.25 30.3713 138.839 30.9733 138.223 31.44C137.607 31.8973 136.842 32.126 135.927 32.126C135.199 32.126 134.546 31.9627 133.967 31.636C133.398 31.3093 132.95 30.8473 132.623 30.25C132.297 29.6433 132.133 28.9433 132.133 28.15C132.133 27.3567 132.292 26.6613 132.609 26.064C132.927 25.4667 133.37 25.0093 133.939 24.692C134.518 24.3653 135.181 24.202 135.927 24.202C136.655 24.202 137.299 24.3607 137.859 24.678C138.419 24.9953 138.849 25.434 139.147 25.994C139.455 26.5447 139.609 27.17 139.609 27.87ZM138.293 27.604C138.293 27.1187 138.186 26.7033 137.971 26.358C137.757 26.0033 137.463 25.7373 137.089 25.56C136.725 25.3733 136.319 25.28 135.871 25.28C135.227 25.28 134.677 25.4853 134.219 25.896C133.771 26.3067 133.515 26.876 133.449 27.604H138.293ZM144.547 28.136C144.547 27.352 144.706 26.666 145.023 26.078C145.341 25.4807 145.775 25.0187 146.325 24.692C146.885 24.3653 147.506 24.202 148.187 24.202C148.859 24.202 149.443 24.3467 149.937 24.636C150.432 24.9253 150.801 25.2893 151.043 25.728V24.328H152.331V32H151.043V30.572C150.791 31.02 150.413 31.3933 149.909 31.692C149.415 31.9813 148.836 32.126 148.173 32.126C147.492 32.126 146.876 31.958 146.325 31.622C145.775 31.286 145.341 30.8147 145.023 30.208C144.706 29.6013 144.547 28.9107 144.547 28.136ZM151.043 28.15C151.043 27.5713 150.927 27.0673 150.693 26.638C150.46 26.2087 150.143 25.882 149.741 25.658C149.349 25.4247 148.915 25.308 148.439 25.308C147.963 25.308 147.529 25.42 147.137 25.644C146.745 25.868 146.433 26.1947 146.199 26.624C145.966 27.0533 145.849 27.5573 145.849 28.136C145.849 28.724 145.966 29.2373 146.199 29.676C146.433 30.1053 146.745 30.4367 147.137 30.67C147.529 30.894 147.963 31.006 148.439 31.006C148.915 31.006 149.349 30.894 149.741 30.67C150.143 30.4367 150.46 30.1053 150.693 29.676C150.927 29.2373 151.043 28.7287 151.043 28.15ZM155.758 21.64V32H154.484V21.64H155.758ZM159.204 21.64V32H157.93V21.64H159.204ZM165.793 23.082C165.551 23.082 165.345 22.998 165.177 22.83C165.019 22.662 164.939 22.4567 164.939 22.214C164.939 21.9713 165.019 21.766 165.177 21.598C165.345 21.43 165.551 21.346 165.793 21.346C166.036 21.346 166.237 21.43 166.395 21.598C166.563 21.766 166.647 21.9713 166.647 22.214C166.647 22.4567 166.563 22.662 166.395 22.83C166.237 22.998 166.036 23.082 165.793 23.082ZM166.423 33.666C166.423 34.3473 166.251 34.8467 165.905 35.164C165.56 35.4813 165.056 35.64 164.393 35.64H163.651V34.562H164.183C164.538 34.562 164.785 34.492 164.925 34.352C165.075 34.212 165.149 33.974 165.149 33.638V24.328H166.423V33.666ZM171.926 32.126C171.207 32.126 170.554 31.9627 169.966 31.636C169.387 31.3093 168.93 30.8473 168.594 30.25C168.267 29.6433 168.104 28.9433 168.104 28.15C168.104 27.366 168.272 26.6753 168.608 26.078C168.953 25.4713 169.42 25.0093 170.008 24.692C170.596 24.3653 171.254 24.202 171.982 24.202C172.71 24.202 173.368 24.3653 173.956 24.692C174.544 25.0093 175.006 25.4667 175.342 26.064C175.687 26.6613 175.86 27.3567 175.86 28.15C175.86 28.9433 175.683 29.6433 175.328 30.25C174.983 30.8473 174.511 31.3093 173.914 31.636C173.317 31.9627 172.654 32.126 171.926 32.126ZM171.926 31.006C172.383 31.006 172.813 30.8987 173.214 30.684C173.615 30.4693 173.937 30.1473 174.18 29.718C174.432 29.2887 174.558 28.766 174.558 28.15C174.558 27.534 174.437 27.0113 174.194 26.582C173.951 26.1527 173.634 25.8353 173.242 25.63C172.85 25.4153 172.425 25.308 171.968 25.308C171.501 25.308 171.072 25.4153 170.68 25.63C170.297 25.8353 169.989 26.1527 169.756 26.582C169.523 27.0113 169.406 27.534 169.406 28.15C169.406 28.7753 169.518 29.3027 169.742 29.732C169.975 30.1613 170.283 30.4833 170.666 30.698C171.049 30.9033 171.469 31.006 171.926 31.006ZM184.143 24.328L179.523 35.612H178.207L179.719 31.916L176.625 24.328H178.039L180.447 30.544L182.827 24.328H184.143ZM189.814 23.082C189.571 23.082 189.366 22.998 189.198 22.83C189.03 22.662 188.946 22.4567 188.946 22.214C188.946 21.9713 189.03 21.766 189.198 21.598C189.366 21.43 189.571 21.346 189.814 21.346C190.047 21.346 190.243 21.43 190.402 21.598C190.57 21.766 190.654 21.9713 190.654 22.214C190.654 22.4567 190.57 22.662 190.402 22.83C190.243 22.998 190.047 23.082 189.814 23.082ZM190.43 24.328V32H189.156V24.328H190.43ZM196.339 24.188C197.273 24.188 198.029 24.4727 198.607 25.042C199.186 25.602 199.475 26.414 199.475 27.478V32H198.215V27.66C198.215 26.8947 198.024 26.3113 197.641 25.91C197.259 25.4993 196.736 25.294 196.073 25.294C195.401 25.294 194.865 25.504 194.463 25.924C194.071 26.344 193.875 26.9553 193.875 27.758V32H192.601V24.328H193.875V25.42C194.127 25.028 194.468 24.7247 194.897 24.51C195.336 24.2953 195.817 24.188 196.339 24.188ZM205.947 23.082C205.704 23.082 205.499 22.998 205.331 22.83C205.163 22.662 205.079 22.4567 205.079 22.214C205.079 21.9713 205.163 21.766 205.331 21.598C205.499 21.43 205.704 21.346 205.947 21.346C206.18 21.346 206.376 21.43 206.535 21.598C206.703 21.766 206.787 21.9713 206.787 22.214C206.787 22.4567 206.703 22.662 206.535 22.83C206.376 22.998 206.18 23.082 205.947 23.082ZM206.563 24.328V32H205.289V24.328H206.563ZM210.288 25.378V29.9C210.288 30.2733 210.368 30.5393 210.526 30.698C210.685 30.8473 210.96 30.922 211.352 30.922H212.29V32H211.142C210.433 32 209.901 31.8367 209.546 31.51C209.192 31.1833 209.014 30.6467 209.014 29.9V25.378H208.02V24.328H209.014V22.396H210.288V24.328H212.29V25.378H210.288ZM216.55 32.126C215.962 32.126 215.435 32.028 214.968 31.832C214.501 31.6267 214.133 31.3467 213.862 30.992C213.591 30.628 213.442 30.2127 213.414 29.746H214.73C214.767 30.1287 214.945 30.4413 215.262 30.684C215.589 30.9267 216.013 31.048 216.536 31.048C217.021 31.048 217.404 30.9407 217.684 30.726C217.964 30.5113 218.104 30.2407 218.104 29.914C218.104 29.578 217.955 29.3307 217.656 29.172C217.357 29.004 216.895 28.8407 216.27 28.682C215.701 28.5327 215.234 28.3833 214.87 28.234C214.515 28.0753 214.207 27.8467 213.946 27.548C213.694 27.24 213.568 26.8387 213.568 26.344C213.568 25.952 213.685 25.5927 213.918 25.266C214.151 24.9393 214.483 24.6827 214.912 24.496C215.341 24.3 215.831 24.202 216.382 24.202C217.231 24.202 217.917 24.4167 218.44 24.846C218.963 25.2753 219.243 25.8633 219.28 26.61H218.006C217.978 26.2087 217.815 25.8867 217.516 25.644C217.227 25.4013 216.835 25.28 216.34 25.28C215.883 25.28 215.519 25.378 215.248 25.574C214.977 25.77 214.842 26.0267 214.842 26.344C214.842 26.596 214.921 26.806 215.08 26.974C215.248 27.1327 215.453 27.2633 215.696 27.366C215.948 27.4593 216.293 27.5667 216.732 27.688C217.283 27.8373 217.731 27.9867 218.076 28.136C218.421 28.276 218.715 28.4907 218.958 28.78C219.21 29.0693 219.341 29.4473 219.35 29.914C219.35 30.334 219.233 30.712 219 31.048C218.767 31.384 218.435 31.65 218.006 31.846C217.586 32.0327 217.101 32.126 216.55 32.126ZM226.435 25.378V29.9C226.435 30.2733 226.514 30.5393 226.673 30.698C226.831 30.8473 227.107 30.922 227.499 30.922H228.437V32H227.289C226.579 32 226.047 31.8367 225.693 31.51C225.338 31.1833 225.161 30.6467 225.161 29.9V25.378H224.167V24.328H225.161V22.396H226.435V24.328H228.437V25.378H226.435ZM231.254 25.574C231.478 25.1353 231.796 24.7947 232.206 24.552C232.626 24.3093 233.135 24.188 233.732 24.188V25.504H233.396C231.968 25.504 231.254 26.2787 231.254 27.828V32H229.98V24.328H231.254V25.574ZM242.007 24.328V32H240.733V30.866C240.49 31.258 240.15 31.566 239.711 31.79C239.282 32.0047 238.806 32.112 238.283 32.112C237.686 32.112 237.149 31.9907 236.673 31.748C236.197 31.496 235.819 31.1227 235.539 30.628C235.268 30.1333 235.133 29.5313 235.133 28.822V24.328H236.393V28.654C236.393 29.41 236.584 29.9933 236.967 30.404C237.35 30.8053 237.872 31.006 238.535 31.006C239.216 31.006 239.753 30.796 240.145 30.376C240.537 29.956 240.733 29.3447 240.733 28.542V24.328H242.007ZM251.158 27.87C251.158 28.1127 251.144 28.3693 251.116 28.64H244.984C245.031 29.396 245.287 29.9887 245.754 30.418C246.23 30.838 246.804 31.048 247.476 31.048C248.027 31.048 248.484 30.922 248.848 30.67C249.221 30.4087 249.483 30.0633 249.632 29.634H251.004C250.799 30.3713 250.388 30.9733 249.772 31.44C249.156 31.8973 248.391 32.126 247.476 32.126C246.748 32.126 246.095 31.9627 245.516 31.636C244.947 31.3093 244.499 30.8473 244.172 30.25C243.845 29.6433 243.682 28.9433 243.682 28.15C243.682 27.3567 243.841 26.6613 244.158 26.064C244.475 25.4667 244.919 25.0093 245.488 24.692C246.067 24.3653 246.729 24.202 247.476 24.202C248.204 24.202 248.848 24.3607 249.408 24.678C249.968 24.9953 250.397 25.434 250.696 25.994C251.004 26.5447 251.158 27.17 251.158 27.87ZM249.842 27.604C249.842 27.1187 249.735 26.7033 249.52 26.358C249.305 26.0033 249.011 25.7373 248.638 25.56C248.274 25.3733 247.868 25.28 247.42 25.28C246.776 25.28 246.225 25.4853 245.768 25.896C245.32 26.3067 245.063 26.876 244.998 27.604H249.842ZM255.556 32.126C254.968 32.126 254.44 32.028 253.974 31.832C253.507 31.6267 253.138 31.3467 252.868 30.992C252.597 30.628 252.448 30.2127 252.42 29.746H253.736C253.773 30.1287 253.95 30.4413 254.268 30.684C254.594 30.9267 255.019 31.048 255.542 31.048C256.027 31.048 256.41 30.9407 256.69 30.726C256.97 30.5113 257.11 30.2407 257.11 29.914C257.11 29.578 256.96 29.3307 256.662 29.172C256.363 29.004 255.901 28.8407 255.276 28.682C254.706 28.5327 254.24 28.3833 253.876 28.234C253.521 28.0753 253.213 27.8467 252.952 27.548C252.7 27.24 252.574 26.8387 252.574 26.344C252.574 25.952 252.69 25.5927 252.924 25.266C253.157 24.9393 253.488 24.6827 253.918 24.496C254.347 24.3 254.837 24.202 255.388 24.202C256.237 24.202 256.923 24.4167 257.446 24.846C257.968 25.2753 258.248 25.8633 258.286 26.61H257.012C256.984 26.2087 256.82 25.8867 256.522 25.644C256.232 25.4013 255.84 25.28 255.346 25.28C254.888 25.28 254.524 25.378 254.254 25.574C253.983 25.77 253.848 26.0267 253.848 26.344C253.848 26.596 253.927 26.806 254.086 26.974C254.254 27.1327 254.459 27.2633 254.702 27.366C254.954 27.4593 255.299 27.5667 255.738 27.688C256.288 27.8373 256.736 27.9867 257.082 28.136C257.427 28.276 257.721 28.4907 257.964 28.78C258.216 29.0693 258.346 29.4473 258.356 29.914C258.356 30.334 258.239 30.712 258.006 31.048C257.772 31.384 257.441 31.65 257.012 31.846C256.592 32.0327 256.106 32.126 255.556 32.126ZM261.708 25.378V29.9C261.708 30.2733 261.788 30.5393 261.946 30.698C262.105 30.8473 262.38 30.922 262.772 30.922H263.71V32H262.562C261.853 32 261.321 31.8367 260.966 31.51C260.612 31.1833 260.434 30.6467 260.434 29.9V25.378H259.44V24.328H260.434V22.396H261.708V24.328H263.71V25.378H261.708ZM268.51 28.136C268.51 27.352 268.669 26.666 268.986 26.078C269.304 25.4807 269.738 25.0187 270.288 24.692C270.848 24.3653 271.469 24.202 272.15 24.202C272.822 24.202 273.406 24.3467 273.9 24.636C274.395 24.9253 274.764 25.2893 275.006 25.728V24.328H276.294V32H275.006V30.572C274.754 31.02 274.376 31.3933 273.872 31.692C273.378 31.9813 272.799 32.126 272.136 32.126C271.455 32.126 270.839 31.958 270.288 31.622C269.738 31.286 269.304 30.8147 268.986 30.208C268.669 29.6013 268.51 28.9107 268.51 28.136ZM275.006 28.15C275.006 27.5713 274.89 27.0673 274.656 26.638C274.423 26.2087 274.106 25.882 273.704 25.658C273.312 25.4247 272.878 25.308 272.402 25.308C271.926 25.308 271.492 25.42 271.1 25.644C270.708 25.868 270.396 26.1947 270.162 26.624C269.929 27.0533 269.812 27.5573 269.812 28.136C269.812 28.724 269.929 29.2373 270.162 29.676C270.396 30.1053 270.708 30.4367 271.1 30.67C271.492 30.894 271.926 31.006 272.402 31.006C272.878 31.006 273.312 30.894 273.704 30.67C274.106 30.4367 274.423 30.1053 274.656 29.676C274.89 29.2373 275.006 28.7287 275.006 28.15ZM282.185 24.188C283.118 24.188 283.874 24.4727 284.453 25.042C285.032 25.602 285.321 26.414 285.321 27.478V32H284.061V27.66C284.061 26.8947 283.87 26.3113 283.487 25.91C283.104 25.4993 282.582 25.294 281.919 25.294C281.247 25.294 280.71 25.504 280.309 25.924C279.917 26.344 279.721 26.9553 279.721 27.758V32H278.447V24.328H279.721V25.42C279.973 25.028 280.314 24.7247 280.743 24.51C281.182 24.2953 281.662 24.188 282.185 24.188ZM286.926 28.136C286.926 27.352 287.085 26.666 287.402 26.078C287.72 25.4807 288.154 25.0187 288.704 24.692C289.264 24.3653 289.89 24.202 290.58 24.202C291.178 24.202 291.733 24.342 292.246 24.622C292.76 24.8927 293.152 25.252 293.422 25.7V21.64H294.71V32H293.422V30.558C293.17 31.0153 292.797 31.3933 292.302 31.692C291.808 31.9813 291.229 32.126 290.566 32.126C289.885 32.126 289.264 31.958 288.704 31.622C288.154 31.286 287.72 30.8147 287.402 30.208C287.085 29.6013 286.926 28.9107 286.926 28.136ZM293.422 28.15C293.422 27.5713 293.306 27.0673 293.072 26.638C292.839 26.2087 292.522 25.882 292.12 25.658C291.728 25.4247 291.294 25.308 290.818 25.308C290.342 25.308 289.908 25.42 289.516 25.644C289.124 25.868 288.812 26.1947 288.578 26.624C288.345 27.0533 288.228 27.5573 288.228 28.136C288.228 28.724 288.345 29.2373 288.578 29.676C288.812 30.1053 289.124 30.4367 289.516 30.67C289.908 30.894 290.342 31.006 290.818 31.006C291.294 31.006 291.728 30.894 292.12 30.67C292.522 30.4367 292.839 30.1053 293.072 29.676C293.306 29.2373 293.422 28.7287 293.422 28.15ZM301.87 25.742C302.122 25.3033 302.495 24.9393 302.99 24.65C303.494 24.3513 304.077 24.202 304.74 24.202C305.421 24.202 306.037 24.3653 306.588 24.692C307.148 25.0187 307.586 25.4807 307.904 26.078C308.221 26.666 308.38 27.352 308.38 28.136C308.38 28.9107 308.221 29.6013 307.904 30.208C307.586 30.8147 307.148 31.286 306.588 31.622C306.037 31.958 305.421 32.126 304.74 32.126C304.086 32.126 303.508 31.9813 303.004 31.692C302.509 31.3933 302.131 31.0247 301.87 30.586V35.64H300.596V24.328H301.87V25.742ZM307.078 28.136C307.078 27.5573 306.961 27.0533 306.728 26.624C306.494 26.1947 306.177 25.868 305.776 25.644C305.384 25.42 304.95 25.308 304.474 25.308C304.007 25.308 303.573 25.4247 303.172 25.658C302.78 25.882 302.462 26.2133 302.22 26.652C301.986 27.0813 301.87 27.5807 301.87 28.15C301.87 28.7287 301.986 29.2373 302.22 29.676C302.462 30.1053 302.78 30.4367 303.172 30.67C303.573 30.894 304.007 31.006 304.474 31.006C304.95 31.006 305.384 30.894 305.776 30.67C306.177 30.4367 306.494 30.1053 306.728 29.676C306.961 29.2373 307.078 28.724 307.078 28.136ZM316.861 24.328V32H315.587V30.866C315.344 31.258 315.003 31.566 314.565 31.79C314.135 32.0047 313.659 32.112 313.137 32.112C312.539 32.112 312.003 31.9907 311.527 31.748C311.051 31.496 310.673 31.1227 310.393 30.628C310.122 30.1333 309.987 29.5313 309.987 28.822V24.328H311.247V28.654C311.247 29.41 311.438 29.9933 311.821 30.404C312.203 30.8053 312.726 31.006 313.389 31.006C314.07 31.006 314.607 30.796 314.999 30.376C315.391 29.956 315.587 29.3447 315.587 28.542V24.328H316.861ZM320.286 25.574C320.51 25.1353 320.827 24.7947 321.238 24.552C321.658 24.3093 322.166 24.188 322.764 24.188V25.504H322.428C321 25.504 320.286 26.2787 320.286 27.828V32H319.012V24.328H320.286V25.574ZM331.234 27.87C331.234 28.1127 331.22 28.3693 331.192 28.64H325.06C325.107 29.396 325.364 29.9887 325.83 30.418C326.306 30.838 326.88 31.048 327.552 31.048C328.103 31.048 328.56 30.922 328.924 30.67C329.298 30.4087 329.559 30.0633 329.708 29.634H331.08C330.875 30.3713 330.464 30.9733 329.848 31.44C329.232 31.8973 328.467 32.126 327.552 32.126C326.824 32.126 326.171 31.9627 325.592 31.636C325.023 31.3093 324.575 30.8473 324.248 30.25C323.922 29.6433 323.758 28.9433 323.758 28.15C323.758 27.3567 323.917 26.6613 324.234 26.064C324.552 25.4667 324.995 25.0093 325.564 24.692C326.143 24.3653 326.806 24.202 327.552 24.202C328.28 24.202 328.924 24.3607 329.484 24.678C330.044 24.9953 330.474 25.434 330.772 25.994C331.08 26.5447 331.234 27.17 331.234 27.87ZM329.918 27.604C329.918 27.1187 329.811 26.7033 329.596 26.358C329.382 26.0033 329.088 25.7373 328.714 25.56C328.35 25.3733 327.944 25.28 327.496 25.28C326.852 25.28 326.302 25.4853 325.844 25.896C325.396 26.3067 325.14 26.876 325.074 27.604H329.918ZM335.632 32.126C335.044 32.126 334.517 32.028 334.05 31.832C333.583 31.6267 333.215 31.3467 332.944 30.992C332.673 30.628 332.524 30.2127 332.496 29.746H333.812C333.849 30.1287 334.027 30.4413 334.344 30.684C334.671 30.9267 335.095 31.048 335.618 31.048C336.103 31.048 336.486 30.9407 336.766 30.726C337.046 30.5113 337.186 30.2407 337.186 29.914C337.186 29.578 337.037 29.3307 336.738 29.172C336.439 29.004 335.977 28.8407 335.352 28.682C334.783 28.5327 334.316 28.3833 333.952 28.234C333.597 28.0753 333.289 27.8467 333.028 27.548C332.776 27.24 332.65 26.8387 332.65 26.344C332.65 25.952 332.767 25.5927 333 25.266C333.233 24.9393 333.565 24.6827 333.994 24.496C334.423 24.3 334.913 24.202 335.464 24.202C336.313 24.202 336.999 24.4167 337.522 24.846C338.045 25.2753 338.325 25.8633 338.362 26.61H337.088C337.06 26.2087 336.897 25.8867 336.598 25.644C336.309 25.4013 335.917 25.28 335.422 25.28C334.965 25.28 334.601 25.378 334.33 25.574C334.059 25.77 333.924 26.0267 333.924 26.344C333.924 26.596 334.003 26.806 334.162 26.974C334.33 27.1327 334.535 27.2633 334.778 27.366C335.03 27.4593 335.375 27.5667 335.814 27.688C336.365 27.8373 336.813 27.9867 337.158 28.136C337.503 28.276 337.797 28.4907 338.04 28.78C338.292 29.0693 338.423 29.4473 338.432 29.914C338.432 30.334 338.315 30.712 338.082 31.048C337.849 31.384 337.517 31.65 337.088 31.846C336.668 32.0327 336.183 32.126 335.632 32.126ZM341.784 25.378V29.9C341.784 30.2733 341.864 30.5393 342.022 30.698C342.181 30.8473 342.456 30.922 342.848 30.922H343.786V32H342.638C341.929 32 341.397 31.8367 341.042 31.51C340.688 31.1833 340.51 30.6467 340.51 29.9V25.378H339.516V24.328H340.51V22.396H341.784V24.328H343.786V25.378H341.784ZM352.184 25.378H350.574V32H349.3V25.378H348.306V24.328H349.3V23.782C349.3 22.9233 349.52 22.298 349.958 21.906C350.406 21.5047 351.12 21.304 352.1 21.304V22.368C351.54 22.368 351.144 22.48 350.91 22.704C350.686 22.9187 350.574 23.278 350.574 23.782V24.328H352.184V25.378ZM357.016 32.126C356.297 32.126 355.644 31.9627 355.056 31.636C354.477 31.3093 354.02 30.8473 353.684 30.25C353.357 29.6433 353.194 28.9433 353.194 28.15C353.194 27.366 353.362 26.6753 353.698 26.078C354.043 25.4713 354.51 25.0093 355.098 24.692C355.686 24.3653 356.344 24.202 357.072 24.202C357.8 24.202 358.458 24.3653 359.046 24.692C359.634 25.0093 360.096 25.4667 360.432 26.064C360.777 26.6613 360.95 27.3567 360.95 28.15C360.95 28.9433 360.772 29.6433 360.418 30.25C360.072 30.8473 359.601 31.3093 359.004 31.636C358.406 31.9627 357.744 32.126 357.016 32.126ZM357.016 31.006C357.473 31.006 357.902 30.8987 358.304 30.684C358.705 30.4693 359.027 30.1473 359.27 29.718C359.522 29.2887 359.648 28.766 359.648 28.15C359.648 27.534 359.526 27.0113 359.284 26.582C359.041 26.1527 358.724 25.8353 358.332 25.63C357.94 25.4153 357.515 25.308 357.058 25.308C356.591 25.308 356.162 25.4153 355.77 25.63C355.387 25.8353 355.079 26.1527 354.846 26.582C354.612 27.0113 354.496 27.534 354.496 28.15C354.496 28.7753 354.608 29.3027 354.832 29.732C355.065 30.1613 355.373 30.4833 355.756 30.698C356.138 30.9033 356.558 31.006 357.016 31.006ZM363.899 25.574C364.123 25.1353 364.44 24.7947 364.851 24.552C365.271 24.3093 365.78 24.188 366.377 24.188V25.504H366.041C364.613 25.504 363.899 26.2787 363.899 27.828V32H362.625V24.328H363.899V25.574ZM377.074 24.188C377.671 24.188 378.203 24.314 378.67 24.566C379.136 24.8087 379.505 25.1773 379.776 25.672C380.046 26.1667 380.182 26.7687 380.182 27.478V32H378.922V27.66C378.922 26.8947 378.73 26.3113 378.348 25.91C377.974 25.4993 377.466 25.294 376.822 25.294C376.159 25.294 375.632 25.5087 375.24 25.938C374.848 26.358 374.652 26.9693 374.652 27.772V32H373.392V27.66C373.392 26.8947 373.2 26.3113 372.818 25.91C372.444 25.4993 371.936 25.294 371.292 25.294C370.629 25.294 370.102 25.5087 369.71 25.938C369.318 26.358 369.122 26.9693 369.122 27.772V32H367.848V24.328H369.122V25.434C369.374 25.0327 369.71 24.7247 370.13 24.51C370.559 24.2953 371.03 24.188 371.544 24.188C372.188 24.188 372.757 24.3327 373.252 24.622C373.746 24.9113 374.115 25.336 374.358 25.896C374.572 25.3547 374.927 24.9347 375.422 24.636C375.916 24.3373 376.467 24.188 377.074 24.188ZM382.677 32.084C382.435 32.084 382.229 32 382.061 31.832C381.893 31.664 381.809 31.4587 381.809 31.216C381.809 30.9733 381.893 30.768 382.061 30.6C382.229 30.432 382.435 30.348 382.677 30.348C382.911 30.348 383.107 30.432 383.265 30.6C383.433 30.768 383.517 30.9733 383.517 31.216C383.517 31.4587 383.433 31.664 383.265 31.832C383.107 32 382.911 32.084 382.677 32.084Z"
          fill="#434343"/>
</svg>
