<svg width="264" height="36" viewBox="0 0 264 36" fill="none" xmlns="http://www.w3.org/2000/svg">
    <path d="M6.58105 1.228V2.81H2.50705V5.316H5.62905V6.87H2.50705V11H0.547055V1.228H6.58105ZM9.93088 4.448C10.1829 4.03733 10.5095 3.71533 10.9109 3.482C11.3215 3.24867 11.7882 3.132 12.3109 3.132V5.19H11.7929C11.1769 5.19 10.7102 5.33467 10.3929 5.624C10.0849 5.91333 9.93088 6.41733 9.93088 7.136V11H7.97088V3.244H9.93088V4.448ZM17.075 11.126C16.3284 11.126 15.6564 10.9627 15.059 10.636C14.4617 10.3 13.9904 9.82867 13.645 9.222C13.309 8.61533 13.141 7.91533 13.141 7.122C13.141 6.32867 13.3137 5.62867 13.659 5.022C14.0137 4.41533 14.4944 3.94867 15.101 3.622C15.7077 3.286 16.3844 3.118 17.131 3.118C17.8777 3.118 18.5544 3.286 19.161 3.622C19.7677 3.94867 20.2437 4.41533 20.589 5.022C20.9437 5.62867 21.121 6.32867 21.121 7.122C21.121 7.91533 20.939 8.61533 20.575 9.222C20.2204 9.82867 19.735 10.3 19.119 10.636C18.5124 10.9627 17.831 11.126 17.075 11.126ZM17.075 9.418C17.4297 9.418 17.761 9.334 18.069 9.166C18.3864 8.98867 18.6384 8.72733 18.825 8.382C19.0117 8.03667 19.105 7.61667 19.105 7.122C19.105 6.38467 18.909 5.82 18.517 5.428C18.1344 5.02667 17.663 4.826 17.103 4.826C16.543 4.826 16.0717 5.02667 15.689 5.428C15.3157 5.82 15.129 6.38467 15.129 7.122C15.129 7.85933 15.311 8.42867 15.675 8.83C16.0484 9.222 16.515 9.418 17.075 9.418ZM32.1908 3.132C33.1428 3.132 33.9081 3.426 34.4868 4.014C35.0748 4.59267 35.3688 5.40467 35.3688 6.45V11H33.4088V6.716C33.4088 6.10933 33.2548 5.64733 32.9468 5.33C32.6388 5.00333 32.2188 4.84 31.6868 4.84C31.1548 4.84 30.7301 5.00333 30.4128 5.33C30.1048 5.64733 29.9508 6.10933 29.9508 6.716V11H27.9908V6.716C27.9908 6.10933 27.8368 5.64733 27.5288 5.33C27.2208 5.00333 26.8008 4.84 26.2688 4.84C25.7274 4.84 25.2981 5.00333 24.9808 5.33C24.6728 5.64733 24.5188 6.10933 24.5188 6.716V11H22.5588V3.244H24.5188V4.182C24.7708 3.85533 25.0928 3.59867 25.4848 3.412C25.8861 3.22533 26.3248 3.132 26.8008 3.132C27.4074 3.132 27.9488 3.26267 28.4248 3.524C28.9008 3.776 29.2694 4.14 29.5308 4.616C29.7828 4.168 30.1468 3.80867 30.6228 3.538C31.1081 3.26733 31.6308 3.132 32.1908 3.132ZM47.9846 3.244L43.1826 14.668H41.0966L42.7766 10.804L39.6686 3.244H41.8666L43.8686 8.662L45.8986 3.244H47.9846ZM52.4852 11.126C51.7385 11.126 51.0665 10.9627 50.4692 10.636C49.8719 10.3 49.4005 9.82867 49.0552 9.222C48.7192 8.61533 48.5512 7.91533 48.5512 7.122C48.5512 6.32867 48.7239 5.62867 49.0692 5.022C49.4239 4.41533 49.9045 3.94867 50.5112 3.622C51.1179 3.286 51.7945 3.118 52.5412 3.118C53.2879 3.118 53.9645 3.286 54.5712 3.622C55.1779 3.94867 55.6539 4.41533 55.9992 5.022C56.3539 5.62867 56.5312 6.32867 56.5312 7.122C56.5312 7.91533 56.3492 8.61533 55.9852 9.222C55.6305 9.82867 55.1452 10.3 54.5292 10.636C53.9225 10.9627 53.2412 11.126 52.4852 11.126ZM52.4852 9.418C52.8399 9.418 53.1712 9.334 53.4792 9.166C53.7965 8.98867 54.0485 8.72733 54.2352 8.382C54.4219 8.03667 54.5152 7.61667 54.5152 7.122C54.5152 6.38467 54.3192 5.82 53.9272 5.428C53.5445 5.02667 53.0732 4.826 52.5132 4.826C51.9532 4.826 51.4819 5.02667 51.0992 5.428C50.7259 5.82 50.5392 6.38467 50.5392 7.122C50.5392 7.85933 50.7212 8.42867 51.0852 8.83C51.4585 9.222 51.9252 9.418 52.4852 9.418ZM65.2909 3.244V11H63.3169V10.02C63.0649 10.356 62.7336 10.622 62.3229 10.818C61.9216 11.0047 61.4829 11.098 61.0069 11.098C60.4003 11.098 59.8636 10.972 59.3969 10.72C58.9303 10.4587 58.5616 10.0807 58.2909 9.586C58.0296 9.082 57.8989 8.48467 57.8989 7.794V3.244H59.8589V7.514C59.8589 8.13 60.0129 8.606 60.3209 8.942C60.6289 9.26867 61.0489 9.432 61.5809 9.432C62.1223 9.432 62.5469 9.26867 62.8549 8.942C63.1629 8.606 63.3169 8.13 63.3169 7.514V3.244H65.2909ZM69.1848 4.448C69.4368 4.03733 69.7635 3.71533 70.1648 3.482C70.5755 3.24867 71.0421 3.132 71.5648 3.132V5.19H71.0468C70.4308 5.19 69.9641 5.33467 69.6468 5.624C69.3388 5.91333 69.1848 6.41733 69.1848 7.136V11H67.2248V3.244H69.1848V4.448ZM79.7769 4.854H78.4189V11H76.4309V4.854H75.5489V3.244H76.4309V2.852C76.4309 1.9 76.7015 1.2 77.2429 0.751999C77.7842 0.303999 78.6009 0.0939997 79.6929 0.122V1.774C79.2169 1.76467 78.8855 1.844 78.6989 2.012C78.5122 2.18 78.4189 2.48333 78.4189 2.922V3.244H79.7769V4.854ZM83.0071 4.448C83.2591 4.03733 83.5857 3.71533 83.9871 3.482C84.3977 3.24867 84.8644 3.132 85.3871 3.132V5.19H84.8691C84.2531 5.19 83.7864 5.33467 83.4691 5.624C83.1611 5.91333 83.0071 6.41733 83.0071 7.136V11H81.0471V3.244H83.0071V4.448ZM87.7012 2.32C87.3559 2.32 87.0665 2.21267 86.8332 1.998C86.6092 1.774 86.4972 1.49867 86.4972 1.172C86.4972 0.845333 86.6092 0.574666 86.8332 0.359999C87.0665 0.135999 87.3559 0.0239995 87.7012 0.0239995C88.0465 0.0239995 88.3312 0.135999 88.5552 0.359999C88.7885 0.574666 88.9052 0.845333 88.9052 1.172C88.9052 1.49867 88.7885 1.774 88.5552 1.998C88.3312 2.21267 88.0465 2.32 87.7012 2.32ZM88.6672 3.244V11H86.7072V3.244H88.6672ZM97.8137 6.954C97.8137 7.234 97.795 7.486 97.7577 7.71H92.0877C92.1344 8.27 92.3304 8.70867 92.6757 9.026C93.021 9.34333 93.4457 9.502 93.9497 9.502C94.6777 9.502 95.1957 9.18933 95.5037 8.564H97.6177C97.3937 9.31067 96.9644 9.92667 96.3297 10.412C95.695 10.888 94.9157 11.126 93.9917 11.126C93.245 11.126 92.573 10.9627 91.9757 10.636C91.3877 10.3 90.9257 9.82867 90.5897 9.222C90.263 8.61533 90.0997 7.91533 90.0997 7.122C90.0997 6.31933 90.263 5.61467 90.5897 5.008C90.9164 4.40133 91.3737 3.93467 91.9617 3.608C92.5497 3.28133 93.2264 3.118 93.9917 3.118C94.729 3.118 95.387 3.27667 95.9657 3.594C96.5537 3.91133 97.0064 4.364 97.3237 4.952C97.6504 5.53067 97.8137 6.198 97.8137 6.954ZM95.7837 6.394C95.7744 5.89 95.5924 5.48867 95.2377 5.19C94.883 4.882 94.449 4.728 93.9357 4.728C93.4504 4.728 93.0397 4.87733 92.7037 5.176C92.377 5.46533 92.1764 5.87133 92.1017 6.394H95.7837ZM103.542 3.132C104.466 3.132 105.213 3.426 105.782 4.014C106.352 4.59267 106.636 5.40467 106.636 6.45V11H104.676V6.716C104.676 6.1 104.522 5.62867 104.214 5.302C103.906 4.966 103.486 4.798 102.954 4.798C102.413 4.798 101.984 4.966 101.666 5.302C101.358 5.62867 101.204 6.1 101.204 6.716V11H99.2443V3.244H101.204V4.21C101.466 3.874 101.797 3.61267 102.198 3.426C102.609 3.23 103.057 3.132 103.542 3.132ZM107.996 7.094C107.996 6.31 108.15 5.61467 108.458 5.008C108.776 4.40133 109.205 3.93467 109.746 3.608C110.288 3.28133 110.89 3.118 111.552 3.118C112.056 3.118 112.537 3.23 112.994 3.454C113.452 3.66867 113.816 3.958 114.086 4.322V0.64H116.074V11H114.086V9.852C113.844 10.2347 113.503 10.5427 113.064 10.776C112.626 11.0093 112.117 11.126 111.538 11.126C110.885 11.126 110.288 10.958 109.746 10.622C109.205 10.286 108.776 9.81467 108.458 9.208C108.15 8.592 107.996 7.88733 107.996 7.094ZM114.1 7.122C114.1 6.646 114.007 6.24 113.82 5.904C113.634 5.55867 113.382 5.29733 113.064 5.12C112.747 4.93333 112.406 4.84 112.042 4.84C111.678 4.84 111.342 4.92867 111.034 5.106C110.726 5.28333 110.474 5.54467 110.278 5.89C110.092 6.226 109.998 6.62733 109.998 7.094C109.998 7.56067 110.092 7.97133 110.278 8.326C110.474 8.67133 110.726 8.93733 111.034 9.124C111.352 9.31067 111.688 9.404 112.042 9.404C112.406 9.404 112.747 9.31533 113.064 9.138C113.382 8.95133 113.634 8.69 113.82 8.354C114.007 8.00867 114.1 7.598 114.1 7.122ZM120.956 11.126C120.322 11.126 119.752 11.014 119.248 10.79C118.744 10.5567 118.343 10.244 118.044 9.852C117.755 9.46 117.596 9.026 117.568 8.55H119.542C119.58 8.84867 119.724 9.096 119.976 9.292C120.238 9.488 120.56 9.586 120.942 9.586C121.316 9.586 121.605 9.51133 121.81 9.362C122.025 9.21267 122.132 9.02133 122.132 8.788C122.132 8.536 122.002 8.34933 121.74 8.228C121.488 8.09733 121.082 7.95733 120.522 7.808C119.944 7.668 119.468 7.52333 119.094 7.374C118.73 7.22467 118.413 6.996 118.142 6.688C117.881 6.38 117.75 5.96467 117.75 5.442C117.75 5.01267 117.872 4.62067 118.114 4.266C118.366 3.91133 118.721 3.63133 119.178 3.426C119.645 3.22067 120.191 3.118 120.816 3.118C121.74 3.118 122.478 3.35133 123.028 3.818C123.579 4.27533 123.882 4.896 123.938 5.68H122.062C122.034 5.372 121.904 5.12933 121.67 4.952C121.446 4.76533 121.143 4.672 120.76 4.672C120.406 4.672 120.13 4.73733 119.934 4.868C119.748 4.99867 119.654 5.18067 119.654 5.414C119.654 5.67533 119.785 5.876 120.046 6.016C120.308 6.14667 120.714 6.282 121.264 6.422C121.824 6.562 122.286 6.70667 122.65 6.856C123.014 7.00533 123.327 7.23867 123.588 7.556C123.859 7.864 123.999 8.27467 124.008 8.788C124.008 9.236 123.882 9.63733 123.63 9.992C123.388 10.3467 123.033 10.6267 122.566 10.832C122.109 11.028 121.572 11.126 120.956 11.126ZM128.449 7.094C128.449 6.31 128.603 5.61467 128.911 5.008C129.229 4.40133 129.653 3.93467 130.185 3.608C130.727 3.28133 131.329 3.118 131.991 3.118C132.57 3.118 133.074 3.23467 133.503 3.468C133.942 3.70133 134.292 3.99533 134.553 4.35V3.244H136.527V11H134.553V9.866C134.301 10.23 133.951 10.5333 133.503 10.776C133.065 11.0093 132.556 11.126 131.977 11.126C131.324 11.126 130.727 10.958 130.185 10.622C129.653 10.286 129.229 9.81467 128.911 9.208C128.603 8.592 128.449 7.88733 128.449 7.094ZM134.553 7.122C134.553 6.646 134.46 6.24 134.273 5.904C134.087 5.55867 133.835 5.29733 133.517 5.12C133.2 4.93333 132.859 4.84 132.495 4.84C132.131 4.84 131.795 4.92867 131.487 5.106C131.179 5.28333 130.927 5.54467 130.731 5.89C130.545 6.226 130.451 6.62733 130.451 7.094C130.451 7.56067 130.545 7.97133 130.731 8.326C130.927 8.67133 131.179 8.93733 131.487 9.124C131.805 9.31067 132.141 9.404 132.495 9.404C132.859 9.404 133.2 9.31533 133.517 9.138C133.835 8.95133 134.087 8.69 134.273 8.354C134.46 8.00867 134.553 7.598 134.553 7.122ZM140.724 4.854V8.606C140.724 8.86733 140.784 9.05867 140.906 9.18C141.036 9.292 141.251 9.348 141.55 9.348H142.46V11H141.228C139.576 11 138.75 10.1973 138.75 8.592V4.854H137.826V3.244H138.75V1.326H140.724V3.244H142.46V4.854H140.724ZM151.741 11.098C150.827 11.098 149.987 10.8833 149.221 10.454C148.456 10.0247 147.849 9.432 147.401 8.676C146.953 7.91067 146.729 7.04733 146.729 6.086C146.729 5.134 146.953 4.28 147.401 3.524C147.849 2.75867 148.456 2.16133 149.221 1.732C149.987 1.30267 150.827 1.088 151.741 1.088C152.665 1.088 153.505 1.30267 154.261 1.732C155.027 2.16133 155.629 2.75867 156.067 3.524C156.515 4.28 156.739 5.134 156.739 6.086C156.739 7.04733 156.515 7.91067 156.067 8.676C155.629 9.432 155.027 10.0247 154.261 10.454C153.496 10.8833 152.656 11.098 151.741 11.098ZM151.741 9.348C152.329 9.348 152.847 9.21733 153.295 8.956C153.743 8.68533 154.093 8.30267 154.345 7.808C154.597 7.31333 154.723 6.73933 154.723 6.086C154.723 5.43267 154.597 4.86333 154.345 4.378C154.093 3.88333 153.743 3.50533 153.295 3.244C152.847 2.98267 152.329 2.852 151.741 2.852C151.153 2.852 150.631 2.98267 150.173 3.244C149.725 3.50533 149.375 3.88333 149.123 4.378C148.871 4.86333 148.745 5.43267 148.745 6.086C148.745 6.73933 148.871 7.31333 149.123 7.808C149.375 8.30267 149.725 8.68533 150.173 8.956C150.631 9.21733 151.153 9.348 151.741 9.348ZM160.157 4.448C160.409 4.03733 160.736 3.71533 161.137 3.482C161.548 3.24867 162.015 3.132 162.537 3.132V5.19H162.019C161.403 5.19 160.937 5.33467 160.619 5.624C160.311 5.91333 160.157 6.41733 160.157 7.136V11H158.197V3.244H160.157V4.448ZM165.818 4.378C166.07 4.00467 166.415 3.70133 166.854 3.468C167.302 3.23467 167.81 3.118 168.38 3.118C169.042 3.118 169.64 3.28133 170.172 3.608C170.713 3.93467 171.138 4.40133 171.446 5.008C171.763 5.60533 171.922 6.30067 171.922 7.094C171.922 7.88733 171.763 8.592 171.446 9.208C171.138 9.81467 170.713 10.286 170.172 10.622C169.64 10.958 169.042 11.126 168.38 11.126C167.801 11.126 167.292 11.014 166.854 10.79C166.424 10.5567 166.079 10.258 165.818 9.894V11H163.858V0.64H165.818V4.378ZM169.92 7.094C169.92 6.62733 169.822 6.226 169.626 5.89C169.439 5.54467 169.187 5.28333 168.87 5.106C168.562 4.92867 168.226 4.84 167.862 4.84C167.507 4.84 167.171 4.93333 166.854 5.12C166.546 5.29733 166.294 5.55867 166.098 5.904C165.911 6.24933 165.818 6.65533 165.818 7.122C165.818 7.58867 165.911 7.99467 166.098 8.34C166.294 8.68533 166.546 8.95133 166.854 9.138C167.171 9.31533 167.507 9.404 167.862 9.404C168.226 9.404 168.562 9.31067 168.87 9.124C169.187 8.93733 169.439 8.67133 169.626 8.326C169.822 7.98067 169.92 7.57 169.92 7.094ZM182.124 1.228L178.54 11H176.16L172.576 1.228H174.676L177.364 8.998L180.038 1.228H182.124ZM190.425 4.252C190.425 4.77467 190.299 5.26467 190.047 5.722C189.804 6.17933 189.417 6.548 188.885 6.828C188.362 7.108 187.7 7.248 186.897 7.248H185.259V11H183.299V1.228H186.897C187.653 1.228 188.297 1.35867 188.829 1.62C189.361 1.88133 189.758 2.24067 190.019 2.698C190.29 3.15533 190.425 3.67333 190.425 4.252ZM186.813 5.666C187.354 5.666 187.756 5.54467 188.017 5.302C188.278 5.05 188.409 4.7 188.409 4.252C188.409 3.3 187.877 2.824 186.813 2.824H185.259V5.666H186.813ZM200.175 11H198.215L193.777 4.294V11H191.817V1.214H193.777L198.215 7.934V1.214H200.175V11ZM204.254 8.942L202.616 12.876H201.356L202.266 8.942H204.254ZM219.754 3.244L217.486 11H215.372L213.958 5.582L212.544 11H210.416L208.134 3.244H210.122L211.494 9.152L212.978 3.244H215.05L216.506 9.138L217.878 3.244H219.754ZM228.025 6.954C228.025 7.234 228.006 7.486 227.969 7.71H222.299C222.345 8.27 222.541 8.70867 222.887 9.026C223.232 9.34333 223.657 9.502 224.161 9.502C224.889 9.502 225.407 9.18933 225.715 8.564H227.829C227.605 9.31067 227.175 9.92667 226.541 10.412C225.906 10.888 225.127 11.126 224.203 11.126C223.456 11.126 222.784 10.9627 222.187 10.636C221.599 10.3 221.137 9.82867 220.801 9.222C220.474 8.61533 220.311 7.91533 220.311 7.122C220.311 6.31933 220.474 5.61467 220.801 5.008C221.127 4.40133 221.585 3.93467 222.173 3.608C222.761 3.28133 223.437 3.118 224.203 3.118C224.94 3.118 225.598 3.27667 226.177 3.594C226.765 3.91133 227.217 4.364 227.535 4.952C227.861 5.53067 228.025 6.198 228.025 6.954ZM225.995 6.394C225.985 5.89 225.803 5.48867 225.449 5.19C225.094 4.882 224.66 4.728 224.147 4.728C223.661 4.728 223.251 4.87733 222.915 5.176C222.588 5.46533 222.387 5.87133 222.313 6.394H225.995ZM243.543 3.244L241.275 11H239.161L237.747 5.582L236.333 11H234.205L231.923 3.244H233.911L235.283 9.152L236.767 3.244H238.839L240.295 9.138L241.667 3.244H243.543ZM245.598 2.32C245.252 2.32 244.963 2.21267 244.73 1.998C244.506 1.774 244.394 1.49867 244.394 1.172C244.394 0.845333 244.506 0.574666 244.73 0.359999C244.963 0.135999 245.252 0.0239995 245.598 0.0239995C245.943 0.0239995 246.228 0.135999 246.452 0.359999C246.685 0.574666 246.802 0.845333 246.802 1.172C246.802 1.49867 246.685 1.774 246.452 1.998C246.228 2.21267 245.943 2.32 245.598 2.32ZM246.564 3.244V11H244.604V3.244H246.564ZM251.468 11.126C250.834 11.126 250.264 11.014 249.76 10.79C249.256 10.5567 248.855 10.244 248.556 9.852C248.267 9.46 248.108 9.026 248.08 8.55H250.054C250.092 8.84867 250.236 9.096 250.488 9.292C250.75 9.488 251.072 9.586 251.454 9.586C251.828 9.586 252.117 9.51133 252.322 9.362C252.537 9.21267 252.644 9.02133 252.644 8.788C252.644 8.536 252.514 8.34933 252.252 8.228C252 8.09733 251.594 7.95733 251.034 7.808C250.456 7.668 249.98 7.52333 249.606 7.374C249.242 7.22467 248.925 6.996 248.654 6.688C248.393 6.38 248.262 5.96467 248.262 5.442C248.262 5.01267 248.384 4.62067 248.626 4.266C248.878 3.91133 249.233 3.63133 249.69 3.426C250.157 3.22067 250.703 3.118 251.328 3.118C252.252 3.118 252.99 3.35133 253.54 3.818C254.091 4.27533 254.394 4.896 254.45 5.68H252.574C252.546 5.372 252.416 5.12933 252.182 4.952C251.958 4.76533 251.655 4.672 251.272 4.672C250.918 4.672 250.642 4.73733 250.446 4.868C250.26 4.99867 250.166 5.18067 250.166 5.414C250.166 5.67533 250.297 5.876 250.558 6.016C250.82 6.14667 251.226 6.282 251.776 6.422C252.336 6.562 252.798 6.70667 253.162 6.856C253.526 7.00533 253.839 7.23867 254.1 7.556C254.371 7.864 254.511 8.27467 254.52 8.788C254.52 9.236 254.394 9.63733 254.142 9.992C253.9 10.3467 253.545 10.6267 253.078 10.832C252.621 11.028 252.084 11.126 251.468 11.126ZM260.497 3.132C261.085 3.132 261.608 3.26267 262.065 3.524C262.522 3.776 262.877 4.154 263.129 4.658C263.39 5.15267 263.521 5.75 263.521 6.45V11H261.561V6.716C261.561 6.1 261.407 5.62867 261.099 5.302C260.791 4.966 260.371 4.798 259.839 4.798C259.298 4.798 258.868 4.966 258.551 5.302C258.243 5.62867 258.089 6.1 258.089 6.716V11H256.129V0.64H258.089V4.21C258.341 3.874 258.677 3.61267 259.097 3.426C259.517 3.23 259.984 3.132 260.497 3.132ZM10.3186 24.244L5.51662 35.668H3.43062L5.11062 31.804L2.00262 24.244H4.20062L6.20262 29.662L8.23262 24.244H10.3186ZM14.8192 32.126C14.0725 32.126 13.4005 31.9627 12.8032 31.636C12.2058 31.3 11.7345 30.8287 11.3892 30.222C11.0532 29.6153 10.8852 28.9153 10.8852 28.122C10.8852 27.3287 11.0578 26.6287 11.4032 26.022C11.7578 25.4153 12.2385 24.9487 12.8452 24.622C13.4518 24.286 14.1285 24.118 14.8752 24.118C15.6218 24.118 16.2985 24.286 16.9052 24.622C17.5118 24.9487 17.9878 25.4153 18.3332 26.022C18.6878 26.6287 18.8652 27.3287 18.8652 28.122C18.8652 28.9153 18.6832 29.6153 18.3192 30.222C17.9645 30.8287 17.4792 31.3 16.8632 31.636C16.2565 31.9627 15.5752 32.126 14.8192 32.126ZM14.8192 30.418C15.1738 30.418 15.5052 30.334 15.8132 30.166C16.1305 29.9887 16.3825 29.7273 16.5692 29.382C16.7558 29.0367 16.8492 28.6167 16.8492 28.122C16.8492 27.3847 16.6532 26.82 16.2612 26.428C15.8785 26.0267 15.4072 25.826 14.8472 25.826C14.2872 25.826 13.8158 26.0267 13.4332 26.428C13.0598 26.82 12.8732 27.3847 12.8732 28.122C12.8732 28.8593 13.0552 29.4287 13.4192 29.83C13.7925 30.222 14.2592 30.418 14.8192 30.418ZM27.6249 24.244V32H25.6509V31.02C25.3989 31.356 25.0676 31.622 24.6569 31.818C24.2556 32.0047 23.8169 32.098 23.3409 32.098C22.7342 32.098 22.1976 31.972 21.7309 31.72C21.2642 31.4587 20.8956 31.0807 20.6249 30.586C20.3636 30.082 20.2329 29.4847 20.2329 28.794V24.244H22.1929V28.514C22.1929 29.13 22.3469 29.606 22.6549 29.942C22.9629 30.2687 23.3829 30.432 23.9149 30.432C24.4562 30.432 24.8809 30.2687 25.1889 29.942C25.4969 29.606 25.6509 29.13 25.6509 28.514V24.244H27.6249ZM32.3907 28.094C32.3907 27.31 32.5447 26.6147 32.8527 26.008C33.17 25.4013 33.5947 24.9347 34.1267 24.608C34.668 24.2813 35.27 24.118 35.9327 24.118C36.5114 24.118 37.0154 24.2347 37.4447 24.468C37.8834 24.7013 38.2334 24.9953 38.4947 25.35V24.244H40.4687V32H38.4947V30.866C38.2427 31.23 37.8927 31.5333 37.4447 31.776C37.006 32.0093 36.4974 32.126 35.9187 32.126C35.2654 32.126 34.668 31.958 34.1267 31.622C33.5947 31.286 33.17 30.8147 32.8527 30.208C32.5447 29.592 32.3907 28.8873 32.3907 28.094ZM38.4947 28.122C38.4947 27.646 38.4014 27.24 38.2147 26.904C38.028 26.5587 37.776 26.2973 37.4587 26.12C37.1414 25.9333 36.8007 25.84 36.4367 25.84C36.0727 25.84 35.7367 25.9287 35.4287 26.106C35.1207 26.2833 34.8687 26.5447 34.6727 26.89C34.486 27.226 34.3927 27.6273 34.3927 28.094C34.3927 28.5607 34.486 28.9713 34.6727 29.326C34.8687 29.6713 35.1207 29.9373 35.4287 30.124C35.746 30.3107 36.082 30.404 36.4367 30.404C36.8007 30.404 37.1414 30.3153 37.4587 30.138C37.776 29.9513 38.028 29.69 38.2147 29.354C38.4014 29.0087 38.4947 28.598 38.4947 28.122ZM49.2749 25.854H47.9169V32H45.9289V25.854H45.0469V24.244H45.9289V23.852C45.9289 22.9 46.1996 22.2 46.7409 21.752C47.2823 21.304 48.0989 21.094 49.1909 21.122V22.774C48.7149 22.7647 48.3836 22.844 48.1969 23.012C48.0103 23.18 47.9169 23.4833 47.9169 23.922V24.244H49.2749V25.854ZM50.0411 28.094C50.0411 27.31 50.1951 26.6147 50.5031 26.008C50.8204 25.4013 51.2451 24.9347 51.7771 24.608C52.3184 24.2813 52.9204 24.118 53.5831 24.118C54.1618 24.118 54.6658 24.2347 55.0951 24.468C55.5338 24.7013 55.8838 24.9953 56.1451 25.35V24.244H58.1191V32H56.1451V30.866C55.8931 31.23 55.5431 31.5333 55.0951 31.776C54.6564 32.0093 54.1478 32.126 53.5691 32.126C52.9158 32.126 52.3184 31.958 51.7771 31.622C51.2451 31.286 50.8204 30.8147 50.5031 30.208C50.1951 29.592 50.0411 28.8873 50.0411 28.094ZM56.1451 28.122C56.1451 27.646 56.0518 27.24 55.8651 26.904C55.6784 26.5587 55.4264 26.2973 55.1091 26.12C54.7918 25.9333 54.4511 25.84 54.0871 25.84C53.7231 25.84 53.3871 25.9287 53.0791 26.106C52.7711 26.2833 52.5191 26.5447 52.3231 26.89C52.1364 27.226 52.0431 27.6273 52.0431 28.094C52.0431 28.5607 52.1364 28.9713 52.3231 29.326C52.5191 29.6713 52.7711 29.9373 53.0791 30.124C53.3964 30.3107 53.7324 30.404 54.0871 30.404C54.4511 30.404 54.7918 30.3153 55.1091 30.138C55.4264 29.9513 55.6784 29.69 55.8651 29.354C56.0518 29.0087 56.1451 28.598 56.1451 28.122ZM61.9934 25.378C62.2454 25.0047 62.5907 24.7013 63.0294 24.468C63.4774 24.2347 63.986 24.118 64.5554 24.118C65.218 24.118 65.8154 24.2813 66.3474 24.608C66.8887 24.9347 67.3134 25.4013 67.6214 26.008C67.9387 26.6053 68.0974 27.3007 68.0974 28.094C68.0974 28.8873 67.9387 29.592 67.6214 30.208C67.3134 30.8147 66.8887 31.286 66.3474 31.622C65.8154 31.958 65.218 32.126 64.5554 32.126C63.9767 32.126 63.468 32.014 63.0294 31.79C62.6 31.5567 62.2547 31.258 61.9934 30.894V32H60.0334V21.64H61.9934V25.378ZM66.0954 28.094C66.0954 27.6273 65.9974 27.226 65.8014 26.89C65.6147 26.5447 65.3627 26.2833 65.0454 26.106C64.7374 25.9287 64.4014 25.84 64.0374 25.84C63.6827 25.84 63.3467 25.9333 63.0294 26.12C62.7214 26.2973 62.4694 26.5587 62.2734 26.904C62.0867 27.2493 61.9934 27.6553 61.9934 28.122C61.9934 28.5887 62.0867 28.9947 62.2734 29.34C62.4694 29.6853 62.7214 29.9513 63.0294 30.138C63.3467 30.3153 63.6827 30.404 64.0374 30.404C64.4014 30.404 64.7374 30.3107 65.0454 30.124C65.3627 29.9373 65.6147 29.6713 65.8014 29.326C65.9974 28.9807 66.0954 28.57 66.0954 28.094ZM76.8437 24.244V32H74.8697V31.02C74.6177 31.356 74.2863 31.622 73.8757 31.818C73.4743 32.0047 73.0357 32.098 72.5597 32.098C71.953 32.098 71.4163 31.972 70.9497 31.72C70.483 31.4587 70.1143 31.0807 69.8437 30.586C69.5823 30.082 69.4517 29.4847 69.4517 28.794V24.244H71.4117V28.514C71.4117 29.13 71.5657 29.606 71.8737 29.942C72.1817 30.2687 72.6017 30.432 73.1337 30.432C73.675 30.432 74.0997 30.2687 74.4077 29.942C74.7157 29.606 74.8697 29.13 74.8697 28.514V24.244H76.8437ZM80.7375 21.64V32H78.7775V21.64H80.7375ZM86.118 32.126C85.3713 32.126 84.6993 31.9627 84.102 31.636C83.5047 31.3 83.0333 30.8287 82.688 30.222C82.352 29.6153 82.184 28.9153 82.184 28.122C82.184 27.3287 82.3567 26.6287 82.702 26.022C83.0567 25.4153 83.5373 24.9487 84.144 24.622C84.7507 24.286 85.4273 24.118 86.174 24.118C86.9207 24.118 87.5973 24.286 88.204 24.622C88.8107 24.9487 89.2867 25.4153 89.632 26.022C89.9867 26.6287 90.164 27.3287 90.164 28.122C90.164 28.9153 89.982 29.6153 89.618 30.222C89.2633 30.8287 88.778 31.3 88.162 31.636C87.5553 31.9627 86.874 32.126 86.118 32.126ZM86.118 30.418C86.4727 30.418 86.804 30.334 87.112 30.166C87.4293 29.9887 87.6813 29.7273 87.868 29.382C88.0547 29.0367 88.148 28.6167 88.148 28.122C88.148 27.3847 87.952 26.82 87.56 26.428C87.1773 26.0267 86.706 25.826 86.146 25.826C85.586 25.826 85.1147 26.0267 84.732 26.428C84.3587 26.82 84.172 27.3847 84.172 28.122C84.172 28.8593 84.354 29.4287 84.718 29.83C85.0913 30.222 85.558 30.418 86.118 30.418ZM98.9237 24.244V32H96.9497V31.02C96.6977 31.356 96.3664 31.622 95.9557 31.818C95.5544 32.0047 95.1157 32.098 94.6397 32.098C94.0331 32.098 93.4964 31.972 93.0297 31.72C92.5631 31.4587 92.1944 31.0807 91.9237 30.586C91.6624 30.082 91.5317 29.4847 91.5317 28.794V24.244H93.4917V28.514C93.4917 29.13 93.6457 29.606 93.9537 29.942C94.2617 30.2687 94.6817 30.432 95.2137 30.432C95.7551 30.432 96.1797 30.2687 96.4877 29.942C96.7957 29.606 96.9497 29.13 96.9497 28.514V24.244H98.9237ZM103.826 32.126C103.191 32.126 102.622 32.014 102.118 31.79C101.614 31.5567 101.212 31.244 100.914 30.852C100.624 30.46 100.466 30.026 100.438 29.55H102.412C102.449 29.8487 102.594 30.096 102.846 30.292C103.107 30.488 103.429 30.586 103.812 30.586C104.185 30.586 104.474 30.5113 104.68 30.362C104.894 30.2127 105.002 30.0213 105.002 29.788C105.002 29.536 104.871 29.3493 104.61 29.228C104.358 29.0973 103.952 28.9573 103.392 28.808C102.813 28.668 102.337 28.5233 101.964 28.374C101.6 28.2247 101.282 27.996 101.012 27.688C100.75 27.38 100.62 26.9647 100.62 26.442C100.62 26.0127 100.741 25.6207 100.984 25.266C101.236 24.9113 101.59 24.6313 102.048 24.426C102.514 24.2207 103.06 24.118 103.686 24.118C104.61 24.118 105.347 24.3513 105.898 24.818C106.448 25.2753 106.752 25.896 106.808 26.68H104.932C104.904 26.372 104.773 26.1293 104.54 25.952C104.316 25.7653 104.012 25.672 103.63 25.672C103.275 25.672 103 25.7373 102.804 25.868C102.617 25.9987 102.524 26.1807 102.524 26.414C102.524 26.6753 102.654 26.876 102.916 27.016C103.177 27.1467 103.583 27.282 104.134 27.422C104.694 27.562 105.156 27.7067 105.52 27.856C105.884 28.0053 106.196 28.2387 106.458 28.556C106.728 28.864 106.868 29.2747 106.878 29.788C106.878 30.236 106.752 30.6373 106.5 30.992C106.257 31.3467 105.902 31.6267 105.436 31.832C104.978 32.028 104.442 32.126 103.826 32.126ZM113.782 25.378C114.034 25.0047 114.38 24.7013 114.818 24.468C115.266 24.2347 115.775 24.118 116.344 24.118C117.007 24.118 117.604 24.2813 118.136 24.608C118.678 24.9347 119.102 25.4013 119.41 26.008C119.728 26.6053 119.886 27.3007 119.886 28.094C119.886 28.8873 119.728 29.592 119.41 30.208C119.102 30.8147 118.678 31.286 118.136 31.622C117.604 31.958 117.007 32.126 116.344 32.126C115.766 32.126 115.257 32.014 114.818 31.79C114.389 31.5567 114.044 31.258 113.782 30.894V32H111.822V21.64H113.782V25.378ZM117.884 28.094C117.884 27.6273 117.786 27.226 117.59 26.89C117.404 26.5447 117.152 26.2833 116.834 26.106C116.526 25.9287 116.19 25.84 115.826 25.84C115.472 25.84 115.136 25.9333 114.818 26.12C114.51 26.2973 114.258 26.5587 114.062 26.904C113.876 27.2493 113.782 27.6553 113.782 28.122C113.782 28.5887 113.876 28.9947 114.062 29.34C114.258 29.6853 114.51 29.9513 114.818 30.138C115.136 30.3153 115.472 30.404 115.826 30.404C116.19 30.404 116.526 30.3107 116.834 30.124C117.152 29.9373 117.404 29.6713 117.59 29.326C117.786 28.9807 117.884 28.57 117.884 28.094ZM122.305 23.32C121.959 23.32 121.67 23.2127 121.437 22.998C121.213 22.774 121.101 22.4987 121.101 22.172C121.101 21.8453 121.213 21.5747 121.437 21.36C121.67 21.136 121.959 21.024 122.305 21.024C122.65 21.024 122.935 21.136 123.159 21.36C123.392 21.5747 123.509 21.8453 123.509 22.172C123.509 22.4987 123.392 22.774 123.159 22.998C122.935 23.2127 122.65 23.32 122.305 23.32ZM123.271 24.244V32H121.311V24.244H123.271ZM127.167 25.448C127.419 25.0373 127.746 24.7153 128.147 24.482C128.558 24.2487 129.025 24.132 129.547 24.132V26.19H129.029C128.413 26.19 127.947 26.3347 127.629 26.624C127.321 26.9133 127.167 27.4173 127.167 28.136V32H125.207V24.244H127.167V25.448ZM133.149 25.854V29.606C133.149 29.8673 133.21 30.0587 133.331 30.18C133.462 30.292 133.677 30.348 133.975 30.348H134.885V32H133.653C132.001 32 131.175 31.1973 131.175 29.592V25.854H130.251V24.244H131.175V22.326H133.149V24.244H134.885V25.854H133.149ZM140.663 24.132C141.251 24.132 141.774 24.2627 142.231 24.524C142.688 24.776 143.043 25.154 143.295 25.658C143.556 26.1527 143.687 26.75 143.687 27.45V32H141.727V27.716C141.727 27.1 141.573 26.6287 141.265 26.302C140.957 25.966 140.537 25.798 140.005 25.798C139.464 25.798 139.034 25.966 138.717 26.302C138.409 26.6287 138.255 27.1 138.255 27.716V32H136.295V21.64H138.255V25.21C138.507 24.874 138.843 24.6127 139.263 24.426C139.683 24.23 140.15 24.132 140.663 24.132ZM145.047 28.094C145.047 27.31 145.201 26.6147 145.509 26.008C145.826 25.4013 146.256 24.9347 146.797 24.608C147.338 24.2813 147.94 24.118 148.603 24.118C149.107 24.118 149.588 24.23 150.045 24.454C150.502 24.6687 150.866 24.958 151.137 25.322V21.64H153.125V32H151.137V30.852C150.894 31.2347 150.554 31.5427 150.115 31.776C149.676 32.0093 149.168 32.126 148.589 32.126C147.936 32.126 147.338 31.958 146.797 31.622C146.256 31.286 145.826 30.8147 145.509 30.208C145.201 29.592 145.047 28.8873 145.047 28.094ZM151.151 28.122C151.151 27.646 151.058 27.24 150.871 26.904C150.684 26.5587 150.432 26.2973 150.115 26.12C149.798 25.9333 149.457 25.84 149.093 25.84C148.729 25.84 148.393 25.9287 148.085 26.106C147.777 26.2833 147.525 26.5447 147.329 26.89C147.142 27.226 147.049 27.6273 147.049 28.094C147.049 28.5607 147.142 28.9713 147.329 29.326C147.525 29.6713 147.777 29.9373 148.085 30.124C148.402 30.3107 148.738 30.404 149.093 30.404C149.457 30.404 149.798 30.3153 150.115 30.138C150.432 29.9513 150.684 29.69 150.871 29.354C151.058 29.0087 151.151 28.598 151.151 28.122ZM154.535 28.094C154.535 27.31 154.689 26.6147 154.997 26.008C155.315 25.4013 155.739 24.9347 156.271 24.608C156.813 24.2813 157.415 24.118 158.077 24.118C158.656 24.118 159.16 24.2347 159.589 24.468C160.028 24.7013 160.378 24.9953 160.639 25.35V24.244H162.613V32H160.639V30.866C160.387 31.23 160.037 31.5333 159.589 31.776C159.151 32.0093 158.642 32.126 158.063 32.126C157.41 32.126 156.813 31.958 156.271 31.622C155.739 31.286 155.315 30.8147 154.997 30.208C154.689 29.592 154.535 28.8873 154.535 28.094ZM160.639 28.122C160.639 27.646 160.546 27.24 160.359 26.904C160.173 26.5587 159.921 26.2973 159.603 26.12C159.286 25.9333 158.945 25.84 158.581 25.84C158.217 25.84 157.881 25.9287 157.573 26.106C157.265 26.2833 157.013 26.5447 156.817 26.89C156.631 27.226 156.537 27.6273 156.537 28.094C156.537 28.5607 156.631 28.9713 156.817 29.326C157.013 29.6713 157.265 29.9373 157.573 30.124C157.891 30.3107 158.227 30.404 158.581 30.404C158.945 30.404 159.286 30.3153 159.603 30.138C159.921 29.9513 160.173 29.69 160.359 29.354C160.546 29.0087 160.639 28.598 160.639 28.122ZM171.948 24.244L167.146 35.668H165.06L166.74 31.804L163.632 24.244H165.83L167.832 29.662L169.862 24.244H171.948ZM175.836 28.122C175.836 27.3193 175.999 26.6193 176.326 26.022C176.653 25.4153 177.105 24.9487 177.684 24.622C178.263 24.286 178.925 24.118 179.672 24.118C180.633 24.118 181.427 24.3607 182.052 24.846C182.687 25.322 183.111 25.994 183.326 26.862H181.212C181.1 26.526 180.909 26.2647 180.638 26.078C180.377 25.882 180.05 25.784 179.658 25.784C179.098 25.784 178.655 25.9893 178.328 26.4C178.001 26.8013 177.838 27.3753 177.838 28.122C177.838 28.8593 178.001 29.4333 178.328 29.844C178.655 30.2453 179.098 30.446 179.658 30.446C180.451 30.446 180.969 30.0913 181.212 29.382H183.326C183.111 30.222 182.687 30.8893 182.052 31.384C181.417 31.8787 180.624 32.126 179.672 32.126C178.925 32.126 178.263 31.9627 177.684 31.636C177.105 31.3 176.653 30.8333 176.326 30.236C175.999 29.6293 175.836 28.9247 175.836 28.122ZM191.972 27.954C191.972 28.234 191.953 28.486 191.916 28.71H186.246C186.293 29.27 186.489 29.7087 186.834 30.026C187.179 30.3433 187.604 30.502 188.108 30.502C188.836 30.502 189.354 30.1893 189.662 29.564H191.776C191.552 30.3107 191.123 30.9267 190.488 31.412C189.853 31.888 189.074 32.126 188.15 32.126C187.403 32.126 186.731 31.9627 186.134 31.636C185.546 31.3 185.084 30.8287 184.748 30.222C184.421 29.6153 184.258 28.9153 184.258 28.122C184.258 27.3193 184.421 26.6147 184.748 26.008C185.075 25.4013 185.532 24.9347 186.12 24.608C186.708 24.2813 187.385 24.118 188.15 24.118C188.887 24.118 189.545 24.2767 190.124 24.594C190.712 24.9113 191.165 25.364 191.482 25.952C191.809 26.5307 191.972 27.198 191.972 27.954ZM189.942 27.394C189.933 26.89 189.751 26.4887 189.396 26.19C189.041 25.882 188.607 25.728 188.094 25.728C187.609 25.728 187.198 25.8773 186.862 26.176C186.535 26.4653 186.335 26.8713 186.26 27.394H189.942ZM195.363 21.64V32H193.403V21.64H195.363ZM204.509 27.954C204.509 28.234 204.49 28.486 204.453 28.71H198.783C198.83 29.27 199.026 29.7087 199.371 30.026C199.716 30.3433 200.141 30.502 200.645 30.502C201.373 30.502 201.891 30.1893 202.199 29.564H204.313C204.089 30.3107 203.66 30.9267 203.025 31.412C202.39 31.888 201.611 32.126 200.687 32.126C199.94 32.126 199.268 31.9627 198.671 31.636C198.083 31.3 197.621 30.8287 197.285 30.222C196.958 29.6153 196.795 28.9153 196.795 28.122C196.795 27.3193 196.958 26.6147 197.285 26.008C197.612 25.4013 198.069 24.9347 198.657 24.608C199.245 24.2813 199.922 24.118 200.687 24.118C201.424 24.118 202.082 24.2767 202.661 24.594C203.249 24.9113 203.702 25.364 204.019 25.952C204.346 26.5307 204.509 27.198 204.509 27.954ZM202.479 27.394C202.47 26.89 202.288 26.4887 201.933 26.19C201.578 25.882 201.144 25.728 200.631 25.728C200.146 25.728 199.735 25.8773 199.399 26.176C199.072 26.4653 198.872 26.8713 198.797 27.394H202.479ZM207.9 25.378C208.152 25.0047 208.497 24.7013 208.936 24.468C209.384 24.2347 209.892 24.118 210.462 24.118C211.124 24.118 211.722 24.2813 212.254 24.608C212.795 24.9347 213.22 25.4013 213.528 26.008C213.845 26.6053 214.004 27.3007 214.004 28.094C214.004 28.8873 213.845 29.592 213.528 30.208C213.22 30.8147 212.795 31.286 212.254 31.622C211.722 31.958 211.124 32.126 210.462 32.126C209.883 32.126 209.374 32.014 208.936 31.79C208.506 31.5567 208.161 31.258 207.9 30.894V32H205.94V21.64H207.9V25.378ZM212.002 28.094C212.002 27.6273 211.904 27.226 211.708 26.89C211.521 26.5447 211.269 26.2833 210.952 26.106C210.644 25.9287 210.308 25.84 209.944 25.84C209.589 25.84 209.253 25.9333 208.936 26.12C208.628 26.2973 208.376 26.5587 208.18 26.904C207.993 27.2493 207.9 27.6553 207.9 28.122C207.9 28.5887 207.993 28.9947 208.18 29.34C208.376 29.6853 208.628 29.9513 208.936 30.138C209.253 30.3153 209.589 30.404 209.944 30.404C210.308 30.404 210.644 30.3107 210.952 30.124C211.269 29.9373 211.521 29.6713 211.708 29.326C211.904 28.9807 212.002 28.57 212.002 28.094ZM217.388 25.448C217.64 25.0373 217.967 24.7153 218.368 24.482C218.779 24.2487 219.245 24.132 219.768 24.132V26.19H219.25C218.634 26.19 218.167 26.3347 217.85 26.624C217.542 26.9133 217.388 27.4173 217.388 28.136V32H215.428V24.244H217.388V25.448ZM220.584 28.094C220.584 27.31 220.738 26.6147 221.046 26.008C221.363 25.4013 221.788 24.9347 222.32 24.608C222.861 24.2813 223.463 24.118 224.126 24.118C224.705 24.118 225.209 24.2347 225.638 24.468C226.077 24.7013 226.427 24.9953 226.688 25.35V24.244H228.662V32H226.688V30.866C226.436 31.23 226.086 31.5333 225.638 31.776C225.199 32.0093 224.691 32.126 224.112 32.126C223.459 32.126 222.861 31.958 222.32 31.622C221.788 31.286 221.363 30.8147 221.046 30.208C220.738 29.592 220.584 28.8873 220.584 28.094ZM226.688 28.122C226.688 27.646 226.595 27.24 226.408 26.904C226.221 26.5587 225.969 26.2973 225.652 26.12C225.335 25.9333 224.994 25.84 224.63 25.84C224.266 25.84 223.93 25.9287 223.622 26.106C223.314 26.2833 223.062 26.5447 222.866 26.89C222.679 27.226 222.586 27.6273 222.586 28.094C222.586 28.5607 222.679 28.9713 222.866 29.326C223.062 29.6713 223.314 29.9373 223.622 30.124C223.939 30.3107 224.275 30.404 224.63 30.404C224.994 30.404 225.335 30.3153 225.652 30.138C225.969 29.9513 226.221 29.69 226.408 29.354C226.595 29.0087 226.688 28.598 226.688 28.122ZM232.858 25.854V29.606C232.858 29.8673 232.919 30.0587 233.04 30.18C233.171 30.292 233.386 30.348 233.684 30.348H234.594V32H233.362C231.71 32 230.884 31.1973 230.884 29.592V25.854H229.96V24.244H230.884V22.326H232.858V24.244H234.594V25.854H232.858ZM236.998 23.32C236.653 23.32 236.363 23.2127 236.13 22.998C235.906 22.774 235.794 22.4987 235.794 22.172C235.794 21.8453 235.906 21.5747 236.13 21.36C236.363 21.136 236.653 21.024 236.998 21.024C237.343 21.024 237.628 21.136 237.852 21.36C238.085 21.5747 238.202 21.8453 238.202 22.172C238.202 22.4987 238.085 22.774 237.852 22.998C237.628 23.2127 237.343 23.32 236.998 23.32ZM237.964 24.244V32H236.004V24.244H237.964ZM243.345 32.126C242.598 32.126 241.926 31.9627 241.329 31.636C240.731 31.3 240.26 30.8287 239.915 30.222C239.579 29.6153 239.411 28.9153 239.411 28.122C239.411 27.3287 239.583 26.6287 239.929 26.022C240.283 25.4153 240.764 24.9487 241.371 24.622C241.977 24.286 242.654 24.118 243.401 24.118C244.147 24.118 244.824 24.286 245.431 24.622C246.037 24.9487 246.513 25.4153 246.859 26.022C247.213 26.6287 247.391 27.3287 247.391 28.122C247.391 28.9153 247.209 29.6153 246.845 30.222C246.49 30.8287 246.005 31.3 245.389 31.636C244.782 31.9627 244.101 32.126 243.345 32.126ZM243.345 30.418C243.699 30.418 244.031 30.334 244.339 30.166C244.656 29.9887 244.908 29.7273 245.095 29.382C245.281 29.0367 245.375 28.6167 245.375 28.122C245.375 27.3847 245.179 26.82 244.787 26.428C244.404 26.0267 243.933 25.826 243.373 25.826C242.813 25.826 242.341 26.0267 241.959 26.428C241.585 26.82 241.399 27.3847 241.399 28.122C241.399 28.8593 241.581 29.4287 241.945 29.83C242.318 30.222 242.785 30.418 243.345 30.418ZM253.126 24.132C254.05 24.132 254.797 24.426 255.366 25.014C255.936 25.5927 256.22 26.4047 256.22 27.45V32H254.26V27.716C254.26 27.1 254.106 26.6287 253.798 26.302C253.49 25.966 253.07 25.798 252.538 25.798C251.997 25.798 251.568 25.966 251.25 26.302C250.942 26.6287 250.788 27.1 250.788 27.716V32H248.828V24.244H250.788V25.21C251.05 24.874 251.381 24.6127 251.782 24.426C252.193 24.23 252.641 24.132 253.126 24.132ZM260.618 22.06L260.394 28.822H258.742L258.504 22.06H260.618ZM259.61 32.098C259.255 32.098 258.961 31.9907 258.728 31.776C258.504 31.552 258.392 31.2767 258.392 30.95C258.392 30.6233 258.504 30.3527 258.728 30.138C258.961 29.914 259.255 29.802 259.61 29.802C259.955 29.802 260.24 29.914 260.464 30.138C260.688 30.3527 260.8 30.6233 260.8 30.95C260.8 31.2767 260.688 31.552 260.464 31.776C260.24 31.9907 259.955 32.098 259.61 32.098Z"
          fill="#434343"/>
</svg>
