<svg width="264" height="77" viewBox="0 0 264 77" fill="none" xmlns="http://www.w3.org/2000/svg">
    <path d="M99.672 0.228H96.256V10H99.672C102.794 10 104.824 8.082 104.824 5.128C104.824 2.16 102.794 0.228 99.672 0.228ZM98.216 8.334V1.88H99.602C101.66 1.88 102.822 3.098 102.822 5.128C102.822 7.158 101.66 8.334 99.602 8.334H98.216ZM109.623 3.728C110.631 3.728 111.443 4.372 111.471 5.394H107.789C107.943 4.33 108.685 3.728 109.623 3.728ZM113.305 7.564H111.191C110.939 8.082 110.477 8.502 109.637 8.502C108.657 8.502 107.873 7.858 107.775 6.71H113.445C113.487 6.458 113.501 6.206 113.501 5.954C113.501 3.644 111.919 2.118 109.679 2.118C107.383 2.118 105.787 3.672 105.787 6.122C105.787 8.558 107.425 10.126 109.679 10.126C111.597 10.126 112.885 8.992 113.305 7.564ZM114.428 6.094C114.428 8.516 115.996 10.126 117.956 10.126C119.188 10.126 120.07 9.538 120.532 8.866V10H122.506V2.244H120.532V3.35C120.07 2.706 119.216 2.118 117.97 2.118C115.996 2.118 114.428 3.672 114.428 6.094ZM120.532 6.122C120.532 7.592 119.552 8.404 118.474 8.404C117.424 8.404 116.43 7.564 116.43 6.094C116.43 4.624 117.424 3.84 118.474 3.84C119.552 3.84 120.532 4.652 120.532 6.122ZM126.38 6.136C126.38 4.638 127.08 4.19 128.242 4.19H128.76V2.132C127.682 2.132 126.87 2.65 126.38 3.448V2.244H124.42V10H126.38V6.136ZM133.388 6.262C133.388 8.838 135.152 10.098 137.294 10.098C139.436 10.098 141.284 8.838 141.284 6.262V0.228H139.31V6.276C139.31 7.62 138.582 8.32 137.322 8.32C136.076 8.32 135.348 7.62 135.348 6.276V0.228H133.388V6.262ZM149.198 7.788C149.142 4.946 144.844 5.828 144.844 4.414C144.844 3.966 145.222 3.672 145.95 3.672C146.72 3.672 147.196 4.078 147.252 4.68H149.128C149.016 3.14 147.882 2.118 146.006 2.118C144.088 2.118 142.94 3.154 142.94 4.442C142.94 7.284 147.322 6.402 147.322 7.788C147.322 8.236 146.902 8.586 146.132 8.586C145.348 8.586 144.802 8.138 144.732 7.55H142.758C142.842 8.992 144.2 10.126 146.146 10.126C148.036 10.126 149.198 9.118 149.198 7.788ZM154.139 3.728C155.147 3.728 155.959 4.372 155.987 5.394H152.305C152.459 4.33 153.201 3.728 154.139 3.728ZM157.821 7.564H155.707C155.455 8.082 154.993 8.502 154.153 8.502C153.173 8.502 152.389 7.858 152.291 6.71H157.961C158.003 6.458 158.017 6.206 158.017 5.954C158.017 3.644 156.435 2.118 154.195 2.118C151.899 2.118 150.303 3.672 150.303 6.122C150.303 8.558 151.941 10.126 154.195 10.126C156.113 10.126 157.401 8.992 157.821 7.564ZM161.407 6.136C161.407 4.638 162.107 4.19 163.269 4.19H163.787V2.132C162.709 2.132 161.897 2.65 161.407 3.448V2.244H159.447V10H161.407V6.136ZM164.31 12.016H165.584L167.32 7.844H165.248L164.31 12.016ZM0.0402188 52H2.00022V47.87H5.12222V46.316H2.00022V43.81H6.07422V42.228H0.0402188V52ZM9.42405 48.136C9.42405 46.638 10.124 46.19 11.286 46.19H11.804V44.132C10.726 44.132 9.91405 44.65 9.42405 45.448V44.244H7.46405V52H9.42405V48.136ZM20.6142 48.122C20.6142 45.672 18.8642 44.118 16.6242 44.118C14.3842 44.118 12.6342 45.672 12.6342 48.122C12.6342 50.558 14.3282 52.126 16.5682 52.126C18.8222 52.126 20.6142 50.558 20.6142 48.122ZM14.6222 48.122C14.6222 46.568 15.5602 45.826 16.5962 45.826C17.6322 45.826 18.5982 46.568 18.5982 48.122C18.5982 49.662 17.6042 50.418 16.5682 50.418C15.5182 50.418 14.6222 49.662 14.6222 48.122ZM32.9019 52H34.8619V47.45C34.8619 45.308 33.5459 44.132 31.6839 44.132C30.5499 44.132 29.5279 44.734 29.0239 45.616C28.4919 44.65 27.4979 44.132 26.2939 44.132C25.3279 44.132 24.5019 44.538 24.0119 45.182V44.244H22.0519V52H24.0119V47.716C24.0119 46.484 24.6979 45.84 25.7619 45.84C26.7979 45.84 27.4839 46.484 27.4839 47.716V52H29.4439V47.716C29.4439 46.484 30.1299 45.84 31.1799 45.84C32.2159 45.84 32.9019 46.484 32.9019 47.716V52ZM43.3618 49.662L41.3598 44.244H39.1618L42.2698 51.804L40.5898 55.668H42.6758L47.4778 44.244H45.3918L43.3618 49.662ZM56.0244 48.122C56.0244 45.672 54.2744 44.118 52.0344 44.118C49.7944 44.118 48.0444 45.672 48.0444 48.122C48.0444 50.558 49.7384 52.126 51.9784 52.126C54.2324 52.126 56.0244 50.558 56.0244 48.122ZM50.0324 48.122C50.0324 46.568 50.9704 45.826 52.0064 45.826C53.0424 45.826 54.0084 46.568 54.0084 48.122C54.0084 49.662 53.0144 50.418 51.9784 50.418C50.9284 50.418 50.0324 49.662 50.0324 48.122ZM64.7841 44.244H62.8101V48.514C62.8101 49.76 62.1381 50.432 61.0741 50.432C60.0381 50.432 59.3521 49.76 59.3521 48.514V44.244H57.3921V48.794C57.3921 50.922 58.6941 52.098 60.5001 52.098C61.4661 52.098 62.3201 51.678 62.8101 51.02V52H64.7841V44.244ZM68.678 48.136C68.678 46.638 69.378 46.19 70.54 46.19H71.058V44.132C69.98 44.132 69.168 44.65 68.678 45.448V44.244H66.718V52H68.678V48.136ZM75.924 52H77.912V45.854H79.27V44.244H77.912V43.922C77.912 43.054 78.234 42.746 79.186 42.774V41.122C77.002 41.066 75.924 41.948 75.924 43.852V44.244H75.042V45.854H75.924V52ZM82.5002 48.136C82.5002 46.638 83.2002 46.19 84.3622 46.19H84.8802V44.132C83.8022 44.132 82.9902 44.65 82.5002 45.448V44.244H80.5402V52H82.5002V48.136ZM86.2004 52H88.1604V44.244H86.2004V52ZM87.1944 43.32C87.8804 43.32 88.3984 42.816 88.3984 42.172C88.3984 41.528 87.8804 41.024 87.1944 41.024C86.4944 41.024 85.9904 41.528 85.9904 42.172C85.9904 42.816 86.4944 43.32 87.1944 43.32ZM93.4289 45.728C94.4369 45.728 95.2489 46.372 95.2769 47.394H91.5949C91.7489 46.33 92.4909 45.728 93.4289 45.728ZM97.1109 49.564H94.9969C94.7449 50.082 94.2829 50.502 93.4429 50.502C92.4629 50.502 91.6789 49.858 91.5809 48.71H97.2509C97.2929 48.458 97.3069 48.206 97.3069 47.954C97.3069 45.644 95.7249 44.118 93.4849 44.118C91.1889 44.118 89.5929 45.672 89.5929 48.122C89.5929 50.558 91.2309 52.126 93.4849 52.126C95.4029 52.126 96.6909 50.992 97.1109 49.564ZM104.169 52H106.129V47.45C106.129 45.308 104.841 44.132 103.035 44.132C102.041 44.132 101.201 44.552 100.697 45.21V44.244H98.7375V52H100.697V47.716C100.697 46.47 101.383 45.798 102.447 45.798C103.483 45.798 104.169 46.47 104.169 47.716V52ZM107.489 48.094C107.489 50.516 109.057 52.126 111.031 52.126C112.249 52.126 113.117 51.566 113.579 50.852V52H115.567V41.64H113.579V45.322C113.047 44.594 112.067 44.118 111.045 44.118C109.057 44.118 107.489 45.672 107.489 48.094ZM113.593 48.122C113.593 49.592 112.613 50.404 111.535 50.404C110.485 50.404 109.491 49.564 109.491 48.094C109.491 46.624 110.485 45.84 111.535 45.84C112.613 45.84 113.593 46.652 113.593 48.122ZM123.502 49.788C123.446 46.946 119.148 47.828 119.148 46.414C119.148 45.966 119.526 45.672 120.254 45.672C121.024 45.672 121.5 46.078 121.556 46.68H123.432C123.32 45.14 122.186 44.118 120.31 44.118C118.392 44.118 117.244 45.154 117.244 46.442C117.244 49.284 121.626 48.402 121.626 49.788C121.626 50.236 121.206 50.586 120.436 50.586C119.652 50.586 119.106 50.138 119.036 49.55H117.062C117.146 50.992 118.504 52.126 120.45 52.126C122.34 52.126 123.502 51.118 123.502 49.788ZM127.942 48.094C127.942 50.516 129.51 52.126 131.47 52.126C132.702 52.126 133.584 51.538 134.046 50.866V52H136.02V44.244H134.046V45.35C133.584 44.706 132.73 44.118 131.484 44.118C129.51 44.118 127.942 45.672 127.942 48.094ZM134.046 48.122C134.046 49.592 133.066 50.404 131.988 50.404C130.938 50.404 129.944 49.564 129.944 48.094C129.944 46.624 130.938 45.84 131.988 45.84C133.066 45.84 134.046 46.652 134.046 48.122ZM138.243 49.592C138.243 51.37 139.237 52 140.721 52H141.953V50.348H141.043C140.427 50.348 140.217 50.124 140.217 49.606V45.854H141.953V44.244H140.217V42.326H138.243V44.244H137.319V45.854H138.243V49.592ZM156.232 47.086C156.232 44.16 154.02 42.088 151.234 42.088C148.476 42.088 146.222 44.16 146.222 47.086C146.222 50.026 148.476 52.098 151.234 52.098C154.006 52.098 156.232 50.026 156.232 47.086ZM148.238 47.086C148.238 45.098 149.456 43.852 151.234 43.852C152.998 43.852 154.216 45.098 154.216 47.086C154.216 49.074 152.998 50.348 151.234 50.348C149.456 50.348 148.238 49.074 148.238 47.086ZM159.651 48.136C159.651 46.638 160.351 46.19 161.513 46.19H162.031V44.132C160.953 44.132 160.141 44.65 159.651 45.448V44.244H157.691V52H159.651V48.136ZM165.311 45.378V41.64H163.351V52H165.311V50.894C165.787 51.566 166.655 52.126 167.873 52.126C169.861 52.126 171.415 50.516 171.415 48.094C171.415 45.672 169.861 44.118 167.873 44.118C166.697 44.118 165.787 44.664 165.311 45.378ZM169.413 48.094C169.413 49.564 168.419 50.404 167.355 50.404C166.305 50.404 165.311 49.592 165.311 48.122C165.311 46.652 166.305 45.84 167.355 45.84C168.419 45.84 169.413 46.624 169.413 48.094ZM176.857 49.998L174.169 42.228H172.069L175.653 52H178.033L181.617 42.228H179.531L176.857 49.998ZM184.752 46.666V43.824H186.306C187.412 43.824 187.902 44.356 187.902 45.252C187.902 46.12 187.412 46.666 186.306 46.666H184.752ZM189.918 45.252C189.918 43.558 188.742 42.228 186.39 42.228H182.792V52H184.752V48.248H186.39C188.91 48.248 189.918 46.736 189.918 45.252ZM197.708 42.214V48.934L193.27 42.214H191.31V52H193.27V45.294L197.708 52H199.668V42.214H197.708ZM200.807 54.016H202.081L203.817 49.844H201.745L200.807 54.016ZM209.923 52H212.051L213.465 46.582L214.879 52H216.993L219.261 44.244H217.385L216.013 50.138L214.557 44.244H212.485L211.001 50.152L209.629 44.244H207.641L209.923 52ZM223.653 45.728C224.661 45.728 225.473 46.372 225.501 47.394H221.819C221.973 46.33 222.715 45.728 223.653 45.728ZM227.335 49.564H225.221C224.969 50.082 224.507 50.502 223.667 50.502C222.687 50.502 221.903 49.858 221.805 48.71H227.475C227.517 48.458 227.531 48.206 227.531 47.954C227.531 45.644 225.949 44.118 223.709 44.118C221.413 44.118 219.817 45.672 219.817 48.122C219.817 50.558 221.455 52.126 223.709 52.126C225.627 52.126 226.915 50.992 227.335 49.564ZM233.712 52H235.84L237.254 46.582L238.668 52H240.782L243.05 44.244H241.174L239.802 50.138L238.346 44.244H236.274L234.79 50.152L233.418 44.244H231.43L233.712 52ZM244.111 52H246.071V44.244H244.111V52ZM245.105 43.32C245.791 43.32 246.309 42.816 246.309 42.172C246.309 41.528 245.791 41.024 245.105 41.024C244.405 41.024 243.901 41.528 243.901 42.172C243.901 42.816 244.405 43.32 245.105 43.32ZM254.027 49.788C253.971 46.946 249.673 47.828 249.673 46.414C249.673 45.966 250.051 45.672 250.779 45.672C251.549 45.672 252.025 46.078 252.081 46.68H253.957C253.845 45.14 252.711 44.118 250.835 44.118C248.917 44.118 247.769 45.154 247.769 46.442C247.769 49.284 252.151 48.402 252.151 49.788C252.151 50.236 251.731 50.586 250.961 50.586C250.177 50.586 249.631 50.138 249.561 49.55H247.587C247.671 50.992 249.029 52.126 250.975 52.126C252.865 52.126 254.027 51.118 254.027 49.788ZM255.636 52H257.596V47.716C257.596 46.47 258.282 45.798 259.346 45.798C260.382 45.798 261.068 46.47 261.068 47.716V52H263.028V47.45C263.028 45.308 261.754 44.132 260.004 44.132C258.968 44.132 258.1 44.552 257.596 45.21V41.64H255.636V52ZM5.70262 70.662L3.70062 65.244H1.50262L4.61062 72.804L2.93062 76.668H5.01662L9.81862 65.244H7.73262L5.70262 70.662ZM18.3652 69.122C18.3652 66.672 16.6152 65.118 14.3752 65.118C12.1352 65.118 10.3852 66.672 10.3852 69.122C10.3852 71.558 12.0792 73.126 14.3192 73.126C16.5732 73.126 18.3652 71.558 18.3652 69.122ZM12.3732 69.122C12.3732 67.568 13.3112 66.826 14.3472 66.826C15.3832 66.826 16.3492 67.568 16.3492 69.122C16.3492 70.662 15.3552 71.418 14.3192 71.418C13.2692 71.418 12.3732 70.662 12.3732 69.122ZM27.1249 65.244H25.1509V69.514C25.1509 70.76 24.4789 71.432 23.4149 71.432C22.3789 71.432 21.6929 70.76 21.6929 69.514V65.244H19.7329V69.794C19.7329 71.922 21.0349 73.098 22.8409 73.098C23.8069 73.098 24.6609 72.678 25.1509 72.02V73H27.1249V65.244ZM31.8907 69.094C31.8907 71.516 33.4587 73.126 35.4187 73.126C36.6507 73.126 37.5327 72.538 37.9947 71.866V73H39.9687V65.244H37.9947V66.35C37.5327 65.706 36.6787 65.118 35.4327 65.118C33.4587 65.118 31.8907 66.672 31.8907 69.094ZM37.9947 69.122C37.9947 70.592 37.0147 71.404 35.9367 71.404C34.8867 71.404 33.8927 70.564 33.8927 69.094C33.8927 67.624 34.8867 66.84 35.9367 66.84C37.0147 66.84 37.9947 67.652 37.9947 69.122ZM45.4289 73H47.4169V66.854H48.7749V65.244H47.4169V64.922C47.4169 64.054 47.7389 63.746 48.6909 63.774V62.122C46.5069 62.066 45.4289 62.948 45.4289 64.852V65.244H44.5469V66.854H45.4289V73ZM49.5411 69.094C49.5411 71.516 51.1091 73.126 53.0691 73.126C54.3011 73.126 55.1831 72.538 55.6451 71.866V73H57.6191V65.244H55.6451V66.35C55.1831 65.706 54.3291 65.118 53.0831 65.118C51.1091 65.118 49.5411 66.672 49.5411 69.094ZM55.6451 69.122C55.6451 70.592 54.6651 71.404 53.5871 71.404C52.5371 71.404 51.5431 70.564 51.5431 69.094C51.5431 67.624 52.5371 66.84 53.5871 66.84C54.6651 66.84 55.6451 67.652 55.6451 69.122ZM61.4934 66.378V62.64H59.5334V73H61.4934V71.894C61.9694 72.566 62.8374 73.126 64.0554 73.126C66.0434 73.126 67.5974 71.516 67.5974 69.094C67.5974 66.672 66.0434 65.118 64.0554 65.118C62.8794 65.118 61.9694 65.664 61.4934 66.378ZM65.5954 69.094C65.5954 70.564 64.6014 71.404 63.5374 71.404C62.4874 71.404 61.4934 70.592 61.4934 69.122C61.4934 67.652 62.4874 66.84 63.5374 66.84C64.6014 66.84 65.5954 67.624 65.5954 69.094ZM76.3437 65.244H74.3697V69.514C74.3697 70.76 73.6977 71.432 72.6337 71.432C71.5977 71.432 70.9117 70.76 70.9117 69.514V65.244H68.9517V69.794C68.9517 71.922 70.2537 73.098 72.0597 73.098C73.0257 73.098 73.8797 72.678 74.3697 72.02V73H76.3437V65.244ZM78.2775 73H80.2375V62.64H78.2775V73ZM89.664 69.122C89.664 66.672 87.914 65.118 85.674 65.118C83.434 65.118 81.684 66.672 81.684 69.122C81.684 71.558 83.378 73.126 85.618 73.126C87.872 73.126 89.664 71.558 89.664 69.122ZM83.672 69.122C83.672 67.568 84.61 66.826 85.646 66.826C86.682 66.826 87.648 67.568 87.648 69.122C87.648 70.662 86.654 71.418 85.618 71.418C84.568 71.418 83.672 70.662 83.672 69.122ZM98.4237 65.244H96.4497V69.514C96.4497 70.76 95.7777 71.432 94.7137 71.432C93.6777 71.432 92.9917 70.76 92.9917 69.514V65.244H91.0317V69.794C91.0317 71.922 92.3337 73.098 94.1397 73.098C95.1057 73.098 95.9597 72.678 96.4497 72.02V73H98.4237V65.244ZM106.378 70.788C106.322 67.946 102.024 68.828 102.024 67.414C102.024 66.966 102.402 66.672 103.13 66.672C103.9 66.672 104.376 67.078 104.432 67.68H106.308C106.196 66.14 105.062 65.118 103.186 65.118C101.268 65.118 100.12 66.154 100.12 67.442C100.12 70.284 104.502 69.402 104.502 70.788C104.502 71.236 104.082 71.586 103.312 71.586C102.528 71.586 101.982 71.138 101.912 70.55H99.9376C100.022 71.992 101.38 73.126 103.326 73.126C105.216 73.126 106.378 72.118 106.378 70.788ZM113.282 66.378V62.64H111.322V73H113.282V71.894C113.758 72.566 114.626 73.126 115.844 73.126C117.832 73.126 119.386 71.516 119.386 69.094C119.386 66.672 117.832 65.118 115.844 65.118C114.668 65.118 113.758 65.664 113.282 66.378ZM117.384 69.094C117.384 70.564 116.39 71.404 115.326 71.404C114.276 71.404 113.282 70.592 113.282 69.122C113.282 67.652 114.276 66.84 115.326 66.84C116.39 66.84 117.384 67.624 117.384 69.094ZM120.811 73H122.771V65.244H120.811V73ZM121.805 64.32C122.491 64.32 123.009 63.816 123.009 63.172C123.009 62.528 122.491 62.024 121.805 62.024C121.105 62.024 120.601 62.528 120.601 63.172C120.601 63.816 121.105 64.32 121.805 64.32ZM126.667 69.136C126.667 67.638 127.367 67.19 128.529 67.19H129.047V65.132C127.969 65.132 127.157 65.65 126.667 66.448V65.244H124.707V73H126.667V69.136ZM130.675 70.592C130.675 72.37 131.669 73 133.153 73H134.385V71.348H133.475C132.859 71.348 132.649 71.124 132.649 70.606V66.854H134.385V65.244H132.649V63.326H130.675V65.244H129.751V66.854H130.675V70.592ZM135.795 73H137.755V68.716C137.755 67.47 138.441 66.798 139.505 66.798C140.541 66.798 141.227 67.47 141.227 68.716V73H143.187V68.45C143.187 66.308 141.913 65.132 140.163 65.132C139.127 65.132 138.259 65.552 137.755 66.21V62.64H135.795V73ZM144.547 69.094C144.547 71.516 146.115 73.126 148.089 73.126C149.307 73.126 150.175 72.566 150.637 71.852V73H152.625V62.64H150.637V66.322C150.105 65.594 149.125 65.118 148.103 65.118C146.115 65.118 144.547 66.672 144.547 69.094ZM150.651 69.122C150.651 70.592 149.671 71.404 148.593 71.404C147.543 71.404 146.549 70.564 146.549 69.094C146.549 67.624 147.543 66.84 148.593 66.84C149.671 66.84 150.651 67.652 150.651 69.122ZM154.035 69.094C154.035 71.516 155.603 73.126 157.563 73.126C158.795 73.126 159.677 72.538 160.139 71.866V73H162.113V65.244H160.139V66.35C159.677 65.706 158.823 65.118 157.577 65.118C155.603 65.118 154.035 66.672 154.035 69.094ZM160.139 69.122C160.139 70.592 159.159 71.404 158.081 71.404C157.031 71.404 156.037 70.564 156.037 69.094C156.037 67.624 157.031 66.84 158.081 66.84C159.159 66.84 160.139 67.652 160.139 69.122ZM167.332 70.662L165.33 65.244H163.132L166.24 72.804L164.56 76.668H166.646L171.448 65.244H169.362L167.332 70.662ZM175.336 69.122C175.336 71.558 176.932 73.126 179.172 73.126C181.104 73.126 182.406 72.034 182.826 70.382H180.712C180.474 71.082 179.97 71.446 179.158 71.446C178.066 71.446 177.338 70.634 177.338 69.122C177.338 67.61 178.066 66.784 179.158 66.784C179.97 66.784 180.488 67.204 180.712 67.862H182.826C182.406 66.126 181.104 65.118 179.172 65.118C176.932 65.118 175.336 66.686 175.336 69.122ZM187.594 66.728C188.602 66.728 189.414 67.372 189.442 68.394H185.76C185.914 67.33 186.656 66.728 187.594 66.728ZM191.276 70.564H189.162C188.91 71.082 188.448 71.502 187.608 71.502C186.628 71.502 185.844 70.858 185.746 69.71H191.416C191.458 69.458 191.472 69.206 191.472 68.954C191.472 66.644 189.89 65.118 187.65 65.118C185.354 65.118 183.758 66.672 183.758 69.122C183.758 71.558 185.396 73.126 187.65 73.126C189.568 73.126 190.856 71.992 191.276 70.564ZM192.903 73H194.863V62.64H192.903V73ZM200.131 66.728C201.139 66.728 201.951 67.372 201.979 68.394H198.297C198.451 67.33 199.193 66.728 200.131 66.728ZM203.813 70.564H201.699C201.447 71.082 200.985 71.502 200.145 71.502C199.165 71.502 198.381 70.858 198.283 69.71H203.953C203.995 69.458 204.009 69.206 204.009 68.954C204.009 66.644 202.427 65.118 200.187 65.118C197.891 65.118 196.295 66.672 196.295 69.122C196.295 71.558 197.933 73.126 200.187 73.126C202.105 73.126 203.393 71.992 203.813 70.564ZM207.4 66.378V62.64H205.44V73H207.4V71.894C207.876 72.566 208.744 73.126 209.962 73.126C211.95 73.126 213.504 71.516 213.504 69.094C213.504 66.672 211.95 65.118 209.962 65.118C208.786 65.118 207.876 65.664 207.4 66.378ZM211.502 69.094C211.502 70.564 210.508 71.404 209.444 71.404C208.394 71.404 207.4 70.592 207.4 69.122C207.4 67.652 208.394 66.84 209.444 66.84C210.508 66.84 211.502 67.624 211.502 69.094ZM216.888 69.136C216.888 67.638 217.588 67.19 218.75 67.19H219.268V65.132C218.19 65.132 217.378 65.65 216.888 66.448V65.244H214.928V73H216.888V69.136ZM220.084 69.094C220.084 71.516 221.652 73.126 223.612 73.126C224.844 73.126 225.726 72.538 226.188 71.866V73H228.162V65.244H226.188V66.35C225.726 65.706 224.872 65.118 223.626 65.118C221.652 65.118 220.084 66.672 220.084 69.094ZM226.188 69.122C226.188 70.592 225.208 71.404 224.13 71.404C223.08 71.404 222.086 70.564 222.086 69.094C222.086 67.624 223.08 66.84 224.13 66.84C225.208 66.84 226.188 67.652 226.188 69.122ZM230.384 70.592C230.384 72.37 231.378 73 232.862 73H234.094V71.348H233.184C232.568 71.348 232.358 71.124 232.358 70.606V66.854H234.094V65.244H232.358V63.326H230.384V65.244H229.46V66.854H230.384V70.592ZM235.504 73H237.464V65.244H235.504V73ZM236.498 64.32C237.184 64.32 237.702 63.816 237.702 63.172C237.702 62.528 237.184 62.024 236.498 62.024C235.798 62.024 235.294 62.528 235.294 63.172C235.294 63.816 235.798 64.32 236.498 64.32ZM246.891 69.122C246.891 66.672 245.141 65.118 242.901 65.118C240.661 65.118 238.911 66.672 238.911 69.122C238.911 71.558 240.605 73.126 242.845 73.126C245.099 73.126 246.891 71.558 246.891 69.122ZM240.899 69.122C240.899 67.568 241.837 66.826 242.873 66.826C243.909 66.826 244.875 67.568 244.875 69.122C244.875 70.662 243.881 71.418 242.845 71.418C241.795 71.418 240.899 70.662 240.899 69.122ZM253.76 73H255.72V68.45C255.72 66.308 254.432 65.132 252.626 65.132C251.632 65.132 250.792 65.552 250.288 66.21V65.244H248.328V73H250.288V68.716C250.288 67.47 250.974 66.798 252.038 66.798C253.074 66.798 253.76 67.47 253.76 68.716V73ZM258.242 69.822H259.894L260.118 63.06H258.004L258.242 69.822ZM260.3 71.95C260.3 71.306 259.796 70.802 259.11 70.802C258.396 70.802 257.892 71.306 257.892 71.95C257.892 72.594 258.396 73.098 259.11 73.098C259.796 73.098 260.3 72.594 260.3 71.95Z"
          fill="#434343"/>
</svg>
