<svg width="295" height="39" viewBox="0 0 295 39" fill="none" xmlns="http://www.w3.org/2000/svg">
    <path d="M21.6151 3.872V29H16.5751V18.308H5.81111V29H0.77111V3.872H5.81111V14.204H16.5751V3.872H21.6151ZM25.2798 18.956C25.2798 16.94 25.6758 15.152 26.4678 13.592C27.2838 12.032 28.3758 10.832 29.7438 9.992C31.1358 9.152 32.6838 8.732 34.3878 8.732C35.8758 8.732 37.1718 9.032 38.2758 9.632C39.4038 10.232 40.3038 10.988 40.9758 11.9V9.056H46.0518V29H40.9758V26.084C40.3278 27.02 39.4278 27.8 38.2758 28.424C37.1478 29.024 35.8398 29.324 34.3518 29.324C32.6718 29.324 31.1358 28.892 29.7438 28.028C28.3758 27.164 27.2838 25.952 26.4678 24.392C25.6758 22.808 25.2798 20.996 25.2798 18.956ZM40.9758 19.028C40.9758 17.804 40.7358 16.76 40.2558 15.896C39.7758 15.008 39.1278 14.336 38.3118 13.88C37.4958 13.4 36.6198 13.16 35.6838 13.16C34.7478 13.16 33.8838 13.388 33.0918 13.844C32.2998 14.3 31.6518 14.972 31.1478 15.86C30.6678 16.724 30.4278 17.756 30.4278 18.956C30.4278 20.156 30.6678 21.212 31.1478 22.124C31.6518 23.012 32.2998 23.696 33.0918 24.176C33.9078 24.656 34.7718 24.896 35.6838 24.896C36.6198 24.896 37.4958 24.668 38.3118 24.212C39.1278 23.732 39.7758 23.06 40.2558 22.196C40.7358 21.308 40.9758 20.252 40.9758 19.028ZM56.0142 11.936C56.6622 11.024 57.5502 10.268 58.6782 9.668C59.8302 9.044 61.1382 8.732 62.6022 8.732C64.3062 8.732 65.8422 9.152 67.2102 9.992C68.6022 10.832 69.6942 12.032 70.4862 13.592C71.3022 15.128 71.7102 16.916 71.7102 18.956C71.7102 20.996 71.3022 22.808 70.4862 24.392C69.6942 25.952 68.6022 27.164 67.2102 28.028C65.8422 28.892 64.3062 29.324 62.6022 29.324C61.1382 29.324 59.8422 29.024 58.7142 28.424C57.6102 27.824 56.7102 27.068 56.0142 26.156V38.504H50.9742V9.056H56.0142V11.936ZM66.5622 18.956C66.5622 17.756 66.3102 16.724 65.8062 15.86C65.3262 14.972 64.6782 14.3 63.8622 13.844C63.0702 13.388 62.2062 13.16 61.2702 13.16C60.3582 13.16 59.4942 13.4 58.6782 13.88C57.8862 14.336 57.2382 15.008 56.7342 15.896C56.2542 16.784 56.0142 17.828 56.0142 19.028C56.0142 20.228 56.2542 21.272 56.7342 22.16C57.2382 23.048 57.8862 23.732 58.6782 24.212C59.4942 24.668 60.3582 24.896 61.2702 24.896C62.2062 24.896 63.0702 24.656 63.8622 24.176C64.6782 23.696 65.3262 23.012 65.8062 22.124C66.3102 21.236 66.5622 20.18 66.5622 18.956ZM80.4127 11.936C81.0607 11.024 81.9487 10.268 83.0767 9.668C84.2287 9.044 85.5367 8.732 87.0007 8.732C88.7047 8.732 90.2407 9.152 91.6087 9.992C93.0007 10.832 94.0927 12.032 94.8847 13.592C95.7007 15.128 96.1087 16.916 96.1087 18.956C96.1087 20.996 95.7007 22.808 94.8847 24.392C94.0927 25.952 93.0007 27.164 91.6087 28.028C90.2407 28.892 88.7047 29.324 87.0007 29.324C85.5367 29.324 84.2407 29.024 83.1127 28.424C82.0087 27.824 81.1087 27.068 80.4127 26.156V38.504H75.3727V9.056H80.4127V11.936ZM90.9607 18.956C90.9607 17.756 90.7087 16.724 90.2047 15.86C89.7247 14.972 89.0767 14.3 88.2607 13.844C87.4687 13.388 86.6047 13.16 85.6687 13.16C84.7567 13.16 83.8927 13.4 83.0767 13.88C82.2847 14.336 81.6367 15.008 81.1327 15.896C80.6527 16.784 80.4127 17.828 80.4127 19.028C80.4127 20.228 80.6527 21.272 81.1327 22.16C81.6367 23.048 82.2847 23.732 83.0767 24.212C83.8927 24.668 84.7567 24.896 85.6687 24.896C86.6047 24.896 87.4687 24.656 88.2607 24.176C89.0767 23.696 89.7247 23.012 90.2047 22.124C90.7087 21.236 90.9607 20.18 90.9607 18.956ZM118.851 9.056L106.503 38.432H101.139L105.459 28.496L97.4671 9.056H103.119L108.267 22.988L113.487 9.056H118.851ZM135.186 11.972C135.834 11.012 136.722 10.232 137.85 9.632C139.002 9.032 140.31 8.732 141.774 8.732C143.478 8.732 145.014 9.152 146.382 9.992C147.774 10.832 148.866 12.032 149.658 13.592C150.474 15.128 150.882 16.916 150.882 18.956C150.882 20.996 150.474 22.808 149.658 24.392C148.866 25.952 147.774 27.164 146.382 28.028C145.014 28.892 143.478 29.324 141.774 29.324C140.286 29.324 138.978 29.036 137.85 28.46C136.746 27.86 135.858 27.092 135.186 26.156V29H130.146V2.36H135.186V11.972ZM145.734 18.956C145.734 17.756 145.482 16.724 144.978 15.86C144.498 14.972 143.85 14.3 143.034 13.844C142.242 13.388 141.378 13.16 140.442 13.16C139.53 13.16 138.666 13.4 137.85 13.88C137.058 14.336 136.41 15.008 135.906 15.896C135.426 16.784 135.186 17.828 135.186 19.028C135.186 20.228 135.426 21.272 135.906 22.16C136.41 23.048 137.058 23.732 137.85 24.212C138.666 24.668 139.53 24.896 140.442 24.896C141.378 24.896 142.242 24.656 143.034 24.176C143.85 23.696 144.498 23.012 144.978 22.124C145.482 21.236 145.734 20.18 145.734 18.956ZM157.101 6.68C156.213 6.68 155.469 6.404 154.869 5.852C154.293 5.276 154.005 4.568 154.005 3.728C154.005 2.888 154.293 2.192 154.869 1.64C155.469 1.064 156.213 0.775999 157.101 0.775999C157.989 0.775999 158.721 1.064 159.297 1.64C159.897 2.192 160.197 2.888 160.197 3.728C160.197 4.568 159.897 5.276 159.297 5.852C158.721 6.404 157.989 6.68 157.101 6.68ZM159.585 9.056V29H154.545V9.056H159.585ZM169.604 12.152C170.252 11.096 171.092 10.268 172.124 9.668C173.18 9.068 174.38 8.768 175.724 8.768V14.06H174.392C172.808 14.06 171.608 14.432 170.792 15.176C170 15.92 169.604 17.216 169.604 19.064V29H164.564V9.056H169.604V12.152ZM184.987 13.196V22.844C184.987 23.516 185.143 24.008 185.455 24.32C185.791 24.608 186.343 24.752 187.111 24.752H189.451V29H186.283C182.035 29 179.911 26.936 179.911 22.808V13.196H177.535V9.056H179.911V4.124H184.987V9.056H189.451V13.196H184.987ZM204.308 8.768C205.82 8.768 207.164 9.104 208.34 9.776C209.516 10.424 210.428 11.396 211.076 12.692C211.748 13.964 212.084 15.5 212.084 17.3V29H207.044V17.984C207.044 16.4 206.648 15.188 205.856 14.348C205.064 13.484 203.984 13.052 202.616 13.052C201.224 13.052 200.12 13.484 199.304 14.348C198.512 15.188 198.116 16.4 198.116 17.984V29H193.076V2.36H198.116V11.54C198.764 10.676 199.628 10.004 200.708 9.524C201.788 9.02 202.988 8.768 204.308 8.768ZM215.581 18.956C215.581 16.94 215.977 15.152 216.769 13.592C217.585 12.032 218.689 10.832 220.081 9.992C221.473 9.152 223.021 8.732 224.725 8.732C226.021 8.732 227.257 9.02 228.433 9.596C229.609 10.148 230.545 10.892 231.241 11.828V2.36H236.353V29H231.241V26.048C230.617 27.032 229.741 27.824 228.613 28.424C227.485 29.024 226.177 29.324 224.689 29.324C223.009 29.324 221.473 28.892 220.081 28.028C218.689 27.164 217.585 25.952 216.769 24.392C215.977 22.808 215.581 20.996 215.581 18.956ZM231.277 19.028C231.277 17.804 231.037 16.76 230.557 15.896C230.077 15.008 229.429 14.336 228.613 13.88C227.797 13.4 226.921 13.16 225.985 13.16C225.049 13.16 224.185 13.388 223.393 13.844C222.601 14.3 221.953 14.972 221.449 15.86C220.969 16.724 220.729 17.756 220.729 18.956C220.729 20.156 220.969 21.212 221.449 22.124C221.953 23.012 222.601 23.696 223.393 24.176C224.209 24.656 225.073 24.896 225.985 24.896C226.921 24.896 227.797 24.668 228.613 24.212C229.429 23.732 230.077 23.06 230.557 22.196C231.037 21.308 231.277 20.252 231.277 19.028ZM239.979 18.956C239.979 16.94 240.375 15.152 241.167 13.592C241.983 12.032 243.075 10.832 244.443 9.992C245.835 9.152 247.383 8.732 249.087 8.732C250.575 8.732 251.871 9.032 252.975 9.632C254.103 10.232 255.003 10.988 255.675 11.9V9.056H260.751V29H255.675V26.084C255.027 27.02 254.127 27.8 252.975 28.424C251.847 29.024 250.539 29.324 249.051 29.324C247.371 29.324 245.835 28.892 244.443 28.028C243.075 27.164 241.983 25.952 241.167 24.392C240.375 22.808 239.979 20.996 239.979 18.956ZM255.675 19.028C255.675 17.804 255.435 16.76 254.955 15.896C254.475 15.008 253.827 14.336 253.011 13.88C252.195 13.4 251.319 13.16 250.383 13.16C249.447 13.16 248.583 13.388 247.791 13.844C246.999 14.3 246.351 14.972 245.847 15.86C245.367 16.724 245.127 17.756 245.127 18.956C245.127 20.156 245.367 21.212 245.847 22.124C246.351 23.012 246.999 23.696 247.791 24.176C248.607 24.656 249.471 24.896 250.383 24.896C251.319 24.896 252.195 24.668 253.011 24.212C253.827 23.732 254.475 23.06 254.955 22.196C255.435 21.308 255.675 20.252 255.675 19.028ZM284.753 9.056L272.405 38.432H267.041L271.361 28.496L263.369 9.056H269.021L274.169 22.988L279.389 9.056H284.753ZM293.986 3.44L293.41 20.828H289.162L288.55 3.44H293.986ZM291.394 29.252C290.482 29.252 289.726 28.976 289.126 28.424C288.55 27.848 288.262 27.14 288.262 26.3C288.262 25.46 288.55 24.764 289.126 24.212C289.726 23.636 290.482 23.348 291.394 23.348C292.282 23.348 293.014 23.636 293.59 24.212C294.166 24.764 294.454 25.46 294.454 26.3C294.454 27.14 294.166 27.848 293.59 28.424C293.014 28.976 292.282 29.252 291.394 29.252Z"
          fill="#2757D2"/>
</svg>
