<svg width="261" height="188" viewBox="0 0 261 188" fill="none" xmlns="http://www.w3.org/2000/svg">
    <circle cx="149.862" cy="39.5629" r="10.5629" fill="#3F3D56"/>
    <circle cx="179.437" cy="130.404" r="10.5629" fill="#3F3D56"/>
    <circle cx="99.1591" cy="39.5629" r="10.5629" fill="#3F3D56"/>
    <path d="M137.257 40.0116L137.31 40.0237L137.364 40.0244C137.663 40.0281 138.178 40.1303 138.89 40.3363C139.588 40.5383 140.433 40.8269 141.372 41.1757C143.25 41.873 145.482 42.8013 147.626 43.7311C149.77 44.6603 151.821 45.5887 153.336 46.285C154.094 46.6331 154.717 46.923 155.151 47.1259C155.346 47.2167 155.502 47.2901 155.615 47.3434L163.026 76.9918L163.042 77.0564L163.074 77.1146L163.511 76.8706C163.074 77.1146 163.075 77.1147 163.075 77.115L163.076 77.1169L163.08 77.125L163.099 77.1584C163.115 77.1883 163.14 77.2333 163.173 77.2931C163.238 77.4127 163.334 77.5913 163.459 77.8262C163.709 78.296 164.071 78.9907 164.519 79.8876C165.416 81.6814 166.66 84.2835 168.041 87.5116C170.805 93.9693 174.12 102.925 176.329 112.922C180.754 132.945 180.713 156.989 163.167 173.618C145.619 190.249 122.978 189.353 104.651 181.232C95.49 177.172 87.436 171.317 81.6786 164.98C75.9097 158.631 72.5 151.86 72.5 145.971C72.5 133.885 75.293 115.251 78.0948 99.6073C79.4945 91.7922 80.8943 84.7346 81.9442 79.6308C82.4691 77.079 82.9065 75.0158 83.2127 73.5908C83.3657 72.8783 83.486 72.3253 83.5679 71.9506C83.6089 71.7633 83.6403 71.6205 83.6614 71.5246L83.6853 71.4162L83.6908 71.3914L83.6919 71.3874L83.7045 71.3414L83.7542 71.1606C83.798 71.0019 83.8628 70.7684 83.9466 70.4697C84.1142 69.8723 84.3579 69.0144 84.662 67.973C85.2704 65.8899 86.1202 63.0747 87.0862 60.144C88.0527 57.2117 89.133 54.1714 90.2021 51.6355C90.7367 50.3674 91.2656 49.2324 91.773 48.3032C92.2848 47.3661 92.7581 46.6697 93.174 46.2538C94.0421 45.3857 95.4746 44.5501 97.1859 43.7836C98.8861 43.0222 100.816 42.3489 102.639 41.7888C104.461 41.2291 106.168 40.7851 107.42 40.481C108.045 40.3289 108.557 40.212 108.912 40.1332C109.089 40.0938 109.227 40.0639 109.32 40.0439L109.423 40.0222L109.449 40.0211L109.647 40.0128C109.821 40.0056 110.076 39.9952 110.403 39.9823C111.056 39.9564 111.994 39.9206 113.134 39.8808C115.414 39.8013 118.499 39.7058 121.721 39.6422C124.944 39.5786 128.301 39.5468 131.124 39.5945C133.97 39.6425 136.216 39.771 137.257 40.0116Z"
          fill="white" stroke="#3F3D56"/>
    <path d="M146.69 75.5893C150.774 75.5893 154.084 72.7518 154.084 69.2516C154.084 65.7513 150.774 62.9138 146.69 62.9138C142.607 62.9138 139.296 65.7513 139.296 69.2516C139.296 72.7518 142.607 75.5893 146.69 75.5893Z"
          fill="#3F3D56"/>
    <path d="M102.326 75.5893C106.41 75.5893 109.72 72.7518 109.72 69.2516C109.72 65.7513 106.41 62.9138 102.326 62.9138C98.2425 62.9138 94.9321 65.7513 94.9321 69.2516C94.9321 72.7518 98.2425 75.5893 102.326 75.5893Z"
          fill="#3F3D56"/>
    <path d="M125.237 77.6806C128.33 77.6806 130.836 76.0073 130.836 73.9431C130.836 71.879 128.33 70.2057 125.237 70.2057C122.145 70.2057 119.638 71.879 119.638 73.9431C119.638 76.0073 122.145 77.6806 125.237 77.6806Z"
          fill="#3F3D56"/>
    <path d="M121.5 104.5C116.611 104.504 110.505 104.587 103.5 104C93.3782 103.152 83 101.5 78.033 98.7168L80.3106 86.1146C88.5611 90.583 97.2678 93.8258 106.5 95.5001C122.5 98.8959 143.259 96.8958 166.761 83.9288L172.043 96.6042C153.5 104 134.239 104.5 121.5 104.5Z"
          fill="#3F3D56"/>
    <ellipse cx="125" cy="85.5" rx="2" ry="3.5" fill="#C4C4C4"/>
    <path d="M98 70C99.2632 68.2475 103.305 66.7579 106 69.5619" stroke="white" stroke-width="1.5"
          stroke-linejoin="round"/>
    <path d="M151 70C149.737 68.2475 145.695 66.7579 143 69.5619" stroke="white" stroke-width="1.5"
          stroke-linejoin="round"/>
    <path d="M132.264 106.857C126.098 106.086 122.527 102.811 121.512 101.27C117.402 105.277 118.848 110.004 120.085 111.866C115.518 112.714 114.503 115.88 114.566 117.357C109.314 116.972 107.176 120.857 106.764 122.848C112.949 129.494 136.26 129.591 143.681 124.293C143.833 119.977 140.446 117.871 138.734 117.357C141.873 113.311 139.97 107.82 132.264 106.857Z"
          fill="#AFE3FF" stroke="#58BAEE"/>
    <path d="M102.259 128.039L112.409 153.675H124.589H124.879H137.446L147.596 128.039C148.659 124.64 146.242 122.019 144.116 122.116C143.065 122.164 142.298 122.899 141.534 123.63C140.751 124.38 139.972 125.126 138.896 125.126C137.82 125.126 137.14 124.43 136.468 123.743C135.811 123.071 135.162 122.407 134.159 122.407C133.217 122.407 132.691 122.993 132.128 123.62C131.477 124.345 130.776 125.126 129.326 125.126C128.198 125.126 127.538 124.337 126.904 123.58C126.342 122.908 125.832 122.26 125.007 122.213L124.879 122.215C124.054 122.262 123.513 122.908 122.951 123.58C122.317 124.337 121.656 125.126 120.529 125.126C119.079 125.126 118.378 124.345 117.727 123.62C117.164 122.993 116.638 122.407 115.696 122.407C114.693 122.407 114.043 123.071 113.387 123.743C112.715 124.43 112.035 125.126 110.959 125.126C109.883 125.126 109.104 124.38 108.321 123.63C107.557 122.899 106.789 122.164 105.739 122.116C103.612 122.019 101.196 124.64 102.259 128.039Z"
          fill="#0CC88F" stroke="#109C72"/>
    <path d="M126.865 119.323L126.865 119.323C126.973 119.368 127.096 119.356 127.194 119.291C127.291 119.227 127.35 119.117 127.35 119H127C127.35 119 127.35 119 127.35 119V118.999V118.999V118.998V118.997V118.995V118.994V118.992V118.989V118.987V118.984V118.981V118.978V118.974V118.971V118.967V118.962V118.958V118.953V118.948V118.943V118.937V118.932V118.926V118.92V118.913V118.906V118.899V118.892V118.885V118.877V118.869V118.861V118.853V118.844V118.835V118.826V118.817V118.808V118.798V118.788V118.778V118.767V118.757V118.746V118.735V118.723V118.712V118.7V118.688V118.676V118.663V118.651V118.638V118.625V118.611V118.598V118.584V118.57V118.556V118.542V118.527V118.512V118.497V118.482V118.467V118.451V118.436V118.42V118.403V118.387V118.37V118.354V118.337V118.319V118.302V118.284V118.267V118.249V118.231V118.212V118.194V118.175V118.156V118.137V118.118V118.098V118.078V118.059V118.039V118.018V117.998V117.977V117.957V117.936V117.915V117.893V117.872V117.85V117.828V117.806V117.784V117.762V117.739V117.717V117.694V117.671V117.648V117.624V117.601V117.577V117.554V117.53V117.505V117.481V117.457V117.432V117.407V117.382V117.357V117.332V117.307V117.281V117.255V117.229V117.203V117.177V117.151V117.125V117.098V117.071V117.044V117.017V116.99V116.963V116.935V116.908V116.88V116.852V116.824V116.796V116.768V116.739V116.711V116.682V116.653V116.624V116.595V116.566V116.537V116.507V116.478V116.448V116.418V116.388V116.358V116.328V116.298V116.267V116.237V116.206V116.175V116.145V116.114V116.082V116.051V116.02V115.988V115.957V115.925V115.893V115.861V115.83V115.797V115.765V115.733V115.7V115.668V115.635V115.603V115.57V115.537V115.504V115.471V115.438V115.404V115.371V115.337V115.304V115.27V115.236V115.203V115.169V115.135V115.1V115.066V115.032V114.998V114.963V114.929V114.894V114.859V114.825V114.79V114.755V114.72V114.685V114.65V114.614V114.579V114.544V114.508V114.473V114.437V114.402V114.366V114.33V114.294V114.259V114.223V114.187V114.15V114.114V114.078V114.042V114.006V113.969V113.933V113.896V113.86V113.823V113.786V113.75V113.713V113.676V113.639V113.603V113.566V113.529V113.492V113.455V113.417V113.38V113.343V113.306V113.269V113.231V113.194V113.156V113.119V113.082V113.044V113.007V112.969V112.931V112.894V112.856V112.819V112.781V112.743V112.705V112.668V112.63V112.592V112.554V112.516V112.478V112.441V112.403V112.365V112.327V112.289V112.251V112.213V112.175V112.137V112.099V112.061V112.023V111.985V111.947V111.908V111.87V111.832V111.794V111.756V111.718V111.68V111.642V111.604V111.566V111.528V111.49V111.452V111.414V111.375V111.337V111.299V111.261V111.223V111.185V111.147V111.109V111.071V111.034V110.996V110.958V110.92V110.882V110.844V110.806V110.768V110.731V110.693V110.655V110.617V110.58V110.542V110.504V110.467V110.429V110.392V110.354V110.317V110.279V110.242V110.204V110.167V110.13V110.093V110.055V110.018V109.981V109.944V109.907V109.87V109.833V109.796V109.759V109.722V109.686V109.649V109.612V109.576V109.539V109.502V109.466V109.43V109.393V109.357V109.321V109.284V109.248V109.212V109.176V109.14V109.104V109.069V109.033V108.997V108.962V108.926V108.891V108.855V108.82V108.785V108.749V108.714V108.679V108.644V108.609V108.575V108.54V108.505V108.471V108.436V108.402V108.367V108.333V108.299V108.265V108.231V108.197V108.163V108.13V108.096V108.062V108.029V107.996V107.962V107.929V107.896V107.863V107.83V107.797V107.765V107.732V107.7V107.667V107.635V107.603V107.571V107.539V107.507V107.475V107.444V107.412V107.381V107.349V107.318V107.287V107.256V107.225V107.194V107.164V107.133V107.103V107.073V107.043V107.013V106.983V106.953V106.923V106.894V106.864V106.835V106.806V106.777V106.748V106.719V106.691V106.662V106.634V106.605V106.577V106.549V106.522V106.494V106.466V106.439V106.412V106.385V106.358V106.331V106.304V106.278V106.251V106.225V106.199V106.173V106.147V106.121V106.096V106.071V106.045V106.02V105.996V105.971V105.946V105.922V105.898V105.874V105.85V105.826V105.802V105.779V105.756V105.732V105.709V105.687V105.664V105.642V105.619V105.597V105.575V105.554V105.532V105.511V105.489V105.468V105.448V105.427V105.406V105.386V105.366V105.346V105.326V105.307V105.287V105.268V105.249V105.23V105.211V105.193V105.175V105.157V105.139V105.121V105.103V105.086V105.069V105.052V105.035V105.019V105.002V104.986V104.97V104.955V104.939V104.924V104.909V104.894C127.35 104.161 127.055 103.589 126.6 103.206C126.153 102.829 125.57 102.65 125 102.65C124.43 102.65 123.847 102.829 123.4 103.206C122.944 103.589 122.65 104.161 122.65 104.894L122.65 112.894L122.65 117.151L122.65 118.497L122.65 118.869L122.65 118.967L122.65 118.992L122.65 118.998L122.65 118.999V119C122.65 119 122.65 119 123 119L122.65 119L126.865 119.323ZM126.865 119.323L126.863 119.322L126.856 119.319L126.826 119.307C126.798 119.296 126.757 119.281 126.703 119.261C126.596 119.223 126.442 119.171 126.258 119.119C125.884 119.015 125.4 118.915 124.926 118.915C124.454 118.915 124.009 119.014 123.678 119.117C123.513 119.168 123.379 119.218 123.288 119.256C123.242 119.275 123.207 119.29 123.184 119.3L123.159 119.312L123.154 119.314L123.154 119.314L126.865 119.323Z"
          fill="white" stroke="#949494" stroke-width="0.7" stroke-linejoin="round"/>
    <path d="M121.076 97C120.697 94.2062 121.816 91.5641 122.596 91C123.735 94.6 125.859 94.6513 126.773 97C127.554 99.0062 126.125 100.097 125.396 101C126.12 98.9422 123.735 98.6 122.975 97C122.596 98.6 123.081 100.433 124.49 101C123.355 101 121.404 99.4131 121.076 97Z"
          fill="#F55F44"/>
    <path d="M156.158 132.815C156.158 132.815 141.151 151.207 133.8 140.295C126.449 129.384 146.907 126.012 146.907 126.012C146.907 126.012 150.311 123.97 151.078 123.879"
          fill="#3F3D56"/>
    <path d="M98.9461 126.378C102.106 125.29 122.667 126.332 118.939 138.94C115.21 151.547 99.2788 138.407 99.2788 138.407C99.2788 138.407 95.8661 135.842 94.4215 133.611"
          fill="#3F3D56"/>
    <path d="M142.479 42.3075L126.489 11.6456L108.993 40.714C110.529 42.5022 115.019 47.1344 124.44 47.9105C133.204 48.6326 140.079 44.7857 142.479 42.3075Z"
          fill="#2757D2"/>
    <mask id="mask0_3902_2082" style="mask-type:alpha" maskUnits="userSpaceOnUse" x="109" y="31" width="34" height="12">
        <path d="M126.178 42.3241C117.355 41.8067 111.685 38.6859 109.961 36.8121L112.814 31.4631C114.784 32.4994 118.174 34.6466 125.928 35.1494C133.681 35.6523 138.307 33.612 140.476 32.4311C142.645 31.2502 142.62 38.4345 142.62 38.4345C140.999 39.5041 135.315 42.8598 126.178 42.3241Z"
              fill="#C4C4C4"/>
    </mask>
    <g mask="url(#mask0_3902_2082)">
        <path d="M142.479 42.3075L126.489 11.6456L108.993 40.714C110.529 42.5022 115.019 47.1344 124.44 47.9105C133.204 48.6326 140.079 44.7857 142.479 42.3075Z"
              fill="#0CC88F"/>
    </g>
    <mask id="mask1_3902_2082" style="mask-type:alpha" maskUnits="userSpaceOnUse" x="108" y="16" width="38" height="14">
        <path d="M126.544 29.0496C116.856 28.5382 111.126 22.6809 108.536 19.7322L111.732 16.3051C113.697 17.1901 119.412 22.6006 126.608 22.9691C133.804 23.3376 140.608 20.3946 142.783 19.3651C144.957 18.3356 145.421 23.6936 145.421 23.6936C143.004 25.7119 136.232 29.5611 126.544 29.0496Z"
              fill="#C4C4C4"/>
    </mask>
    <g mask="url(#mask1_3902_2082)">
        <path d="M142.479 42.3074L126.489 11.6456L108.993 40.7139C110.529 42.5022 115.019 47.1343 124.44 47.9105C133.204 48.6326 140.079 44.7857 142.479 42.3074Z"
              fill="#0CC88F"/>
    </g>
    <circle cx="34" cy="66" r="5" fill="#0CC88F"/>
    <circle cx="236" cy="89" r="5" fill="#2757D2"/>
    <circle cx="50" cy="101" r="3" fill="#2757D2"/>
    <circle cx="258" cy="157" r="3" fill="#0CC88F"/>
    <circle cx="193" cy="71" r="3" fill="#2757D2"/>
    <circle cx="3" cy="147" r="3" fill="#2757D2"/>
    <circle cx="29" cy="5" r="3" fill="#0CC88F"/>
    <circle cx="78" cy="20" r="2" fill="#2757D2"/>
    <circle cx="167" cy="2" r="2" fill="#0CC88F"/>
    <circle cx="216" cy="20" r="4" fill="#0CC88F"/>
</svg>
