<svg width="19" height="19" viewBox="0 0 19 19" fill="none" xmlns="http://www.w3.org/2000/svg">
    <path d="M9.66867 18.041C7.20867 18.041 6.91867 18.028 5.95867 17.986C5.21004 17.9614 4.4711 17.8092 3.77367 17.536C2.56698 17.0664 1.61281 16.1119 1.14367 14.905C0.880977 14.205 0.739289 13.4655 0.724671 12.718C0.668671 11.76 0.668671 11.446 0.668671 9.005C0.668671 6.538 0.681671 6.25 0.724671 5.295C0.739608 4.54853 0.881292 3.81001 1.14367 3.111C1.6123 1.90253 2.56802 0.947177 3.77667 0.479005C4.47531 0.215207 5.21402 0.0731492 5.96067 0.0590049C6.91567 0.00500488 7.22967 0.00500488 9.66867 0.00500488C12.1487 0.00500488 12.4337 0.0180049 13.3787 0.0590049C14.1273 0.0732715 14.8679 0.215315 15.5687 0.479005C16.777 0.947708 17.7325 1.90288 18.2017 3.111C18.4688 3.8202 18.6112 4.57026 18.6227 5.328C18.6787 6.28601 18.6787 6.59901 18.6787 9.03901C18.6787 11.479 18.6647 11.799 18.6227 12.746C18.6078 13.4942 18.4658 14.2344 18.2027 14.935C17.7323 16.1427 16.7767 17.0976 15.5687 17.567C14.8689 17.8292 14.1298 17.9709 13.3827 17.986C12.4277 18.041 12.1147 18.041 9.66867 18.041ZM9.63467 1.588C7.18867 1.588 6.93467 1.6 5.97967 1.643C5.40966 1.65056 4.84515 1.75575 4.31067 1.954C3.52142 2.25601 2.8969 2.878 2.59167 3.666C2.39188 4.2063 2.28668 4.77698 2.28067 5.353C2.22767 6.322 2.22767 6.576 2.22767 9.005C2.22767 11.405 2.23667 11.696 2.28067 12.659C2.28962 13.2292 2.39477 13.7938 2.59167 14.329C2.89735 15.1165 3.52176 15.738 4.31067 16.04C4.84479 16.2396 5.40952 16.3448 5.97967 16.351C6.94767 16.407 7.20267 16.407 9.63467 16.407C12.0877 16.407 12.3417 16.395 13.2887 16.351C13.8591 16.3441 14.424 16.2389 14.9587 16.04C15.7431 15.7354 16.3636 15.1153 16.6687 14.331C16.8681 13.7903 16.9733 13.2193 16.9797 12.643H16.9907C17.0337 11.687 17.0337 11.432 17.0337 8.98901C17.0337 6.54601 17.0227 6.289 16.9797 5.334C16.9707 4.76446 16.8656 4.20052 16.6687 3.666C16.3643 2.88058 15.7437 2.2593 14.9587 1.954C14.4241 1.75475 13.8591 1.64953 13.2887 1.643C12.3217 1.588 12.0687 1.588 9.63467 1.588ZM9.66867 13.624C7.79866 13.6252 6.11209 12.4997 5.39553 10.7725C4.67898 9.04518 5.07358 7.05634 6.3953 5.73347C7.71703 4.4106 9.70553 4.01428 11.4334 4.72934C13.1613 5.4444 14.2883 7.12999 14.2887 9C14.2859 11.5511 12.2197 13.619 9.66867 13.624ZM9.66867 5.998C8.01182 5.998 6.66867 7.34115 6.66867 8.998C6.66867 10.6549 8.01182 11.998 9.66867 11.998C11.3255 11.998 12.6687 10.6549 12.6687 8.998C12.6648 7.34275 11.3239 6.00185 9.66867 5.998ZM14.4687 5.28501C13.8741 5.2828 13.3936 4.79959 13.3947 4.20501C13.3958 3.61043 13.8781 3.12901 14.4727 3.12901C15.0672 3.12901 15.5496 3.61042 15.5507 4.205C15.5509 4.49187 15.437 4.76703 15.2339 4.96968C15.0309 5.17234 14.7555 5.2858 14.4687 5.28501Z"
          fill="white"/>
</svg>
