<svg width="58" height="56" viewBox="0 0 58 56" fill="none" xmlns="http://www.w3.org/2000/svg">
<path fill-rule="evenodd" clip-rule="evenodd" d="M40.5622 2.3421H34.4968V24.6552L34.4967 24.699C34.4967 31.2984 39.7581 36.6483 46.2484 36.6483C52.7386 36.6483 58 31.2984 58 24.699C58 18.0995 52.7386 12.7497 46.2484 12.7497C44.1857 12.7497 42.2472 13.29 40.5622 14.2391V2.3421ZM40.5617 24.6989H40.5622V24.6218C40.6028 21.4641 43.1328 18.917 46.248 18.917C49.3884 18.917 51.9342 21.5057 51.9342 24.699C51.9342 27.8922 49.3884 30.4809 46.248 30.4809C43.1075 30.4809 40.5617 27.8922 40.5617 24.699V24.6989ZM23.3136 26.8489C22.3178 32.4223 17.5201 36.6483 11.7516 36.6483C5.26139 36.6483 0 31.2984 0 24.699C0 18.0996 5.26139 12.7497 11.7516 12.7497C17.5203 12.7497 22.3181 16.9761 23.3137 22.5497C23.3404 18.8474 28.4471 12.9423 34.4966 12.9423V18.9169C30.7057 19.3795 29.1894 22.1934 29.1894 23.157V35.8772H23.3136V26.8489ZM11.7513 30.4809C14.8917 30.4809 17.4376 27.8923 17.4376 24.699C17.4376 21.5057 14.8917 18.9171 11.7513 18.9171C8.61085 18.9171 6.06502 21.5057 6.06502 24.699C6.06502 27.8923 8.61085 30.4809 11.7513 30.4809Z" fill="#2757D2"/>
<path fill-rule="evenodd" clip-rule="evenodd" d="M0.758575 42.0262C0.758575 41.6047 1.10025 41.2631 1.52173 41.2631H3.40718C3.82866 41.2631 4.17034 41.6047 4.17034 42.0262V54.5913C4.17034 55.0128 3.82866 55.3544 3.40718 55.3544H1.52173C1.10025 55.3544 0.758575 55.0128 0.758575 54.5913V42.0262ZM56.8626 54.5915C56.8626 55.013 56.5209 55.3547 56.0994 55.3547H54.214C53.7925 55.3547 53.4508 55.013 53.4508 54.5915L53.4508 42.0264C53.4508 41.6049 53.7925 41.2633 54.214 41.2633L56.0994 41.2633C56.5209 41.2633 56.8626 41.6049 56.8626 42.0264V54.5915ZM16.6847 41.2631C16.2632 41.2631 15.9215 41.6047 15.9215 42.0262V54.5913C15.9215 55.0128 16.2632 55.3544 16.6847 55.3544H18.5701C18.9916 55.3544 19.3333 55.0128 19.3333 54.5913V42.0262C19.3333 41.6047 18.9916 41.2631 18.5701 41.2631H16.6847ZM41.6993 54.5915C41.6993 55.013 41.3576 55.3547 40.9362 55.3547H39.0507C38.6292 55.3547 38.2875 55.013 38.2875 54.5915L38.2876 42.0264C38.2876 41.6049 38.6292 41.2633 39.0507 41.2633L40.9362 41.2633C41.3576 41.2633 41.6993 41.6049 41.6993 42.0264V54.5915ZM9.10301 41.2631C8.68153 41.2631 8.33985 41.6047 8.33985 42.0262V50.5652C8.33985 50.9867 8.68153 51.3283 9.10301 51.3283H10.9885C11.4099 51.3283 11.7516 50.9867 11.7516 50.5652V42.0262C11.7516 41.6047 11.4099 41.2631 10.9885 41.2631H9.10301ZM49.2802 54.5915C49.2802 55.013 48.9385 55.3547 48.5171 55.3547H46.6316C46.2101 55.3547 45.8684 55.013 45.8684 54.5915L45.8685 46.0525C45.8685 45.6311 46.2101 45.2894 46.6316 45.2894L48.5171 45.2894C48.9385 45.2894 49.2802 45.6311 49.2802 46.0525V54.5915ZM28.8501 53.4736C32.2219 53.4736 34.9554 50.7402 34.9554 47.3683C34.9554 43.9965 32.2219 41.2631 28.8501 41.2631C25.4782 41.2631 22.7448 43.9965 22.7448 47.3683C22.7448 50.7402 25.4782 53.4736 28.8501 53.4736Z" fill="#0CC88F"/>
</svg>
