<svg width="348" height="16" viewBox="0 0 348 16" fill="none" xmlns="http://www.w3.org/2000/svg">
    <path d="M0.350461 12H1.62446V2.242H0.350461V12ZM4.03377 12H5.30777V5.378H6.91777V4.328H5.30777V3.782C5.30777 2.788 5.68577 2.368 6.83377 2.368V1.304C4.87377 1.304 4.03377 2.074 4.03377 3.782V4.328H3.03977V5.378H4.03377V12ZM15.0476 10.544L12.6396 4.328H11.2256L14.3196 11.916L12.8076 15.612H14.1236L18.7436 4.328H17.4276L15.0476 10.544ZM27.3043 8.15C27.3043 5.728 25.6103 4.202 23.4263 4.202C21.2563 4.202 19.5483 5.728 19.5483 8.15C19.5483 10.586 21.2003 12.126 23.3703 12.126C25.5543 12.126 27.3043 10.586 27.3043 8.15ZM20.8503 8.15C20.8503 6.218 22.0683 5.308 23.4123 5.308C24.7283 5.308 26.0023 6.218 26.0023 8.15C26.0023 10.096 24.7003 11.006 23.3703 11.006C22.0403 11.006 20.8503 10.096 20.8503 8.15ZM35.7834 4.328H34.5094V8.542C34.5094 10.194 33.6274 11.006 32.3114 11.006C31.0234 11.006 30.1694 10.208 30.1694 8.654V4.328H28.9094V8.822C28.9094 11.02 30.2954 12.112 32.0594 12.112C33.0814 12.112 34.0194 11.664 34.5094 10.866V12H35.7834V4.328ZM41.1909 8.136C41.1909 10.516 42.7729 12.126 44.8309 12.126C46.2309 12.126 47.2249 11.412 47.6869 10.558V12H48.9749V1.64H47.6869V5.7C47.1549 4.818 46.0489 4.202 44.8449 4.202C42.7729 4.202 41.1909 5.742 41.1909 8.136ZM47.6869 8.15C47.6869 9.956 46.4829 11.006 45.0829 11.006C43.6829 11.006 42.4929 9.942 42.4929 8.136C42.4929 6.33 43.6829 5.308 45.0829 5.308C46.4829 5.308 47.6869 6.372 47.6869 8.15ZM51.1278 12H52.4018V4.328H51.1278V12ZM51.7858 3.082C52.2478 3.082 52.6258 2.704 52.6258 2.214C52.6258 1.724 52.2478 1.346 51.7858 1.346C51.2958 1.346 50.9178 1.724 50.9178 2.214C50.9178 2.704 51.2958 3.082 51.7858 3.082ZM54.0971 8.136C54.0971 10.516 55.6791 12.126 57.7371 12.126C59.1371 12.126 60.1311 11.412 60.5931 10.558V12H61.8811V1.64H60.5931V5.7C60.0611 4.818 58.9551 4.202 57.7511 4.202C55.6791 4.202 54.0971 5.742 54.0971 8.136ZM60.5931 8.15C60.5931 9.956 59.3891 11.006 57.9891 11.006C56.5891 11.006 55.3991 9.942 55.3991 8.136C55.3991 6.33 56.5891 5.308 57.9891 5.308C59.3891 5.308 60.5931 6.372 60.5931 8.15ZM69.6481 12H70.9081V7.478C70.9081 5.28 69.5501 4.188 67.7721 4.188C66.7361 4.188 65.8121 4.622 65.3081 5.42V4.328H64.0341V12H65.3081V7.758C65.3081 6.106 66.2041 5.294 67.5061 5.294C68.7941 5.294 69.6481 6.092 69.6481 7.66V12ZM72.5831 3.642H73.4651L73.6331 0.855999H72.4011L72.5831 3.642ZM75.4976 9.9C75.4976 11.44 76.2676 12 77.6256 12H78.7736V10.922H77.8356C77.0516 10.922 76.7716 10.656 76.7716 9.9V5.378H78.7736V4.328H76.7716V2.396H75.4976V4.328H74.5036V5.378H75.4976V9.9ZM85.3237 7.828C85.3237 6.05 86.2477 5.504 87.4657 5.504H87.8017V4.188C86.5837 4.188 85.7577 4.72 85.3237 5.574V4.328H84.0497V12H85.3237V7.828ZM92.5343 5.28C93.8503 5.28 94.9703 6.106 94.9563 7.604H90.1123C90.2523 6.106 91.2883 5.28 92.5343 5.28ZM96.1183 9.634H94.7463C94.4663 10.46 93.7383 11.048 92.5903 11.048C91.2883 11.048 90.1963 10.194 90.0983 8.64H96.2303C96.2583 8.374 96.2723 8.15 96.2723 7.87C96.2723 5.77 94.8163 4.202 92.5903 4.202C90.3503 4.202 88.7963 5.728 88.7963 8.15C88.7963 10.586 90.4063 12.126 92.5903 12.126C94.4943 12.126 95.7263 11.034 96.1183 9.634ZM97.478 8.136C97.478 10.516 99.06 12.126 101.09 12.126C102.518 12.126 103.54 11.37 103.974 10.586V15.64H105.262V4.328H103.974V5.728C103.54 4.93 102.532 4.202 101.132 4.202C99.06 4.202 97.478 5.742 97.478 8.136ZM103.974 8.15C103.974 9.956 102.77 11.006 101.37 11.006C99.97 11.006 98.78 9.942 98.78 8.136C98.78 6.33 99.97 5.308 101.37 5.308C102.77 5.308 103.974 6.372 103.974 8.15ZM114.219 4.328H112.945V8.542C112.945 10.194 112.063 11.006 110.747 11.006C109.459 11.006 108.605 10.208 108.605 8.654V4.328H107.345V8.822C107.345 11.02 108.731 12.112 110.495 12.112C111.517 12.112 112.455 11.664 112.945 10.866V12H114.219V4.328ZM119.632 5.28C120.948 5.28 122.068 6.106 122.054 7.604H117.21C117.35 6.106 118.386 5.28 119.632 5.28ZM123.216 9.634H121.844C121.564 10.46 120.836 11.048 119.688 11.048C118.386 11.048 117.294 10.194 117.196 8.64H123.328C123.356 8.374 123.37 8.15 123.37 7.87C123.37 5.77 121.914 4.202 119.688 4.202C117.448 4.202 115.894 5.728 115.894 8.15C115.894 10.586 117.504 12.126 119.688 12.126C121.592 12.126 122.824 11.034 123.216 9.634ZM130.568 9.914C130.512 7.17 126.06 8.164 126.06 6.344C126.06 5.728 126.62 5.28 127.558 5.28C128.58 5.28 129.168 5.84 129.224 6.61H130.498C130.414 5.112 129.294 4.202 127.6 4.202C125.892 4.202 124.786 5.168 124.786 6.344C124.786 9.2 129.322 8.206 129.322 9.914C129.322 10.544 128.762 11.048 127.754 11.048C126.676 11.048 126.018 10.488 125.948 9.746H124.632C124.716 11.146 125.976 12.126 127.768 12.126C129.462 12.126 130.568 11.174 130.568 9.914ZM132.646 9.9C132.646 11.44 133.416 12 134.774 12H135.922V10.922H134.984C134.2 10.922 133.92 10.656 133.92 9.9V5.378H135.922V4.328H133.92V2.396H132.646V4.328H131.652V5.378H132.646V9.9ZM140.722 8.136C140.722 10.516 142.304 12.126 144.348 12.126C145.762 12.126 146.756 11.398 147.218 10.572V12H148.506V4.328H147.218V5.728C146.77 4.93 145.79 4.202 144.362 4.202C142.304 4.202 140.722 5.742 140.722 8.136ZM147.218 8.15C147.218 9.956 146.014 11.006 144.614 11.006C143.214 11.006 142.024 9.942 142.024 8.136C142.024 6.33 143.214 5.308 144.614 5.308C146.014 5.308 147.218 6.372 147.218 8.15ZM155.665 5.742V4.328H154.391V15.64H155.665V10.586C156.141 11.37 157.135 12.126 158.535 12.126C160.593 12.126 162.175 10.516 162.175 8.136C162.175 5.742 160.593 4.202 158.535 4.202C157.135 4.202 156.127 4.93 155.665 5.742ZM160.873 8.136C160.873 9.942 159.683 11.006 158.269 11.006C156.883 11.006 155.665 9.956 155.665 8.15C155.665 6.372 156.883 5.308 158.269 5.308C159.683 5.308 160.873 6.33 160.873 8.136ZM163.376 8.136C163.376 10.516 164.958 12.126 167.002 12.126C168.416 12.126 169.41 11.398 169.872 10.572V12H171.16V4.328H169.872V5.728C169.424 4.93 168.444 4.202 167.016 4.202C164.958 4.202 163.376 5.742 163.376 8.136ZM169.872 8.15C169.872 9.956 168.668 11.006 167.268 11.006C165.868 11.006 164.678 9.942 164.678 8.136C164.678 6.33 165.868 5.308 167.268 5.308C168.668 5.308 169.872 6.372 169.872 8.15ZM178.829 9.914C178.773 7.17 174.321 8.164 174.321 6.344C174.321 5.728 174.881 5.28 175.819 5.28C176.841 5.28 177.429 5.84 177.485 6.61H178.759C178.675 5.112 177.555 4.202 175.861 4.202C174.153 4.202 173.047 5.168 173.047 6.344C173.047 9.2 177.583 8.206 177.583 9.914C177.583 10.544 177.023 11.048 176.015 11.048C174.937 11.048 174.279 10.488 174.209 9.746H172.893C172.977 11.146 174.237 12.126 176.029 12.126C177.723 12.126 178.829 11.174 178.829 9.914ZM186.144 9.914C186.088 7.17 181.636 8.164 181.636 6.344C181.636 5.728 182.196 5.28 183.134 5.28C184.156 5.28 184.744 5.84 184.8 6.61H186.074C185.99 5.112 184.87 4.202 183.176 4.202C181.468 4.202 180.362 5.168 180.362 6.344C180.362 9.2 184.898 8.206 184.898 9.914C184.898 10.544 184.338 11.048 183.33 11.048C182.252 11.048 181.594 10.488 181.524 9.746H180.208C180.292 11.146 181.552 12.126 183.344 12.126C185.038 12.126 186.144 11.174 186.144 9.914ZM189.44 12H190.756L192.604 5.91L194.452 12H195.768L198.162 4.328H196.902L195.166 10.782L193.304 4.328H192.002L190.098 10.768L188.334 4.328H187.032L189.44 12ZM206.707 8.15C206.707 5.728 205.013 4.202 202.829 4.202C200.659 4.202 198.951 5.728 198.951 8.15C198.951 10.586 200.603 12.126 202.773 12.126C204.957 12.126 206.707 10.586 206.707 8.15ZM200.253 8.15C200.253 6.218 201.471 5.308 202.815 5.308C204.131 5.308 205.405 6.218 205.405 8.15C205.405 10.096 204.103 11.006 202.773 11.006C201.443 11.006 200.253 10.096 200.253 8.15ZM209.656 7.828C209.656 6.05 210.58 5.504 211.798 5.504H212.134V4.188C210.916 4.188 210.09 4.72 209.656 5.574V4.328H208.382V12H209.656V7.828ZM213.128 8.136C213.128 10.516 214.71 12.126 216.768 12.126C218.168 12.126 219.162 11.412 219.624 10.558V12H220.912V1.64H219.624V5.7C219.092 4.818 217.986 4.202 216.782 4.202C214.71 4.202 213.128 5.742 213.128 8.136ZM219.624 8.15C219.624 9.956 218.42 11.006 217.02 11.006C215.62 11.006 214.43 9.942 214.43 8.136C214.43 6.33 215.62 5.308 217.02 5.308C218.42 5.308 219.624 6.372 219.624 8.15ZM228.072 7.828C228.072 6.05 228.996 5.504 230.214 5.504H230.55V4.188C229.332 4.188 228.506 4.72 228.072 5.574V4.328H226.798V12H228.072V7.828ZM235.282 5.28C236.598 5.28 237.718 6.106 237.704 7.604H232.86C233 6.106 234.036 5.28 235.282 5.28ZM238.866 9.634H237.494C237.214 10.46 236.486 11.048 235.338 11.048C234.036 11.048 232.944 10.194 232.846 8.64H238.978C239.006 8.374 239.02 8.15 239.02 7.87C239.02 5.77 237.564 4.202 235.338 4.202C233.098 4.202 231.544 5.728 231.544 8.15C231.544 10.586 233.154 12.126 235.338 12.126C237.242 12.126 238.474 11.034 238.866 9.634ZM246.218 9.914C246.162 7.17 241.71 8.164 241.71 6.344C241.71 5.728 242.27 5.28 243.208 5.28C244.23 5.28 244.818 5.84 244.874 6.61H246.148C246.064 5.112 244.944 4.202 243.25 4.202C241.542 4.202 240.436 5.168 240.436 6.344C240.436 9.2 244.972 8.206 244.972 9.914C244.972 10.544 244.412 11.048 243.404 11.048C242.326 11.048 241.668 10.488 241.598 9.746H240.282C240.366 11.146 241.626 12.126 243.418 12.126C245.112 12.126 246.218 11.174 246.218 9.914ZM251.278 5.28C252.594 5.28 253.714 6.106 253.7 7.604H248.856C248.996 6.106 250.032 5.28 251.278 5.28ZM254.862 9.634H253.49C253.21 10.46 252.482 11.048 251.334 11.048C250.032 11.048 248.94 10.194 248.842 8.64H254.974C255.002 8.374 255.016 8.15 255.016 7.87C255.016 5.77 253.56 4.202 251.334 4.202C249.094 4.202 247.54 5.728 247.54 8.15C247.54 10.586 249.15 12.126 251.334 12.126C253.238 12.126 254.47 11.034 254.862 9.634ZM256.978 9.9C256.978 11.44 257.748 12 259.106 12H260.254V10.922H259.316C258.532 10.922 258.252 10.656 258.252 9.9V5.378H260.254V4.328H258.252V2.396H256.978V4.328H255.984V5.378H256.978V9.9ZM260.692 14.002H261.546L263.114 10.236H261.714L260.692 14.002ZM268.306 12H269.58V1.64H268.306V12ZM275.013 5.28C276.329 5.28 277.449 6.106 277.435 7.604H272.591C272.731 6.106 273.767 5.28 275.013 5.28ZM278.597 9.634H277.225C276.945 10.46 276.217 11.048 275.069 11.048C273.767 11.048 272.675 10.194 272.577 8.64H278.709C278.737 8.374 278.751 8.15 278.751 7.87C278.751 5.77 277.295 4.202 275.069 4.202C272.829 4.202 271.275 5.728 271.275 8.15C271.275 10.586 272.885 12.126 275.069 12.126C276.973 12.126 278.205 11.034 278.597 9.634ZM280.712 9.9C280.712 11.44 281.482 12 282.84 12H283.988V10.922H283.05C282.266 10.922 281.986 10.656 281.986 9.9V5.378H283.988V4.328H281.986V2.396H280.712V4.328H279.718V5.378H280.712V9.9ZM296.069 4.328H294.795V8.542C294.795 10.194 293.913 11.006 292.597 11.006C291.309 11.006 290.455 10.208 290.455 8.654V4.328H289.195V8.822C289.195 11.02 290.581 12.112 292.345 12.112C293.367 12.112 294.305 11.664 294.795 10.866V12H296.069V4.328ZM303.736 9.914C303.68 7.17 299.228 8.164 299.228 6.344C299.228 5.728 299.788 5.28 300.726 5.28C301.748 5.28 302.336 5.84 302.392 6.61H303.666C303.582 5.112 302.462 4.202 300.768 4.202C299.06 4.202 297.954 5.168 297.954 6.344C297.954 9.2 302.49 8.206 302.49 9.914C302.49 10.544 301.93 11.048 300.922 11.048C299.844 11.048 299.186 10.488 299.116 9.746H297.8C297.884 11.146 299.144 12.126 300.936 12.126C302.63 12.126 303.736 11.174 303.736 9.914ZM309.266 12H310.54V8.612L313.55 12H315.286L311.66 8.15L315.272 4.328H313.494L310.54 7.73V1.64H309.266V12ZM322.086 12H323.346V7.478C323.346 5.28 321.988 4.188 320.21 4.188C319.174 4.188 318.25 4.622 317.746 5.42V4.328H316.472V12H317.746V7.758C317.746 6.106 318.642 5.294 319.944 5.294C321.232 5.294 322.086 6.092 322.086 7.66V12ZM332.707 8.15C332.707 5.728 331.013 4.202 328.829 4.202C326.659 4.202 324.951 5.728 324.951 8.15C324.951 10.586 326.603 12.126 328.773 12.126C330.957 12.126 332.707 10.586 332.707 8.15ZM326.253 8.15C326.253 6.218 327.471 5.308 328.815 5.308C330.131 5.308 331.405 6.218 331.405 8.15C331.405 10.096 330.103 11.006 328.773 11.006C327.443 11.006 326.253 10.096 326.253 8.15ZM335.88 12H337.196L339.044 5.91L340.892 12H342.208L344.602 4.328H343.342L341.606 10.782L339.744 4.328H338.442L336.538 10.768L334.774 4.328H333.472L335.88 12ZM347.112 11.216C347.112 10.726 346.734 10.348 346.272 10.348C345.782 10.348 345.404 10.726 345.404 11.216C345.404 11.706 345.782 12.084 346.272 12.084C346.734 12.084 347.112 11.706 347.112 11.216Z"
          fill="#434343"/>
</svg>
