<svg width="338" height="56" viewBox="0 0 338 56" fill="none" xmlns="http://www.w3.org/2000/svg">
    <path d="M136.004 0.228H132.588V10H136.004C139.126 10 141.156 8.082 141.156 5.128C141.156 2.16 139.126 0.228 136.004 0.228ZM134.548 8.334V1.88H135.934C137.992 1.88 139.154 3.098 139.154 5.128C139.154 7.158 137.992 8.334 135.934 8.334H134.548ZM145.955 3.728C146.963 3.728 147.775 4.372 147.803 5.394H144.121C144.275 4.33 145.017 3.728 145.955 3.728ZM149.637 7.564H147.523C147.271 8.082 146.809 8.502 145.969 8.502C144.989 8.502 144.205 7.858 144.107 6.71H149.777C149.819 6.458 149.833 6.206 149.833 5.954C149.833 3.644 148.251 2.118 146.011 2.118C143.715 2.118 142.119 3.672 142.119 6.122C142.119 8.558 143.757 10.126 146.011 10.126C147.929 10.126 149.217 8.992 149.637 7.564ZM150.76 6.094C150.76 8.516 152.328 10.126 154.288 10.126C155.52 10.126 156.402 9.538 156.864 8.866V10H158.838V2.244H156.864V3.35C156.402 2.706 155.548 2.118 154.302 2.118C152.328 2.118 150.76 3.672 150.76 6.094ZM156.864 6.122C156.864 7.592 155.884 8.404 154.806 8.404C153.756 8.404 152.762 7.564 152.762 6.094C152.762 4.624 153.756 3.84 154.806 3.84C155.884 3.84 156.864 4.652 156.864 6.122ZM162.712 6.136C162.712 4.638 163.412 4.19 164.574 4.19H165.092V2.132C164.014 2.132 163.202 2.65 162.712 3.448V2.244H160.752V10H162.712V6.136ZM169.72 6.262C169.72 8.838 171.484 10.098 173.626 10.098C175.768 10.098 177.616 8.838 177.616 6.262V0.228H175.642V6.276C175.642 7.62 174.914 8.32 173.654 8.32C172.408 8.32 171.68 7.62 171.68 6.276V0.228H169.72V6.262ZM185.53 7.788C185.474 4.946 181.176 5.828 181.176 4.414C181.176 3.966 181.554 3.672 182.282 3.672C183.052 3.672 183.528 4.078 183.584 4.68H185.46C185.348 3.14 184.214 2.118 182.338 2.118C180.42 2.118 179.272 3.154 179.272 4.442C179.272 7.284 183.654 6.402 183.654 7.788C183.654 8.236 183.234 8.586 182.464 8.586C181.68 8.586 181.134 8.138 181.064 7.55H179.09C179.174 8.992 180.532 10.126 182.478 10.126C184.368 10.126 185.53 9.118 185.53 7.788ZM190.471 3.728C191.479 3.728 192.291 4.372 192.319 5.394H188.637C188.791 4.33 189.533 3.728 190.471 3.728ZM194.153 7.564H192.039C191.787 8.082 191.325 8.502 190.485 8.502C189.505 8.502 188.721 7.858 188.623 6.71H194.293C194.335 6.458 194.349 6.206 194.349 5.954C194.349 3.644 192.767 2.118 190.527 2.118C188.231 2.118 186.635 3.672 186.635 6.122C186.635 8.558 188.273 10.126 190.527 10.126C192.445 10.126 193.733 8.992 194.153 7.564ZM197.739 6.136C197.739 4.638 198.439 4.19 199.601 4.19H200.119V2.132C199.041 2.132 198.229 2.65 197.739 3.448V2.244H195.779V10H197.739V6.136ZM200.642 12.016H201.916L203.652 7.844H201.58L200.642 12.016ZM4.1722 48.598V52H6.1322V48.598L9.4362 42.228H7.2522L5.1662 46.694L3.0662 42.228H0.854195L4.1722 48.598ZM18.0566 48.122C18.0566 45.672 16.3066 44.118 14.0666 44.118C11.8266 44.118 10.0766 45.672 10.0766 48.122C10.0766 50.558 11.7706 52.126 14.0106 52.126C16.2646 52.126 18.0566 50.558 18.0566 48.122ZM12.0646 48.122C12.0646 46.568 13.0026 45.826 14.0386 45.826C15.0746 45.826 16.0406 46.568 16.0406 48.122C16.0406 49.662 15.0466 50.418 14.0106 50.418C12.9606 50.418 12.0646 49.662 12.0646 48.122ZM26.8163 44.244H24.8423V48.514C24.8423 49.76 24.1703 50.432 23.1063 50.432C22.0703 50.432 21.3843 49.76 21.3843 48.514V44.244H19.4243V48.794C19.4243 50.922 20.7263 52.098 22.5323 52.098C23.4983 52.098 24.3523 51.678 24.8423 51.02V52H26.8163V44.244ZM30.7102 48.136C30.7102 46.638 31.4102 46.19 32.5722 46.19H33.0902V44.132C32.0122 44.132 31.2002 44.65 30.7102 45.448V44.244H28.7502V52H30.7102V48.136ZM39.7063 45.364V44.244H37.7463V55.696H39.7063V50.894C40.1823 51.524 41.0503 52.126 42.2683 52.126C44.2563 52.126 45.8103 50.516 45.8103 48.094C45.8103 45.672 44.2563 44.118 42.2683 44.118C41.0643 44.118 40.1683 44.706 39.7063 45.364ZM43.8083 48.094C43.8083 49.564 42.8143 50.404 41.7503 50.404C40.7003 50.404 39.7063 49.592 39.7063 48.122C39.7063 46.652 40.7003 45.84 41.7503 45.84C42.8143 45.84 43.8083 46.624 43.8083 48.094ZM46.7306 48.094C46.7306 50.516 48.2986 52.126 50.2586 52.126C51.4906 52.126 52.3726 51.538 52.8346 50.866V52H54.8086V44.244H52.8346V45.35C52.3726 44.706 51.5186 44.118 50.2726 44.118C48.2986 44.118 46.7306 45.672 46.7306 48.094ZM52.8346 48.122C52.8346 49.592 51.8546 50.404 50.7766 50.404C49.7266 50.404 48.7326 49.564 48.7326 48.094C48.7326 46.624 49.7266 45.84 50.7766 45.84C51.8546 45.84 52.8346 46.652 52.8346 48.122ZM62.7428 49.788C62.6868 46.946 58.3888 47.828 58.3888 46.414C58.3888 45.966 58.7668 45.672 59.4948 45.672C60.2648 45.672 60.7408 46.078 60.7968 46.68H62.6728C62.5608 45.14 61.4268 44.118 59.5508 44.118C57.6328 44.118 56.4848 45.154 56.4848 46.442C56.4848 49.284 60.8668 48.402 60.8668 49.788C60.8668 50.236 60.4468 50.586 59.6768 50.586C58.8928 50.586 58.3468 50.138 58.2768 49.55H56.3028C56.3868 50.992 57.7448 52.126 59.6908 52.126C61.5808 52.126 62.7428 51.118 62.7428 49.788ZM70.3717 49.788C70.3157 46.946 66.0177 47.828 66.0177 46.414C66.0177 45.966 66.3957 45.672 67.1237 45.672C67.8937 45.672 68.3697 46.078 68.4257 46.68H70.3017C70.1897 45.14 69.0557 44.118 67.1797 44.118C65.2617 44.118 64.1137 45.154 64.1137 46.442C64.1137 49.284 68.4957 48.402 68.4957 49.788C68.4957 50.236 68.0757 50.586 67.3057 50.586C66.5217 50.586 65.9757 50.138 65.9057 49.55H63.9317C64.0157 50.992 65.3737 52.126 67.3197 52.126C69.2097 52.126 70.3717 51.118 70.3717 49.788ZM73.3946 52H75.5226L76.9366 46.582L78.3506 52H80.4646L82.7326 44.244H80.8566L79.4846 50.138L78.0286 44.244H75.9566L74.4726 50.152L73.1006 44.244H71.1126L73.3946 52ZM91.2831 48.122C91.2831 45.672 89.5331 44.118 87.2931 44.118C85.0531 44.118 83.3031 45.672 83.3031 48.122C83.3031 50.558 84.9971 52.126 87.2371 52.126C89.4911 52.126 91.2831 50.558 91.2831 48.122ZM85.2911 48.122C85.2911 46.568 86.2291 45.826 87.2651 45.826C88.3011 45.826 89.2671 46.568 89.2671 48.122C89.2671 49.662 88.2731 50.418 87.2371 50.418C86.1871 50.418 85.2911 49.662 85.2911 48.122ZM94.6809 48.136C94.6809 46.638 95.3809 46.19 96.5429 46.19H97.0609V44.132C95.9829 44.132 95.1709 44.65 94.6809 45.448V44.244H92.7209V52H94.6809V48.136ZM97.877 48.094C97.877 50.516 99.445 52.126 101.419 52.126C102.637 52.126 103.505 51.566 103.967 50.852V52H105.955V41.64H103.967V45.322C103.435 44.594 102.455 44.118 101.433 44.118C99.445 44.118 97.877 45.672 97.877 48.094ZM103.981 48.122C103.981 49.592 103.001 50.404 101.923 50.404C100.873 50.404 99.879 49.564 99.879 48.094C99.879 46.624 100.873 45.84 101.923 45.84C103.001 45.84 103.981 46.652 103.981 48.122ZM111.205 52H113.165V47.716C113.165 46.47 113.851 45.798 114.915 45.798C115.951 45.798 116.637 46.47 116.637 47.716V52H118.597V47.45C118.597 45.308 117.323 44.132 115.573 44.132C114.537 44.132 113.669 44.552 113.165 45.21V41.64H111.205V52ZM119.957 48.094C119.957 50.516 121.525 52.126 123.485 52.126C124.717 52.126 125.599 51.538 126.061 50.866V52H128.035V44.244H126.061V45.35C125.599 44.706 124.745 44.118 123.499 44.118C121.525 44.118 119.957 45.672 119.957 48.094ZM126.061 48.122C126.061 49.592 125.081 50.404 124.003 50.404C122.953 50.404 121.959 49.564 121.959 48.094C121.959 46.624 122.953 45.84 124.003 45.84C125.081 45.84 126.061 46.652 126.061 48.122ZM135.969 49.788C135.913 46.946 131.615 47.828 131.615 46.414C131.615 45.966 131.993 45.672 132.721 45.672C133.491 45.672 133.967 46.078 134.023 46.68H135.899C135.787 45.14 134.653 44.118 132.777 44.118C130.859 44.118 129.711 45.154 129.711 46.442C129.711 49.284 134.093 48.402 134.093 49.788C134.093 50.236 133.673 50.586 132.903 50.586C132.119 50.586 131.573 50.138 131.503 49.55H129.529C129.613 50.992 130.971 52.126 132.917 52.126C134.807 52.126 135.969 51.118 135.969 49.788ZM142.874 45.378V41.64H140.914V52H142.874V50.894C143.35 51.566 144.218 52.126 145.436 52.126C147.424 52.126 148.978 50.516 148.978 48.094C148.978 45.672 147.424 44.118 145.436 44.118C144.26 44.118 143.35 44.664 142.874 45.378ZM146.976 48.094C146.976 49.564 145.982 50.404 144.918 50.404C143.868 50.404 142.874 49.592 142.874 48.122C142.874 46.652 143.868 45.84 144.918 45.84C145.982 45.84 146.976 46.624 146.976 48.094ZM153.735 45.728C154.743 45.728 155.555 46.372 155.583 47.394H151.901C152.055 46.33 152.797 45.728 153.735 45.728ZM157.417 49.564H155.303C155.051 50.082 154.589 50.502 153.749 50.502C152.769 50.502 151.985 49.858 151.887 48.71H157.557C157.599 48.458 157.613 48.206 157.613 47.954C157.613 45.644 156.031 44.118 153.791 44.118C151.495 44.118 149.899 45.672 149.899 48.122C149.899 50.558 151.537 52.126 153.791 52.126C155.709 52.126 156.997 50.992 157.417 49.564ZM162.375 45.728C163.383 45.728 164.195 46.372 164.223 47.394H160.541C160.695 46.33 161.437 45.728 162.375 45.728ZM166.057 49.564H163.943C163.691 50.082 163.229 50.502 162.389 50.502C161.409 50.502 160.625 49.858 160.527 48.71H166.197C166.239 48.458 166.253 48.206 166.253 47.954C166.253 45.644 164.671 44.118 162.431 44.118C160.135 44.118 158.539 45.672 158.539 48.122C158.539 50.558 160.177 52.126 162.431 52.126C164.349 52.126 165.637 50.992 166.057 49.564ZM173.116 52H175.076V47.45C175.076 45.308 173.788 44.132 171.982 44.132C170.988 44.132 170.148 44.552 169.644 45.21V44.244H167.684V52H169.644V47.716C169.644 46.47 170.33 45.798 171.394 45.798C172.43 45.798 173.116 46.47 173.116 47.716V52ZM179.772 48.122C179.772 50.558 181.368 52.126 183.608 52.126C185.54 52.126 186.842 51.034 187.262 49.382H185.148C184.91 50.082 184.406 50.446 183.594 50.446C182.502 50.446 181.774 49.634 181.774 48.122C181.774 46.61 182.502 45.784 183.594 45.784C184.406 45.784 184.924 46.204 185.148 46.862H187.262C186.842 45.126 185.54 44.118 183.608 44.118C181.368 44.118 179.772 45.686 179.772 48.122ZM188.697 52H190.657V47.716C190.657 46.47 191.343 45.798 192.407 45.798C193.443 45.798 194.129 46.47 194.129 47.716V52H196.089V47.45C196.089 45.308 194.815 44.132 193.065 44.132C192.029 44.132 191.161 44.552 190.657 45.21V41.64H188.697V52ZM197.449 48.094C197.449 50.516 199.017 52.126 200.977 52.126C202.209 52.126 203.091 51.538 203.553 50.866V52H205.527V44.244H203.553V45.35C203.091 44.706 202.237 44.118 200.991 44.118C199.017 44.118 197.449 45.672 197.449 48.094ZM203.553 48.122C203.553 49.592 202.573 50.404 201.495 50.404C200.445 50.404 199.451 49.564 199.451 48.094C199.451 46.624 200.445 45.84 201.495 45.84C202.573 45.84 203.553 46.652 203.553 48.122ZM212.874 52H214.834V47.45C214.834 45.308 213.546 44.132 211.74 44.132C210.746 44.132 209.906 44.552 209.402 45.21V44.244H207.442V52H209.402V47.716C209.402 46.47 210.088 45.798 211.152 45.798C212.188 45.798 212.874 46.47 212.874 47.716V52ZM216.193 48.094C216.193 50.516 217.761 52.126 219.735 52.126C220.953 52.126 221.835 51.524 222.297 50.852V52.056C222.297 53.498 221.457 54.114 220.379 54.114C219.399 54.114 218.671 53.652 218.475 52.952H216.529C216.725 54.73 218.251 55.822 220.435 55.822C222.983 55.822 224.271 54.156 224.271 52.056V44.244H222.297V45.35C221.835 44.678 220.953 44.118 219.735 44.118C217.761 44.118 216.193 45.672 216.193 48.094ZM222.297 48.122C222.297 49.592 221.317 50.404 220.239 50.404C219.189 50.404 218.195 49.564 218.195 48.094C218.195 46.624 219.189 45.84 220.239 45.84C221.317 45.84 222.297 46.652 222.297 48.122ZM229.518 45.728C230.526 45.728 231.338 46.372 231.366 47.394H227.684C227.838 46.33 228.58 45.728 229.518 45.728ZM233.2 49.564H231.086C230.834 50.082 230.372 50.502 229.532 50.502C228.552 50.502 227.768 49.858 227.67 48.71H233.34C233.382 48.458 233.396 48.206 233.396 47.954C233.396 45.644 231.814 44.118 229.574 44.118C227.278 44.118 225.682 45.672 225.682 48.122C225.682 50.558 227.32 52.126 229.574 52.126C231.492 52.126 232.78 50.992 233.2 49.564ZM234.322 48.094C234.322 50.516 235.89 52.126 237.864 52.126C239.082 52.126 239.95 51.566 240.412 50.852V52H242.4V41.64H240.412V45.322C239.88 44.594 238.9 44.118 237.878 44.118C235.89 44.118 234.322 45.672 234.322 48.094ZM240.426 48.122C240.426 49.592 239.446 50.404 238.368 50.404C237.318 50.404 236.324 49.564 236.324 48.094C236.324 46.624 237.318 45.84 238.368 45.84C239.446 45.84 240.426 46.652 240.426 48.122ZM253.671 49.788C253.615 46.946 249.317 47.828 249.317 46.414C249.317 45.966 249.695 45.672 250.423 45.672C251.193 45.672 251.669 46.078 251.725 46.68H253.601C253.489 45.14 252.355 44.118 250.479 44.118C248.561 44.118 247.413 45.154 247.413 46.442C247.413 49.284 251.795 48.402 251.795 49.788C251.795 50.236 251.375 50.586 250.605 50.586C249.821 50.586 249.275 50.138 249.205 49.55H247.231C247.315 50.992 248.673 52.126 250.619 52.126C252.509 52.126 253.671 51.118 253.671 49.788ZM262.601 44.244H260.627V48.514C260.627 49.76 259.955 50.432 258.891 50.432C257.855 50.432 257.169 49.76 257.169 48.514V44.244H255.209V48.794C255.209 50.922 256.511 52.098 258.317 52.098C259.283 52.098 260.137 51.678 260.627 51.02V52H262.601V44.244ZM264.031 48.122C264.031 50.558 265.627 52.126 267.867 52.126C269.799 52.126 271.101 51.034 271.521 49.382H269.407C269.169 50.082 268.665 50.446 267.853 50.446C266.761 50.446 266.033 49.634 266.033 48.122C266.033 46.61 266.761 45.784 267.853 45.784C268.665 45.784 269.183 46.204 269.407 46.862H271.521C271.101 45.126 269.799 44.118 267.867 44.118C265.627 44.118 264.031 45.686 264.031 48.122ZM272.453 48.122C272.453 50.558 274.049 52.126 276.289 52.126C278.221 52.126 279.523 51.034 279.943 49.382H277.829C277.591 50.082 277.087 50.446 276.275 50.446C275.183 50.446 274.455 49.634 274.455 48.122C274.455 46.61 275.183 45.784 276.275 45.784C277.087 45.784 277.605 46.204 277.829 46.862H279.943C279.523 45.126 278.221 44.118 276.289 44.118C274.049 44.118 272.453 45.686 272.453 48.122ZM284.711 45.728C285.719 45.728 286.531 46.372 286.559 47.394H282.877C283.031 46.33 283.773 45.728 284.711 45.728ZM288.393 49.564H286.279C286.027 50.082 285.565 50.502 284.725 50.502C283.745 50.502 282.961 49.858 282.863 48.71H288.533C288.575 48.458 288.589 48.206 288.589 47.954C288.589 45.644 287.007 44.118 284.767 44.118C282.471 44.118 280.875 45.672 280.875 48.122C280.875 50.558 282.513 52.126 284.767 52.126C286.685 52.126 287.973 50.992 288.393 49.564ZM296.04 49.788C295.984 46.946 291.686 47.828 291.686 46.414C291.686 45.966 292.064 45.672 292.792 45.672C293.562 45.672 294.038 46.078 294.094 46.68H295.97C295.858 45.14 294.724 44.118 292.848 44.118C290.93 44.118 289.782 45.154 289.782 46.442C289.782 49.284 294.164 48.402 294.164 49.788C294.164 50.236 293.744 50.586 292.974 50.586C292.19 50.586 291.644 50.138 291.574 49.55H289.6C289.684 50.992 291.042 52.126 292.988 52.126C294.878 52.126 296.04 51.118 296.04 49.788ZM303.669 49.788C303.613 46.946 299.315 47.828 299.315 46.414C299.315 45.966 299.693 45.672 300.421 45.672C301.191 45.672 301.667 46.078 301.723 46.68H303.599C303.487 45.14 302.353 44.118 300.477 44.118C298.559 44.118 297.411 45.154 297.411 46.442C297.411 49.284 301.793 48.402 301.793 49.788C301.793 50.236 301.373 50.586 300.603 50.586C299.819 50.586 299.273 50.138 299.203 49.55H297.229C297.313 50.992 298.671 52.126 300.617 52.126C302.507 52.126 303.669 51.118 303.669 49.788ZM305.488 52H307.476V45.854H308.834V44.244H307.476V43.922C307.476 43.054 307.798 42.746 308.75 42.774V41.122C306.566 41.066 305.488 41.948 305.488 43.852V44.244H304.606V45.854H305.488V52ZM317.426 44.244H315.452V48.514C315.452 49.76 314.78 50.432 313.716 50.432C312.68 50.432 311.994 49.76 311.994 48.514V44.244H310.034V48.794C310.034 50.922 311.336 52.098 313.142 52.098C314.108 52.098 314.962 51.678 315.452 51.02V52H317.426V44.244ZM319.36 52H321.32V41.64H319.36V52ZM323.256 52H325.216V41.64H323.256V52ZM330.457 49.662L328.455 44.244H326.257L329.365 51.804L327.685 55.668H329.771L334.573 44.244H332.487L330.457 49.662ZM337.687 50.95C337.687 50.306 337.183 49.802 336.497 49.802C335.783 49.802 335.279 50.306 335.279 50.95C335.279 51.594 335.783 52.098 336.497 52.098C337.183 52.098 337.687 51.594 337.687 50.95Z"
          fill="#434343"/>
</svg>
