<svg width="214" height="145" viewBox="0 0 214 145" fill="none" xmlns="http://www.w3.org/2000/svg">
    <circle cx="166.14" cy="22.3242" r="8.2286" transform="rotate(13.6637 166.14 22.3242)" fill="#3F3D56"/>
    <circle cx="171.811" cy="96.5299" r="8.2286" transform="rotate(13.6637 171.811 96.5299)" fill="#3F3D56"/>
    <circle cx="127.76" cy="12.9938" r="8.2286" transform="rotate(13.6637 127.76 12.9938)" fill="#3F3D56"/>
    <path d="M156.516 20.3444L156.554 20.3632L156.594 20.3736C156.82 20.4316 157.191 20.6036 157.692 20.8906C158.183 21.1719 158.77 21.5459 159.417 21.9828C160.71 22.8562 162.229 23.9695 163.681 25.068C165.132 26.1658 166.514 27.246 167.533 28.0519C168.042 28.4548 168.461 28.789 168.752 29.0224C168.883 29.127 168.987 29.2113 169.063 29.2725L169.217 53.079L169.217 53.1309L169.231 53.1808L169.606 53.0765C169.231 53.1808 169.231 53.1809 169.231 53.1812L169.232 53.1828L169.234 53.1898L169.241 53.2185C169.248 53.2442 169.259 53.2828 169.273 53.334C169.3 53.4365 169.34 53.5896 169.391 53.7903C169.494 54.1918 169.64 54.7843 169.814 55.5458C170.163 57.0687 170.626 59.2672 171.078 61.965C171.982 67.3619 172.843 74.7508 172.675 82.7251C172.34 98.6954 167.884 116.889 151.543 126.247C135.199 135.607 118.225 130.763 105.847 121.243C99.6595 116.484 94.6404 110.569 91.4484 104.714C88.2499 98.8458 86.9148 93.0932 87.9986 88.6351C90.2226 79.4865 95.7658 65.8953 100.765 54.5691C103.263 48.9109 105.621 43.8261 107.355 40.1559C108.222 38.3209 108.933 36.8396 109.427 35.8172C109.674 35.3061 109.867 34.9096 109.998 34.6411C110.063 34.5068 110.113 34.4045 110.147 34.3358L110.185 34.2582L110.194 34.2404L110.195 34.2376L110.213 34.2051L110.284 34.0774C110.347 33.9653 110.439 33.8005 110.557 33.5898C110.794 33.1684 111.136 32.5639 111.558 31.8316C112.402 30.3667 113.563 28.392 114.834 26.3513C116.105 24.3095 117.482 22.207 118.758 20.4841C119.396 19.6226 120.005 18.8607 120.56 18.2507C121.12 17.6356 121.607 17.1955 121.998 16.9573C122.815 16.4599 124.053 16.0909 125.489 15.8257C126.917 15.5622 128.501 15.4076 129.984 15.3191C131.466 15.2307 132.84 15.2087 133.844 15.2089C134.345 15.209 134.754 15.2146 135.037 15.2202C135.179 15.223 135.288 15.2258 135.363 15.2278L135.444 15.2303L135.465 15.2343L135.616 15.2645C135.749 15.291 135.944 15.33 136.194 15.3804C136.693 15.481 137.41 15.6266 138.28 15.8062C140.02 16.1655 142.373 16.661 144.824 17.2057C147.275 17.7507 149.822 18.3443 151.951 18.9C154.096 19.46 155.772 19.9706 156.516 20.3444Z"
          fill="white" stroke="#3F3D56" stroke-width="0.779011"/>
    <path d="M157.11 49.0113C160.201 49.7628 163.229 48.2241 163.873 45.5745C164.517 42.925 162.533 40.1679 159.442 39.4164C156.351 38.665 153.323 40.2037 152.679 42.8532C152.035 45.5028 154.019 48.2598 157.11 49.0113Z"
          fill="#3F3D56"/>
    <path d="M123.528 40.8474C126.619 41.5989 129.647 40.0602 130.291 37.4106C130.935 34.7611 128.951 32.004 125.86 31.2525C122.769 30.5011 119.741 32.0398 119.097 34.6893C118.453 37.3389 120.436 40.096 123.528 40.8474Z"
          fill="#3F3D56"/>
    <path d="M140.486 46.6465C142.827 47.2155 145.032 46.4102 145.412 44.8477C145.792 43.2852 144.202 41.5573 141.861 40.9882C139.521 40.4192 137.315 41.2245 136.935 42.787C136.555 44.3495 138.145 46.0774 140.486 46.6465Z"
          fill="#3F3D56"/>
    <path d="M132.721 66.2601C129.02 65.3638 124.382 64.3026 119.188 62.5692C111.682 60.0646 104.13 56.9044 100.883 53.8835L104.926 44.7633C110.349 49.6639 116.343 53.7208 123.023 56.6871C134.51 62.2019 150.592 64.5081 170.768 59.0173L172.433 69.5841C157.036 71.7702 142.364 68.6042 132.721 66.2601Z"
          fill="#3F3D56"/>
    <path d="M121.281 35.8203C122.56 34.7261 125.894 34.3424 127.418 36.9608" stroke="white" stroke-width="1.16852"
          stroke-linejoin="round"/>
    <path d="M161.401 45.5732C160.767 44.0142 157.981 42.1428 155.426 43.7694" stroke="white" stroke-width="1.16852"
          stroke-linejoin="round"/>
    <path d="M81.4843 46.3719C72.824 45.6142 65.4131 49.4522 64.9325 54.9453C64.8541 55.8418 64.9686 56.7249 65.2463 57.5811C66.6722 61.9754 72.4961 65.6286 79.7441 66.2628C86.9921 66.8969 93.3619 64.3104 95.5292 60.2306C95.9514 59.4356 96.2175 58.5857 96.2959 57.6893C96.7765 52.1961 90.1446 47.1295 81.4843 46.3719Z"
          fill="#FFFEF4"/>
    <path d="M81.4843 46.3719C72.824 45.6142 65.5138 48.3015 65.1574 52.3751C65.0992 53.0399 65.2333 53.6991 65.5297 54.3419C67.0514 57.6412 72.9458 60.4882 80.1938 61.1223C87.4419 61.7564 93.7411 59.9762 95.8126 56.9913C96.2161 56.4097 96.4627 55.7838 96.5208 55.119C96.8772 51.0455 90.1446 47.1295 81.4843 46.3719Z"
          fill="#2757D2"/>
    <path d="M80.017 63.1429C72.769 62.5088 66.8746 59.6618 65.3529 56.3626C64.9494 56.9442 64.7028 57.5701 64.6447 58.2349C64.2883 62.3084 71.0209 66.2244 79.6812 66.9821C88.3415 67.7397 95.6517 65.0524 96.0081 60.9788C96.0663 60.314 95.9321 59.6548 95.6358 59.012C93.5643 61.9968 87.2651 63.777 80.017 63.1429Z"
          fill="#2757D2"/>
    <path d="M102.74 40.0001C94.0465 40.0001 86.9983 44.4694 86.9983 49.9836C86.9983 50.8834 87.1894 51.7532 87.5406 52.582C89.3441 56.8352 95.4642 59.967 102.74 59.967C110.016 59.967 116.136 56.8352 117.939 52.582C118.29 51.7532 118.482 50.8834 118.482 49.9836C118.482 44.4694 111.433 40.0001 102.74 40.0001Z"
          fill="#FFFEF4"/>
    <path d="M102.74 40.0001C94.0465 40.0001 86.9983 43.3144 86.9983 47.4035C86.9983 48.0708 87.1894 48.7158 87.5406 49.3304C89.3441 52.4845 95.4642 54.8069 102.74 54.8069C110.016 54.8069 116.136 52.4845 117.939 49.3304C118.29 48.7158 118.482 48.0708 118.482 47.4035C118.482 43.3144 111.433 40.0001 102.74 40.0001Z"
          fill="#AFE3FF"/>
    <path d="M102.74 56.8351C95.4642 56.8351 89.3441 54.5127 87.5406 51.3586C87.1894 51.9732 86.9983 52.6182 86.9983 53.2856C86.9983 57.3747 94.0465 60.6889 102.74 60.6889C111.433 60.6889 118.482 57.3747 118.482 53.2856C118.482 52.6182 118.29 51.9732 117.939 51.3586C116.136 54.5127 110.016 56.8351 102.74 56.8351Z"
          fill="#AFE3FF"/>
    <path d="M41.4842 90.3719C32.8239 89.6142 25.413 93.4522 24.9324 98.9453C24.8539 99.8418 24.9685 100.725 25.2462 101.581C26.6721 105.975 32.4959 109.629 39.744 110.263C46.992 110.897 53.3618 108.31 55.5291 104.231C55.9512 103.436 56.2174 102.586 56.2958 101.689C56.7764 96.1961 50.1445 91.1295 41.4842 90.3719Z"
          fill="#FFFEF4"/>
    <path d="M41.4842 90.3719C32.8239 89.6142 25.5136 92.3015 25.1572 96.3751C25.0991 97.0399 25.2332 97.6991 25.5296 98.3419C27.0513 101.641 32.9457 104.488 40.1937 105.122C47.4418 105.756 53.741 103.976 55.8125 100.991C56.216 100.41 56.4625 99.7838 56.5207 99.119C56.8771 95.0455 50.1445 91.1295 41.4842 90.3719Z"
          fill="#2757D2"/>
    <path d="M40.0169 107.143C32.7689 106.509 26.8745 103.662 25.3527 100.363C24.9493 100.944 24.7027 101.57 24.6446 102.235C24.2882 106.308 31.0207 110.224 39.681 110.982C48.3413 111.74 55.6516 109.052 56.008 104.979C56.0662 104.314 55.932 103.655 55.6357 103.012C53.5642 105.997 47.265 107.777 40.0169 107.143Z"
          fill="#2757D2"/>
    <path d="M178.291 119C169.846 119 162.999 123.43 162.999 128.895C162.999 129.787 163.185 130.649 163.526 131.47C165.278 135.686 171.223 138.789 178.291 138.789C185.359 138.789 191.304 135.686 193.056 131.47C193.397 130.649 193.583 129.787 193.583 128.895C193.583 123.43 186.736 119 178.291 119Z"
          fill="#FFFEF4"/>
    <path d="M178.741 119C170.048 119 162.999 122.314 162.999 126.403C162.999 127.071 163.19 127.716 163.542 128.33C165.345 131.484 171.465 133.807 178.741 133.807C186.017 133.807 192.137 131.484 193.94 128.33C194.291 127.716 194.483 127.071 194.483 126.403C194.483 122.314 187.434 119 178.741 119Z"
          fill="#2757D2"/>
    <path d="M178.741 135.835C171.465 135.835 165.345 133.513 163.542 130.359C163.19 130.973 162.999 131.618 162.999 132.285C162.999 136.375 170.048 139.689 178.741 139.689C187.434 139.689 194.483 136.375 194.483 132.285C194.483 131.618 194.291 130.973 193.94 130.359C192.137 133.513 186.017 135.835 178.741 135.835Z"
          fill="#2757D2"/>
    <g clip-path="url(#clip0_1144_12)">
        <path d="M39.6799 121.372C31.2439 122.11 24.7939 127.161 25.2745 132.654C25.353 133.55 25.6142 134.401 26.0273 135.196C28.148 139.28 34.3598 141.881 41.4201 141.263C48.4803 140.645 54.1463 137.006 55.5256 132.616C55.7942 131.76 55.9038 130.878 55.8254 129.981C55.3448 124.488 48.1158 120.634 39.6799 121.372Z"
              fill="#FFFEF4"/>
        <path d="M39.681 121.372C31.0207 122.13 24.2881 126.046 24.6445 130.119C24.7027 130.784 24.9492 131.41 25.3527 131.991C27.4242 134.976 33.7234 136.756 40.9715 136.122C48.2195 135.488 54.1139 132.641 55.6357 129.342C55.932 128.699 56.0661 128.04 56.008 127.375C55.6516 123.302 48.3413 120.614 39.681 121.372Z"
              fill="#0CC88F"/>
        <path d="M41.1483 138.143C33.9002 138.777 27.601 136.997 25.5295 134.012C25.2332 134.655 25.099 135.314 25.1572 135.979C25.5136 140.052 32.8239 142.74 41.4842 141.982C50.1445 141.224 56.877 137.308 56.5206 133.235C56.4625 132.57 56.2159 131.944 55.8125 131.363C54.2907 134.662 48.3963 137.509 41.1483 138.143Z"
              fill="#0CC88F"/>
    </g>
    <path d="M67.7402 61.0001C59.0468 61.0001 51.9985 65.4694 51.9985 70.9836C51.9985 71.8834 52.1896 72.7532 52.5408 73.582C54.3443 77.8352 60.4644 80.967 67.7402 80.967C75.0159 80.967 81.136 77.8352 82.9395 73.582C83.2907 72.7532 83.4818 71.8834 83.4818 70.9836C83.4818 65.4694 76.4335 61.0001 67.7402 61.0001Z"
          fill="#FFFEF4"/>
    <path d="M67.7402 61.0001C59.0468 61.0001 51.9985 64.3144 51.9985 68.4035C51.9985 69.0708 52.1896 69.7158 52.5408 70.3304C54.3443 73.4845 60.4644 75.8069 67.7402 75.8069C75.0159 75.8069 81.136 73.4845 82.9395 70.3304C83.2907 69.7158 83.4818 69.0708 83.4818 68.4035C83.4818 64.3144 76.4335 61.0001 67.7402 61.0001Z"
          fill="#AFE3FF"/>
    <path d="M67.7402 77.8351C60.4644 77.8351 54.3443 75.5127 52.5408 72.3586C52.1896 72.9732 51.9985 73.6182 51.9985 74.2856C51.9985 78.3747 59.0468 81.6889 67.7402 81.6889C76.4335 81.6889 83.4818 78.3747 83.4818 74.2856C83.4818 73.6182 83.2907 72.9732 82.9395 72.3586C81.136 75.5127 75.0159 77.8351 67.7402 77.8351Z"
          fill="#AFE3FF"/>
    <g clip-path="url(#clip1_1144_12)">
        <path d="M176.702 99.098C168.255 99.6887 161.718 104.626 162.102 110.127C162.165 111.024 162.411 111.879 162.81 112.682C164.86 116.802 171.025 119.511 178.095 119.016C185.165 118.522 190.894 114.982 192.349 110.616C192.633 109.766 192.758 108.885 192.695 107.988C192.31 102.487 185.15 98.5073 176.702 99.098Z"
              fill="#FFFEF4"/>
        <path d="M176.703 99.0978C168.031 99.7043 161.231 103.502 161.516 107.581C161.563 108.247 161.798 108.877 162.192 109.466C164.211 112.486 170.478 114.376 177.736 113.869C184.994 113.361 190.937 110.617 192.516 107.345C192.824 106.708 192.969 106.051 192.923 105.385C192.638 101.306 185.375 98.4914 176.703 99.0978Z"
              fill="#0CC88F"/>
        <path d="M177.877 115.892C170.619 116.399 164.352 114.51 162.333 111.489C162.026 112.127 161.88 112.783 161.927 113.449C162.212 117.528 169.474 120.343 178.146 119.736C186.818 119.13 193.618 115.332 193.333 111.253C193.287 110.587 193.051 109.957 192.658 109.369C191.079 112.641 185.135 115.384 177.877 115.892Z"
              fill="#0CC88F"/>
    </g>
    <path d="M31.4843 103.372C22.824 102.614 15.4131 106.452 14.9325 111.945C14.8541 112.842 14.9686 113.725 15.2463 114.581C16.6722 118.975 22.4961 122.629 29.7441 123.263C36.9921 123.897 43.3619 121.311 45.5292 117.231C45.9513 116.436 46.2175 115.586 46.2959 114.689C46.7765 109.196 40.1446 104.13 31.4843 103.372Z"
          fill="#FFFEF4"/>
    <path d="M31.4843 103.372C22.824 102.614 15.5138 105.302 15.1574 109.375C15.0992 110.04 15.2333 110.699 15.5297 111.342C17.0514 114.641 22.9458 117.488 30.1938 118.122C37.4419 118.757 43.7411 116.976 45.8126 113.991C46.2161 113.41 46.4626 112.784 46.5208 112.119C46.8772 108.046 40.1446 104.13 31.4843 103.372Z"
          fill="#AFE3FF"/>
    <path d="M30.017 120.143C22.769 119.509 16.8746 116.662 15.3529 113.363C14.9494 113.944 14.7028 114.57 14.6447 115.235C14.2883 119.309 21.0209 123.225 29.6812 123.982C38.3415 124.74 45.6517 122.052 46.0081 117.979C46.0663 117.314 45.9321 116.655 45.6358 116.012C43.5643 118.997 37.2651 120.777 30.017 120.143Z"
          fill="#AFE3FF"/>
    <path d="M139.484 71.3762C130.824 70.6185 123.413 74.4565 122.932 79.9497C122.854 80.8461 122.969 81.7293 123.246 82.5855C124.672 86.9797 130.496 90.633 137.744 91.2671C144.992 91.9012 151.362 89.3147 153.529 85.2349C153.951 84.4399 154.218 83.5901 154.296 82.6936C154.777 77.2005 148.145 72.1339 139.484 71.3762Z"
          fill="#FFFEF4"/>
    <path d="M139.484 71.3762C130.824 70.6185 123.514 73.3059 123.157 77.3794C123.099 78.0442 123.233 78.7034 123.53 79.3463C125.051 82.6455 130.946 85.4925 138.194 86.1266C145.442 86.7607 151.741 84.9805 153.813 81.9957C154.216 81.414 154.463 80.7881 154.521 80.1234C154.877 76.0498 148.145 72.1339 139.484 71.3762Z"
          fill="#2757D2"/>
    <path d="M138.017 88.1472C130.769 87.5131 124.875 84.6661 123.353 81.3669C122.949 81.9485 122.703 82.5744 122.645 83.2392C122.288 87.3128 129.021 91.2287 137.681 91.9864C146.341 92.7441 153.652 90.0567 154.008 85.9832C154.066 85.3184 153.932 84.6592 153.636 84.0163C151.564 87.0012 145.265 88.7814 138.017 88.1472Z"
          fill="#2757D2"/>
    <g clip-path="url(#clip2_1144_12)">
        <path d="M62.68 82.376C54.244 83.114 47.7941 88.1647 48.2747 93.6579C48.3531 94.5543 48.6143 95.4046 49.0274 96.2004C51.1481 100.284 57.36 102.885 64.4202 102.267C71.4805 101.649 77.1464 98.0097 78.5257 93.6196C78.7943 92.7642 78.904 91.8815 78.8255 90.985C78.3449 85.4918 71.1159 81.6379 62.68 82.376Z"
              fill="#FFFEF4"/>
        <path d="M62.6811 82.3758C54.0208 83.1335 47.2882 87.0495 47.6446 91.123C47.7028 91.7878 47.9494 92.4137 48.3528 92.9953C50.4243 95.9802 56.7236 97.7604 63.9716 97.1263C71.2196 96.4921 77.1141 93.6451 78.6358 90.3459C78.9321 89.7031 79.0662 89.0438 79.0081 88.3791C78.6517 84.3055 71.3414 81.6182 62.6811 82.3758Z"
              fill="#0CC88F"/>
        <path d="M64.1484 99.1468C56.9004 99.781 50.6011 98.0008 48.5296 95.0159C48.2333 95.6588 48.0992 96.318 48.1573 96.9827C48.5137 101.056 55.824 103.744 64.4843 102.986C73.1446 102.228 79.8772 98.3123 79.5208 94.2388C79.4626 93.574 79.216 92.9481 78.8126 92.3665C77.2909 95.6657 71.3964 98.5127 64.1484 99.1468Z"
              fill="#0CC88F"/>
    </g>
    <path d="M113.741 81.0045C105.048 81.0045 97.9994 85.4738 97.9994 90.988C97.9994 91.8878 98.1905 92.7576 98.5417 93.5864C100.345 97.8396 106.465 100.971 113.741 100.971C121.017 100.971 127.137 97.8396 128.94 93.5864C129.292 92.7576 129.483 91.8878 129.483 90.988C129.483 85.4738 122.434 81.0045 113.741 81.0045Z"
          fill="#FFFEF4"/>
    <path d="M113.741 81.0045C105.048 81.0045 97.9994 84.3188 97.9994 88.4079C97.9994 89.0752 98.1905 89.7202 98.5417 90.3348C100.345 93.4889 106.465 95.8113 113.741 95.8113C121.017 95.8113 127.137 93.4889 128.94 90.3348C129.292 89.7202 129.483 89.0752 129.483 88.4079C129.483 84.3188 122.434 81.0045 113.741 81.0045Z"
          fill="#AFE3FF"/>
    <path d="M113.741 97.8395C106.465 97.8395 100.345 95.5171 98.5417 92.363C98.1905 92.9776 97.9994 93.6226 97.9994 94.2899C97.9994 98.379 105.048 101.693 113.741 101.693C122.434 101.693 129.483 98.379 129.483 94.2899C129.483 93.6226 129.292 92.9776 128.94 92.363C127.137 95.5171 121.017 97.8395 113.741 97.8395Z"
          fill="#AFE3FF"/>
    <path d="M90.2913 71.0044C81.8463 71.0044 74.9994 75.434 74.9994 80.8991C74.9994 81.791 75.185 82.6531 75.5262 83.4745C77.2781 87.6899 83.2234 90.7939 90.2913 90.7939C97.3591 90.7939 103.304 87.6899 105.056 83.4745C105.397 82.6531 105.583 81.791 105.583 80.8991C105.583 75.434 98.7363 71.0044 90.2913 71.0044Z"
          fill="#FFFEF4"/>
    <path d="M90.741 71.0044C82.0476 71.0044 74.9994 74.3187 74.9994 78.4078C74.9994 79.0751 75.1905 79.7201 75.5417 80.3347C77.3452 83.4887 83.4653 85.8112 90.741 85.8112C98.0167 85.8112 104.137 83.4887 105.94 80.3347C106.292 79.7201 106.483 79.0751 106.483 78.4078C106.483 74.3187 99.4344 71.0044 90.741 71.0044Z"
          fill="#2757D2"/>
    <path d="M90.741 87.8395C83.4653 87.8395 77.3452 85.517 75.5417 82.363C75.1905 82.9776 74.9994 83.6226 74.9994 84.2899C74.9994 88.379 82.0476 91.6933 90.741 91.6933C99.4344 91.6933 106.483 88.379 106.483 84.2899C106.483 83.6226 106.292 82.9776 105.94 82.363C104.137 85.517 98.0167 87.8395 90.741 87.8395Z"
          fill="#2757D2"/>
    <g clip-path="url(#clip3_1144_12)">
        <path d="M98.7022 56.0982C90.2547 56.6889 83.7175 61.6262 84.1022 67.1269C84.1649 68.0246 84.4113 68.8793 84.8104 69.6822C86.8596 73.8025 93.0251 76.5108 100.095 76.0164C107.165 75.522 112.894 71.982 114.349 67.6166C114.633 66.766 114.758 65.8853 114.695 64.9876C114.31 59.4869 107.15 55.5074 98.7022 56.0982Z"
              fill="#FFFEF4"/>
        <path d="M98.703 56.098C90.0308 56.7044 83.2309 60.5023 83.5162 64.5814C83.5627 65.2471 83.7984 65.8772 84.1916 66.4658C86.2107 69.4863 92.4779 71.3762 99.7359 70.8687C106.994 70.3611 112.937 67.6174 114.516 64.3453C114.824 63.7077 114.969 63.0509 114.923 62.3852C114.638 58.3061 107.375 55.4915 98.703 56.098Z"
              fill="#0CC88F"/>
        <path d="M99.8774 72.892C92.6194 73.3996 86.3522 71.5097 84.3331 68.4891C84.0256 69.1267 83.88 69.7835 83.9265 70.4492C84.2118 74.5283 91.474 77.3429 100.146 76.7365C108.818 76.13 115.618 72.3322 115.333 68.253C115.287 67.5873 115.051 66.9572 114.658 66.3686C113.079 69.6408 107.135 72.3845 99.8774 72.892Z"
              fill="#0CC88F"/>
    </g>
    <path d="M120.484 62.3763C111.824 61.6186 104.413 65.4566 103.932 70.9498C103.854 71.8462 103.969 72.7294 104.246 73.5856C105.672 77.9798 111.496 81.6331 118.744 82.2672C125.992 82.9013 132.362 80.3149 134.529 76.235C134.951 75.44 135.218 74.5902 135.296 73.6937C135.777 68.2006 129.145 63.134 120.484 62.3763Z"
          fill="#FFFEF4"/>
    <path d="M120.484 62.3763C111.824 61.6186 104.514 64.306 104.157 68.3795C104.099 69.0443 104.233 69.7035 104.53 70.3464C106.051 73.6456 111.946 76.4926 119.194 77.1267C126.442 77.7609 132.741 75.9807 134.813 72.9958C135.216 72.4142 135.463 71.7883 135.521 71.1235C135.877 67.0499 129.145 63.134 120.484 62.3763Z"
          fill="#AFE3FF"/>
    <path d="M119.017 79.1474C111.769 78.5133 105.875 75.6663 104.353 72.367C103.949 72.9487 103.703 73.5746 103.645 74.2393C103.288 78.3129 110.021 82.2288 118.681 82.9865C127.341 83.7442 134.652 81.0568 135.008 76.9833C135.066 76.3185 134.932 75.6593 134.636 75.0164C132.564 78.0013 126.265 79.7815 119.017 79.1474Z"
          fill="#AFE3FF"/>
    <path d="M51.4843 111.235C42.824 110.478 35.4131 114.316 34.9325 119.809C34.8541 120.705 34.9686 121.588 35.2463 122.445C36.6722 126.839 42.4961 130.492 49.7441 131.126C56.9921 131.76 63.3619 129.174 65.5292 125.094C65.9514 124.299 66.2175 123.449 66.2959 122.553C66.7765 117.06 60.1446 111.993 51.4843 111.235Z"
          fill="#FFFEF4"/>
    <path d="M51.4843 111.235C42.824 110.478 35.5138 113.165 35.1574 117.239C35.0992 117.903 35.2333 118.563 35.5297 119.205C37.0514 122.505 42.9458 125.352 50.1938 125.986C57.4419 126.62 63.7411 124.84 65.8126 121.855C66.2161 121.273 66.4627 120.647 66.5208 119.983C66.8772 115.909 60.1446 111.993 51.4843 111.235Z"
          fill="#2757D2"/>
    <path d="M50.017 128.006C42.769 127.372 36.8746 124.525 35.3529 121.226C34.9494 121.808 34.7028 122.434 34.6447 123.098C34.2883 127.172 41.0209 131.088 49.6812 131.846C58.3415 132.603 65.6517 129.916 66.0081 125.842C66.0663 125.178 65.9321 124.518 65.6358 123.876C63.5643 126.86 57.2651 128.641 50.017 128.006Z"
          fill="#2757D2"/>
    <path d="M96.908 120.191C88.463 120.191 81.6161 124.621 81.6161 130.086C81.6161 130.978 81.8017 131.84 82.1429 132.661C83.8948 136.877 89.8401 139.981 96.908 139.981C103.976 139.981 109.921 136.877 111.673 132.661C112.014 131.84 112.2 130.978 112.2 130.086C112.2 124.621 105.353 120.191 96.908 120.191Z"
          fill="#FFFEF4"/>
    <path d="M97.3577 120.191C88.6643 120.191 81.6161 123.506 81.6161 127.595C81.6161 128.262 81.8072 128.907 82.1584 129.522C83.9619 132.676 90.082 134.998 97.3577 134.998C104.633 134.998 110.754 132.676 112.557 129.522C112.908 128.907 113.099 128.262 113.099 127.595C113.099 123.506 106.051 120.191 97.3577 120.191Z"
          fill="#2757D2"/>
    <path d="M97.3577 137.026C90.082 137.026 83.9619 134.704 82.1584 131.55C81.8072 132.165 81.6161 132.81 81.6161 133.477C81.6161 137.566 88.6643 140.88 97.3577 140.88C106.051 140.88 113.099 137.566 113.099 133.477C113.099 132.81 112.908 132.165 112.557 131.55C110.754 134.704 104.633 137.026 97.3577 137.026Z"
          fill="#2757D2"/>
    <g clip-path="url(#clip4_1144_12)">
        <path d="M70.3689 120.231C61.933 120.969 55.483 126.019 55.9636 131.513C56.042 132.409 56.3033 133.259 56.7163 134.055C58.8371 138.139 65.0489 140.739 72.1092 140.122C79.1694 139.504 84.8353 135.864 86.2147 131.474C86.4833 130.619 86.5929 129.736 86.5145 128.84C86.0339 123.347 78.8049 119.493 70.3689 120.231Z"
              fill="#FFFEF4"/>
        <path d="M70.3701 120.231C61.7098 120.988 54.9772 124.904 55.3336 128.978C55.3918 129.643 55.6383 130.268 56.0418 130.85C58.1133 133.835 64.4125 135.615 71.6606 134.981C78.9086 134.347 84.803 131.5 86.3247 128.201C86.6211 127.558 86.7552 126.899 86.697 126.234C86.3407 122.16 79.0304 119.473 70.3701 120.231Z"
              fill="#0CC88F"/>
        <path d="M71.8374 137.002C64.5893 137.636 58.2901 135.856 56.2186 132.871C55.9223 133.513 55.7881 134.173 55.8463 134.837C56.2027 138.911 63.513 141.598 72.1733 140.841C80.8336 140.083 87.5661 136.167 87.2097 132.094C87.1516 131.429 86.905 130.803 86.5015 130.221C84.9798 133.52 79.0854 136.367 71.8374 137.002Z"
              fill="#0CC88F"/>
    </g>
    <path d="M89.262 104C80.5686 104 73.5204 108.469 73.5204 113.984C73.5204 114.883 73.7115 115.753 74.0627 116.582C75.8662 120.835 81.9863 123.967 89.262 123.967C96.5377 123.967 102.658 120.835 104.461 116.582C104.813 115.753 105.004 114.883 105.004 113.984C105.004 108.469 97.9554 104 89.262 104Z"
          fill="#FFFEF4"/>
    <path d="M89.262 104C80.5686 104 73.5204 107.314 73.5204 111.404C73.5204 112.071 73.7115 112.716 74.0627 113.33C75.8662 116.484 81.9863 118.807 89.262 118.807C96.5377 118.807 102.658 116.484 104.461 113.33C104.813 112.716 105.004 112.071 105.004 111.404C105.004 107.314 97.9554 104 89.262 104Z"
          fill="#AFE3FF"/>
    <path d="M89.262 120.835C81.9863 120.835 75.8662 118.513 74.0627 115.359C73.7115 115.973 73.5204 116.618 73.5204 117.286C73.5204 121.375 80.5686 124.689 89.262 124.689C97.9554 124.689 105.004 121.375 105.004 117.286C105.004 116.618 104.813 115.973 104.461 115.359C102.658 118.513 96.5377 120.835 89.262 120.835Z"
          fill="#AFE3FF"/>
    <g clip-path="url(#clip5_1144_12)">
        <path d="M162.084 112.294C153.637 112.885 147.099 117.822 147.484 123.323C147.547 124.221 147.793 125.075 148.192 125.878C150.242 129.999 156.407 132.707 163.477 132.213C170.547 131.718 176.276 128.178 177.731 123.813C178.015 122.962 178.14 122.082 178.077 121.184C177.692 115.683 170.532 111.704 162.084 112.294Z"
              fill="#FFFEF4"/>
        <path d="M162.085 112.294C153.413 112.901 146.613 116.698 146.898 120.778C146.945 121.443 147.18 122.073 147.574 122.662C149.593 125.683 155.86 127.572 163.118 127.065C170.376 126.557 176.319 123.814 177.898 120.541C178.206 119.904 178.351 119.247 178.305 118.581C178.019 114.502 170.757 111.688 162.085 112.294Z"
              fill="#0CC88F"/>
        <path d="M163.259 129.088C156.001 129.596 149.734 127.706 147.715 124.685C147.408 125.323 147.262 125.98 147.308 126.645C147.594 130.724 154.856 133.539 163.528 132.933C172.2 132.326 179 128.528 178.715 124.449C178.668 123.784 178.433 123.153 178.04 122.565C176.461 125.837 170.517 128.581 163.259 129.088Z"
              fill="#0CC88F"/>
    </g>
    <path d="M132.383 122.463C123.723 121.705 116.312 125.543 115.832 131.037C115.753 131.933 115.868 132.816 116.145 133.672C117.571 138.067 123.395 141.72 130.643 142.354C137.891 142.988 144.261 140.402 146.428 136.322C146.85 135.527 147.117 134.677 147.195 133.78C147.676 128.287 141.044 123.221 132.383 122.463Z"
          fill="#FFFEF4"/>
    <path d="M132.383 122.463C123.723 121.705 116.413 124.393 116.056 128.466C115.998 129.131 116.132 129.79 116.429 130.433C117.95 133.732 123.845 136.579 131.093 137.213C138.341 137.848 144.64 136.067 146.712 133.083C147.115 132.501 147.362 131.875 147.42 131.21C147.776 127.137 141.044 123.221 132.383 122.463Z"
          fill="#AFE3FF"/>
    <path d="M130.916 139.234C123.668 138.6 117.774 135.753 116.252 132.454C115.848 133.035 115.602 133.661 115.544 134.326C115.187 138.4 121.92 142.316 130.58 143.073C139.241 143.831 146.551 141.144 146.907 137.07C146.965 136.405 146.831 135.746 146.535 135.103C144.463 138.088 138.164 139.868 130.916 139.234Z"
          fill="#AFE3FF"/>
    <path d="M62.4843 101.374C53.824 100.616 46.4131 104.454 45.9325 109.948C45.8541 110.844 45.9686 111.727 46.2463 112.583C47.6722 116.978 53.4961 120.631 60.7441 121.265C67.9921 121.899 74.3619 119.313 76.5292 115.233C76.9514 114.438 77.2175 113.588 77.2959 112.691C77.7765 107.198 71.1446 102.132 62.4843 101.374Z"
          fill="#FFFEF4"/>
    <path d="M62.4843 101.374C53.824 100.616 46.5138 103.304 46.1574 107.377C46.0992 108.042 46.2333 108.701 46.5297 109.344C48.0514 112.643 53.9458 115.49 61.1938 116.124C68.4419 116.759 74.7411 114.978 76.8126 111.994C77.2161 111.412 77.4627 110.786 77.5208 110.121C77.8772 106.048 71.1446 102.132 62.4843 101.374Z"
          fill="#2757D2"/>
    <path d="M61.017 118.145C53.769 117.511 47.8746 114.664 46.3529 111.365C45.9494 111.946 45.7028 112.572 45.6447 113.237C45.2883 117.311 52.0209 121.227 60.6812 121.984C69.3415 122.742 76.6517 120.055 77.0081 115.981C77.0663 115.316 76.9321 114.657 76.6358 114.014C74.5643 116.999 68.2651 118.779 61.017 118.145Z"
          fill="#2757D2"/>
    <path d="M153.291 94.0022C144.846 94.0022 137.999 98.4318 137.999 103.897C137.999 104.789 138.185 105.651 138.526 106.472C140.278 110.688 146.223 113.792 153.291 113.792C160.359 113.792 166.304 110.688 168.056 106.472C168.397 105.651 168.583 104.789 168.583 103.897C168.583 98.4318 161.736 94.0022 153.291 94.0022Z"
          fill="#FFFEF4"/>
    <path d="M153.741 94.0022C145.048 94.0022 137.999 97.3165 137.999 101.406C137.999 102.073 138.19 102.718 138.542 103.332C140.345 106.487 146.465 108.809 153.741 108.809C161.017 108.809 167.137 106.487 168.94 103.332C169.291 102.718 169.483 102.073 169.483 101.406C169.483 97.3165 162.434 94.0022 153.741 94.0022Z"
          fill="#2757D2"/>
    <path d="M153.741 110.837C146.465 110.837 140.345 108.515 138.542 105.361C138.19 105.975 137.999 106.62 137.999 107.288C137.999 111.377 145.048 114.691 153.741 114.691C162.434 114.691 169.483 111.377 169.483 107.288C169.483 106.62 169.291 105.975 168.94 105.361C167.137 108.515 161.017 110.837 153.741 110.837Z"
          fill="#2757D2"/>
    <g clip-path="url(#clip6_1144_12)">
        <path d="M99.6794 104.374C91.2434 105.112 84.7935 110.163 85.274 115.656C85.3525 116.553 85.6137 117.403 86.0268 118.199C88.1475 122.283 94.3593 124.883 101.42 124.265C108.48 123.648 114.146 120.008 115.525 115.618C115.794 114.763 115.903 113.88 115.825 112.983C115.344 107.49 108.115 103.636 99.6794 104.374Z"
              fill="#FFFEF4"/>
        <path d="M99.6805 104.374C91.0202 105.132 84.2876 109.048 84.644 113.121C84.7022 113.786 84.9488 114.412 85.3522 114.994C87.4237 117.979 93.723 119.759 100.971 119.125C108.219 118.491 114.113 115.644 115.635 112.344C115.931 111.701 116.066 111.042 116.007 110.377C115.651 106.304 108.341 103.617 99.6805 104.374Z"
              fill="#0CC88F"/>
        <path d="M101.148 121.145C93.8998 121.779 87.6005 119.999 85.529 117.014C85.2327 117.657 85.0985 118.316 85.1567 118.981C85.5131 123.055 92.8234 125.742 101.484 124.984C110.144 124.227 116.877 120.311 116.52 116.237C116.462 115.572 116.215 114.947 115.812 114.365C114.29 117.664 108.396 120.511 101.148 121.145Z"
              fill="#0CC88F"/>
    </g>
    <path d="M128.74 103.002C120.047 103.002 112.999 107.472 112.999 112.986C112.999 113.886 113.19 114.756 113.541 115.584C115.345 119.838 121.465 122.969 128.74 122.969C136.016 122.969 142.136 119.838 143.94 115.584C144.291 114.756 144.482 113.886 144.482 112.986C144.482 107.472 137.434 103.002 128.74 103.002Z"
          fill="#FFFEF4"/>
    <path d="M128.74 103.002C120.047 103.002 112.999 106.317 112.999 110.406C112.999 111.073 113.19 111.718 113.541 112.333C115.345 115.487 121.465 117.809 128.74 117.809C136.016 117.809 142.136 115.487 143.94 112.333C144.291 111.718 144.482 111.073 144.482 110.406C144.482 106.317 137.434 103.002 128.74 103.002Z"
          fill="#AFE3FF"/>
    <path d="M128.74 119.837C121.465 119.837 115.345 117.515 113.541 114.361C113.19 114.976 112.999 115.621 112.999 116.288C112.999 120.377 120.047 123.691 128.74 123.691C137.434 123.691 144.482 120.377 144.482 116.288C144.482 115.621 144.291 114.976 143.94 114.361C142.136 117.515 136.016 119.837 128.74 119.837Z"
          fill="#AFE3FF"/>
    <g clip-path="url(#clip7_1144_12)">
        <path d="M135.702 89.098C127.255 89.6887 120.718 94.6261 121.102 100.127C121.165 101.024 121.411 101.879 121.81 102.682C123.86 106.802 130.025 109.511 137.095 109.016C144.165 108.522 149.894 104.982 151.349 100.616C151.633 99.7659 151.758 98.8852 151.695 97.9875C151.31 92.4868 144.15 88.5073 135.702 89.098Z"
              fill="#FFFEF4"/>
        <path d="M135.703 89.0978C127.031 89.7043 120.231 93.5021 120.516 97.5813C120.563 98.247 120.798 98.8771 121.192 99.4657C123.211 102.486 129.478 104.376 136.736 103.869C143.994 103.361 149.937 100.617 151.516 97.3452C151.824 96.7076 151.969 96.0508 151.923 95.3851C151.638 91.306 144.375 88.4914 135.703 89.0978Z"
              fill="#0CC88F"/>
        <path d="M136.877 105.892C129.619 106.399 123.352 104.51 121.333 101.489C121.026 102.127 120.88 102.783 120.927 103.449C121.212 107.528 128.474 110.343 137.146 109.736C145.818 109.13 152.618 105.332 152.333 101.253C152.287 100.587 152.051 99.9571 151.658 99.3685C150.079 102.641 144.135 105.384 136.877 105.892Z"
              fill="#0CC88F"/>
    </g>
    <path d="M85.4843 87.3742C76.824 86.6165 69.4131 90.4545 68.9325 95.9477C68.8541 96.8441 68.9686 97.7272 69.2463 98.5835C70.6722 102.978 76.4961 106.631 83.7441 107.265C90.9921 107.899 97.3619 105.313 99.5292 101.233C99.9513 100.438 100.218 99.5881 100.296 98.6916C100.777 93.1984 94.1446 88.1318 85.4843 87.3742Z"
          fill="#FFFEF4"/>
    <path d="M85.4843 87.3742C76.824 86.6165 69.5138 89.3039 69.1574 93.3774C69.0992 94.0422 69.2333 94.7014 69.5297 95.3443C71.0514 98.6435 76.9458 101.49 84.1938 102.125C91.4419 102.759 97.7411 100.979 99.8126 97.9937C100.216 97.412 100.463 96.7861 100.521 96.1214C100.877 92.0478 94.1446 88.1318 85.4843 87.3742Z"
          fill="#AFE3FF"/>
    <path d="M84.017 104.145C76.769 103.511 70.8746 100.664 69.3529 97.3649C68.9494 97.9465 68.7028 98.5724 68.6447 99.2372C68.2883 103.311 75.0209 107.227 83.6812 107.984C92.3415 108.742 99.6517 106.055 100.008 101.981C100.066 101.316 99.9321 100.657 99.6358 100.014C97.5643 102.999 91.2651 104.779 84.017 104.145Z"
          fill="#AFE3FF"/>
    <path d="M149.681 61.3719C158.341 60.6142 165.752 64.4522 166.233 69.9453C166.311 70.8418 166.197 71.7249 165.919 72.5811C164.493 76.9754 158.669 80.6286 151.421 81.2628C144.173 81.8969 137.804 79.3104 135.636 75.2306C135.214 74.4356 134.948 73.5857 134.87 72.6893C134.389 67.1961 141.021 62.1295 149.681 61.3719Z"
          fill="#FFFEF4"/>
    <path d="M149.681 61.3719C158.341 60.6142 165.652 63.3015 166.008 67.3751C166.066 68.0399 165.932 68.6991 165.636 69.3419C164.114 72.6412 158.22 75.4882 150.972 76.1223C143.724 76.7564 137.424 74.9762 135.353 71.9913C134.949 71.4097 134.703 70.7838 134.645 70.119C134.288 66.0455 141.021 62.1295 149.681 61.3719Z"
          fill="#2757D2"/>
    <path d="M151.148 78.1429C158.397 77.5088 164.291 74.6618 165.813 71.3626C166.216 71.9442 166.463 72.5701 166.521 73.2349C166.877 77.3084 160.145 81.2244 151.484 81.9821C142.824 82.7397 135.514 80.0524 135.157 75.9788C135.099 75.314 135.233 74.6548 135.53 74.012C137.601 76.9968 143.9 78.777 151.148 78.1429Z"
          fill="#2757D2"/>
    <path d="M51.1912 74.0007C59.6362 74.0007 66.483 78.4303 66.483 83.8954C66.483 84.7873 66.2974 85.6494 65.9562 86.4708C64.2043 90.6862 58.259 93.7901 51.1912 93.7901C44.1233 93.7901 38.1781 90.6862 36.4261 86.4708C36.0849 85.6494 35.8993 84.7873 35.8993 83.8954C35.8993 78.4303 42.7462 74.0007 51.1912 74.0007Z"
          fill="#FFFEF4"/>
    <path d="M50.7414 74.0007C59.4348 74.0007 66.483 77.315 66.483 81.4041C66.483 82.0714 66.2919 82.7164 65.9407 83.331C64.1373 86.485 58.0171 88.8074 50.7414 88.8074C43.4657 88.8074 37.3456 86.485 35.5421 83.331C35.1909 82.7164 34.9998 82.0714 34.9998 81.4041C34.9998 77.315 42.048 74.0007 50.7414 74.0007Z"
          fill="#2757D2"/>
    <path d="M50.7414 90.8357C58.0171 90.8357 64.1373 88.5133 65.9407 85.3593C66.2919 85.9738 66.483 86.6188 66.483 87.2862C66.483 91.3753 59.4348 94.6895 50.7414 94.6895C42.048 94.6895 34.9998 91.3753 34.9998 87.2862C34.9998 86.6188 35.1909 85.9738 35.5421 85.3593C37.3456 88.5133 43.4657 90.8357 50.7414 90.8357Z"
          fill="#2757D2"/>
    <g clip-path="url(#clip8_1144_12)">
        <path d="M128.486 46.3721C136.922 47.1102 143.372 52.1609 142.891 57.654C142.813 58.5505 142.551 59.4007 142.138 60.1965C140.018 64.2804 133.806 66.8807 126.746 66.263C119.685 65.6453 114.019 62.0059 112.64 57.6157C112.371 56.7603 112.262 55.8776 112.34 54.9812C112.821 49.488 120.05 45.6341 128.486 46.3721Z"
              fill="#FFFEF4"/>
        <path d="M128.485 46.372C137.145 47.1297 143.878 51.0456 143.521 55.1192C143.463 55.7839 143.216 56.4098 142.813 56.9915C140.741 59.9763 134.442 61.7565 127.194 61.1224C119.946 60.4883 114.052 57.6413 112.53 54.3421C112.234 53.6992 112.1 53.04 112.158 52.3752C112.514 48.3017 119.824 45.6143 128.485 46.372Z"
              fill="#0CC88F"/>
        <path d="M127.017 63.143C134.265 63.7771 140.565 61.9969 142.636 59.0121C142.932 59.6549 143.067 60.3141 143.008 60.9789C142.652 65.0524 135.342 67.7398 126.681 66.9821C118.021 66.2245 111.289 62.3085 111.645 58.235C111.703 57.5702 111.95 56.9443 112.353 56.3626C113.875 59.6619 119.769 62.5089 127.017 63.143Z"
              fill="#0CC88F"/>
    </g>
    <path d="M197.741 116.001C206.435 116.001 213.483 120.47 213.483 125.984C213.483 126.884 213.292 127.754 212.941 128.583C211.137 132.836 205.017 135.968 197.741 135.968C190.466 135.968 184.346 132.836 182.542 128.583C182.191 127.754 182 126.884 182 125.984C182 120.47 189.048 116.001 197.741 116.001Z"
          fill="#FFFEF4"/>
    <path d="M197.741 116.001C206.435 116.001 213.483 119.315 213.483 123.404C213.483 124.071 213.292 124.717 212.941 125.331C211.137 128.485 205.017 130.808 197.741 130.808C190.466 130.808 184.346 128.485 182.542 125.331C182.191 124.717 182 124.071 182 123.404C182 119.315 189.048 116.001 197.741 116.001Z"
          fill="#AFE3FF"/>
    <path d="M197.741 132.836C205.017 132.836 211.137 130.513 212.941 127.359C213.292 127.974 213.483 128.619 213.483 129.286C213.483 133.375 206.435 136.69 197.741 136.69C189.048 136.69 182 133.375 182 129.286C182 128.619 182.191 127.974 182.542 127.359C184.346 130.513 190.466 132.836 197.741 132.836Z"
          fill="#AFE3FF"/>
    <g clip-path="url(#clip9_1144_12)">
        <path d="M165.147 79.0988C173.594 79.6895 180.132 84.6269 179.747 90.1276C179.684 91.0253 179.438 91.88 179.039 92.6828C176.99 96.8031 170.824 99.5115 163.754 99.0171C156.684 98.5227 150.956 94.9827 149.5 90.6173C149.216 89.7667 149.091 88.886 149.154 87.9883C149.539 82.4876 156.699 78.5081 165.147 79.0988Z"
              fill="#FFFEF4"/>
        <path d="M165.146 79.0986C173.818 79.7051 180.618 83.5029 180.333 87.5821C180.286 88.2478 180.051 88.8779 179.658 89.4665C177.638 92.487 171.371 94.3769 164.113 93.8693C156.855 93.3618 150.912 90.6181 149.333 87.346C149.025 86.7084 148.88 86.0516 148.926 85.3859C149.212 81.3068 156.474 78.4922 165.146 79.0986Z"
              fill="#0CC88F"/>
        <path d="M163.972 95.8927C171.23 96.4002 177.497 94.5104 179.516 91.4898C179.824 92.1274 179.969 92.7842 179.923 93.4499C179.637 97.529 172.375 100.344 163.703 99.7371C155.031 99.1307 148.231 95.3328 148.516 91.2537C148.563 90.588 148.798 89.9579 149.191 89.3693C150.77 92.6415 156.714 95.3852 163.972 95.8927Z"
              fill="#0CC88F"/>
    </g>
    <path d="M15.6817 122.377C24.342 121.619 31.7529 125.457 32.2335 130.95C32.3119 131.847 32.1974 132.73 31.9197 133.586C30.4938 137.98 24.6699 141.633 17.4219 142.268C10.1739 142.902 3.80408 140.315 1.63679 136.235C1.21467 135.44 0.948502 134.59 0.870073 133.694C0.389483 128.201 7.02138 123.134 15.6817 122.377Z"
          fill="#FFFEF4"/>
    <path d="M15.6817 122.377C24.342 121.619 31.6523 124.306 32.0087 128.38C32.0668 129.045 31.9327 129.704 31.6363 130.347C30.1146 133.646 24.2202 136.493 16.9722 137.127C9.72414 137.761 3.42489 135.981 1.3534 132.996C0.949939 132.414 0.703366 131.789 0.645206 131.124C0.288817 127.05 7.02138 123.134 15.6817 122.377Z"
          fill="#AFE3FF"/>
    <path d="M17.149 139.148C24.397 138.514 30.2914 135.667 31.8131 132.367C32.2166 132.949 32.4632 133.575 32.5213 134.24C32.8777 138.313 26.1452 142.229 17.4849 142.987C8.82456 143.745 1.51428 141.057 1.15789 136.984C1.09973 136.319 1.23387 135.66 1.5302 135.017C3.60169 138.002 9.90094 139.782 17.149 139.148Z"
          fill="#AFE3FF"/>
    <defs>
        <clipPath id="clip0_1144_12">
            <rect width="31.4833" height="20.689" fill="white" transform="translate(23.9993 122.744) rotate(-5)"/>
        </clipPath>
        <clipPath id="clip1_1144_12">
            <rect width="31.4833" height="20.689" fill="white" transform="translate(160.999 100.196) rotate(-4)"/>
        </clipPath>
        <clipPath id="clip2_1144_12">
            <rect width="31.4833" height="20.689" fill="white" transform="translate(46.9994 83.7478) rotate(-5)"/>
        </clipPath>
        <clipPath id="clip3_1144_12">
            <rect width="31.4833" height="20.689" fill="white" transform="translate(82.9994 57.1962) rotate(-4)"/>
        </clipPath>
        <clipPath id="clip4_1144_12">
            <rect width="31.4833" height="20.689" fill="white" transform="translate(54.6884 121.603) rotate(-5)"/>
        </clipPath>
        <clipPath id="clip5_1144_12">
            <rect width="31.4833" height="20.689" fill="white" transform="translate(146.381 113.392) rotate(-4)"/>
        </clipPath>
        <clipPath id="clip6_1144_12">
            <rect width="31.4833" height="20.689" fill="white" transform="translate(83.9988 105.746) rotate(-5)"/>
        </clipPath>
        <clipPath id="clip7_1144_12">
            <rect width="31.4833" height="20.689" fill="white" transform="translate(119.999 90.196) rotate(-4)"/>
        </clipPath>
        <clipPath id="clip8_1144_12">
            <rect width="31.4833" height="20.689" fill="white"
                  transform="matrix(-0.996195 -0.0871557 -0.0871557 0.996195 144.166 47.744)"/>
        </clipPath>
        <clipPath id="clip9_1144_12">
            <rect width="31.4833" height="20.689" fill="white"
                  transform="matrix(-0.997564 -0.0697565 -0.0697565 0.997564 180.85 80.1968)"/>
        </clipPath>
    </defs>
</svg>
