<svg width="279" height="15" viewBox="0 0 279 15" fill="none" xmlns="http://www.w3.org/2000/svg">
    <path d="M1.51606 5.876V2.292H3.39206C4.84806 2.292 5.46406 2.964 5.46406 4.098C5.46406 5.19 4.84806 5.876 3.39206 5.876H1.51606ZM6.76606 4.098C6.76606 2.502 5.68806 1.242 3.39206 1.242H0.242063V11H1.51606V6.926H3.39206C5.81406 6.926 6.76606 5.582 6.76606 4.098ZM8.34948 11H9.62348V0.64H8.34948V11ZM15.0568 4.28C16.3728 4.28 17.4928 5.106 17.4788 6.604H12.6348C12.7748 5.106 13.8108 4.28 15.0568 4.28ZM18.6408 8.634H17.2688C16.9888 9.46 16.2608 10.048 15.1128 10.048C13.8108 10.048 12.7188 9.194 12.6208 7.64H18.7528C18.7808 7.374 18.7948 7.15 18.7948 6.87C18.7948 4.77 17.3388 3.202 15.1128 3.202C12.8728 3.202 11.3188 4.728 11.3188 7.15C11.3188 9.586 12.9288 11.126 15.1128 11.126C17.0168 11.126 18.2488 10.034 18.6408 8.634ZM20.0004 7.136C20.0004 9.516 21.5824 11.126 23.6264 11.126C25.0404 11.126 26.0344 10.398 26.4964 9.572V11H27.7844V3.328H26.4964V4.728C26.0484 3.93 25.0684 3.202 23.6404 3.202C21.5824 3.202 20.0004 4.742 20.0004 7.136ZM26.4964 7.15C26.4964 8.956 25.2924 10.006 23.8924 10.006C22.4924 10.006 21.3024 8.942 21.3024 7.136C21.3024 5.33 22.4924 4.308 23.8924 4.308C25.2924 4.308 26.4964 5.372 26.4964 7.15ZM35.4534 8.914C35.3974 6.17 30.9454 7.164 30.9454 5.344C30.9454 4.728 31.5054 4.28 32.4434 4.28C33.4654 4.28 34.0534 4.84 34.1094 5.61H35.3834C35.2994 4.112 34.1794 3.202 32.4854 3.202C30.7774 3.202 29.6714 4.168 29.6714 5.344C29.6714 8.2 34.2074 7.206 34.2074 8.914C34.2074 9.544 33.6474 10.048 32.6394 10.048C31.5614 10.048 30.9034 9.488 30.8334 8.746H29.5174C29.6014 10.146 30.8614 11.126 32.6534 11.126C34.3474 11.126 35.4534 10.174 35.4534 8.914ZM40.5138 4.28C41.8298 4.28 42.9498 5.106 42.9358 6.604H38.0918C38.2318 5.106 39.2678 4.28 40.5138 4.28ZM44.0978 8.634H42.7258C42.4458 9.46 41.7178 10.048 40.5698 10.048C39.2678 10.048 38.1758 9.194 38.0778 7.64H44.2098C44.2378 7.374 44.2518 7.15 44.2518 6.87C44.2518 4.77 42.7958 3.202 40.5698 3.202C38.3298 3.202 36.7758 4.728 36.7758 7.15C36.7758 9.586 38.3858 11.126 40.5698 11.126C42.4738 11.126 43.7058 10.034 44.0978 8.634ZM49.1899 7.15C49.1899 9.586 50.7439 11.126 52.9279 11.126C54.8319 11.126 56.0779 10.062 56.4699 8.536H55.0979C54.8179 9.502 54.0619 10.048 52.9279 10.048C51.5279 10.048 50.4919 9.054 50.4919 7.15C50.4919 5.274 51.5279 4.28 52.9279 4.28C54.0619 4.28 54.8319 4.868 55.0979 5.792H56.4699C56.0779 4.182 54.8319 3.202 52.9279 3.202C50.7439 3.202 49.1899 4.742 49.1899 7.15ZM65.4498 7.15C65.4498 4.728 63.7558 3.202 61.5718 3.202C59.4018 3.202 57.6938 4.728 57.6938 7.15C57.6938 9.586 59.3458 11.126 61.5158 11.126C63.6998 11.126 65.4498 9.586 65.4498 7.15ZM58.9958 7.15C58.9958 5.218 60.2138 4.308 61.5578 4.308C62.8738 4.308 64.1478 5.218 64.1478 7.15C64.1478 9.096 62.8458 10.006 61.5158 10.006C60.1858 10.006 58.9958 9.096 58.9958 7.15ZM72.7389 11H73.9989V6.478C73.9989 4.28 72.6409 3.188 70.8629 3.188C69.8269 3.188 68.9029 3.622 68.3989 4.42V3.328H67.1249V11H68.3989V6.758C68.3989 5.106 69.2949 4.294 70.5969 4.294C71.8849 4.294 72.7389 5.092 72.7389 6.66V11ZM76.36 8.9C76.36 10.44 77.13 11 78.488 11H79.636V9.922H78.698C77.914 9.922 77.634 9.656 77.634 8.9V4.378H79.636V3.328H77.634V1.396H76.36V3.328H75.366V4.378H76.36V8.9ZM80.7036 7.136C80.7036 9.516 82.2856 11.126 84.3296 11.126C85.7436 11.126 86.7376 10.398 87.1996 9.572V11H88.4876V3.328H87.1996V4.728C86.7516 3.93 85.7716 3.202 84.3436 3.202C82.2856 3.202 80.7036 4.742 80.7036 7.136ZM87.1996 7.15C87.1996 8.956 85.9956 10.006 84.5956 10.006C83.1956 10.006 82.0056 8.942 82.0056 7.136C82.0056 5.33 83.1956 4.308 84.5956 4.308C85.9956 4.308 87.1996 5.372 87.1996 7.15ZM90.1645 7.15C90.1645 9.586 91.7185 11.126 93.9025 11.126C95.8065 11.126 97.0525 10.062 97.4445 8.536H96.0725C95.7925 9.502 95.0365 10.048 93.9025 10.048C92.5025 10.048 91.4665 9.054 91.4665 7.15C91.4665 5.274 92.5025 4.28 93.9025 4.28C95.0365 4.28 95.8065 4.868 96.0725 5.792H97.4445C97.0525 4.182 95.8065 3.202 93.9025 3.202C91.7185 3.202 90.1645 4.742 90.1645 7.15ZM99.4244 8.9C99.4244 10.44 100.194 11 101.552 11H102.7V9.922H101.762C100.978 9.922 100.698 9.656 100.698 8.9V4.378H102.7V3.328H100.698V1.396H99.4244V3.328H98.4304V4.378H99.4244V8.9ZM114.78 3.328H113.506V7.542C113.506 9.194 112.624 10.006 111.308 10.006C110.02 10.006 109.166 9.208 109.166 7.654V3.328H107.906V7.822C107.906 10.02 109.292 11.112 111.056 11.112C112.078 11.112 113.016 10.664 113.506 9.866V11H114.78V3.328ZM122.448 8.914C122.392 6.17 117.94 7.164 117.94 5.344C117.94 4.728 118.5 4.28 119.438 4.28C120.46 4.28 121.048 4.84 121.104 5.61H122.378C122.294 4.112 121.174 3.202 119.48 3.202C117.772 3.202 116.666 4.168 116.666 5.344C116.666 8.2 121.202 7.206 121.202 8.914C121.202 9.544 120.642 10.048 119.634 10.048C118.556 10.048 117.898 9.488 117.828 8.746H116.512C116.596 10.146 117.856 11.126 119.648 11.126C121.342 11.126 122.448 10.174 122.448 8.914ZM128.258 8.9C128.258 10.44 129.028 11 130.386 11H131.534V9.922H130.596C129.812 9.922 129.532 9.656 129.532 8.9V4.378H131.534V3.328H129.532V1.396H128.258V3.328H127.264V4.378H128.258V8.9ZM140.358 7.15C140.358 4.728 138.664 3.202 136.48 3.202C134.31 3.202 132.602 4.728 132.602 7.15C132.602 9.586 134.254 11.126 136.424 11.126C138.608 11.126 140.358 9.586 140.358 7.15ZM133.904 7.15C133.904 5.218 135.122 4.308 136.466 4.308C137.782 4.308 139.056 5.218 139.056 7.15C139.056 9.096 137.754 10.006 136.424 10.006C135.094 10.006 133.904 9.096 133.904 7.15ZM147.04 6.828C147.04 5.05 147.964 4.504 149.182 4.504H149.518V3.188C148.3 3.188 147.474 3.72 147.04 4.574V3.328H145.766V11H147.04V6.828ZM154.25 4.28C155.566 4.28 156.686 5.106 156.672 6.604H151.828C151.968 5.106 153.004 4.28 154.25 4.28ZM157.834 8.634H156.462C156.182 9.46 155.454 10.048 154.306 10.048C153.004 10.048 151.912 9.194 151.814 7.64H157.946C157.974 7.374 157.988 7.15 157.988 6.87C157.988 4.77 156.532 3.202 154.306 3.202C152.066 3.202 150.512 4.728 150.512 7.15C150.512 9.586 152.122 11.126 154.306 11.126C156.21 11.126 157.442 10.034 157.834 8.634ZM165.284 11H166.544V6.478C166.544 4.28 165.186 3.188 163.408 3.188C162.372 3.188 161.448 3.622 160.944 4.42V3.328H159.67V11H160.944V6.758C160.944 5.106 161.84 4.294 163.142 4.294C164.43 4.294 165.284 5.092 165.284 6.66V11ZM171.887 4.28C173.203 4.28 174.323 5.106 174.309 6.604H169.465C169.605 5.106 170.641 4.28 171.887 4.28ZM175.471 8.634H174.099C173.819 9.46 173.091 10.048 171.943 10.048C170.641 10.048 169.549 9.194 169.451 7.64H175.583C175.611 7.374 175.625 7.15 175.625 6.87C175.625 4.77 174.169 3.202 171.943 3.202C169.703 3.202 168.149 4.728 168.149 7.15C168.149 9.586 169.759 11.126 171.943 11.126C173.847 11.126 175.079 10.034 175.471 8.634ZM178.805 11H180.121L181.969 4.91L183.817 11H185.133L187.527 3.328H186.267L184.531 9.782L182.669 3.328H181.367L179.463 9.768L177.699 3.328H176.397L178.805 11ZM195.435 9.544L193.027 3.328H191.613L194.707 10.916L193.195 14.612H194.511L199.131 3.328H197.815L195.435 9.544ZM207.692 7.15C207.692 4.728 205.998 3.202 203.814 3.202C201.644 3.202 199.936 4.728 199.936 7.15C199.936 9.586 201.588 11.126 203.758 11.126C205.942 11.126 207.692 9.586 207.692 7.15ZM201.238 7.15C201.238 5.218 202.456 4.308 203.8 4.308C205.116 4.308 206.39 5.218 206.39 7.15C206.39 9.096 205.088 10.006 203.758 10.006C202.428 10.006 201.238 9.096 201.238 7.15ZM216.171 3.328H214.897V7.542C214.897 9.194 214.015 10.006 212.699 10.006C211.411 10.006 210.557 9.208 210.557 7.654V3.328H209.297V7.822C209.297 10.02 210.683 11.112 212.447 11.112C213.469 11.112 214.407 10.664 214.897 9.866V11H216.171V3.328ZM219.596 6.828C219.596 5.05 220.52 4.504 221.738 4.504H222.074V3.188C220.856 3.188 220.03 3.72 219.596 4.574V3.328H218.322V11H219.596V6.828ZM232.793 8.914C232.737 6.17 228.285 7.164 228.285 5.344C228.285 4.728 228.845 4.28 229.783 4.28C230.805 4.28 231.393 4.84 231.449 5.61H232.723C232.639 4.112 231.519 3.202 229.825 3.202C228.117 3.202 227.011 4.168 227.011 5.344C227.011 8.2 231.547 7.206 231.547 8.914C231.547 9.544 230.987 10.048 229.979 10.048C228.901 10.048 228.243 9.488 228.173 8.746H226.857C226.941 10.146 228.201 11.126 229.993 11.126C231.687 11.126 232.793 10.174 232.793 8.914ZM237.854 4.28C239.17 4.28 240.29 5.106 240.276 6.604H235.432C235.572 5.106 236.608 4.28 237.854 4.28ZM241.438 8.634H240.066C239.786 9.46 239.058 10.048 237.91 10.048C236.608 10.048 235.516 9.194 235.418 7.64H241.55C241.578 7.374 241.592 7.15 241.592 6.87C241.592 4.77 240.136 3.202 237.91 3.202C235.67 3.202 234.116 4.728 234.116 7.15C234.116 9.586 235.726 11.126 237.91 11.126C239.814 11.126 241.046 10.034 241.438 8.634ZM244.547 6.828C244.547 5.05 245.471 4.504 246.689 4.504H247.025V3.188C245.807 3.188 244.981 3.72 244.547 4.574V3.328H243.273V11H244.547V6.828ZM247.586 3.328L250.596 11H252.08L255.09 3.328H253.732L251.352 9.824L248.958 3.328H247.586ZM256.344 11H257.618V3.328H256.344V11ZM257.002 2.082C257.464 2.082 257.842 1.704 257.842 1.214C257.842 0.724 257.464 0.345999 257.002 0.345999C256.512 0.345999 256.134 0.724 256.134 1.214C256.134 1.704 256.512 2.082 257.002 2.082ZM259.313 7.15C259.313 9.586 260.867 11.126 263.051 11.126C264.955 11.126 266.201 10.062 266.593 8.536H265.221C264.941 9.502 264.185 10.048 263.051 10.048C261.651 10.048 260.615 9.054 260.615 7.15C260.615 5.274 261.651 4.28 263.051 4.28C264.185 4.28 264.955 4.868 265.221 5.792H266.593C266.201 4.182 264.955 3.202 263.051 3.202C260.867 3.202 259.313 4.742 259.313 7.15ZM271.555 4.28C272.871 4.28 273.991 5.106 273.977 6.604H269.133C269.273 5.106 270.309 4.28 271.555 4.28ZM275.139 8.634H273.767C273.487 9.46 272.759 10.048 271.611 10.048C270.309 10.048 269.217 9.194 269.119 7.64H275.251C275.279 7.374 275.293 7.15 275.293 6.87C275.293 4.77 273.837 3.202 271.611 3.202C269.371 3.202 267.817 4.728 267.817 7.15C267.817 9.586 269.427 11.126 271.611 11.126C273.515 11.126 274.747 10.034 275.139 8.634ZM278.22 10.216C278.22 9.726 277.842 9.348 277.38 9.348C276.89 9.348 276.512 9.726 276.512 10.216C276.512 10.706 276.89 11.084 277.38 11.084C277.842 11.084 278.22 10.706 278.22 10.216Z"
          fill="#434343"/>
</svg>
