<svg width="199" height="173" viewBox="0 0 199 173" fill="none" xmlns="http://www.w3.org/2000/svg">
    <circle cx="156" cy="14.6315" r="10.7234" fill="#3F3D56"/>
    <circle cx="186.024" cy="106.853" r="10.7234" fill="#3F3D56"/>
    <circle cx="104.527" cy="14.6315" r="10.7234" fill="#3F3D56"/>
    <path d="M169.857 52.506C169.42 52.75 169.42 52.7501 169.42 52.7504L169.421 52.7523L169.426 52.7606L169.445 52.7945C169.452 52.8079 169.461 52.8243 169.472 52.8436C169.485 52.8681 169.501 52.8974 169.52 52.9313C169.586 53.0527 169.684 53.2341 169.811 53.4726C170.064 53.9495 170.431 54.6549 170.887 55.5654C171.798 57.3867 173.06 60.0284 174.463 63.3057C177.269 69.8619 180.634 78.9537 182.877 89.1039C187.369 109.431 187.328 133.845 169.513 150.729C151.695 167.615 128.706 166.706 110.099 158.46C100.798 154.339 92.6205 148.393 86.7749 141.96C80.9178 135.514 77.4548 128.638 77.4548 122.657C77.4548 110.386 80.2904 91.4684 83.1348 75.5869C84.5558 67.6529 85.9769 60.488 87.0427 55.3066C87.5756 52.716 88.0197 50.6214 88.3305 49.1747C88.4859 48.4514 88.6079 47.89 88.6911 47.5096C88.7327 47.3194 88.7646 47.1744 88.7861 47.0771L88.8104 46.9671L88.816 46.9417L88.8171 46.9374L88.8299 46.8907L88.8804 46.7072C88.9248 46.5461 88.9906 46.309 89.0756 46.0058C89.2458 45.3993 89.4932 44.5283 89.802 43.4711C90.4197 41.3563 91.2824 38.4981 92.2631 35.5228C93.2443 32.5458 94.3411 29.4591 95.4265 26.8844C95.9693 25.5969 96.5064 24.4444 97.0217 23.5007C97.5414 22.5493 98.0223 21.8415 98.4453 21.4185C99.3275 20.5362 100.783 19.6874 102.52 18.9092C104.247 18.1361 106.206 17.4524 108.057 16.8837C109.907 16.3155 111.64 15.8647 112.911 15.5559C113.546 15.4016 114.066 15.2829 114.426 15.2028C114.606 15.1628 114.746 15.1325 114.841 15.1122L114.945 15.09L114.973 15.0889L115.174 15.0805C115.35 15.0731 115.609 15.0625 115.941 15.0494C116.604 15.0232 117.557 14.9868 118.714 14.9465C121.028 14.8657 124.16 14.7688 127.431 14.7042C130.704 14.6396 134.111 14.6074 136.978 14.6557C139.867 14.7044 142.148 14.8349 143.206 15.0794L143.258 15.0915L143.312 15.0922C143.986 15.1006 145.166 15.3652 146.656 15.8634C148.13 16.356 149.859 17.0604 151.609 17.9122C155.133 19.6264 158.658 21.8955 160.41 24.1772C161.267 25.294 162.267 27.6035 163.29 30.5192C164.304 33.4111 165.318 36.8291 166.219 40.106C167.12 43.3816 167.908 46.5097 168.47 48.8193C168.751 49.974 168.976 50.9237 169.131 51.5846C169.208 51.915 169.267 52.1731 169.308 52.3486L169.353 52.5484L169.365 52.5993L169.368 52.6121L169.369 52.6152L169.369 52.616C169.369 52.6162 169.369 52.6162 169.857 52.506ZM169.857 52.506L169.42 52.75L169.385 52.6868L169.369 52.6162L169.857 52.506Z"
          fill="white" stroke="#3F3D56"/>
    <path d="M152.78 53.2359C156.926 53.2359 160.287 50.3553 160.287 46.8019C160.287 43.2484 156.926 40.3678 152.78 40.3678C148.635 40.3678 145.274 43.2484 145.274 46.8019C145.274 50.3553 148.635 53.2359 152.78 53.2359Z"
          fill="#3F3D56"/>
    <path d="M107.742 53.2359C111.887 53.2359 115.248 50.3553 115.248 46.8019C115.248 43.2484 111.887 40.3678 107.742 40.3678C103.596 40.3678 100.235 43.2484 100.235 46.8019C100.235 50.3553 103.596 53.2359 107.742 53.2359Z"
          fill="#3F3D56"/>
    <path d="M108.134 51.4833C110.339 51.4833 112.127 49.6957 112.127 47.4904C112.127 45.2852 110.339 43.4975 108.134 43.4975C105.928 43.4975 104.141 45.2852 104.141 47.4904C104.141 49.6957 105.928 51.4833 108.134 51.4833Z"
          fill="white"/>
    <path d="M131.001 55.359C134.14 55.359 136.685 53.6602 136.685 51.5647C136.685 49.4692 134.14 47.7704 131.001 47.7704C127.862 47.7704 125.317 49.4692 125.317 51.5647C125.317 53.6602 127.862 55.359 131.001 55.359Z"
          fill="#3F3D56"/>
    <path d="M125.973 78.9735C121.01 78.978 113.706 79.8164 108.815 78.9735C99.4118 77.3539 91.1846 79.3285 82.9018 74.5913L85.3912 61.8905C93.7671 66.4267 102.81 69.604 112.183 71.3037C125.832 73.6426 149.436 72.8881 173.295 59.7241L176.098 66.0108L178.517 72.5395C161.197 82.112 138.905 78.9735 125.973 78.9735Z"
          fill="#3F3D56"/>
    <path d="M171.201 59.67C120.738 89.358 91.6585 61.8423 91.6585 61.8423L171.201 59.67Z" fill="white"/>
    <path d="M139.057 68.1346C142.107 68.1346 144.58 66.461 144.58 64.3966C144.58 62.3321 142.107 60.6585 139.057 60.6585C136.008 60.6585 133.535 62.3321 133.535 64.3966C133.535 66.461 136.008 68.1346 139.057 68.1346Z"
          fill="#3F3D56"/>
    <path d="M141.24 67.7921C142.471 67.495 143.309 66.5886 143.111 65.7676C142.913 64.9466 142.107 64.8669 140.731 65.683C138.909 65.3763 137.912 66.6775 138.11 67.4985C138.308 68.3195 140.008 68.0892 141.24 67.7921Z"
          fill="#E26681"/>
    <path d="M108.475 51.261C109.659 51.261 110.62 50.3008 110.62 49.1164C110.62 47.9319 109.659 46.9717 108.475 46.9717C107.29 46.9717 106.33 47.9319 106.33 49.1164C106.33 50.3008 107.29 51.261 108.475 51.261Z"
          fill="#3F3D56"/>
    <path d="M152.65 51.1436C154.855 51.1436 156.643 49.3559 156.643 47.1506C156.643 44.9454 154.855 43.1577 152.65 43.1577C150.445 43.1577 148.657 44.9454 148.657 47.1506C148.657 49.3559 150.445 51.1436 152.65 51.1436Z"
          fill="white"/>
    <path d="M152.482 50.9213C153.666 50.9213 154.627 49.9611 154.627 48.7766C154.627 47.5922 153.666 46.632 152.482 46.632C151.297 46.632 150.337 47.5922 150.337 48.7766C150.337 49.9611 151.297 50.9213 152.482 50.9213Z"
          fill="#3F3D56"/>
    <path d="M166.5 105.467C166.5 105.467 135.266 110.095 137.82 92.7808C140.375 75.4667 163.504 90.4884 163.504 90.4884C163.504 90.4884 168.681 91.5327 169.516 92.1295"
          fill="#3F3D56"/>
    <path d="M101.383 92.083C101.282 87.6392 110.923 62.0057 125.39 71.8314C139.857 81.6571 116.761 96.5288 116.761 96.5288C116.761 96.5288 112.129 99.8151 108.717 100.743"
          fill="#3F3D56"/>
    <path fill-rule="evenodd" clip-rule="evenodd"
          d="M37.7041 70.3294C37.1435 70.5008 36.828 71.0942 36.9994 71.6548L38.551 76.7299C38.7224 77.2905 39.3158 77.606 39.8764 77.4346L40.8912 77.1244L42.1325 81.1844L50.2527 78.7018L49.0115 74.6418L50.0267 74.3314C50.5872 74.16 50.9027 73.5666 50.7314 73.006L49.1797 67.9309C49.0083 67.3703 48.415 67.0548 47.8544 67.2262L37.7041 70.3294Z"
          fill="#0CC88F"/>
    <path fill-rule="evenodd" clip-rule="evenodd"
          d="M67.0693 72.024C66.5221 71.8139 65.9081 72.0872 65.698 72.6345L64.7918 74.9955C64.5817 75.5427 64.855 76.1567 65.4023 76.3667L65.9694 76.5844L64.8923 79.3903L70.7904 81.6544L71.8675 78.8485L72.2678 79.0021C72.815 79.2122 73.429 78.9389 73.639 78.3916L74.5453 76.0306C74.7554 75.4834 74.4821 74.8694 73.9348 74.6594L67.0693 72.024Z"
          fill="#0CC88F"/>
    <circle cx="55.8124" cy="111.409" r="32.9036" transform="rotate(-17 55.8124 111.409)" fill="#3F3D56"
            stroke="#0CC88F" stroke-width="4.24562"/>
    <line x1="49.0697" y1="85.7229" x2="50.9317" y2="91.8131" stroke="white" stroke-width="2.12281"/>
    <line x1="62.7238" y1="130.384" x2="64.5857" y2="136.474" stroke="white" stroke-width="2.12281"/>
    <line x1="32.9995" y1="98.1461" x2="38.6225" y2="101.136" stroke="white" stroke-width="2.12281"/>
    <line x1="74.2346" y1="120.071" x2="79.8576" y2="123.061" stroke="white" stroke-width="2.12281"/>
    <line y1="-1.06141" x2="6.36843" y2="-1.06141"
          transform="matrix(-0.469472 0.882948 0.882948 0.469472 69.1683 88.4573)" stroke="white"
          stroke-width="2.12281"/>
    <line y1="-1.06141" x2="6.36843" y2="-1.06141"
          transform="matrix(-0.469472 0.882948 0.882948 0.469472 47.243 129.693)" stroke="white"
          stroke-width="2.12281"/>
    <line x1="29.1117" y1="118.462" x2="35.2018" y2="116.6" stroke="white" stroke-width="2.12281"/>
    <line x1="74.7878" y1="104.498" x2="80.8779" y2="102.636" stroke="white" stroke-width="2.12281"/>
    <path d="M17.2755 90.228C7.79618 102.081 8.74362 123.201 20.6481 138.225" stroke="#CCCCCC" stroke-width="4.55745"/>
    <path d="M5.62335 97.0769C1.92754 106.801 2.15202 121.496 9.53396 134.726" stroke="#CCCCCC" stroke-width="4.55745"/>
    <path d="M95.2971 128.214C103.486 115.436 100.336 94.5298 86.926 80.8328" stroke="#CCCCCC" stroke-width="4.55745"/>
    <path d="M106.336 119.875C108.995 109.818 107.236 95.2265 98.5114 82.8411" stroke="#CCCCCC" stroke-width="4.55745"/>
    <path d="M100.739 159.511C100.881 160.878 101.052 162.352 101.052 162.352C101.052 162.352 104.958 165.212 106.208 165.947C105.456 168.609 101.251 167.464 99.8273 165.435C98.4036 163.406 98.9157 159.966 100.739 159.511Z"
          fill="#2757D2"/>
    <path d="M147.08 167.329C147.719 165.897 148.391 164.344 148.391 164.344C148.391 164.344 146.405 161.789 145.374 160.555C147.634 158.354 151.424 159.679 152.206 162.395C153.266 166.072 149.139 167.917 147.08 167.329Z"
          fill="#AFE3FF"/>
    <path d="M130.831 163.706C131.527 162.336 134.572 162.468 134.572 162.468C134.572 162.468 137.114 162.798 137.483 164.038C137.992 165.752 135.84 167.903 133.743 167.176C132.181 166.634 129.979 165.385 130.831 163.706Z"
          fill="#2757D2"/>
    <path d="M122.634 167.45C122.063 166.636 122.369 165.472 123.23 164.975C123.823 164.633 124.113 164.796 124.985 164.975C126.192 165.223 126.624 166.768 125.441 167.714C124.56 168.418 123.333 168.448 122.634 167.45Z"
          fill="#0CC88F"/>
    <path d="M121.935 166.188C122.505 165.374 122.2 164.211 121.339 163.714C120.746 163.371 120.456 163.535 119.584 163.714C118.377 163.962 117.945 165.507 119.128 166.453C120.009 167.157 121.236 167.186 121.935 166.188Z"
          fill="#AFE3FF"/>
    <mask id="mask0_3901_2691" style="mask-type:alpha" maskUnits="userSpaceOnUse" x="122" y="89" width="18" height="22">
        <path d="M123.22 94.0746L123.444 91.5062L127.522 89.2751L139.677 94.5439L133.248 108.862L125.375 110.114L128.742 104.909L124.833 105.214L122.489 102.421L124.933 100.371L126.33 99.199L125.158 97.8025L126.904 96.3378L123.22 94.0746Z"
              fill="#C4C4C4"/>
    </mask>
    <g mask="url(#mask0_3901_2691)">
        <path d="M118.216 92.7803C125.662 90.0701 133.093 91.7009 134.812 96.4239C135.092 97.1947 135.2 97.9992 135.157 98.8186C134.939 103.024 130.673 107.614 124.441 109.882C118.209 112.151 111.991 111.376 109.12 108.295C108.561 107.695 108.126 107.009 107.846 106.239C106.127 101.516 110.77 95.4904 118.216 92.7803Z"
              fill="#FFFEF4"/>
        <path d="M123.465 107.2C129.696 104.932 134.214 101.034 134.776 97.7707C135.268 98.1876 135.633 98.6805 135.841 99.2521C137.116 102.754 132.112 107.79 124.666 110.501C117.22 113.211 110.15 112.569 108.875 109.067C108.667 108.495 108.63 107.883 108.739 107.247C111.267 109.387 117.233 109.468 123.465 107.2Z"
              fill="#0CC88F"/>
        <path d="M118.216 92.7804C125.662 90.0703 132.733 90.7117 134.007 94.2141C134.215 94.7857 134.253 95.3977 134.144 96.0336C133.582 99.2974 129.064 103.195 122.832 105.463C116.601 107.731 110.635 107.65 108.107 105.51C107.614 105.093 107.249 104.601 107.041 104.029C105.767 100.527 110.77 95.4905 118.216 92.7804Z"
              fill="#0CC88F"/>
    </g>
    <mask id="mask1_3901_2691" style="mask-type:alpha" maskUnits="userSpaceOnUse" x="163" y="148" width="23"
          height="24">
        <path d="M172.62 150.717L174.493 148.573L179.175 149.645L185.262 163.585L170.747 171.627L163.724 166.802L169.81 164.657L166.533 161.976L166.533 157.687H169.81H171.683L171.683 155.543H174.024L172.62 150.717Z"
              fill="#C4C4C4"/>
    </mask>
    <g mask="url(#mask1_3901_2691)">
        <path d="M164.757 149.645C172.203 152.355 176.847 158.381 175.128 163.104C174.847 163.874 174.412 164.56 173.853 165.16C170.983 168.241 164.764 169.015 158.532 166.747C152.301 164.479 148.035 159.889 147.816 155.683C147.774 154.864 147.881 154.059 148.162 153.289C149.881 148.566 157.311 146.935 164.757 149.645Z"
              fill="#FFFEF4"/>
        <path d="M159.509 164.065C165.741 166.333 171.707 166.251 174.235 164.112C174.344 164.748 174.306 165.36 174.098 165.932C172.824 169.434 165.753 170.076 158.307 167.365C150.861 164.655 145.858 159.619 147.132 156.117C147.34 155.545 147.705 155.052 148.198 154.635C148.759 157.899 153.277 161.796 159.509 164.065Z"
              fill="#2757D2"/>
        <path d="M164.757 149.645C172.203 152.355 177.207 157.391 175.932 160.894C175.724 161.465 175.359 161.958 174.867 162.375C172.339 164.514 166.373 164.596 160.141 162.327C153.909 160.059 149.391 156.162 148.83 152.898C148.721 152.262 148.758 151.65 148.966 151.079C150.241 147.576 157.311 146.935 164.757 149.645Z"
              fill="#2757D2"/>
    </g>
    <path d="M115.703 163.706C115.007 162.336 111.962 162.468 111.962 162.468C111.962 162.468 109.42 162.798 109.052 164.038C108.542 165.753 110.694 167.903 112.791 167.176C114.353 166.634 116.555 165.385 115.703 163.706Z"
          fill="#2757D2"/>
</svg>
