<svg width="20" height="19" viewBox="0 0 20 19" fill="none" xmlns="http://www.w3.org/2000/svg">
    <path d="M18.5527 0.99691C18.3119 1.01443 18.0756 1.07091 17.853 1.16416H17.85C17.6362 1.24891 16.62 1.67641 15.075 2.32441L9.53846 4.65616C5.56571 6.32866 1.66046 7.97566 1.66046 7.97566L1.70696 7.95766C1.70696 7.95766 1.43771 8.04616 1.15646 8.23891C0.982707 8.34948 0.833191 8.49414 0.716961 8.66416C0.578961 8.86666 0.467961 9.17641 0.509211 9.49666C0.576711 10.0382 0.927711 10.3629 1.17971 10.5422C1.43471 10.7237 1.67771 10.8084 1.67771 10.8084H1.68371L5.34596 12.0422C5.51021 12.5694 6.46196 15.6984 6.69071 16.4192C6.82571 16.8497 6.95696 17.1189 7.12121 17.3244C7.20071 17.4294 7.29371 17.5172 7.40546 17.5877C7.46356 17.6215 7.5255 17.6481 7.58996 17.6672L7.55246 17.6582C7.56371 17.6612 7.57271 17.6702 7.58096 17.6732C7.61096 17.6814 7.63121 17.6844 7.66946 17.6904C8.24921 17.8659 8.71496 17.5059 8.71496 17.5059L8.74121 17.4849L10.9035 15.5162L14.5275 18.2964L14.61 18.3317C15.3652 18.6632 16.1302 18.4787 16.5345 18.1532C16.9417 17.8254 17.1 17.4062 17.1 17.4062L17.1262 17.3387L19.9267 2.99191C20.0062 2.63791 20.0265 2.30641 19.9387 1.98466C19.8482 1.65903 19.6393 1.37897 19.353 1.19941C19.1125 1.05325 18.8337 0.982697 18.5527 0.99691ZM18.477 2.53441C18.474 2.58166 18.483 2.57641 18.462 2.66716V2.67541L15.6877 16.8729C15.6757 16.8932 15.6555 16.9374 15.6 16.9817C15.5415 17.0282 15.495 17.0574 15.2512 16.9607L10.8187 13.5624L8.14121 16.0029L8.70371 12.4104L15.9457 5.66041C16.2442 5.38291 16.1445 5.32441 16.1445 5.32441C16.1655 4.98391 15.6937 5.22466 15.6937 5.22466L6.56171 10.8819L6.55871 10.8669L2.18171 9.39316V9.39016L2.17046 9.38791C2.17813 9.38536 2.18565 9.38236 2.19296 9.37891L2.21696 9.36691L2.24021 9.35866C2.24021 9.35866 6.14846 7.71166 10.1212 6.03916C12.1102 5.20141 14.1142 4.35766 15.6555 3.70666C17.1967 3.05941 18.336 2.58466 18.4005 2.55916C18.462 2.53516 18.4327 2.53516 18.477 2.53516V2.53441Z"
          fill="white"/>
</svg>
