<svg width="326" height="52" viewBox="0 0 326 52" fill="none" xmlns="http://www.w3.org/2000/svg">
<path d="M11.392 51H24.64L32.064 21.432L39.232 51H52.48L64.192 6.07196H52.416L45.888 38.776L38.208 6.07196H26.176L18.176 38.776L11.712 6.07196H0L11.392 51Z" fill="#2757D2"/>
<path d="M95.7149 3.99985L68.4 7.3537L73.8753 51.9468L101.19 48.593L100.122 39.8903L83.6692 41.9104L82.4681 32.1279L97.0148 30.3418L95.9853 21.9568L81.4385 23.7429L80.331 14.7226L96.7834 12.7025L95.7149 3.99985Z" fill="#2757D2"/>
<path d="M110.593 3.36908L108.242 48.2355L133.487 49.5586L133.929 41.1221L119.613 40.3719L121.522 3.94184L110.593 3.36908Z" fill="#2757D2"/>
<path d="M136.568 28.5871C138.205 41.9269 148.626 50.1261 161.776 48.5115C172.384 47.209 179.662 40.3186 181.018 30.3511L169.076 31.8175C167.701 35.855 164.569 38.1741 160.44 38.6811C153.77 39.5 148.588 35.1068 147.621 27.23C146.653 19.3531 150.619 13.8368 157.289 13.0178C161.418 12.5108 165.018 14.0031 167.328 17.5883L179.271 16.122C175.544 6.77848 166.807 1.79007 156.199 3.09261C143.05 4.70714 134.93 15.2473 136.568 28.5871Z" fill="#2757D2"/>
<path d="M231.48 26.9759C231.48 13.4719 221.304 3.99994 208.504 3.99994C195.768 3.99994 185.4 13.4719 185.4 26.9759C185.4 40.4799 195.768 50.0159 208.504 50.0159C221.24 50.0159 231.48 40.4799 231.48 26.9759ZM196.6 26.9759C196.6 18.9759 201.208 21.4999 208.504 21.4999C215.672 21.4999 220.344 18.9759 220.344 26.9759C220.344 34.8479 215.672 40.0319 208.504 40.0319C201.208 40.0319 196.6 34.8479 196.6 26.9759Z" fill="#0CC88F"/>
<path d="M234.259 47.5656L245.188 48.1384L246.602 21.1674L255.286 48.6676L264.106 49.1298L275.551 22.7486L274.14 49.6557L285.069 50.2284L287.421 5.36201L274.574 4.68876L260.484 35.097L249.521 3.37576L236.611 2.69916L234.259 47.5656Z" fill="#2757D2"/>
<path d="M322.725 3.31063L295.243 4.75092L297.595 49.6173L325.077 48.1771L324.618 39.4211L308.065 40.2886L307.549 30.4461L322.185 29.6791L321.743 21.2426L307.107 22.0097L306.631 12.9341L323.184 12.0666L322.725 3.31063Z" fill="#2757D2"/>
<circle cx="218.452" cy="17.8057" r="3.80577" fill="#3F3D56"/>
<circle cx="200.185" cy="17.8057" r="3.80577" fill="#3F3D56"/>
<path d="M213.903 18.0007L213.926 18.0059L213.949 18.0062C214.182 18.0091 214.596 18.1013 215.125 18.278C215.646 18.4522 216.258 18.7016 216.878 19.0032C218.127 19.6111 219.372 20.4134 219.988 21.2159C221.255 22.8661 223.876 27.0225 221.694 34.4395C221.162 36.2475 219.873 37.6191 218.142 38.6288C216.409 39.6396 214.245 40.2803 211.996 40.6257C209.748 40.971 207.427 41.0197 205.385 40.8537C203.34 40.6874 201.594 40.3069 200.489 39.8047C197.868 38.6132 196.373 37.1241 195.55 35.3744C194.722 33.6168 194.558 31.5703 194.651 29.2385C194.725 27.3627 195.247 25.4392 195.918 23.8159C196.592 22.1883 197.407 20.8856 198.052 20.2405C198.361 19.9323 198.872 19.6333 199.488 19.3576C200.098 19.084 200.792 18.8419 201.448 18.6403C202.104 18.4389 202.718 18.2792 203.169 18.1697C203.394 18.115 203.578 18.0729 203.706 18.0445C203.769 18.0304 203.819 18.0196 203.853 18.0124L203.887 18.0052L203.893 18.0049L203.965 18.002C204.027 17.9994 204.119 17.9956 204.237 17.9909C204.472 17.9816 204.81 17.9687 205.221 17.9544C206.042 17.9257 207.153 17.8914 208.314 17.8684C209.475 17.8455 210.684 17.8341 211.701 17.8512C212.727 17.8685 213.532 17.9149 213.903 18.0007Z" fill="white" stroke="#3F3D56" stroke-width="0.429138"/>
<path d="M217.31 31.5063C218.781 31.5063 219.974 30.484 219.974 29.2229C219.974 27.9617 218.781 26.9394 217.31 26.9394C215.838 26.9394 214.646 27.9617 214.646 29.2229C214.646 30.484 215.838 31.5063 217.31 31.5063Z" fill="#3F3D56"/>
<path d="M201.325 31.5063C202.797 31.5063 203.989 30.484 203.989 29.2229C203.989 27.9617 202.797 26.9394 201.325 26.9394C199.854 26.9394 198.661 27.9617 198.661 29.2229C198.661 30.484 199.854 31.5063 201.325 31.5063Z" fill="#3F3D56"/>
<path d="M201.464 30.8847C202.247 30.8847 202.882 30.2502 202.882 29.4676C202.882 28.6849 202.247 28.0505 201.464 28.0505C200.682 28.0505 200.047 28.6849 200.047 29.4676C200.047 30.2502 200.682 30.8847 201.464 30.8847Z" fill="white"/>
<path d="M209.58 32.26C210.694 32.26 211.597 31.6571 211.597 30.9134C211.597 30.1697 210.694 29.5668 209.58 29.5668C208.466 29.5668 207.563 30.1697 207.563 30.9134C207.563 31.6571 208.466 32.26 209.58 32.26Z" fill="#3F3D56"/>
<path d="M201.586 30.8056C202.006 30.8056 202.347 30.4649 202.347 30.0445C202.347 29.6241 202.006 29.2833 201.586 29.2833C201.165 29.2833 200.824 29.6241 200.824 30.0445C200.824 30.4649 201.165 30.8056 201.586 30.8056Z" fill="#3F3D56"/>
<path d="M217.264 30.7638C218.046 30.7638 218.681 30.1294 218.681 29.3467C218.681 28.5641 218.046 27.9296 217.264 27.9296C216.481 27.9296 215.846 28.5641 215.846 29.3467C215.846 30.1294 216.481 30.7638 217.264 30.7638Z" fill="white"/>
<path d="M217.204 30.6851C217.624 30.6851 217.965 30.3443 217.965 29.9239C217.965 29.5036 217.624 29.1628 217.204 29.1628C216.783 29.1628 216.443 29.5036 216.443 29.9239C216.443 30.3443 216.783 30.6851 217.204 30.6851Z" fill="#3F3D56"/>
</svg>
