<svg width="21" height="20" viewBox="0 0 21 20" fill="none" xmlns="http://www.w3.org/2000/svg">
    <path d="M14.8453 11.9817C14.5983 11.8577 13.3803 11.2577 13.1533 11.1757C12.9263 11.0927 12.7613 11.0517 12.5963 11.2997C12.4313 11.5467 11.9563 12.1057 11.8113 12.2707C11.6673 12.4357 11.5223 12.4557 11.2753 12.3317C10.5454 12.0411 9.87166 11.6255 9.28434 11.1037C8.74266 10.603 8.27827 10.0247 7.90634 9.38766C7.76234 9.13966 7.89134 9.00566 8.01534 8.88266C8.12634 8.77166 8.26334 8.59366 8.38634 8.44866C8.48822 8.32348 8.57172 8.18441 8.63434 8.03566C8.66729 7.9673 8.68263 7.89179 8.67897 7.81599C8.6753 7.74019 8.65274 7.66651 8.61334 7.60166C8.55134 7.47766 8.05634 6.25866 7.85034 5.76266C7.64934 5.28066 7.44534 5.34566 7.29234 5.33766C7.14834 5.33066 6.98334 5.32866 6.81834 5.32866C6.69283 5.33215 6.5694 5.36159 6.45581 5.41511C6.34223 5.46864 6.24095 5.54509 6.15834 5.63966C5.87837 5.90479 5.65668 6.22533 5.50741 6.58087C5.35814 6.9364 5.28456 7.31912 5.29134 7.70466C5.37164 8.63889 5.72302 9.52934 6.30234 10.2667C7.36426 11.8587 8.82197 13.1472 10.5323 14.0057C10.9937 14.2039 11.465 14.3781 11.9443 14.5277C12.4497 14.6811 12.9839 14.7143 13.5043 14.6247C13.849 14.5548 14.1755 14.4143 14.4631 14.2118C14.7507 14.0094 14.9933 13.7496 15.1753 13.4487C15.3378 13.0786 15.3879 12.6689 15.3193 12.2707C15.2583 12.1667 15.0933 12.1057 14.8453 11.9817V11.9817ZM17.3373 2.90266C15.6373 1.20301 13.3775 0.179065 10.9787 0.0214606C8.57996 -0.136144 6.20565 0.583329 4.29783 2.04593C2.39001 3.50854 1.0787 5.6146 0.608037 7.97202C0.137373 10.3294 0.539425 12.7776 1.73934 14.8607L0.333344 19.9956L5.58734 18.6186C7.0405 19.4099 8.66873 19.8245 10.3233 19.8246H10.3273C12.2874 19.8236 14.2033 19.2417 15.8328 18.1524C17.4623 17.063 18.7323 15.5151 19.4825 13.7042C20.2326 11.8934 20.4292 9.90079 20.0474 7.97824C19.6656 6.05569 18.7225 4.28944 17.3373 2.90265V2.90266ZM14.7043 16.8916C13.3925 17.7139 11.8756 18.1502 10.3273 18.1506H10.3233C8.84825 18.1506 7.40033 17.7537 6.13134 17.0016L5.83034 16.8236L2.71234 17.6416L3.54434 14.6016L3.34934 14.2896C2.48389 12.9095 2.04712 11.3037 2.09428 9.67531C2.14144 8.04692 2.67039 6.46909 3.61426 5.14133C4.55814 3.81356 5.87453 2.7955 7.39699 2.21587C8.91945 1.63624 10.5796 1.52108 12.1675 1.88495C13.7554 2.24882 15.1998 3.07538 16.3179 4.2601C17.4361 5.44483 18.1778 6.93452 18.4494 8.54079C18.7209 10.1471 18.51 11.7978 17.8434 13.2842C17.1768 14.7707 16.0844 16.026 14.7043 16.8916"
          fill="white"/>
</svg>
